<?xml version="1.0" encoding="UTF-8" standalone="no"?>
<!-- Created with Inkscape (http://www.inkscape.org/) -->

<svg
   xmlns:dc="http://purl.org/dc/elements/1.1/"
   xmlns:cc="http://creativecommons.org/ns#"
   xmlns:rdf="http://www.w3.org/1999/02/22-rdf-syntax-ns#"
   xmlns:svg="http://www.w3.org/2000/svg"
   xmlns="http://www.w3.org/2000/svg"
   xmlns:sodipodi="http://sodipodi.sourceforge.net/DTD/sodipodi-0.dtd"
   xmlns:inkscape="http://www.inkscape.org/namespaces/inkscape"
   width="80"
   height="75"
   id="svg10388"
   version="1.1"
   inkscape:version="0.48.5 r10040"
   sodipodi:docname="bunny-still2.svg">
  <defs
     id="defs10390" />
  <sodipodi:namedview
     id="base"
     pagecolor="#ffffff"
     bordercolor="#666666"
     borderopacity="1.0"
     inkscape:pageopacity="0.0"
     inkscape:pageshadow="2"
     inkscape:zoom="2.9057669"
     inkscape:cx="41.646161"
     inkscape:cy="-1.4162542"
     inkscape:document-units="px"
     inkscape:current-layer="layer1"
     showgrid="false"
     fit-margin-top="0"
     fit-margin-left="0"
     fit-margin-right="0"
     fit-margin-bottom="0"
     inkscape:window-width="638"
     inkscape:window-height="781"
     inkscape:window-x="0"
     inkscape:window-y="17"
     inkscape:window-maximized="0" />
  <metadata
     id="metadata10393">
    <rdf:RDF>
      <cc:Work
         rdf:about="">
        <dc:format>image/svg+xml</dc:format>
        <dc:type
           rdf:resource="http://purl.org/dc/dcmitype/StillImage" />
        <dc:title />
      </cc:Work>
    </rdf:RDF>
  </metadata>
  <g
     inkscape:label="Layer 1"
     inkscape:groupmode="layer"
     id="layer1"
     transform="translate(-293.88257,-149.22342)">
    <path
       style="fill:#ffffff;fill-opacity:0;fill-rule:nonzero;stroke:#000000;stroke-width:1.67710245;stroke-linecap:butt;stroke-linejoin:miter;stroke-miterlimit:4;stroke-opacity:1;stroke-dasharray:none"
       d="m 324.80698,179.86088 c 0,0 -1.07238,-1.782 -5.2876,-3.15243 -4.5664,-1.48463 -11.45924,0.13148 -14.84461,2.28815 -6.5068,4.14517 -3.26054,7.4194 -4.94464,10.29373 -1.64917,2.81477 -2.76159,4.9684 -2.46602,8.21728 0.22517,2.4749 2.3704,5.72193 5.84135,6.42684 5.91383,1.20105 8.63344,0.75942 12.9264,1.158 3.38677,0.31444 5.65295,-0.13224 7.74775,-1.4539"
       id="path9922-2"
       inkscape:connector-curvature="0"
       sodipodi:nodetypes="cssssssc" />
    <path
       style="fill:#000000;fill-opacity:1;fill-rule:nonzero;stroke:#000000;stroke-width:1.67710245;stroke-linecap:butt;stroke-linejoin:miter;stroke-miterlimit:4;stroke-opacity:1;stroke-dasharray:none"
       d="m 301.10418,185.22463 c 1.02179,1.63721 -1.10099,6.36332 -1.63587,6.23655 -0.94522,-0.22402 -1.69616,-1.04259 -1.09968,-3.66753 0.47179,-2.07622 2.1424,-3.51946 2.73555,-2.56902 z"
       id="path9924-9"
       inkscape:connector-curvature="0"
       sodipodi:nodetypes="ssss" />
    <path
       sodipodi:type="arc"
       style="fill:#ffffff;fill-opacity:1;fill-rule:nonzero;stroke:#ffffff;stroke-width:7.89696932;stroke-linecap:butt;stroke-linejoin:miter;stroke-miterlimit:4;stroke-opacity:1;stroke-dasharray:none"
       id="path9926-9"
       sodipodi:cx="246.53337"
       sodipodi:cy="1104.5435"
       sodipodi:rx="3.8544929"
       sodipodi:ry="4.1628523"
       d="m 250.38786,1104.5435 c 0,2.299 -1.72571,4.1628 -3.85449,4.1628 -2.12878,0 -3.85449,-1.8638 -3.85449,-4.1628 0,-2.2991 1.72571,-4.1629 3.85449,-4.1629 2.12878,0 3.85449,1.8638 3.85449,4.1629 z"
       transform="matrix(0.09548244,0.04031018,-0.07868152,0.1863724,363.76829,-29.08233)"
       inkscape:transform-center-x="1.6179321"
       inkscape:transform-center-y="0.19048828" />
    <path
       sodipodi:type="arc"
       style="fill:#ffffff;fill-opacity:1;fill-rule:nonzero;stroke:#ffffff;stroke-width:16.73293495;stroke-linecap:butt;stroke-linejoin:miter;stroke-miterlimit:4;stroke-opacity:1;stroke-dasharray:none"
       id="path9926-1-0"
       sodipodi:cx="246.53337"
       sodipodi:cy="1104.5435"
       sodipodi:rx="3.8544929"
       sodipodi:ry="4.1628523"
       d="m 250.38786,1104.5435 c 0,2.299 -1.72571,4.1628 -3.85449,4.1628 -2.12878,0 -3.85449,-1.8638 -3.85449,-4.1628 0,-2.2991 1.72571,-4.1629 3.85449,-4.1629 2.12878,0 3.85449,1.8638 3.85449,4.1629 z"
       transform="matrix(0.02482229,0.01620012,-0.01892071,0.07126721,314.88551,106.36032)"
       inkscape:transform-center-x="0.41523252"
       inkscape:transform-center-y="0.048910362" />
    <path
       style="fill:#000000;fill-opacity:1;fill-rule:nonzero;stroke:#000000;stroke-width:1.14347887;stroke-linecap:butt;stroke-linejoin:miter;stroke-miterlimit:4;stroke-opacity:1"
       d="m 318.95125,190.17635 c -0.81873,2.20113 -2.78527,3.48495 -4.39236,2.86758 -1.60711,-0.61741 -2.2462,-2.90221 -1.42747,-5.10325 0.81872,-2.20111 2.78525,-3.48496 4.39236,-2.86758 1.6071,0.6174 2.2462,2.90218 1.42747,5.10325 z"
       id="path9946-5"
       inkscape:connector-curvature="0" />
    <path
       sodipodi:type="arc"
       style="fill:#ffffff;fill-opacity:1;fill-rule:nonzero;stroke:#ffffff;stroke-width:6.14886189;stroke-linecap:butt;stroke-linejoin:miter;stroke-miterlimit:4;stroke-opacity:1;stroke-dasharray:none"
       id="path9949-1"
       sodipodi:cx="217.08504"
       sodipodi:cy="1121.1949"
       sodipodi:rx="5.5504699"
       sodipodi:ry="8.4798841"
       d="m 222.63551,1121.1949 c 0,4.6834 -2.48503,8.4799 -5.55047,8.4799 -3.06544,0 -5.55047,-3.7965 -5.55047,-8.4799 0,-4.6833 2.48503,-8.4798 5.55047,-8.4798 3.06544,0 5.55047,3.7965 5.55047,8.4798 z"
       transform="matrix(0.17349246,0.06389639,-0.06251628,0.17631182,348.19112,-23.827076)" />
    <path
       sodipodi:type="arc"
       style="fill:#ffffff;fill-opacity:1;fill-rule:nonzero;stroke:#ffffff;stroke-width:6.19660568;stroke-linecap:butt;stroke-linejoin:miter;stroke-miterlimit:4;stroke-opacity:1;stroke-dasharray:none"
       id="path9926-1-4-5"
       sodipodi:cx="246.53337"
       sodipodi:cy="1104.5435"
       sodipodi:rx="3.8544929"
       sodipodi:ry="4.1628523"
       d="m 250.38786,1104.5435 c 0,2.299 -1.72571,4.1628 -3.85449,4.1628 -2.12878,0 -3.85449,-1.8638 -3.85449,-4.1628 0,-2.2991 1.72571,-4.1629 3.85449,-4.1629 2.12878,0 3.85449,1.8638 3.85449,4.1629 z"
       transform="matrix(0.09319365,0.00239579,-0.02620759,0.16172393,322.87358,11.111453)"
       inkscape:transform-center-x="1.3725757"
       inkscape:transform-center-y="0.62459995" />
    <path
       style="fill:#ffffff;fill-opacity:1;fill-rule:nonzero;stroke:#4d4d4d;stroke-width:1.14347887;stroke-linecap:round;stroke-linejoin:miter;stroke-miterlimit:4;stroke-opacity:1;stroke-dasharray:none"
       d="m 301.291,203.00338 c -0.56921,1.6055 -0.14663,2.63405 0.75387,3.38459 0.90045,0.002 1.82916,0.28089 3.39522,-0.47579 -0.18501,-1.11363 -0.0152,-1.62523 0.15408,-2.41353 -0.82963,-0.55859 -2.12233,-0.0501 -2.47471,-1.70844 -0.38073,0.59399 -1.12899,1.17866 -1.82846,1.21317 z"
       id="path9973-8"
       inkscape:connector-curvature="0"
       sodipodi:nodetypes="cccccc" />
    <path
       style="fill:#ffffff;fill-opacity:1;fill-rule:nonzero;stroke:#4d4d4d;stroke-width:0.76231927;stroke-linecap:round;stroke-linejoin:miter;stroke-miterlimit:4;stroke-opacity:1;stroke-dasharray:none"
       d="m 302.9868,202.51922 c 0.0175,0.62392 -0.20978,1.53213 0.18713,2.44876"
       id="path9975-0"
       inkscape:connector-curvature="0"
       sodipodi:nodetypes="cc" />
    <path
       style="fill:#ffffff;fill-opacity:0;fill-rule:nonzero;stroke:#000000;stroke-width:1.14347887;stroke-linecap:round;stroke-linejoin:miter;stroke-miterlimit:4;stroke-opacity:1;stroke-dasharray:none"
       d="m 300.05213,202.46049 c 0.58944,1.00219 1.95534,0.52688 3.0192,-0.55267 l -0.0327,-2.60054"
       id="path9969-6"
       inkscape:connector-curvature="0"
       sodipodi:nodetypes="ccc" />
    <path
       style="fill:#ffffff;fill-opacity:1;fill-rule:nonzero;stroke:#000000;stroke-width:1.14347887;stroke-linecap:round;stroke-linejoin:miter;stroke-miterlimit:4;stroke-opacity:1;stroke-dasharray:none"
       d="m 303.1065,201.89933 c 2.8286,4.46736 5.70023,2.79249 7.52317,1.58515"
       id="path9971-6"
       inkscape:connector-curvature="0"
       sodipodi:nodetypes="cc" />
    <path
       style="fill:#ffffff;fill-opacity:1;fill-rule:nonzero;stroke:#000000;stroke-width:1.14347887;stroke-linecap:round;stroke-linejoin:miter;stroke-miterlimit:4;stroke-opacity:1;stroke-dasharray:none"
       d="m 301.01878,197.70994 c 0.38723,0.75831 1.04166,1.10711 1.92298,1.46787 1.05604,-0.16115 2.04435,-0.80116 2.41615,-1.43231"
       id="path9977-1"
       inkscape:connector-curvature="0"
       sodipodi:nodetypes="ccc" />
    <path
       style="fill:#ffffff;fill-opacity:0;fill-rule:nonzero;stroke:#000000;stroke-width:1.67710245;stroke-linecap:round;stroke-linejoin:miter;stroke-miterlimit:4;stroke-opacity:1;stroke-dasharray:none"
       d="m 297.58523,198.09987 c 0,0 -5.33754,13.82468 -0.968,16.76359 4.53735,3.05177 11.9974,-8.51087 11.9974,-8.51087"
       id="path9981-0"
       inkscape:connector-curvature="0"
       sodipodi:nodetypes="csc" />
    <path
       style="fill:#ffffff;fill-opacity:0;fill-rule:nonzero;stroke:#000000;stroke-width:1.67710245;stroke-linecap:round;stroke-linejoin:miter;stroke-miterlimit:4;stroke-opacity:1;stroke-dasharray:none"
       d="m 299.51767,202.17081 c -1.04154,3.56294 -2.78357,6.43842 -1.12566,12.72034"
       id="path9983-3"
       inkscape:connector-curvature="0"
       sodipodi:nodetypes="cc" />
    <path
       style="fill:#ffffff;fill-opacity:0;fill-rule:nonzero;stroke:#000000;stroke-width:1.67710245;stroke-linecap:round;stroke-linejoin:miter;stroke-miterlimit:4;stroke-opacity:1;stroke-dasharray:none"
       d="m 308.23562,204.87925 c 1.34564,1.75122 2.82614,5.41252 7.33828,8.46782 3.9533,2.6769 8.81574,3.09868 13.5612,3.623 6.1316,0.67746 13.38417,1.39609 20.58251,0.13387 -2.97297,0.36811 -6.01713,0.71671 -9.8559,0.84747 -1.36463,0.17672 -3.40569,1.25898 -2.41343,3.22864 0.38967,0.77354 1.06599,1.04028 2.30978,1.63561 1.76696,0.84576 16.63747,0.36535 19.89809,-1.54566 3.15184,-1.27449 3.88324,-9.39308 4.89053,-14.69132 0.002,-0.008 0.005,-0.0154 0.006,-0.0237 0.75537,-2.6934 0.67037,-5.7144 0.37106,-8.48176 -1.0737,-9.9269 -5.337,-16.53023 -13.54586,-20.37615 -2.08925,-0.97887 -4.41285,-1.58939 -6.71859,-1.67114 -0.64562,-0.0229 -1.29629,-0.008 -1.94061,0.0354 -2.79201,0.18906 -5.55863,0.94284 -8.24301,1.73723 -2.02135,0.59815 -6.94781,2.58017 -7.95115,2.67713"
       id="path9985-6"
       inkscape:connector-curvature="0"
       sodipodi:nodetypes="cssccsscccsccscc" />
    <path
       style="fill:#ffffff;fill-opacity:1;fill-rule:nonzero;stroke:#000000;stroke-width:1.67710245;stroke-linecap:round;stroke-linejoin:miter;stroke-miterlimit:4;stroke-opacity:1;stroke-dasharray:none"
       d="m 322.51347,214.16316 c 0,0 0.31491,1.71467 0.3705,2.83103 0.0487,0.97848 0.0607,1.02187 -0.39019,1.95227 -0.53719,1.10825 -2.26392,1.77365 -2.22946,2.94028 0.0102,0.33958 0.41497,0.59926 0.69716,0.85807 0.85731,0.78635 3.83455,1.02726 5.94611,-0.32274 2.10383,-1.34502 1.66551,-3.04764 2.29532,-4.87494 0.34331,-0.99605 0.93682,-3.88758 0.93682,-3.88758"
       id="path9989-9"
       inkscape:connector-curvature="0"
       sodipodi:nodetypes="cssssssc" />
    <path
       style="fill:#ffffff;fill-opacity:0;fill-rule:nonzero;stroke:#000000;stroke-width:1.67710245;stroke-linecap:round;stroke-linejoin:miter;stroke-miterlimit:4;stroke-opacity:1;stroke-dasharray:none"
       d="m 316.54747,213.94727 c 0,0 0.88366,1.37713 0.93925,2.4935 0.0487,0.97849 0.0306,0.78802 -0.42042,1.71844 -0.5372,1.10823 -2.58754,1.77323 -2.57231,2.94027 0.0102,0.76814 0.24353,1.02781 0.52572,1.28663 0.85732,0.78635 3.01843,1.23994 5.13,-0.11006"
       id="path9989-3-3"
       inkscape:connector-curvature="0"
       sodipodi:nodetypes="cssssc" />
    <path
       style="fill:#ffffff;fill-opacity:1;fill-rule:nonzero;stroke:#000000;stroke-width:1.67710245;stroke-linecap:round;stroke-linejoin:miter;stroke-miterlimit:4;stroke-opacity:1;stroke-dasharray:none"
       d="m 358.30639,216.15445 c 0,0 -3.46712,1.49381 -5.30918,1.82159 -1.54434,0.27481 -3.1681,0.41727 -4.7047,0.10199 -1.89239,-0.38829 -3.72243,-1.24957 -5.27647,-2.3971 -1.12703,-0.83223 -2.08906,-1.93113 -2.78753,-3.14559 -1.10724,-1.92521 -2.3227,-4.11863 -2.08794,-6.32708 0.83709,-7.87479 5.48221,-9.47291 8.59251,-10.43365 5.11071,-1.57867 10.55662,0.0404 10.55662,0.0404"
       id="path10011-1"
       inkscape:connector-curvature="0"
       sodipodi:nodetypes="cssssssc" />
    <path
       style="fill:#000000;fill-opacity:0;fill-rule:nonzero;stroke:#000000;stroke-width:1.67710245;stroke-linecap:round;stroke-linejoin:miter;stroke-miterlimit:4;stroke-opacity:1;stroke-dasharray:none"
       d="m 333.54833,217.49817 c -1.09699,0.36964 -2.77965,1.16921 -3.2935,2.13118 -0.29529,0.55279 -0.67492,1.59316 -0.21129,2.1714 0.53662,0.66931 1.80696,0.8157 2.65727,0.9292 2.17598,0.29044 6.26815,-0.006 6.26815,-0.006"
       id="path10014-3"
       inkscape:connector-curvature="0"
       sodipodi:nodetypes="csssc" />
    <path
       style="fill:#000000;fill-opacity:0;fill-rule:nonzero;stroke:#000000;stroke-width:1.67710245;stroke-linecap:round;stroke-linejoin:miter;stroke-miterlimit:4;stroke-opacity:1;stroke-dasharray:none"
       d="m 363.6845,212.17468 c -0.13468,0.35702 5.87209,-2.99628 8.8951,-7.958 1.03025,-1.69102 0.121,-3.85312 -0.85008,-4.20583 -0.97107,-0.35273 -2.61975,1.37662 -2.61975,1.37662 0,0 2.81967,-2.23027 3.12097,-3.59837 0.3013,-1.3681 -0.33201,-2.71589 -1.01962,-3.51083 -0.68762,-0.79494 -1.32319,-1.48852 -2.40893,-1.10369 -1.08574,0.38479 -1.86618,3.80457 -1.86618,3.80457 0,0 0.69407,-2.20876 0.24259,-3.16782 -0.24925,-0.52951 -0.77336,-1.02898 -1.43709,-1.01926 -0.66373,0.0102 -1.3332,0.89532 -1.3332,0.89532"
       id="path10020-4"
       inkscape:connector-curvature="0"
       sodipodi:nodetypes="csscssscssc" />
    <path
       style="fill:#4d4d4d;fill-opacity:1;fill-rule:nonzero;stroke:#000000;stroke-width:0;stroke-linecap:round;stroke-linejoin:miter;stroke-miterlimit:4;stroke-opacity:1;stroke-dasharray:none"
       d="m 342.85645,176.43914 c -0.49034,0.089 -1.09449,-0.0372 -1.50053,0.29707 -0.17304,0.66459 0.0162,1.38499 0.0347,2.06576 0.0876,1.16081 0.66923,2.27022 1.49966,3.07182 1.00653,0.91334 2.46765,0.49884 3.63307,0.21136 0.82594,-0.18307 1.70183,-0.24911 2.53984,-0.23017 1.5235,0.5566 3.08804,1.52503 3.66744,3.10984 0.21399,1.2216 -0.0432,2.47115 0.1357,3.69205 0.28803,1.11134 1.1794,1.95122 2.05723,2.63172 1.34419,1.00337 3.1455,1.49847 4.77079,0.93428 0.95354,-0.29933 1.95416,-0.88607 2.21738,-1.92214 0.12109,-0.59319 0.5265,-1.26518 0.0946,-1.81684 -1.87848,-4.01173 -5.07212,-7.33855 -8.93507,-9.47595 -2.94701,-1.69149 -6.31876,-2.77829 -9.74642,-2.59317 -0.15636,0.003 -0.31227,0.0142 -0.46825,0.0256 z"
       id="path10044-1"
       inkscape:connector-curvature="0" />
    <path
       style="fill:#4d4d4d;fill-opacity:1;fill-rule:nonzero;stroke:#000000;stroke-width:0;stroke-linecap:round;stroke-linejoin:miter;stroke-miterlimit:4;stroke-opacity:1;stroke-dasharray:none"
       d="m 302.64359,181.10553 c -0.89891,0.90574 -1.67124,2.08745 -1.78595,3.36677 1.14118,0.76114 0.95571,2.30973 0.70245,3.46194 -0.36174,1.31529 -0.77685,2.70407 -1.68419,3.73416 -0.3168,0.4384 -0.9216,-0.20742 -1.16479,0.32752 -0.19171,0.3465 -0.60956,0.95698 -0.0123,1.14595 1.12444,0.54717 2.54512,1.38157 3.76134,0.56503 1.37808,-0.9993 2.49147,-2.52082 2.70087,-4.23981 0.24542,-1.59699 -1.61729,-2.80776 -1.01891,-4.41403 0.21183,-0.92419 1.00108,-1.911 0.53874,-2.87214 -0.46882,-0.60721 -1.26375,-0.9619 -1.98499,-1.11212 l -0.0523,0.0366 z"
       id="path10078-3"
       inkscape:connector-curvature="0" />
    <path
       style="fill:#4d4d4d;fill-opacity:1;fill-rule:nonzero;stroke:#000000;stroke-width:0;stroke-linecap:round;stroke-linejoin:miter;stroke-miterlimit:4;stroke-opacity:1;stroke-dasharray:none"
       d="m 313.40772,183.08636 c -1.12334,0.0936 -2.55391,0.68691 -2.61673,1.98193 -0.13416,1.79743 0.0919,3.61545 0.0232,5.40588 -0.33707,1.29198 -1.27324,2.78048 -0.47391,4.08249 1.06543,1.72323 3.40239,2.66201 5.30138,1.78259 1.03786,-0.54143 1.98997,-1.86406 1.45446,-3.04381 -0.50285,-0.40396 -1.15359,0.20522 -1.7243,0.0699 -1.08398,0.004 -2.07887,-0.71067 -2.42542,-1.73539 -1.0454,-2.49802 0.29298,-5.67002 2.75474,-6.74342 0.42245,0.0502 0.79706,-0.44484 0.38983,-0.74627 -0.70486,-0.75647 -1.62058,-1.24487 -2.68324,-1.05386 z"
       id="path10080-2"
       inkscape:connector-curvature="0" />
    <path
       style="fill:#4d4d4d;fill-opacity:1;fill-rule:nonzero;stroke:#000000;stroke-width:0;stroke-linecap:round;stroke-linejoin:miter;stroke-miterlimit:4;stroke-opacity:1;stroke-dasharray:none"
       d="m 314.1007,176.56328 c -1.30622,0.20129 -2.68558,0.25952 -3.92157,0.72788 -0.73389,0.69686 -0.73322,2.07327 -0.0312,2.79715 0.78108,0.37681 1.71389,0.003 2.53154,-0.0408 1.08339,-0.23419 2.53956,-0.15773 3.1977,-1.21891 0.33416,-0.95284 -0.45922,-2.16096 -1.44223,-2.28685 -0.11172,1.2e-4 -0.22354,0.006 -0.33427,0.0216 z"
       id="path10082-8"
       inkscape:connector-curvature="0" />
    <path
       style="fill:#4d4d4d;fill-opacity:1;fill-rule:nonzero;stroke:#000000;stroke-width:0;stroke-linecap:round;stroke-linejoin:miter;stroke-miterlimit:4;stroke-opacity:1;stroke-dasharray:none"
       d="m 300.71913,195.21777 c -0.58367,0.0772 -0.61224,0.72652 -0.78074,1.16055 -0.4096,0.90336 -1.38273,1.39262 -1.86783,2.23272 -0.11987,0.78747 0.54362,1.45175 0.91147,2.09129 0.62855,0.8206 1.37511,1.64223 2.30133,2.102 0.7025,-0.29013 1.63598,-0.7018 1.54856,-1.62238 -0.0408,-0.60811 0.13535,-1.28352 -0.0964,-1.84147 -0.71374,-0.35304 -1.53648,-0.82079 -1.85789,-1.57984 -0.008,-0.26474 0.25405,-0.32439 0.36285,-0.057 0.56615,0.71336 1.55701,1.55091 2.50444,1.00598 0.67622,-0.21241 1.10021,-0.86052 1.71796,-1.12332 0.21445,0.26038 -0.24052,0.6602 -0.432,0.84344 -0.47271,0.43003 -1.09988,0.62569 -1.61317,0.93128 -0.25057,0.80034 -0.23911,1.72604 -0.015,2.53196 0.88905,1.50544 2.48377,3.00496 4.37878,2.63912 1.08193,-0.12268 1.92791,-0.86084 2.91193,-1.2254 0.33994,0.18156 -0.27776,0.53745 -0.30673,0.77906 -0.0171,0.54153 0.78063,0.27918 1.12812,0.37943 1.19415,-0.0173 2.40009,0.23414 3.58485,0.11362 0.78943,-0.40008 1.31527,-1.22005 1.76051,-1.9626 0.44914,-0.66804 -0.0499,-1.43845 -0.64671,-1.80143 -1.14636,-0.94389 -2.69986,-0.81925 -4.05944,-0.5014 -1.14685,0.0919 -2.40911,0.23309 -3.49791,-0.20659 -0.8012,-0.39224 -0.5756,-1.46997 -0.72595,-2.20035 -0.15231,-0.61164 0.087,-1.42487 -0.33932,-1.90171 -0.83891,-0.5544 -2.00578,-1.07908 -2.91318,-0.35588 -0.52067,0.29721 -1.10747,0.61237 -1.68715,0.27237 -0.76166,-0.19922 -1.47611,-0.70558 -2.27115,-0.70352 z"
       id="path10084-1"
       inkscape:connector-curvature="0" />
    <path
       style="fill:#4d4d4d;fill-opacity:1;fill-rule:nonzero;stroke:#000000;stroke-width:0;stroke-linecap:round;stroke-linejoin:miter;stroke-miterlimit:4;stroke-opacity:1;stroke-dasharray:none"
       d="m 318.60081,207.65865 c -0.89983,0.0513 -1.72844,0.8985 -1.74602,1.79238 0.34496,1.48782 1.93649,2.55214 3.43422,2.46675 0.70284,-0.47922 1.5092,-0.75603 2.24856,-1.14875 0.73244,-0.64071 0.22361,-2.02695 -0.6803,-2.23333 -0.92644,-0.11718 -1.60205,-0.92669 -2.57555,-0.88012 -0.22716,-0.0137 -0.4544,-0.0243 -0.68091,0.003 z"
       id="path10086-5"
       inkscape:connector-curvature="0" />
    <path
       style="fill:#4d4d4d;fill-opacity:1;fill-rule:nonzero;stroke:#000000;stroke-width:0;stroke-linecap:round;stroke-linejoin:miter;stroke-miterlimit:4;stroke-opacity:1;stroke-dasharray:none"
       d="m 319.68245,217.34847 c -0.87392,0.17837 -1.68301,1.42899 -0.9731,2.17396 0.52906,0.32084 1.40273,0.0356 1.49737,-0.63019 0.2051,-0.50444 0.20104,-1.50486 -0.52427,-1.54377 z"
       id="path10088-2"
       inkscape:connector-curvature="0" />
    <path
       style="fill:#4d4d4d;fill-opacity:1;fill-rule:nonzero;stroke:#000000;stroke-width:0;stroke-linecap:round;stroke-linejoin:miter;stroke-miterlimit:4;stroke-opacity:1;stroke-dasharray:none"
       d="m 324.76425,217.20819 c -0.60071,0.19167 -1.58628,0.25916 -1.65406,1.05207 -0.12189,0.71873 -0.64688,1.36541 -0.67662,2.07995 0.58365,0.43913 1.42176,0.12404 2.09069,0.0627 0.95265,-0.14794 2.25411,-0.66856 2.16723,-1.83558 -0.118,-0.86705 -1.09675,-1.47176 -1.92724,-1.35918 z"
       id="path10090-2"
       inkscape:connector-curvature="0" />
    <path
       style="fill:#4d4d4d;fill-opacity:1;fill-rule:nonzero;stroke:#000000;stroke-width:0;stroke-linecap:round;stroke-linejoin:miter;stroke-miterlimit:4;stroke-opacity:1;stroke-dasharray:none"
       d="m 333.33417,218.03065 c -0.39502,0.15108 -1.29497,0.29769 -1.05801,0.90769 0.34185,0.78655 0.47315,1.97545 1.41977,2.26118 0.84354,-0.28314 1.54919,-1.57377 0.75739,-2.27746 -0.37217,-0.25284 -0.5951,-0.66964 -0.96318,-0.8897 -0.0515,-0.007 -0.10452,-0.0134 -0.15597,-0.002 z"
       id="path10092-2"
       inkscape:connector-curvature="0" />
    <path
       style="fill:#4d4d4d;fill-opacity:1;fill-rule:nonzero;stroke:#000000;stroke-width:0;stroke-linecap:round;stroke-linejoin:miter;stroke-miterlimit:4;stroke-opacity:1;stroke-dasharray:none"
       d="m 360.15182,218.18461 c -1.94896,0.28526 -3.47531,1.6223 -5.11816,2.59211 -1.40705,0.75072 -3.01197,0.0492 -4.45616,-0.22045 -1.06003,-0.1548 -2.18064,-0.9782 -3.25478,-0.44534 -0.68532,0.3434 -0.50203,1.21999 -0.0938,1.70608 0.29074,0.5381 0.64805,1.11276 1.35409,0.85052 3.40718,-0.19588 6.87849,-0.39882 10.146,-1.41708 1.04426,-0.41942 2.23281,-1.15251 2.46908,-2.32973 0.0185,-0.57479 -0.52526,-0.85099 -1.04631,-0.73611 z"
       id="path10094-7"
       inkscape:connector-curvature="0" />
    <path
       style="fill:#4d4d4d;fill-opacity:1;fill-rule:nonzero;stroke:#000000;stroke-width:0;stroke-linecap:round;stroke-linejoin:miter;stroke-miterlimit:4;stroke-opacity:1;stroke-dasharray:none"
       d="m 349.38193,209.54246 c -0.99418,0.30516 -1.9524,1.01978 -2.3722,1.9924 -0.58833,1.7653 1.03031,3.65632 2.81459,3.72361 1.35281,0.0868 2.74099,-0.32215 3.89941,-1.01133 1.25118,-0.8208 1.5638,-2.56964 1.16262,-3.92592 -0.12534,-0.54254 -0.74818,-0.83593 -1.20824,-0.47319 -1.1478,0.62973 -2.03914,1.74839 -3.31003,2.13141 -0.8571,0.0624 -0.98092,-0.99039 -0.77906,-1.61806 0.10742,-0.26186 0.46446,-0.77692 -0.0415,-0.82791 -0.055,-0.007 -0.11086,0.004 -0.16554,0.009 z"
       id="path10096-3"
       inkscape:connector-curvature="0" />
    <path
       style="fill:#4d4d4d;fill-opacity:1;fill-rule:nonzero;stroke:#000000;stroke-width:0;stroke-linecap:round;stroke-linejoin:miter;stroke-miterlimit:4;stroke-opacity:1;stroke-dasharray:none"
       d="m 359.25372,199.70202 c -1.3192,0.20717 -2.88515,0.82949 -3.29795,2.22902 -0.2245,1.3162 0.58536,2.52473 0.99755,3.72461 0.44933,1.31919 1.45759,2.5479 1.32884,3.98994 -0.10109,0.77877 -0.58781,1.76835 0.16325,2.38338 0.88871,0.83487 2.2355,1.53592 3.4624,1.11324 1.15092,-0.53012 1.46985,-1.84317 1.62641,-2.98627 0.42302,-3.03721 1.41027,-6.04131 1.16504,-9.13657 -0.45813,-0.44823 -1.23971,-0.51954 -1.84128,-0.77429 -1.16498,-0.35599 -2.37712,-0.64988 -3.60426,-0.54306 z"
       id="path10098-6"
       inkscape:connector-curvature="0" />
    <path
       style="fill:#4d4d4d;fill-opacity:1;fill-rule:nonzero;stroke:#000000;stroke-width:0;stroke-linecap:round;stroke-linejoin:miter;stroke-miterlimit:4;stroke-opacity:1;stroke-dasharray:none"
       d="m 347.4646,196.0047 c -2.25929,0.5665 -4.55521,1.51602 -6.16646,3.2555 -0.4447,0.60037 -1.13444,1.16769 -1.23327,1.93736 0.46699,1.84546 1.26328,3.61238 1.8455,5.40942 0.0824,0.45936 0.60102,0.44392 0.85452,0.1366 0.3773,-0.2711 1.02816,-0.76139 0.53929,-1.23893 -0.43557,-0.59886 -1.03327,-1.18745 -0.90434,-1.99075 -0.0151,-0.72157 0.53336,-1.61161 1.35923,-1.36479 0.93978,0.12524 1.75858,0.74674 2.70592,0.78496 1.74583,-0.49411 3.68252,-1.51992 4.17967,-3.4018 0.21813,-1.25613 -0.97528,-2.17442 -1.82607,-2.88661 -0.38836,-0.30344 -0.81223,-0.73421 -1.35399,-0.64096 z"
       id="path10100-6"
       inkscape:connector-curvature="0" />
    <path
       style="fill:#4d4d4d;fill-opacity:1;fill-rule:nonzero;stroke:#000000;stroke-width:0;stroke-linecap:round;stroke-linejoin:miter;stroke-miterlimit:4;stroke-opacity:1;stroke-dasharray:none"
       d="m 348.13153,185.6304 c -1.24407,0.003 -2.34695,0.98255 -2.46839,2.21784 -0.28869,1.76102 1.01903,3.72291 2.88565,3.78413 0.67132,0.0953 1.48957,-0.2888 1.42978,-1.06363 0.12815,-0.89356 -0.53813,-1.87993 -0.0275,-2.69232 0.74217,-0.52625 0.41768,-1.63893 -0.30577,-2.01306 -0.44531,-0.28894 -1.00588,-0.26769 -1.51372,-0.23296 z"
       id="path10102-4"
       inkscape:connector-curvature="0" />
    <path
       style="fill:#4d4d4d;fill-opacity:1;fill-rule:nonzero;stroke:#000000;stroke-width:0;stroke-linecap:round;stroke-linejoin:miter;stroke-miterlimit:4;stroke-opacity:1;stroke-dasharray:none"
       d="m 336.95049,180.02624 c -0.97036,0.14294 -2.02084,0.0351 -2.93548,0.41685 -0.90482,0.68613 -0.66128,2.19694 0.2551,2.76467 1.1023,0.91018 2.65808,1.61187 2.87419,3.19854 0.33508,1.25854 0.12412,2.72262 0.90236,3.8274 1.047,1.27372 3.34284,1.4647 4.44855,0.17872 0.71009,-1.17689 0.10985,-2.63426 -0.41726,-3.76326 -0.53392,-1.42332 -2.36499,-1.53655 -3.13006,-2.7228 -0.26322,-1.02721 -0.15494,-2.15382 -0.57478,-3.16071 -0.10363,-0.47018 -0.47767,-0.9653 -1.03089,-0.76405 -0.13066,0.007 -0.26114,0.0166 -0.39172,0.0247 z"
       id="path10104-6"
       inkscape:connector-curvature="0" />
    <path
       style="fill:#d7d7d7;fill-opacity:1;fill-rule:nonzero;stroke:#000000;stroke-width:0;stroke-linecap:round;stroke-linejoin:miter;stroke-miterlimit:4;stroke-opacity:1;stroke-dasharray:none"
       d="m 333.87954,217.86551 c -0.53811,0.15811 -0.047,0.75339 0.2041,0.95123 0.52977,0.38218 0.70643,1.13824 0.23102,1.63425 -0.17472,0.33105 -0.6717,0.79852 -0.98088,0.34465 -0.57668,-0.64882 -0.65871,-1.57175 -1.09971,-2.28172 -0.76297,0.33108 -1.53136,0.98682 -1.83689,1.80408 -0.22838,0.51946 -0.31286,1.30398 0.37043,1.51825 1.89856,0.73883 4.00772,0.64701 6.01227,0.58493 0.29437,0.008 1.02387,-0.10746 0.73592,-0.55137 -0.5738,-0.47381 -0.7182,-1.35139 -0.64375,-2.05911 0.0554,-0.62516 0.62828,-1.0089 0.86567,-1.53112 -0.43327,-0.37794 -1.18825,-0.17383 -1.75106,-0.29801 -0.70179,-0.0368 -1.40563,-0.11171 -2.10712,-0.11606 z"
       id="path10110-8"
       inkscape:connector-curvature="0" />
    <path
       style="fill:#d7d7d7;fill-opacity:1;fill-rule:nonzero;stroke:#000000;stroke-width:0;stroke-linecap:round;stroke-linejoin:miter;stroke-miterlimit:4;stroke-opacity:1;stroke-dasharray:none"
       d="m 340.86673,176.66584 c -4.37828,0.73422 -8.5863,2.21946 -12.70633,3.81375 -0.29464,0.45284 0.45042,0.80131 0.68701,1.10803 2.48462,2.41078 4.19353,5.49291 5.89362,8.49922 1.73115,3.09302 3.11847,6.37838 4.62284,9.5833 0.38312,0.39686 0.78665,-0.31128 1.03071,-0.55064 2.07567,-2.49635 5.30896,-3.67563 8.42246,-4.20473 2.74277,-0.2849 5.57822,-0.25161 8.24496,0.45381 0.42535,-0.006 0.85206,0.56522 0.35557,0.80749 -0.76174,-0.0196 -1.53079,-0.36691 -2.32226,-0.40643 -2.23998,-0.28478 -4.57543,-0.465 -6.78504,0.0468 -0.49694,0.32743 0.24266,0.80564 0.47706,1.04824 0.81265,0.7171 2.02418,1.65718 1.60342,2.88464 -0.61996,1.65008 -2.37503,2.49112 -3.93859,3.03631 -1.09208,-0.21607 -2.14422,-0.85481 -3.27423,-0.76766 -1.00569,0.36393 -0.98916,1.69961 -0.70537,2.54911 0.18127,0.48209 0.77901,0.88079 0.75701,1.39902 -0.21924,0.43544 -0.63742,0.78365 -1.09984,0.90003 -0.26517,0.44777 0.24377,0.97835 0.24474,1.45051 0.35197,1.51082 0.8308,3.2803 -0.17145,4.64468 -0.21902,0.35952 -0.73034,0.85166 -0.24856,1.22654 2.69008,2.74753 6.70515,4.19941 10.52508,3.45628 2.05113,-0.26203 3.90546,-1.31347 5.86557,-1.8181 0.38714,-0.039 0.38957,0.60959 0.006,0.66719 -2.512,1.1817 -5.21552,2.10842 -8.02428,2.11305 -1.42316,0.11782 -2.76468,-0.39757 -4.136,-0.66247 -2.3045,0.20046 -4.63894,0.18498 -6.92354,0.54415 -0.91506,0.26188 -1.96221,1.10209 -1.57647,2.16944 0.3298,1.05703 1.51749,1.43682 2.42209,1.86094 2.40876,0.40089 4.8847,0.34023 7.31891,0.18556 0.47954,0.0494 0.40204,-0.48599 0.12404,-0.71151 -0.38607,-0.46273 -0.80501,-1.41949 -0.0612,-1.75191 1.09009,-0.36687 2.16742,0.35169 3.25567,0.50809 1.42,0.29267 3.01991,0.93488 4.37427,0.10109 1.78029,-0.89811 3.39388,-2.43932 5.47556,-2.49967 0.26686,0.14249 0.70786,0.6631 0.90748,0.11338 0.70633,-1.88615 1.26913,-3.85236 1.57346,-5.84571 -0.0252,-0.5653 -0.65394,-0.17201 -0.8394,0.0795 -1.24725,0.94414 -3.14971,-0.0234 -3.9146,-1.20389 -0.27053,-1.00982 0.39462,-2.08187 -0.0422,-3.08796 -0.68029,-1.95094 -1.77998,-3.78447 -2.19915,-5.80701 -0.0851,-1.41968 1.3807,-2.2934 2.59742,-2.58742 1.96741,-0.49629 3.92533,0.37679 5.7816,0.95346 0.48259,-0.19154 0.15931,-0.89595 0.20429,-1.2918 -0.281,-3.37358 -0.82643,-6.78793 -2.16796,-9.91558 -0.3233,-0.49665 -0.73711,0.20841 -0.76022,0.53935 -0.59465,1.56321 -2.52005,2.08845 -4.03664,1.91669 -2.05981,-0.22235 -3.82224,-1.70782 -4.70477,-3.52613 -0.093,-1.31125 0.12881,-2.67228 -0.20442,-3.95338 -0.65707,-1.43113 -2.04811,-2.44362 -3.51038,-2.9336 -1.81666,-0.3595 -3.58522,0.61784 -5.38372,0.38368 -1.07936,-0.27564 -1.7585,-1.37147 -2.11366,-2.35883 -0.30343,-1.03505 -0.13561,-2.1659 -0.38686,-3.19463 -0.17703,-0.0765 -0.35465,0.0164 -0.53343,0.0357 z m -3.6601,3.48544 c 0.86427,-0.18809 1.12396,0.88432 1.21554,1.51534 0.26062,1.09591 0.10552,2.59237 1.28832,3.18811 1.03589,0.56736 2.10109,1.27933 2.46973,2.4642 0.42221,0.99566 0.83694,2.43245 -0.12576,3.23941 -1.39668,1.13669 -3.9337,0.44211 -4.27614,-1.43505 -0.42059,-1.54697 -0.2211,-3.46467 -1.56409,-4.59451 -0.76404,-0.73403 -1.78513,-1.25155 -2.40507,-2.10922 -0.27582,-0.66549 -0.23904,-1.68879 0.59194,-1.89238 0.91027,-0.24358 1.86723,-0.27563 2.80553,-0.3759 z m 11.00793,5.66096 c 0.84924,-0.13345 1.98777,0.2949 1.95791,1.29994 -0.11089,0.60515 -0.69718,1.09575 -0.53396,1.77403 -0.0201,0.72564 0.34464,1.55049 0.008,2.21895 -1.13729,0.88127 -2.77332,-0.0258 -3.38562,-1.13435 -0.46342,-0.83601 -0.61388,-1.95158 -0.21392,-2.81773 0.42734,-0.81938 1.23387,-1.34999 2.16698,-1.34084 z m 1.33129,23.90429 c 0.16326,0.19257 -0.15199,0.58119 -0.13358,0.84758 -0.13894,0.65025 0.19636,1.80011 1.05389,1.56247 1.32736,-0.49446 2.28353,-1.64694 3.56332,-2.20951 0.66874,-0.12766 0.783,0.7711 0.8028,1.24404 0.19463,1.39163 -0.58563,2.86713 -1.96173,3.31193 -1.3777,0.64308 -3.14196,0.91776 -4.51761,0.10966 -0.90146,-0.73992 -1.7462,-2.04428 -1.02649,-3.18026 0.45862,-0.82868 1.30517,-1.48698 2.2194,-1.68591 z"
       id="path10112-4"
       inkscape:connector-curvature="0" />
    <path
       style="fill:#f7f7f7;fill-opacity:1;fill-rule:nonzero;stroke:#000000;stroke-width:0;stroke-linecap:round;stroke-linejoin:miter;stroke-miterlimit:4;stroke-opacity:1;stroke-dasharray:none"
       d="m 365.76696,193.24705 c -0.72475,0.13739 -1.23064,0.95278 -0.90138,1.6686 0.75828,3.861 0.90078,7.85191 0.11581,11.71538 -0.16945,1.48965 -0.73753,2.96309 -0.63755,4.45229 0.38661,0.47483 0.963,-0.37756 1.34287,-0.50896 2.65568,-1.90975 5.25347,-4.16831 6.75445,-7.1041 0.36652,-1.05209 0.10038,-2.63669 -1.02961,-3.07806 -0.768,0.11645 -1.36049,0.72931 -1.93247,1.21184 -0.89457,-0.51756 -0.21437,-0.89845 0.30495,-1.36345 0.94952,-1.04598 2.47978,-2.15179 2.02774,-3.77556 -0.29286,-1.24055 -1.13414,-2.52727 -2.36162,-2.9866 -1.0859,0.11891 -1.37021,1.49723 -1.742,2.33719 -0.19731,0.34458 -0.17626,1.33026 -0.80713,1.02137 -0.66942,-0.0392 -0.0169,-0.82499 -0.0895,-1.20753 0.0973,-0.78827 0.1,-2.43661 -1.04457,-2.38241 z"
       id="path10116-1"
       inkscape:connector-curvature="0" />
    <path
       style="fill:#4d4d4d;fill-opacity:1;fill-rule:nonzero;stroke:#2a1431;stroke-width:0;stroke-linecap:round;stroke-linejoin:miter;stroke-miterlimit:4;stroke-opacity:1;stroke-dasharray:none"
       d="m 297.53074,200.79101 c -0.5139,0.17532 -0.45415,0.90392 -0.65488,1.3177 -0.84922,3.07931 -1.62088,6.28168 -1.31172,9.49844 0.14701,1.10493 0.56118,2.41458 1.65109,2.90152 0.58084,0.0135 0.32341,-0.68937 0.2808,-1.03266 -0.39644,-2.37433 -0.51102,-4.84092 0.16164,-7.17356 0.30815,-1.35658 0.86911,-2.66973 1.16565,-4.0266 -0.21874,-0.54115 -0.6243,-1.01572 -1.02985,-1.43374 -0.0821,-0.0478 -0.16858,-0.0692 -0.26273,-0.0511 z"
       id="path10563-8"
       inkscape:connector-curvature="0" />
    <path
       style="fill:#de8787;fill-opacity:1;fill-rule:nonzero;stroke:#2a1431;stroke-width:0;stroke-linecap:round;stroke-linejoin:miter;stroke-miterlimit:4;stroke-opacity:1;stroke-dasharray:none"
       d="m 299.88224,203.27635 c -0.43894,0.5151 -0.48061,1.27362 -0.72814,1.8937 -0.82898,2.44132 -1.10616,5.07874 -0.63361,7.62334 0.16595,0.5697 0.0968,1.27537 0.49832,1.74219 0.53863,0.27535 1.05411,-0.29406 1.5361,-0.46997 2.80399,-1.67324 4.85204,-4.30889 6.78755,-6.87507 0.25379,-0.48672 0.90689,-0.92848 0.7405,-1.53389 -0.37891,-0.70566 -1.32351,-0.45549 -1.97162,-0.64598 -0.56451,-0.0544 -0.45072,0.65566 -0.35436,0.99842 -0.1104,0.27654 -0.67236,0.30019 -0.96328,0.46177 -0.92049,0.31529 -1.9858,0.32033 -2.91904,0.14217 -0.697,-0.55508 -1.13794,-1.39779 -1.0952,-2.29853 0.0306,-0.50755 -0.30281,-1.17134 -0.89722,-1.03816 z"
       id="path10565-0"
       inkscape:connector-curvature="0" />
    <path
       style="fill:#ffffff;fill-opacity:1;fill-rule:nonzero;stroke:#000000;stroke-width:1.67710245;stroke-linecap:round;stroke-linejoin:miter;stroke-miterlimit:4;stroke-opacity:1;stroke-dasharray:none"
       d="m 323.82852,180.16532 c 0.26968,-0.28197 2.12065,-0.63222 4.52538,0.99156 6.2102,4.19334 17.41044,25.45213 16.88146,28.37274 -1.1315,6.24727 -11.47114,5.38416 -14.29993,1.45127 -5.15333,-7.16466 -0.14378,-18.09716 -5.43567,-24.70104 -0.49896,-0.62272 -1.82915,-1.51077 -1.82915,-1.51077"
       id="path9979-9-7"
       inkscape:connector-curvature="0"
       sodipodi:nodetypes="cssssc" />
    <path
       style="fill:#4d4d4d;fill-opacity:1;stroke:#2a1431;stroke-width:0;stroke-linecap:round;stroke-linejoin:miter;stroke-miterlimit:4;stroke-opacity:1;stroke-dasharray:none"
       d="m 321.23928,178.66412 c -0.83714,0.002 -1.67985,0.25846 -2.25856,0.89449 -0.69354,0.58577 -1.01409,1.7189 -0.35375,2.44767 0.75053,0.91447 1.84677,1.62058 2.17779,2.81593 0.6382,1.50588 -0.0332,3.11804 -0.16053,4.67994 -0.0996,1.22073 0.22574,2.66357 1.29624,3.46924 0.91386,0.77495 2.30271,1.3244 3.45278,0.76695 0.52913,-0.35559 1.36271,-2.06614 1.34781,-2.68538 -0.0585,-2.43329 -1.20966,-3.81113 -3.07288,-5.50377 -0.20457,-0.23186 -0.49411,-0.42664 -0.63021,-0.68961 0.11113,-0.38711 0.4711,-0.57142 0.71061,-0.85118 0.10229,-0.48044 -0.0712,-0.98945 7.6e-4,-1.48558 -0.0668,-0.57387 0.23245,-1.25582 -0.0813,-1.76703 -0.30414,-0.2199 -0.51412,-0.62116 -0.25301,-0.96255 0.32204,-0.51873 -0.37846,-0.77274 -0.7037,-1.01568 -0.40486,-0.37527 -0.98757,-0.0927 -1.47202,-0.11344 z"
       id="path11097-2"
       inkscape:connector-curvature="0"
       sodipodi:nodetypes="ccccsccscccccccc" />
    <path
       style="fill:#4d4d4d;fill-opacity:1;fill-rule:nonzero;stroke:#2a1431;stroke-width:0;stroke-linecap:round;stroke-linejoin:miter;stroke-miterlimit:4;stroke-opacity:1;stroke-dasharray:none"
       d="m 30.891509,15.811143 c -0.732552,0.03177 -1.839828,0.237835 -1.771559,1.179429 0.06017,1.025008 -0.151295,2.084949 0.09494,3.085308 0.529299,0.469191 1.203964,0.747417 1.726335,1.251248 1.873964,1.622226 2.685778,4.126024 3.109531,6.500619 0.50838,3.343835 0.336819,6.74604 0.543022,10.115922 0.122962,2.981884 0.670793,6.1035 2.418621,8.585187 1.2897,1.862979 3.549251,2.689444 5.687238,3.099116 2.3762,0.314271 5.035105,0.10803 6.949534,-1.483267 0.880255,-0.819868 1.649982,-1.983992 1.615849,-3.234461 C 50.948785,42.754595 49.938489,40.781197 49.073243,38.805898 46.2293,32.839749 42.956222,27.048154 38.970426,21.770027 c -1.51162,-1.89666 -3.05151,-3.908822 -5.186964,-5.149578 -0.886175,-0.479538 -1.872213,-0.827267 -2.891956,-0.809306 z"
       id="path12325"
       inkscape:connector-curvature="0"
       transform="translate(293.88257,164.22342)" />
    <path
       style="fill:#d7d7d7;fill-opacity:1;fill-rule:nonzero;stroke:#2a1431;stroke-width:0;stroke-linecap:round;stroke-linejoin:miter;stroke-miterlimit:4;stroke-opacity:1;stroke-dasharray:none"
       d="m 21.86043,12.439628 c -0.953665,0.129265 -0.222889,1.121692 -0.215447,1.695951 -0.05156,1.126389 -1.576267,1.017722 -2.35334,1.248486 -0.914074,0.07348 -2.001356,0.4273 -2.861572,0.110485 -0.571619,-0.584444 0.0073,-1.509033 -0.502709,-2.055029 -1.083075,-0.210658 -2.17165,0.548739 -3.165408,0.905981 -1.281983,0.657382 -2.751606,1.293226 -3.5631551,2.524592 0.3208143,0.729216 1.6262111,1.112583 1.2871551,2.115796 -0.275588,1.230413 -1.0583023,2.538849 -0.314883,3.778602 0.62764,1.210719 1.00188,2.726353 0.226495,3.949854 -0.6055008,1.215896 -1.6113889,2.68053 -3.1101651,2.695845 -0.9244419,0.02156 -1.692027,-0.724989 -2.601932,-0.657389 -0.704255,0.667199 -0.5397296,1.869287 -0.8010194,2.756612 -0.095828,0.828047 -0.2498265,2.227583 0.7513009,2.502495 1.1398395,-0.362984 1.5002844,-1.694555 2.154466,-2.546689 1.2910905,-0.127232 2.5435693,1.158562 3.8504176,0.403272 0.896637,-0.618132 2.472753,-0.52706 2.916815,0.569 0.348318,1.166956 -0.07544,2.762155 0.922554,3.640495 2.284007,1.150682 5.025802,-0.521228 7.286514,0.585572 0.672713,0.323746 1.279315,1.152676 0.712631,1.839583 -0.33338,0.516306 -1.24656,1.645814 -0.182301,1.894825 2.417446,0.189305 4.925494,-0.103837 7.093165,-1.226388 0.671159,0.74476 0.193258,1.133667 -0.596368,1.384524 -3.642695,1.469527 -7.703967,0.600576 -11.523884,0.576592 -0.53582,-0.09198 -1.911289,-0.14158 -1.430787,0.740253 2.505909,4.432882 6.714508,8.130395 11.788796,9.153718 0.985281,-0.03542 0.09653,-1.374345 0.955699,-1.51365 0.715996,0.05845 0.587802,1.138083 0.729204,1.640708 0.249786,0.771257 -0.295554,2.520629 0.964992,2.312635 0.729659,-0.167418 1.58832,-0.237358 1.979445,0.543414 0.595543,0.836765 -0.649152,1.630558 -1.364495,1.751194 -1.179878,0.320165 -2.736645,-0.183544 -3.513437,1.077233 -0.895678,0.806091 0.468823,1.874554 1.33135,1.751194 1.814289,0.07959 4.071517,-0.248205 5.104427,-1.916922 0.980585,-2.489601 1.234338,-5.290925 2.292572,-7.706359 0.875947,-0.03775 0.349668,1.108635 0.414321,1.607563 -0.06911,0.747316 -0.604934,2.049554 0.666238,1.887819 4.033955,0.377311 8.124156,0.585432 12.15358,0.531405 0.651478,-0.776308 -0.976752,-1.312369 -1.417721,-1.916516 -0.498214,-0.389638 -0.962556,-1.188049 -1.66833,-0.812068 -3.404932,0.203697 -7.24389,-0.367239 -9.518321,-3.176456 -2.822436,-3.68177 -2.646847,-8.54859 -2.839044,-12.970383 -0.187913,-2.084397 0.06115,-4.275904 -0.54181,-6.292752 -0.773949,-0.813642 -1.40183,0.598137 -1.811961,1.126951 -0.880005,0.921695 -2.448004,0.208343 -3.231699,-0.53033 -1.225621,-1.014024 -1.374497,-2.690252 -1.055136,-4.154252 0.299884,-1.77439 0.491339,-3.858314 -0.911505,-5.23701 -0.528491,-0.838733 -2.043438,-1.620784 -1.430786,-2.789757 0.575795,-1.114435 1.892743,-1.520632 3.056259,-1.519155 0.66888,-0.740079 -0.818192,-0.999261 -1.343735,-1.314797 -1.516,-0.585056 -3.141161,-0.935058 -4.767446,-0.966747 z m -2.154466,6.805903 c 0.992073,-0.07523 1.874787,0.519719 2.513543,1.143524 1.073595,0.06115 2.250145,0.367697 2.811855,1.392116 1.40736,2.257883 0.228784,5.240751 -1.62966,6.844573 -0.670256,0.556897 -0.106896,1.470396 -0.718156,2.071602 -0.798734,1.506834 -2.80459,1.636622 -4.198446,0.98332 -1.141408,-0.69565 -2.491867,-1.986898 -1.806437,-3.436097 1.034195,-2.560772 0.167755,-5.410494 0.823116,-8.015718 0.418884,-0.702656 1.44881,-0.914828 2.204185,-0.98332 z m 5.214912,24.566436 c 1.174726,0.03315 2.352721,0.495908 3.325612,1.121427 0.417601,0.378921 0.620756,1.153178 -0.07182,1.375544 -0.913373,0.48131 -1.851983,1.449532 -2.916815,0.817592 -0.884958,-0.363851 -1.918812,-1.173097 -1.883777,-2.204184 0.315532,-0.55964 0.829542,-1.197797 1.546796,-1.110379 z"
       id="path12329"
       inkscape:connector-curvature="0"
       transform="translate(293.88257,164.22342)" />
    <path
       style="fill:#d7d7d7;fill-opacity:1;fill-rule:nonzero;stroke:#2a1431;stroke-width:0;stroke-linecap:round;stroke-linejoin:miter;stroke-miterlimit:4;stroke-opacity:1;stroke-dasharray:none"
       d="m 24.650187,51.358122 c -0.941806,0.365462 -0.238468,1.663764 -0.806544,2.35334 -0.552678,1.401577 -2.41562,1.947747 -2.668223,3.469243 0.335457,1.283551 2.08485,1.214453 3.132262,1.049611 0.785488,-0.09758 1.620795,-0.508649 1.778816,-1.325825 0.895045,-1.332743 2.579564,-2.353568 2.419631,-4.187398 -0.473193,-0.900048 -1.927814,-0.675172 -2.794825,-1.119593 -0.353341,-0.07149 -0.696172,-0.254808 -1.061117,-0.239378 z m 1.143524,2.187612 c 0.492763,0.148514 0.210784,1.045338 -0.03867,1.358971 -0.50547,0.510397 -1.078988,-0.244839 -0.685009,-0.72368 0.156674,-0.279901 0.409336,-0.546267 0.723679,-0.635291 z"
       id="path12331"
       inkscape:connector-curvature="0"
       transform="translate(293.88257,164.22342)" />
  </g>
</svg>
