<?xml version="1.0" encoding="UTF-8" standalone="no"?>
<!-- Created with Inkscape (http://www.inkscape.org/) -->

<svg
   xmlns:dc="http://purl.org/dc/elements/1.1/"
   xmlns:cc="http://creativecommons.org/ns#"
   xmlns:rdf="http://www.w3.org/1999/02/22-rdf-syntax-ns#"
   xmlns:svg="http://www.w3.org/2000/svg"
   xmlns="http://www.w3.org/2000/svg"
   xmlns:sodipodi="http://sodipodi.sourceforge.net/DTD/sodipodi-0.dtd"
   xmlns:inkscape="http://www.inkscape.org/namespaces/inkscape"
   width="88"
   height="75"
   id="svg10388"
   version="1.1"
   inkscape:version="0.48.5 r10040"
   sodipodi:docname="bunny-jump2.svg"
   inkscape:export-filename="/home/rhiannon/caveexplorer/lua-cave-gen/assets/bunny-jump2.png"
   inkscape:export-xdpi="90"
   inkscape:export-ydpi="90">
  <defs
     id="defs10390" />
  <sodipodi:namedview
     id="base"
     pagecolor="#ffffff"
     bordercolor="#666666"
     borderopacity="1.0"
     inkscape:pageopacity="0.0"
     inkscape:pageshadow="2"
     inkscape:zoom="2.8284271"
     inkscape:cx="106.83487"
     inkscape:cy="28.327068"
     inkscape:document-units="px"
     inkscape:current-layer="layer1"
     showgrid="false"
     fit-margin-top="0"
     fit-margin-left="0"
     fit-margin-right="0"
     fit-margin-bottom="0"
     inkscape:window-width="1278"
     inkscape:window-height="781"
     inkscape:window-x="0"
     inkscape:window-y="17"
     inkscape:window-maximized="0"
     showguides="true"
     inkscape:guide-bbox="true">
    <sodipodi:guide
       orientation="1,0"
       position="-9,3.625"
       id="guide12968" />
  </sodipodi:namedview>
  <metadata
     id="metadata10393">
    <rdf:RDF>
      <cc:Work
         rdf:about="">
        <dc:format>image/svg+xml</dc:format>
        <dc:type
           rdf:resource="http://purl.org/dc/dcmitype/StillImage" />
        <dc:title></dc:title>
      </cc:Work>
    </rdf:RDF>
  </metadata>
  <g
     inkscape:label="Layer 1"
     inkscape:groupmode="layer"
     id="layer1"
     transform="translate(-293.88257,-149.22342)">
    <path
       style="fill:#ffffff;fill-opacity:0;fill-rule:nonzero;stroke:#000000;stroke-width:1.70477462;stroke-linecap:butt;stroke-linejoin:miter;stroke-miterlimit:4;stroke-opacity:1;stroke-dasharray:none"
       d="m 338.33503,167.14596 c 0,0 -0.55529,-2.0416 -4.29417,-4.54548 -4.05038,-2.71249 -11.22967,-3.02738 -15.13227,-1.84622 -7.50081,2.2699 -5.23428,6.37249 -7.67325,8.72531 -2.38842,2.30406 -4.0699,4.10808 -4.67859,7.37318 -0.46367,2.48723 0.73489,6.25994 3.93061,7.90665 5.44488,2.80572 8.22339,3.12198 12.30666,4.6949 3.22135,1.2409 5.55833,1.42732 7.9696,0.70919"
       id="path9922-1-4"
       inkscape:connector-curvature="0"
       sodipodi:nodetypes="cssssssc" />
    <path
       style="fill:#000000;fill-opacity:1;fill-rule:nonzero;stroke:#000000;stroke-width:1.70477462;stroke-linecap:butt;stroke-linejoin:miter;stroke-miterlimit:4;stroke-opacity:1;stroke-dasharray:none"
       d="m 313.70055,165.87391 c 0.54584,1.88577 -2.83314,5.93237 -3.32059,5.66082 -0.86143,-0.47985 -1.36883,-1.48882 -0.0611,-3.89679 1.03434,-1.9046 3.06483,-2.85877 3.38171,-1.76403 z"
       id="path9924-5-2"
       inkscape:connector-curvature="0"
       sodipodi:nodetypes="ssss" />
    <path
       sodipodi:type="arc"
       style="fill:#ffffff;fill-opacity:1;fill-rule:nonzero;stroke:#ffffff;stroke-width:7.89696932;stroke-linecap:butt;stroke-linejoin:miter;stroke-miterlimit:4;stroke-opacity:1;stroke-dasharray:none"
       id="path9926-2-1"
       sodipodi:cx="246.53337"
       sodipodi:cy="1104.5435"
       sodipodi:rx="3.8544929"
       sodipodi:ry="4.1628523"
       d="m 250.38786,1104.5435 a 3.8544929,4.1628523 0 1 1 -7.70898,0 3.8544929,4.1628523 0 1 1 7.70898,0 z"
       transform="matrix(0.08213288,0.06579859,-0.128336,0.16096169,434.10679,-26.873156)"
       inkscape:transform-center-x="4.2447684"
       inkscape:transform-center-y="0.4997621" />
    <path
       sodipodi:type="arc"
       style="fill:#ffffff;fill-opacity:1;fill-rule:nonzero;stroke:#ffffff;stroke-width:16.73293495;stroke-linecap:butt;stroke-linejoin:miter;stroke-miterlimit:4;stroke-opacity:1;stroke-dasharray:none"
       id="path9926-1-7-1"
       sodipodi:cx="246.53337"
       sodipodi:cy="1104.5435"
       sodipodi:rx="3.8544929"
       sodipodi:ry="4.1628523"
       d="m 250.38786,1104.5435 a 3.8544929,4.1628523 0 1 1 -7.70898,0 3.8544929,4.1628523 0 1 1 7.70898,0 z"
       transform="matrix(0.01977164,0.02271145,-0.0381672,0.06462579,348.94606,92.388017)"
       inkscape:transform-center-x="1.0893764"
       inkscape:transform-center-y="0.12830452" />
    <path
       style="fill:#000000;fill-opacity:1;fill-rule:nonzero;stroke:#000000;stroke-width:1.16234636;stroke-linecap:butt;stroke-linejoin:miter;stroke-miterlimit:4;stroke-opacity:1"
       d="m 329.76582,175.64162 c -1.40774,1.93145 -3.68328,2.6479 -5.08256,1.6003 -1.39927,-1.04764 -1.39245,-3.46261 0.0153,-5.39398 1.40771,-1.93143 3.68324,-2.64791 5.08254,-1.6003 1.39929,1.04764 1.39246,3.46259 -0.0152,5.39398 z"
       id="path9946-1-9"
       inkscape:connector-curvature="0" />
    <path
       sodipodi:type="arc"
       style="fill:#ffffff;fill-opacity:1;fill-rule:nonzero;stroke:#ffffff;stroke-width:6.14886189;stroke-linecap:butt;stroke-linejoin:miter;stroke-miterlimit:4;stroke-opacity:1;stroke-dasharray:none"
       id="path9949-4-8"
       sodipodi:cx="217.08504"
       sodipodi:cy="1121.1949"
       sodipodi:rx="5.5504699"
       sodipodi:ry="8.4798841"
       d="m 222.63551,1121.1949 a 5.5504699,8.4798841 0 1 1 -11.10094,0 5.5504699,8.4798841 0 1 1 11.10094,0 z"
       transform="matrix(0.15181817,0.1103967,-0.10976684,0.15555519,417.43939,-26.013589)" />
    <path
       sodipodi:type="arc"
       style="fill:#ffffff;fill-opacity:1;fill-rule:nonzero;stroke:#ffffff;stroke-width:6.19660568;stroke-linecap:butt;stroke-linejoin:miter;stroke-miterlimit:4;stroke-opacity:1;stroke-dasharray:none"
       id="path9926-1-4-2-7"
       sodipodi:cx="246.53337"
       sodipodi:cy="1104.5435"
       sodipodi:rx="3.8544929"
       sodipodi:ry="4.1628523"
       d="m 250.38786,1104.5435 a 3.8544929,4.1628523 0 1 1 -7.70898,0 3.8544929,4.1628523 0 1 1 7.70898,0 z"
       transform="matrix(0.0903699,0.02801479,-0.070271,0.15126011,383.05847,1.2508526)"
       inkscape:transform-center-x="3.6010486"
       inkscape:transform-center-y="1.6386612" />
    <path
       style="fill:#ffffff;fill-opacity:1;fill-rule:nonzero;stroke:#4d4d4d;stroke-width:1.16234636;stroke-linecap:round;stroke-linejoin:miter;stroke-miterlimit:4;stroke-opacity:1;stroke-dasharray:none"
       d="m 308.97218,183.34728 c -0.99948,1.41651 -0.87081,2.5408 -0.19851,3.52429 0.87894,0.25017 1.70914,0.77905 3.44786,0.46886 0.12688,-1.14225 0.43417,-1.59676 0.81719,-2.32265 -0.6561,-0.77587 -2.05927,-0.63361 -1.94541,-2.35572 -0.53596,0.4772 -1.42835,0.84405 -2.12113,0.68522 z"
       id="path9973-5-7"
       inkscape:connector-curvature="0"
       sodipodi:nodetypes="cccccc" />
    <path
       style="fill:#ffffff;fill-opacity:1;fill-rule:nonzero;stroke:#4d4d4d;stroke-width:0.77489758;stroke-linecap:round;stroke-linejoin:miter;stroke-miterlimit:4;stroke-opacity:1;stroke-dasharray:none"
       d="m 310.76237,183.3399 c -0.15518,0.61623 -0.62811,1.44358 -0.49361,2.45114"
       id="path9975-2-8"
       inkscape:connector-curvature="0"
       sodipodi:nodetypes="cc" />
    <path
       style="fill:#ffffff;fill-opacity:0;fill-rule:nonzero;stroke:#000000;stroke-width:1.16234636;stroke-linecap:round;stroke-linejoin:miter;stroke-miterlimit:4;stroke-opacity:1;stroke-dasharray:none"
       d="m 307.912,182.4741 c 0.29893,1.14441 1.76445,1.05482 3.10182,0.28997 l 0.68664,-2.55727"
       id="path9969-4-7"
       inkscape:connector-curvature="0"
       sodipodi:nodetypes="ccc" />
    <path
       style="fill:#ffffff;fill-opacity:1;fill-rule:nonzero;stroke:#000000;stroke-width:1.16234636;stroke-linecap:round;stroke-linejoin:miter;stroke-miterlimit:4;stroke-opacity:1;stroke-dasharray:none"
       d="m 311.05052,182.76542 c 1.52901,5.15674 4.79665,4.30639 6.91079,3.62533"
       id="path9971-3-6"
       inkscape:connector-curvature="0"
       sodipodi:nodetypes="cc" />
    <path
       style="fill:#ffffff;fill-opacity:1;fill-rule:nonzero;stroke:#000000;stroke-width:1.16234636;stroke-linecap:round;stroke-linejoin:miter;stroke-miterlimit:4;stroke-opacity:1;stroke-dasharray:none"
       d="m 310.16842,178.08511 c 0.16878,0.84974 0.71169,1.37178 1.47292,1.96804 1.07604,0.13295 2.21821,-0.22204 2.75574,-0.73813"
       id="path9977-6-2"
       inkscape:connector-curvature="0"
       sodipodi:nodetypes="ccc" />
    <path
       style="fill:#ffffff;fill-opacity:0;fill-rule:nonzero;stroke:#000000;stroke-width:1.70477462;stroke-linecap:round;stroke-linejoin:miter;stroke-miterlimit:4;stroke-opacity:1;stroke-dasharray:none"
       d="m 306.57014,177.77454 c 0,0 -11.29661,8.03721 -9.18222,12.94885 2.19556,5.10022 18.24145,-2.33754 18.24145,-2.33754"
       id="path9981-8-5"
       inkscape:connector-curvature="0"
       sodipodi:nodetypes="csc" />
    <path
       style="fill:#ffffff;fill-opacity:0;fill-rule:nonzero;stroke:#000000;stroke-width:1.70477462;stroke-linecap:round;stroke-linejoin:miter;stroke-miterlimit:4;stroke-opacity:1;stroke-dasharray:none"
       d="m 307.46996,182.04302 c -0.72825,-0.79788 -5.86671,2.75453 -8.49424,9.22454"
       id="path9983-5-0"
       inkscape:connector-curvature="0"
       sodipodi:nodetypes="cc" />
    <path
       style="fill:#ffffff;fill-opacity:0;fill-rule:nonzero;stroke:#000000;stroke-width:1.70477462;stroke-linecap:round;stroke-linejoin:miter;stroke-miterlimit:4;stroke-opacity:1;stroke-dasharray:none"
       d="m 315.23753,187.09818 c 0.8307,2.08668 1.26553,6.08225 4.82906,10.31894 3.12218,3.71199 7.75531,5.46449 12.24587,7.28528 5.80221,2.35261 12.68803,5.05427 20.06802,5.79995 2.18857,0.28393 -4.5228,4.42495 -9.89084,4.99271 -1.38882,0.14689 -3.92068,0.87015 -3.49551,3.07358 0.16697,0.86534 0.83101,1.23225 1.80442,2.23893 2.8668,2.96479 16.28311,-1.81282 19.89293,-2.9111 3.43075,-0.38085 6.63394,-8.7095 9.08133,-13.62396 0.004,-0.008 0.009,-0.0139 0.013,-0.0215 1.4818,-2.4313 2.23325,-5.41508 2.70527,-8.20934 1.69321,-10.02336 -0.64721,-17.66836 -7.60331,-23.69795 -1.7704,-1.53463 -3.87145,-2.77285 -6.10112,-3.48802 -0.62433,-0.20024 -1.26396,-0.36504 -1.90537,-0.49977 -2.77947,-0.58371 -5.6901,-0.60704 -8.53165,-0.56791 -2.13967,0.0294 -7.49931,0.61484 -8.50616,0.43352"
       id="path9985-3-2"
       inkscape:connector-curvature="0"
       sodipodi:nodetypes="csscssscccsccscc" />
    <path
       style="fill:#ffffff;fill-opacity:1;fill-rule:nonzero;stroke:#000000;stroke-width:1.70477462;stroke-linecap:round;stroke-linejoin:miter;stroke-miterlimit:4;stroke-opacity:1;stroke-dasharray:none"
       d="m 326.61974,200.12811 c 0,0 -0.16606,1.76698 -0.42007,2.87626 -0.22269,0.97226 -1.24351,1.41831 -1.94103,2.20584 -0.83087,0.93805 -2.42681,1.33638 -2.71538,2.48908 -0.0841,0.33548 0.2398,0.70152 0.44396,1.03286 0.62023,1.00669 3.46184,2.06274 5.89733,1.32139 2.42654,-0.7386 3.2148,-3.14982 4.33473,-4.76698 0.61049,-0.88152 1.98892,-3.55156 1.98892,-3.55156"
       id="path9989-2-5"
       inkscape:connector-curvature="0"
       sodipodi:nodetypes="cssssssc" />
    <path
       style="fill:#ffffff;fill-opacity:0;fill-rule:nonzero;stroke:#000000;stroke-width:1.70477462;stroke-linecap:round;stroke-linejoin:miter;stroke-miterlimit:4;stroke-opacity:1;stroke-dasharray:none"
       d="m 320.85179,198.27341 c 0,0 0.39024,1.20857 0.13619,2.31785 -0.2227,0.97226 -0.75967,1.4105 -1.45724,2.19801 -0.83086,0.93805 -3.01749,0.90938 -3.30608,2.06209 -0.0841,0.33549 0.23981,0.70153 0.44396,1.03286 0.62023,1.00669 1.91245,1.94151 4.34793,1.20015"
       id="path9989-3-1-0"
       inkscape:connector-curvature="0"
       sodipodi:nodetypes="cssssc" />
    <path
       style="fill:#ffffff;fill-opacity:1;fill-rule:nonzero;stroke:#000000;stroke-width:1.70477462;stroke-linecap:round;stroke-linejoin:miter;stroke-miterlimit:4;stroke-opacity:1;stroke-dasharray:none"
       d="m 361.03228,211.9374 c 0,0 -3.7993,0.50891 -5.68917,0.32279 -1.58442,-0.15604 -3.20987,-0.46366 -4.62371,-1.19582 -1.74125,-0.90169 -3.29093,-2.2497 -4.49195,-3.80222 -0.871,-1.12593 -1.50717,-2.46773 -1.85398,-3.85018 -0.54978,-2.19152 -1.13116,-4.67568 -0.29184,-6.77515 2.99285,-7.48619 7.97164,-7.7729 11.27516,-7.85773 5.4282,-0.1394 10.30055,2.94707 10.30055,2.94707"
       id="path10011-1-7"
       inkscape:connector-curvature="0"
       sodipodi:nodetypes="cssssssc" />
    <path
       style="fill:#000000;fill-opacity:0;fill-rule:nonzero;stroke:#000000;stroke-width:1.70477462;stroke-linecap:round;stroke-linejoin:miter;stroke-miterlimit:4;stroke-opacity:1;stroke-dasharray:none"
       d="m 345.38767,209.33166 c 0.23644,1.02443 -2.01718,1.41491 -4.82682,2.24478 -1.70603,0.5039 -3.45486,0.77654 -6.1258,1.9479 -1.6344,0.71678 -1.8846,2.77498 -1.59146,3.46931 0.3393,0.80365 1.53973,1.29698 2.33897,1.64238 2.04527,0.88393 3.83516,0.18555 3.83516,0.18555"
       id="path10014-9-0"
       inkscape:connector-curvature="0"
       sodipodi:nodetypes="cssssc" />
    <path
       style="fill:#000000;fill-opacity:0;fill-rule:nonzero;stroke:#000000;stroke-width:1.70477462;stroke-linecap:round;stroke-linejoin:miter;stroke-miterlimit:4;stroke-opacity:1;stroke-dasharray:none"
       d="m 367.38493,209.51873 c -0.23018,0.31277 5.98318,-1.0868 10.30657,-5.11634 1.47345,-1.37335 1.76283,-3.97455 0.9117,-4.58764 -0.8511,-0.61309 -2.93923,0.62748 -2.93923,0.62748 0,0 3.3703,-1.40893 4.04252,-2.66659 0.6722,-1.25766 0.42587,-2.75282 -0.0262,-3.72119 -0.45209,-0.96836 -0.88134,-1.82306 -2.04818,-1.745 -1.16686,0.078 -2.87379,3.21425 -2.87379,3.21425 0,0 1.28807,-1.97328 1.11199,-3.03743 -0.0972,-0.58754 -0.47121,-1.22133 -1.12222,-1.39461 -0.65103,-0.17326 -1.54957,0.51016 -1.54957,0.51016"
       id="path10020-6-2"
       inkscape:connector-curvature="0"
       sodipodi:nodetypes="csscssscssc" />
    <path
       style="fill:#000000;fill-opacity:0;fill-rule:nonzero;stroke:#502d16;stroke-width:0;stroke-linecap:round;stroke-linejoin:miter;stroke-miterlimit:4;stroke-opacity:1;stroke-dasharray:none"
       d="m 336.47145,165.39991 c -0.37685,0.91748 -0.72863,1.9256 -0.66701,2.9253 0.82081,0.84902 2.45182,0.64155 3.01747,1.81281 0.30886,0.66193 0.52111,1.82604 -0.35269,2.18382 -0.48975,0.29229 -1.0477,0.0604 -1.55301,0.11446 -0.18963,0.46222 0.32715,0.92987 0.36768,1.39881 1.02825,3.66516 -0.14535,7.46045 -1.37604,10.92767 -1.24015,3.71318 -2.94044,7.41382 -2.99004,11.3933 -0.01,1.81579 0.34447,3.7251 1.61575,5.09596 1.96948,2.23118 4.89901,3.81271 7.92796,3.68975 1.65816,-0.0889 3.46961,-0.97838 4.04528,-2.62724 0.46052,-3.30408 0.0677,-6.65366 -0.21635,-9.95857 -0.72604,-6.37709 -1.68333,-12.79572 -3.83721,-18.85904 -0.79005,-2.08353 -1.81657,-4.38146 -3.89771,-5.43432 -0.50425,-0.27183 -1.30173,-0.14737 -1.64261,-0.64694 -0.16525,-0.43393 0.40767,-0.54801 0.53349,-0.84065 -0.16488,-0.46947 -0.60079,-0.84473 -0.9143,-1.21096 l -0.0608,0.0358 z"
       id="path10024-4-6"
       inkscape:connector-curvature="0" />
    <path
       style="fill:#4d4d4d;fill-opacity:1;fill-rule:nonzero;stroke:#000000;stroke-width:0;stroke-linecap:round;stroke-linejoin:miter;stroke-miterlimit:4;stroke-opacity:1;stroke-dasharray:none"
       d="m 356.91093,168.76401 c -0.50351,-0.0482 -1.05881,-0.33796 -1.54778,-0.12219 -0.35259,0.60362 -0.36676,1.36165 -0.53676,2.03385 -0.23506,1.16165 0.0266,2.40898 0.61637,3.42321 0.7309,1.17223 2.27261,1.16845 3.4904,1.20773 0.85735,0.0481 1.73115,0.22461 2.5445,0.47396 1.33441,0.96502 2.59515,2.34492 2.72336,4.05749 -0.1284,1.25604 -0.72476,2.40967 -0.88728,3.65533 -0.0256,1.16835 0.61307,2.23688 1.28258,3.1455 1.03585,1.35345 2.65862,2.33472 4.40205,2.22948 1.01409,-0.0307 2.15357,-0.33009 2.69686,-1.27286 0.28213,-0.54794 0.86375,-1.09478 0.59421,-1.75434 -0.72679,-4.44857 -2.9274,-8.5882 -6.11034,-11.74664 -2.41144,-2.4692 -5.40476,-4.46281 -8.80405,-5.22545 -0.15377,-0.0394 -0.30896,-0.072 -0.46443,-0.10393 z"
       id="path10044-6-0"
       inkscape:connector-curvature="0" />
    <path
       style="fill:#4d4d4d;fill-opacity:1;fill-rule:nonzero;stroke:#000000;stroke-width:0;stroke-linecap:round;stroke-linejoin:miter;stroke-miterlimit:4;stroke-opacity:1;stroke-dasharray:none"
       d="m 316.34201,162.26145 c -1.12823,0.63998 -2.20907,1.58528 -2.67449,2.80732 0.90446,1.06016 0.29556,2.52659 -0.27013,3.58593 -0.71668,1.18925 -1.50577,2.43582 -2.67658,3.19536 -0.43054,0.34234 -0.84292,-0.45709 -1.22823,1.4e-4 -0.28298,0.28675 -0.85976,0.76988 -0.32864,1.11954 0.94721,0.84588 2.10447,2.05481 3.51801,1.58962 1.62215,-0.5997 3.12998,-1.78404 3.80933,-3.41084 0.68086,-1.49737 -0.80421,-3.19685 0.22398,-4.60607 0.46219,-0.8473 1.50571,-1.59693 1.31958,-2.66613 -0.29022,-0.72414 -0.96873,-1.29064 -1.63176,-1.6365 l -0.0612,0.0217 z"
       id="path10078-8-2"
       inkscape:connector-curvature="0" />
    <path
       style="fill:#4d4d4d;fill-opacity:1;fill-rule:nonzero;stroke:#000000;stroke-width:0;stroke-linecap:round;stroke-linejoin:miter;stroke-miterlimit:4;stroke-opacity:1;stroke-dasharray:none"
       d="m 326.30928,167.16715 c -1.12311,-0.21776 -2.68441,-0.0303 -3.10347,1.22145 -0.62753,1.72443 -0.90886,3.56822 -1.47052,5.30379 -0.68612,1.1732 -2.01173,2.37401 -1.59059,3.87003 0.56472,1.98209 2.58816,3.54568 4.68601,3.2069 1.16334,-0.24471 2.45872,-1.27858 2.2615,-2.58214 -0.37963,-0.53434 -1.18352,-0.11657 -1.70363,-0.4063 -1.05991,-0.29477 -1.83436,-1.26897 -1.88983,-2.36856 -0.33114,-2.73581 1.85237,-5.47554 4.5535,-5.84937 0.3988,0.1655 0.90146,-0.21639 0.58693,-0.62393 -0.47955,-0.93543 -1.23912,-1.66623 -2.32989,-1.77174 z"
       id="path10080-0-4"
       inkscape:connector-curvature="0" />
    <path
       style="fill:#4d4d4d;fill-opacity:1;fill-rule:nonzero;stroke:#000000;stroke-width:0;stroke-linecap:round;stroke-linejoin:miter;stroke-miterlimit:4;stroke-opacity:1;stroke-dasharray:none"
       d="m 328.788,160.96585 c -1.33153,-0.16247 -2.69498,-0.48535 -4.03165,-0.36684 -0.90936,0.48074 -1.28889,1.82973 -0.80309,2.73242 0.65888,0.58438 1.6732,0.47536 2.48408,0.65729 1.12293,0.0689 2.52421,0.54486 3.4602,-0.31376 0.5896,-0.84169 0.14833,-2.24407 -0.77709,-2.63817 -0.10923,-0.0304 -0.22016,-0.0552 -0.33248,-0.0709 z"
       id="path10082-0-5"
       inkscape:connector-curvature="0" />
    <path
       style="fill:#4d4d4d;fill-opacity:1;fill-rule:nonzero;stroke:#000000;stroke-width:0;stroke-linecap:round;stroke-linejoin:miter;stroke-miterlimit:4;stroke-opacity:1;stroke-dasharray:none"
       d="m 310.5641,175.56043 c -0.59143,-0.0851 -0.79869,0.54332 -1.08319,0.92223 -0.64962,0.77242 -1.73532,0.98385 -2.4412,1.67347 -0.33462,0.73865 0.13,1.57234 0.31266,2.30036 0.3873,0.97725 0.88958,1.98799 1.66733,2.69364 0.76635,-0.0908 1.79187,-0.23714 1.96076,-1.16333 0.1281,-0.60714 0.48674,-1.22046 0.41442,-1.83107 -0.59966,-0.54254 -1.27409,-1.22749 -1.3784,-2.05983 0.0653,-0.26164 0.33777,-0.24791 0.37018,0.0441 0.35598,0.85498 1.0925,1.94862 2.16846,1.67557 0.7192,-0.0219 1.31238,-0.54023 1.98839,-0.62763 0.13756,0.31422 -0.41731,0.58072 -0.65495,0.70755 -0.58052,0.2912 -1.24719,0.31019 -1.83299,0.46829 -0.46581,0.71525 -0.71031,1.62553 -0.71409,2.47699 0.45258,1.72009 1.59612,3.62871 3.54823,3.79214 1.09071,0.17777 2.12095,-0.31259 3.18285,-0.39882 0.2819,0.27154 -0.41979,0.45016 -0.51481,0.67896 -0.16629,0.52594 0.68539,0.48857 0.99713,0.68252 1.17113,0.31229 2.27974,0.89045 3.4703,1.09865 0.88163,-0.17462 1.62178,-0.83331 2.26178,-1.43834 0.62325,-0.53091 0.34862,-1.42331 -0.1341,-1.94337 -0.85906,-1.24068 -2.41093,-1.54639 -3.82678,-1.6094 -1.14562,-0.22578 -2.4176,-0.43508 -3.35969,-1.16582 -0.67428,-0.60502 -0.15623,-1.59899 -0.10134,-2.35613 0.0202,-0.6413 0.47857,-1.3723 0.19389,-1.95698 -0.66632,-0.77432 -1.66118,-1.60984 -2.7473,-1.15107 -0.59069,0.14785 -1.25093,0.29505 -1.72325,-0.19775 -0.68896,-0.40499 -1.24696,-1.09797 -2.02414,-1.3149 z"
       id="path10084-9-7"
       inkscape:connector-curvature="0" />
    <path
       style="fill:#4d4d4d;fill-opacity:1;fill-rule:nonzero;stroke:#000000;stroke-width:0;stroke-linecap:round;stroke-linejoin:miter;stroke-miterlimit:4;stroke-opacity:1;stroke-dasharray:none"
       d="m 324.59453,192.67653 c -0.89312,-0.19755 -1.93651,0.40442 -2.2006,1.27553 -0.074,1.55297 1.1866,3.03426 2.67318,3.36309 0.8189,-0.27603 1.68303,-0.32521 2.51371,-0.50641 0.89243,-0.42613 0.7783,-1.9247 -0.0476,-2.37587 -0.87257,-0.36998 -1.30892,-1.34932 -2.27269,-1.57181 -0.2181,-0.076 -0.43714,-0.149 -0.66597,-0.18453 z"
       id="path10086-1-5"
       inkscape:connector-curvature="0" />
    <path
       style="fill:#4d4d4d;fill-opacity:1;fill-rule:nonzero;stroke:#000000;stroke-width:0;stroke-linecap:round;stroke-linejoin:miter;stroke-miterlimit:4;stroke-opacity:1;stroke-dasharray:none"
       d="m 322.97455,202.46977 c -0.90289,-0.0659 -2.03867,0.9368 -1.55101,1.86234 0.42818,0.4601 1.36037,0.42125 1.63671,-0.20515 0.33967,-0.43784 0.61205,-1.41929 -0.0857,-1.65719 z"
       id="path10088-6-3"
       inkscape:connector-curvature="0" />
    <path
       style="fill:#4d4d4d;fill-opacity:1;fill-rule:nonzero;stroke:#000000;stroke-width:0;stroke-linecap:round;stroke-linejoin:miter;stroke-miterlimit:4;stroke-opacity:1;stroke-dasharray:none"
       d="m 328.13057,203.81932 c -0.63859,-0.0442 -1.59329,-0.35035 -1.95574,0.37429 -0.38554,0.63412 -1.12404,1.04877 -1.4211,1.71352 0.38499,0.63449 1.29388,0.65103 1.94771,0.84415 0.95396,0.21763 2.37715,0.21373 2.73461,-0.92281 0.21522,-0.86447 -0.48002,-1.8039 -1.30548,-2.00916 z"
       id="path10090-2-5"
       inkscape:connector-curvature="0" />
    <path
       style="fill:#4d4d4d;fill-opacity:1;fill-rule:nonzero;stroke:#000000;stroke-width:0;stroke-linecap:round;stroke-linejoin:miter;stroke-miterlimit:4;stroke-opacity:1;stroke-dasharray:none"
       d="m 338.30358,212.98568 c -0.42931,0.008 -1.339,-0.16164 -1.32389,0.50418 0.0542,0.87107 -0.23184,2.05477 0.57281,2.6549 0.90309,0.0199 2.02313,-0.97256 1.51082,-1.91948 -0.26774,-0.37048 -0.33632,-0.84647 -0.61151,-1.18416 -0.0466,-0.0248 -0.0952,-0.0489 -0.14815,-0.0559 z"
       id="path10092-0-3"
       inkscape:connector-curvature="0" />
    <path
       style="fill:#4d4d4d;fill-opacity:1;fill-rule:nonzero;stroke:#000000;stroke-width:0;stroke-linecap:round;stroke-linejoin:miter;stroke-miterlimit:4;stroke-opacity:1;stroke-dasharray:none"
       d="m 362.6193,213.25086 c -1.89902,0.62476 -3.19209,2.23109 -4.66568,3.48932 -1.276,0.99748 -3.00311,0.5726 -4.49416,0.55309 -1.08694,0.0289 -2.35101,-0.60234 -3.33214,0.11877 -0.62536,0.46354 -0.28924,1.31097 0.20399,1.72759 0.38456,0.48924 0.84202,1.00358 1.50228,0.61787 3.37269,-0.78845 6.80827,-1.59514 9.89792,-3.18424 0.97102,-0.60214 2.03164,-1.54398 2.06261,-2.76587 -0.0818,-0.57977 -0.6736,-0.76235 -1.17457,-0.55656 z"
       id="path10094-9-0"
       inkscape:connector-curvature="0" />
    <path
       style="fill:#4d4d4d;fill-opacity:1;fill-rule:nonzero;stroke:#000000;stroke-width:0;stroke-linecap:round;stroke-linejoin:miter;stroke-miterlimit:4;stroke-opacity:1;stroke-dasharray:none"
       d="m 354.14122,203.00016 c -1.0554,0.0252 -2.18879,0.4616 -2.86749,1.29908 -1.06232,1.56783 -0.004,3.8667 1.72075,4.42406 1.29745,0.45767 2.76638,0.43923 4.08829,0.0829 1.44888,-0.45973 2.23731,-2.08737 2.22007,-3.52693 0.0274,-0.56617 -0.49991,-1.0252 -1.04951,-0.79645 -1.29511,0.30097 -2.47477,1.15168 -3.82197,1.17699 -0.85445,-0.17492 -0.68461,-1.24068 -0.31405,-1.80016 0.17726,-0.22701 0.66829,-0.6334 0.18812,-0.82273 -0.0518,-0.0222 -0.10919,-0.0273 -0.16414,-0.0369 z"
       id="path10096-8-9"
       inkscape:connector-curvature="0" />
    <path
       style="fill:#4d4d4d;fill-opacity:1;fill-rule:nonzero;stroke:#000000;stroke-width:0;stroke-linecap:round;stroke-linejoin:miter;stroke-miterlimit:4;stroke-opacity:1;stroke-dasharray:none"
       d="m 366.50213,196.07609 c -1.34582,-0.16029 -3.04734,0.0182 -3.83715,1.27597 -0.58284,1.22794 -0.12554,2.63527 -0.0544,3.92459 0.0745,1.41647 0.71999,2.89822 0.19592,4.27584 -0.31384,0.73531 -1.06263,1.57097 -0.49889,2.38052 0.63748,1.06289 1.75939,2.12079 3.07459,2.04449 1.27065,-0.20249 1.94487,-1.40135 2.41355,-2.47838 1.25214,-2.85975 3.04628,-5.53167 3.66172,-8.63233 -0.3237,-0.56541 -1.06745,-0.85055 -1.5847,-1.26587 -1.03962,-0.6697 -2.14247,-1.29155 -3.37064,-1.52483 z"
       id="path10098-3-8"
       inkscape:connector-curvature="0" />
    <path
       style="fill:#4d4d4d;fill-opacity:1;fill-rule:nonzero;stroke:#000000;stroke-width:0;stroke-linecap:round;stroke-linejoin:miter;stroke-miterlimit:4;stroke-opacity:1;stroke-dasharray:none"
       d="m 356.00778,189.20605 c -2.36336,-0.0671 -4.86829,0.23101 -6.92264,1.49182 -0.60022,0.46584 -1.43067,0.8318 -1.73981,1.55881 -0.0536,1.93704 0.23618,3.88779 0.30851,5.80912 -0.0465,0.47286 0.46445,0.60056 0.79696,0.36921 0.44342,-0.16173 1.21462,-0.46292 0.86899,-1.06553 -0.26005,-0.7068 -0.6813,-1.4482 -0.33347,-2.19987 0.18432,-0.71131 0.96615,-1.43237 1.70469,-0.96303 0.88339,0.38154 1.51151,1.21609 2.42632,1.51446 1.84182,-0.003 4.01691,-0.47519 5.02235,-2.18238 0.56003,-1.17085 -0.35203,-2.39938 -0.98637,-3.33159 -0.29554,-0.40432 -0.59058,-0.94319 -1.14553,-1.00102 z"
       id="path10100-5-3"
       inkscape:connector-curvature="0" />
    <path
       style="fill:#4d4d4d;fill-opacity:1;fill-rule:nonzero;stroke:#000000;stroke-width:0;stroke-linecap:round;stroke-linejoin:miter;stroke-miterlimit:4;stroke-opacity:1;stroke-dasharray:none"
       d="m 359.52483,179.22364 c -1.21609,-0.33952 -2.5639,0.31645 -3.02374,1.4935 -0.76843,1.64617 -0.033,3.92883 1.77344,4.50293 0.62944,0.27826 1.53477,0.1275 1.69041,-0.64848 0.37199,-0.84035 -0.006,-1.99044 0.71671,-2.6459 0.87032,-0.31129 0.86071,-1.491 0.25735,-2.05687 -0.35518,-0.40579 -0.90861,-0.53937 -1.41425,-0.6452 z"
       id="path10102-2-0"
       inkscape:connector-curvature="0" />
    <path
       style="fill:#4d4d4d;fill-opacity:1;fill-rule:nonzero;stroke:#000000;stroke-width:0;stroke-linecap:round;stroke-linejoin:miter;stroke-miterlimit:4;stroke-opacity:1;stroke-dasharray:none"
       d="m 350.15116,170.65251 c -0.98734,-0.12716 -1.98365,-0.52221 -2.98252,-0.39999 -1.07337,0.42316 -1.2528,1.97073 -0.51448,2.77943 0.82531,1.1955 2.15118,2.31161 1.924,3.92595 -0.0203,1.32558 -0.63079,2.70217 -0.17578,3.9991 0.67089,1.53654 2.86072,2.356 4.29598,1.40037 1.0187,-0.95771 0.83494,-2.55115 0.63191,-3.80267 -0.12837,-1.5418 -1.88571,-2.15708 -2.30535,-3.53023 0.0266,-1.07908 0.44358,-2.15327 0.31159,-3.25558 0.0286,-0.48929 -0.19997,-1.07748 -0.79594,-1.03264 -0.12967,-0.0287 -0.25966,-0.0557 -0.38946,-0.0837 z"
       id="path10104-9-7"
       inkscape:connector-curvature="0" />
    <path
       style="fill:#f7f7f7;fill-opacity:1;fill-rule:nonzero;stroke:#000000;stroke-width:0;stroke-linecap:round;stroke-linejoin:miter;stroke-miterlimit:4;stroke-opacity:1;stroke-dasharray:none"
       d="m 374.64726,191.54451 c -0.74589,-0.0649 -1.46527,0.59471 -1.34135,1.38688 -0.32584,3.99233 -1.289,7.94241 -3.12293,11.51213 -0.57699,1.41307 -1.53889,2.70051 -1.85258,4.18734 0.24647,0.57178 1.04495,-0.10477 1.45231,-0.1289 3.12158,-1.14 6.28296,-2.63776 8.56005,-5.10123 0.64862,-0.93002 0.82634,-2.55613 -0.15551,-3.29986 -0.78235,-0.0973 -1.53038,0.33997 -2.22238,0.65527 -0.73085,-0.75354 0.0387,-0.93944 0.6745,-1.25208 1.21642,-0.76348 3.0166,-1.42563 3.02358,-3.14131 0.0566,-1.29632 -0.40975,-2.7889 -1.48186,-3.57708 -1.09357,-0.18253 -1.75201,1.08979 -2.34718,1.81049 -0.28792,0.28334 -0.53962,1.25501 -1.07053,0.77859 -0.64309,-0.2227 0.21171,-0.81302 0.24609,-1.20796 0.31267,-0.74569 0.7707,-2.36017 -0.36226,-2.62229 z"
       id="path10116-5-2"
       inkscape:connector-curvature="0" />
    <path
       style="fill:#d7d7d7;fill-opacity:1;fill-rule:nonzero;stroke:#2a1431;stroke-width:0;stroke-linecap:round;stroke-linejoin:miter;stroke-miterlimit:4;stroke-opacity:1;stroke-dasharray:none"
       d="m 321.73631,200.23292 c -0.39957,0.55861 -0.47856,1.31992 -0.97005,1.84971 -0.70647,1.16295 -1.93175,1.80046 -3.16201,2.26567 -0.49275,0.11808 -1.00278,0.60494 -0.62413,1.107 0.69786,1.2377 2.27952,1.63507 3.57198,1.23133 0.7679,0.0349 1.45219,-0.32838 2.04171,-0.81303 1.09499,-0.88222 2.32388,-1.70986 3.10216,-2.89416 0.18307,-0.77788 -0.89971,-1.04399 -1.3733,-1.42918 -0.79247,-0.40172 -1.4728,-1.08672 -2.29613,-1.41009 -0.0967,0.0309 -0.19348,0.0618 -0.29023,0.0927 z m 1.12864,2.61371 c 0.37172,0.41574 -0.0459,1.16692 -0.49403,1.37299 -0.40204,0.20608 -0.94479,-0.22812 -0.58759,-0.64627 0.222,-0.39141 0.6564,-0.63284 1.08162,-0.72672 z"
       id="path12980-5"
       inkscape:connector-curvature="0" />
    <path
       style="fill:#ffffff;fill-opacity:1;fill-rule:nonzero;stroke:#000000;stroke-width:1.70477462;stroke-linecap:round;stroke-linejoin:miter;stroke-miterlimit:4;stroke-opacity:1;stroke-dasharray:none"
       d="m 337.3209,167.06637 c 0.24335,-0.31305 2.07645,-0.85621 4.6717,0.54374 6.70212,3.61522 20.19735,24.00774 19.96339,27.01979 -0.50045,6.44287 -11.0302,6.62108 -14.29101,2.92546 -5.94029,-6.7324 -2.00536,-18.31557 -8.02796,-24.46587 -0.56786,-0.57994 -2.00236,-1.34402 -2.00236,-1.34402"
       id="path9979-6-6-9-5"
       inkscape:connector-curvature="0"
       sodipodi:nodetypes="cssssc" />
    <path
       style="fill:#4d4d4d;fill-opacity:1;fill-rule:nonzero;stroke:#000000;stroke-width:0;stroke-linecap:round;stroke-linejoin:miter;stroke-miterlimit:4;stroke-opacity:1;stroke-dasharray:none"
       d="m 333.91492,165.45093 c -1.71331,0.28615 -1.79592,1.19023 -2.08781,2.18704 -0.15929,0.54397 0.11999,1.06274 0.51527,1.43793 0.64561,0.61269 0.62137,0.4386 1.0061,1.23423 0.61891,1.2799 -1.30247,3.64693 -1.17369,4.82086 0.0842,0.76736 -0.15527,1.55468 -0.0351,2.31336 0.17979,1.1354 0.52738,2.38578 1.51157,3.1064 0.9554,0.69952 2.25397,1.04259 3.4003,0.67526 0.79013,-0.25317 1.48098,-2.17502 1.40404,-2.91968 1.04564,-4.7306 -0.98133,-4.24454 -1.11025,-6.4509 -0.19551,-0.21616 0.20343,-0.5122 0.46124,-0.35827 0.92693,0.55345 1.89665,1.10603 2.59069,1.97096 1.20597,1.5029 2.00947,3.27062 2.5055,5.12393 0.83189,3.10829 1.00236,6.3273 1.48574,9.49057 0.36925,2.70962 0.96189,5.46963 2.44604,7.80486 0.48497,0.74582 1.00232,1.51733 1.72861,2.03637 0.43249,0.0137 0.87061,-0.20694 1.30466,-0.28195 3.75873,-0.97919 7.53388,-1.89753 11.28006,-2.92363 0.26929,-0.0456 0.55859,-0.26512 0.43737,-0.5691 -0.6458,-2.04648 -1.75233,-3.90845 -2.81186,-5.76137 -2.79367,-4.66802 -5.94832,-9.11806 -9.40199,-13.31731 -1.9196,-2.26102 -3.87855,-4.53691 -6.26338,-6.32629 -1.40382,-1.04175 -3.10623,-1.84646 -4.90398,-1.67488 -0.35349,0.0338 -0.75006,-0.29354 -1.08725,-0.33388 -0.26496,-0.0317 -0.28114,-0.44149 -0.0679,-0.57547 0.33003,-0.2073 0.13654,-0.54009 -0.18801,-0.66273 -0.49752,-0.18799 -0.98844,-0.53593 -1.55085,-0.37761 -0.46001,0.1295 -0.17372,0.1273 -0.64514,0.20604 z"
       id="path10034-3-6-4-6"
       inkscape:connector-curvature="0"
       sodipodi:nodetypes="ssssssssccssscccccccccsssssss" />
    <path
       style="fill:#4d4d4d;fill-opacity:1;fill-rule:nonzero;stroke:#000000;stroke-width:0;stroke-linecap:round;stroke-linejoin:miter;stroke-miterlimit:4;stroke-opacity:1;stroke-dasharray:none"
       d="m 354.50849,196.16236 c -1.67123,0.56951 -5.16883,-0.20937 -6.63124,0.81076 -0.30331,0.90175 2.74361,1.88725 3.29855,2.14879 2.91185,0.89809 6.42364,0.63385 8.89928,-1.16268 0.88674,-0.84708 1.60743,-2.30447 1.56135,-3.55521 -1.61703,0.0276 -3.39356,0.91401 -5.03414,1.21431 -0.69914,0.17669 -1.39703,0.35816 -2.09388,0.54377 z"
       id="path10036-7-8-2-3"
       inkscape:connector-curvature="0"
       sodipodi:nodetypes="cccccccc" />
    <path
       style="fill:#d7d7d7;fill-opacity:1;fill-rule:nonzero;stroke:#2a1431;stroke-width:0;stroke-linecap:round;stroke-linejoin:miter;stroke-miterlimit:4;stroke-opacity:1;stroke-dasharray:none"
       d="m 28.820261,11.442463 c -2.043885,0.145495 -4.145725,0.526085 -5.953125,1.515625 -0.468313,0.688879 0.634279,1.077755 0.84375,1.640625 0.279499,0.853395 -0.59927,1.546143 -0.976563,2.222656 -0.856552,1.024463 -0.575154,2.430238 -0.378906,3.632813 0.300303,1.417379 -0.829219,2.619254 -1.816406,3.464843 -0.896952,0.685225 -2.074636,1.453122 -3.226563,0.910157 -0.806786,-0.289137 -1.286215,-1.091318 -2.03125,-1.441407 -0.669032,0.359331 -0.931852,1.212804 -1.316406,1.847657 -0.375726,1.105933 -0.95648,2.266241 -0.81658,3.444073 0.363193,0.646665 1.087431,-0.131953 1.562674,-0.32298 0.767186,-0.35671 1.263692,-1.083858 1.816406,-1.65625 1.202074,0.37386 2.07817,1.872472 3.484375,1.5625 0.707027,-0.158111 1.503495,-0.310031 2.085938,0.246094 0.462994,0.277003 0.932215,0.7286 0.726562,1.328125 -0.123284,1.149431 -0.749607,2.474353 -0.09375,3.5625 1.328821,1.224314 3.325213,1.232946 4.996169,1.650003 1.170739,0.112667 2.363081,0.934867 2.628831,2.123435 -0.04358,0.987796 -1.310421,1.205986 -1.664062,2.007812 0.0032,0.759575 1.04451,0.704988 1.553221,0.969845 1.971181,0.67898 4.141399,0.900978 6.173341,0.393436 0.0089,0.289952 0.379045,0.817982 0.144531,0.996094 -2.578575,0.6168 -5.249902,0.151456 -7.681716,-0.800072 -2.025404,-0.647115 -4.014661,-1.476604 -6.091721,-1.918678 -0.801196,0.222409 -0.16617,1.162681 -0.07813,1.675781 0.772954,2.531938 1.881319,4.982384 3.620812,7.004053 1.412755,1.778901 3.222637,3.251844 5.226844,4.304541 0.900265,0.115439 0.401979,-1.458019 1.261719,-1.339844 0.731734,0.323759 0.236226,1.245812 0.242187,1.828125 0.01001,0.765554 -0.474036,1.574025 -0.199218,2.304688 0.630608,0.468219 1.677673,0.20012 2.128906,0.996094 0.560509,0.678502 -0.09158,1.64756 -0.90625,1.65625 -1.057886,0.04779 -2.128075,-0.281763 -3.054688,-0.746094 -0.892555,0.08487 -1.539703,0.88942 -2.265625,1.355469 -0.578833,0.284335 -0.685308,1.059752 -0.152343,1.449218 1.606172,1.373623 4.09668,1.620888 5.972656,0.679688 1.782765,-1.133144 2.625014,-3.190888 3.746825,-4.898555 0.62383,-0.969351 1.059192,-2.097255 1.772706,-2.988164 0.468968,-0.196165 0.900249,0.40077 0.546875,0.789063 -0.300315,0.764778 -0.845297,1.40906 -1.035156,2.214843 0.265036,0.690384 1.225442,0.670099 1.800085,1.014082 3.446826,1.333453 6.945696,2.618886 10.539759,3.450762 0.735775,-0.04065 0.448751,-0.937046 0.02344,-1.203125 -1.768279,-2.297766 -2.383564,-5.25155 -2.682467,-8.085759 -0.194757,-2.035845 0.852705,-3.880321 1.612883,-5.68348 -0.431536,-1.756458 -0.958487,-3.518488 -1.1667,-5.335841 C 49.114438,35.540582 49.038808,31.6677 47.761667,28.086994 47.007361,26.329785 46.06359,24.456669 44.351511,23.4659 c -0.403416,-0.384937 -1.208289,-0.01992 -0.863281,0.542969 0.720906,0.975844 1.117371,2.179043 0.949218,3.402344 -0.190133,1.344186 -0.198728,2.903696 -1.113281,3.992187 -0.861326,0.650157 -2.100077,0.297623 -2.972656,-0.152343 -1.520941,-0.92108 -1.807301,-2.855488 -1.712811,-4.492172 -0.217918,-1.875366 1.314276,-3.405079 1.240155,-5.257828 -0.07057,-0.899942 -0.735995,-1.520811 -1.335938,-2.085938 -0.589319,-0.883661 0.02434,-2.226322 0.925781,-2.621094 0.857088,-0.360698 1.921163,-0.260152 2.632813,-0.910156 0.01765,-0.72991 -0.932955,-0.983057 -1.375,-1.460937 -1.357028,-1.002597 -2.904533,-1.905197 -4.582031,-2.171875 -0.825663,0.260052 0.05317,1.135965 -0.304688,1.675781 -0.357679,0.893099 -1.557601,0.600893 -2.311474,0.578929 -1.038005,-0.187446 -2.222752,-0.08038 -3.137745,-0.62971 -0.36323,-0.73233 0.15136,-1.552198 0.234375,-2.265625 -0.413443,-0.519984 -1.232128,-0.08431 -1.804687,-0.167969 z m 2.730469,6.800781 c 1.182661,-0.04267 2.34031,0.543269 2.894531,1.621094 0.447194,0.751381 1.474659,0.621303 1.960937,1.351562 1.399527,1.739144 0.603969,4.333792 -0.789062,5.820313 -0.685824,0.768865 -1.604543,1.323814 -2.554688,1.636719 -0.339522,0.416895 -0.13431,1.061722 -0.566406,1.460937 -1.164235,1.64184 -3.796261,1.222315 -4.902344,-0.265625 -0.683546,-0.816377 -1.47985,-2.014502 -0.785156,-3.050781 0.633701,-1.191701 1.542583,-2.290504 1.785156,-3.679688 0.43146,-1.370428 0.622417,-2.86272 1.234375,-4.152343 0.385492,-0.545706 1.086057,-0.742016 1.722657,-0.742188 z m -1.140625,25.574219 c 1.342383,0.07843 2.306125,1.174239 3.289062,1.960937 0.419486,0.497684 0.303713,1.458804 -0.464844,1.484375 -0.922406,0.1481 -1.954613,0.736272 -2.792968,0.101563 -0.860695,-0.54404 -1.685352,-1.584239 -1.476563,-2.652344 0.247968,-0.542159 0.85022,-0.902384 1.445313,-0.894531 z"
       id="path13284"
       inkscape:connector-curvature="0"
       transform="translate(293.88257,149.22342)" />
    <path
       style="fill:#d7d7d7;fill-opacity:1;fill-rule:nonzero;stroke:#2a1431;stroke-width:0;stroke-linecap:round;stroke-linejoin:miter;stroke-miterlimit:4;stroke-opacity:1;stroke-dasharray:none"
       d="m 51.945261,60.762775 c -1.229703,1.192267 -3.037638,1.392828 -4.596451,1.922009 -0.998465,0.348 -2.1323,0.419583 -3.044174,0.941273 -0.162093,0.730726 0.693996,1.322231 0.636719,2.035156 -0.198912,0.407793 -0.706277,0.912907 -1.179688,0.828125 -0.501321,-0.718804 -0.162906,-1.717034 -0.535156,-2.476563 -0.735551,-0.177457 -1.458094,0.424679 -2.160156,0.652344 -1.172721,0.395589 -1.933727,1.689676 -1.625,2.894531 0.704499,1.015981 2.019651,1.422874 3.179687,1.679688 0.667386,0.04047 1.839786,0.413407 1.929067,-0.563169 0.202164,-1.267056 1.246137,-2.20836 2.465464,-2.51105 2.224972,-0.564355 4.515071,-0.879433 6.640625,-1.796875 1.064194,-0.477047 2.23358,-0.86019 3.148438,-1.570312 -0.0142,-0.70685 -0.941143,-0.883872 -1.441406,-1.253907 -1.016057,-0.465288 -2.157674,-0.657245 -3.244025,-0.813292 l -0.122932,0.02265 -0.05101,0.0094 z"
       id="path13286"
       inkscape:connector-curvature="0"
       transform="translate(293.88257,149.22342)" />
    <path
       style="fill:#d7d7d7;fill-opacity:1;fill-rule:nonzero;stroke:#2a1431;stroke-width:0;stroke-linecap:round;stroke-linejoin:miter;stroke-miterlimit:4;stroke-opacity:1;stroke-dasharray:none"
       d="m 54.847605,19.086994 c -1.113063,0.08188 -2.307964,-0.104996 -3.367188,0.285156 -0.581154,0.656333 0.429043,1.254245 0.804688,1.707032 0.340954,0.475102 0.896679,0.443446 1.386718,0.304687 1.127422,0.08022 2.316526,0.231333 3.335938,0.730469 0.2933,1.335056 -0.362339,2.738805 -0.03906,4.070312 0.597479,1.160154 1.696334,1.981911 2.3125,3.136719 0.896237,1.160153 1.633889,2.46235 2.625,3.542969 0.51169,0.389162 0.98147,-0.24982 0.886719,-0.75 0.290431,-0.983605 1.130315,-1.949158 2.261719,-1.730469 0.910475,-0.148905 2.19069,0.447945 2.035156,1.507813 -0.336455,0.586991 -1.097294,0.971851 -1.078125,1.769531 -0.200844,0.626186 -0.0023,1.575591 -0.613281,1.992187 -0.423588,0.252219 -1.185798,-0.205731 -1.296875,0.496094 0.455425,1.100118 1.218596,2.075175 1.828125,3.109375 0.947249,0.832099 2.317284,0.904045 3.408071,1.494061 0.949044,0.488014 2.075499,0.778464 2.845835,1.529377 0.183021,0.401168 -0.384737,0.972636 -0.75,0.539062 -1.213424,-0.494065 -2.335854,-1.285279 -3.628906,-1.542969 -0.77311,0.09932 -0.304133,0.982459 -0.09766,1.394532 0.601981,1.240463 1.171071,2.664016 0.59375,4.03125 -0.811108,2.661645 -3.576182,4.154556 -6.210938,4.433593 -2.867806,0.329692 -6.019914,-0.175032 -8.261719,-2.097656 -0.868736,-0.75644 -1.33668,-1.886425 -2.203125,-2.621094 -0.75804,-0.0545 -0.78569,0.983652 -1.023437,1.496094 -0.688023,2.43226 5.62e-4,5.011418 0.799494,7.32754 0.991348,2.7555 3.307424,4.851023 5.829412,6.219335 2.976665,1.455069 6.383891,1.103714 9.57409,0.818543 0.421951,-0.171279 1.047894,0.249891 0.711066,0.68927 -0.561705,0.474881 -1.438231,0.309718 -2.124707,0.438228 -2.305285,0.131418 -4.679128,0.166652 -6.920676,-0.348667 -1.480721,0.76113 -2.919454,1.691772 -4.521023,2.27372 -2.022039,0.869662 -4.219829,1.241346 -6.355469,1.699219 -1.008389,0.210652 -2.269259,0.96571 -1.953125,2.175781 0.398132,1.037896 1.344941,1.784829 2.25,2.378906 2.272033,0.955075 4.785686,0.196836 7.111114,-0.136457 0.760588,-0.245748 1.718772,-0.114528 2.330293,-0.660418 0.141068,-0.857129 -1.270344,-1.26034 -0.972657,-2.164062 0.712537,-0.772254 1.8982,-0.226113 2.800405,-0.24812 1.745418,0.02906 3.796367,0.530755 5.250377,-0.72063 1.478982,-1.172585 2.749015,-2.752114 4.605468,-3.316407 0.518954,-0.09537 0.809712,0.86284 1.347657,0.332032 0.949453,-1.21976 1.618341,-2.639319 2.236273,-4.030873 -0.0659,-0.863816 -1.026266,-0.101691 -1.560492,-0.301159 -1.081273,-0.284108 -2.111186,-1.173215 -2.402344,-2.269531 0.09576,-0.992136 0.895595,-1.804064 0.789063,-2.851562 -0.0415,-2.172257 -0.685162,-4.323407 -0.460938,-6.503907 0.47554,-1.415237 2.230759,-1.607585 3.507813,-1.464843 1.714162,0.17369 3.020446,1.437948 4.539062,2.101562 0.823523,0.128261 0.722024,-0.97648 0.886219,-1.490065 0.65684,-3.116081 0.795641,-6.321954 0.613781,-9.49431 -0.121555,-0.72403 -0.995555,-0.366477 -1.226562,0.08594 -0.879962,0.969421 -2.36968,0.793521 -3.554688,0.679687 -2.02071,-0.699276 -3.716962,-2.641244 -3.898437,-4.8125 0.200436,-1.746505 1.303582,-3.569039 0.414062,-5.300781 -0.653209,-1.153247 -1.580449,-2.247989 -2.78125,-2.839844 -1.642737,-0.606133 -3.534302,-0.213084 -5.09375,-1.003906 -1.345885,-1.241483 -1.18697,-3.272192 -0.835937,-4.902344 0.216461,-0.572197 -0.238964,-1.061104 -0.8125,-1.007812 -1.950433,-0.186289 -3.916983,-0.1806 -5.875,-0.179688 z m 5.234375,35.109375 c -0.463169,0.620035 -0.841685,1.955603 0.109375,2.441406 1.146741,0.379418 2.282978,-0.424365 3.363177,-0.720618 0.427869,-0.110843 1.200658,-0.638787 1.457135,-0.0099 0.149955,1.560401 -0.90482,3.349318 -2.591414,3.438113 -1.452935,0.311182 -3.128387,0.103099 -4.264055,-0.902957 -0.912979,-0.947555 -1.195788,-2.831794 0.08984,-3.605469 0.533099,-0.390084 1.170149,-0.633544 1.835938,-0.640625 z"
       id="path13288"
       inkscape:connector-curvature="0"
       transform="translate(293.88257,149.22342)" />
    <path
       style="fill:#4d4d4d;fill-opacity:1;fill-rule:nonzero;stroke:#2a1431;stroke-width:0;stroke-linecap:round;stroke-linejoin:miter;stroke-miterlimit:4;stroke-opacity:1;stroke-dasharray:none"
       d="m 11.671823,30.05965 c -1.566336,1.029643 -2.8753825,2.417451 -4.2119834,3.727425 -1.6042035,1.762556 -3.3569428,3.714096 -3.7177038,6.159294 -0.035678,0.588769 0.076521,1.728779 0.875,1.582031 0.6419247,-0.721245 0.8465628,-1.757785 1.4453125,-2.53125 1.627542,-2.640215 3.717715,-5.189076 6.4804687,-6.671875 0.301347,-0.641509 -0.168539,-1.381593 -0.339844,-2.015625 -0.09854,-0.19661 -0.312342,-0.319033 -0.53125,-0.25 z"
       id="path13290"
       inkscape:connector-curvature="0"
       transform="translate(293.88257,149.22342)" />
    <path
       style="fill:#de8787;fill-opacity:1;fill-rule:nonzero;stroke:#2a1431;stroke-width:0;stroke-linecap:round;stroke-linejoin:miter;stroke-miterlimit:4;stroke-opacity:1;stroke-dasharray:none"
       d="M 12.95698,33.258869 C 10.661022,34.470466 8.9327086,36.53225 7.4753223,38.633548 6.8038467,39.771949 6.0566506,40.907347 5.605417,42.1534 c 0.079919,0.750614 1.0571857,0.514682 1.5898438,0.65625 4.3365492,-0.20681 8.4581962,-1.737542 12.4561662,-3.302031 0.491391,-0.265207 1.602569,-0.500125 1.262584,-1.276094 -0.513231,-0.522987 -1.303925,-0.802711 -2.003906,-0.902343 -0.465742,0.26075 -0.10294,1.18709 -0.824219,1.035156 -1.141385,0.06948 -2.355511,-0.07256 -3.375,-0.589844 -0.669039,-0.920256 -0.497958,-2.108898 -0.378906,-3.160156 -0.183455,-0.577252 -0.652527,-1.095384 -1.15625,-1.402344 l -0.122226,0.02619 -0.09652,0.02068 z"
       id="path13292"
       inkscape:connector-curvature="0"
       transform="translate(293.88257,149.22342)" />
  </g>
</svg>
