<?xml version="1.0" encoding="UTF-8" standalone="no"?>
<!-- Created with Inkscape (http://www.inkscape.org/) -->

<svg
   xmlns:dc="http://purl.org/dc/elements/1.1/"
   xmlns:cc="http://creativecommons.org/ns#"
   xmlns:rdf="http://www.w3.org/1999/02/22-rdf-syntax-ns#"
   xmlns:svg="http://www.w3.org/2000/svg"
   xmlns="http://www.w3.org/2000/svg"
   xmlns:sodipodi="http://sodipodi.sourceforge.net/DTD/sodipodi-0.dtd"
   xmlns:inkscape="http://www.inkscape.org/namespaces/inkscape"
   width="88"
   height="75"
   id="svg10388"
   version="1.1"
   inkscape:version="0.48.5 r10040"
   sodipodi:docname="bunny-jump6.svg"
   inkscape:export-filename="/home/rhiannon/caveexplorer/lua-cave-gen/assets/bunny-jump6.png"
   inkscape:export-xdpi="90"
   inkscape:export-ydpi="90">
  <defs
     id="defs10390" />
  <sodipodi:namedview
     id="base"
     pagecolor="#ffffff"
     bordercolor="#666666"
     borderopacity="1.0"
     inkscape:pageopacity="0.0"
     inkscape:pageshadow="2"
     inkscape:zoom="4.4921875"
     inkscape:cx="32.871158"
     inkscape:cy="32.070387"
     inkscape:document-units="px"
     inkscape:current-layer="layer1"
     showgrid="false"
     fit-margin-top="0"
     fit-margin-left="0"
     fit-margin-right="0"
     fit-margin-bottom="0"
     inkscape:window-width="1278"
     inkscape:window-height="781"
     inkscape:window-x="0"
     inkscape:window-y="17"
     inkscape:window-maximized="0"
     showguides="true"
     inkscape:guide-bbox="true" />
  <metadata
     id="metadata10393">
    <rdf:RDF>
      <cc:Work
         rdf:about="">
        <dc:format>image/svg+xml</dc:format>
        <dc:type
           rdf:resource="http://purl.org/dc/dcmitype/StillImage" />
        <dc:title></dc:title>
      </cc:Work>
    </rdf:RDF>
  </metadata>
  <g
     inkscape:label="Layer 1"
     inkscape:groupmode="layer"
     id="layer1"
     transform="translate(-293.88257,-149.22342)">
    <path
       style="fill:#ffffff;fill-opacity:0;fill-rule:nonzero;stroke:#000000;stroke-width:1.70477462;stroke-linecap:butt;stroke-linejoin:miter;stroke-miterlimit:4;stroke-opacity:1;stroke-dasharray:none"
       d="m 322.40788,173.56249 c 0,0 -1.55161,-1.4384 -6.04909,-1.5842 -4.8722,-0.15795 -11.13035,3.37432 -13.81654,6.44185 -5.16302,5.89558 -1.06873,8.17705 -1.89299,11.46413 -0.80716,3.21898 -1.27916,5.63953 -0.0677,8.73205 0.92285,2.35576 3.93644,4.92253 7.51944,4.62848 6.10473,-0.50095 8.62963,-1.70306 12.92664,-2.52942 3.38996,-0.65193 5.47152,-1.73053 7.13739,-3.61596"
       id="path9922-1-4-5-5-7"
       inkscape:connector-curvature="0"
       sodipodi:nodetypes="cssssssc" />
    <path
       style="fill:#000000;fill-opacity:1;fill-rule:nonzero;stroke:#000000;stroke-width:1.70477462;stroke-linecap:butt;stroke-linejoin:miter;stroke-miterlimit:4;stroke-opacity:1;stroke-dasharray:none"
       d="m 300.83276,185.5203 c 1.46113,1.31117 0.73562,6.53288 0.17836,6.56043 -0.98485,0.0488 -1.94935,-0.53882 -2.11411,-3.27401 -0.13033,-2.16343 1.08753,-4.0476 1.93576,-3.28644 z"
       id="path9924-5-2-5-6-6"
       inkscape:connector-curvature="0"
       sodipodi:nodetypes="ssss" />
    <path
       sodipodi:type="arc"
       style="fill:#ffffff;fill-opacity:1;fill-rule:nonzero;stroke:#ffffff;stroke-width:7.89696932;stroke-linecap:butt;stroke-linejoin:miter;stroke-miterlimit:4;stroke-opacity:1;stroke-dasharray:none"
       id="path9926-2-1-0-7-5"
       sodipodi:cx="246.53337"
       sodipodi:cy="1104.5435"
       sodipodi:rx="3.8544929"
       sodipodi:ry="4.1628523"
       d="m 250.38786,1104.5435 a 3.8544929,4.1628523 0 1 1 -7.70898,0 3.8544929,4.1628523 0 1 1 7.70898,0 z"
       transform="matrix(0.10451046,0.01236241,-0.02370634,0.20449158,300.98929,-41.744021)"
       inkscape:transform-center-x="4.2122885"
       inkscape:transform-center-y="0.724156" />
    <path
       sodipodi:type="arc"
       style="fill:#ffffff;fill-opacity:1;fill-rule:nonzero;stroke:#ffffff;stroke-width:16.73293495;stroke-linecap:butt;stroke-linejoin:miter;stroke-miterlimit:4;stroke-opacity:1;stroke-dasharray:none"
       id="path9926-1-7-1-1-4-7"
       sodipodi:cx="246.53337"
       sodipodi:cy="1104.5435"
       sodipodi:rx="3.8544929"
       sodipodi:ry="4.1628523"
       d="m 250.38786,1104.5435 a 3.8544929,4.1628523 0 1 1 -7.70898,0 3.8544929,4.1628523 0 1 1 7.70898,0 z"
       transform="matrix(0.02879532,0.00880668,0.00181721,0.07503283,291.84756,104.51604)"
       inkscape:transform-center-x="1.0810413"
       inkscape:transform-center-y="0.18589539" />
    <path
       style="fill:#000000;fill-opacity:1;fill-rule:nonzero;stroke:#000000;stroke-width:1.16234636;stroke-linecap:butt;stroke-linejoin:miter;stroke-miterlimit:4;stroke-opacity:1"
       d="m 319.63316,185.30592 c -0.17227,2.38382 -1.72389,4.19598 -3.46556,4.04764 -1.74169,-0.14838 -3.01396,-2.20105 -2.84163,-4.5848 0.17225,-2.38376 1.72383,-4.19596 3.46552,-4.04762 1.74172,0.14837 3.01397,2.20102 2.84173,4.58474 z"
       id="path9946-1-9-0-8-4"
       inkscape:connector-curvature="0" />
    <path
       sodipodi:type="arc"
       style="fill:#ffffff;fill-opacity:1;fill-rule:nonzero;stroke:#ffffff;stroke-width:6.14886189;stroke-linecap:butt;stroke-linejoin:miter;stroke-miterlimit:4;stroke-opacity:1;stroke-dasharray:none"
       id="path9949-4-8-0-7-2"
       sodipodi:cx="217.08504"
       sodipodi:cy="1121.1949"
       sodipodi:rx="5.5504699"
       sodipodi:ry="8.4798841"
       d="m 222.63551,1121.1949 a 5.5504699,8.4798841 0 1 1 -11.10094,0 5.5504699,8.4798841 0 1 1 11.10094,0 z"
       transform="matrix(0.18723958,0.01332411,-0.01081196,0.19007703,287.30218,-32.193927)" />
    <path
       sodipodi:type="arc"
       style="fill:#ffffff;fill-opacity:1;fill-rule:nonzero;stroke:#ffffff;stroke-width:6.19660568;stroke-linecap:butt;stroke-linejoin:miter;stroke-miterlimit:4;stroke-opacity:1;stroke-dasharray:none"
       id="path9926-1-4-2-7-6-3-2"
       sodipodi:cx="246.53337"
       sodipodi:cy="1104.5435"
       sodipodi:rx="3.8544929"
       sodipodi:ry="4.1628523"
       d="m 250.38786,1104.5435 a 3.8544929,4.1628523 0 1 1 -7.70898,0 3.8544929,4.1628523 0 1 1 7.70898,0 z"
       transform="matrix(0.09150338,-0.02405573,0.02042652,0.16553063,272.55953,9.134646)"
       inkscape:transform-center-x="3.5090868"
       inkscape:transform-center-y="1.8273107" />
    <path
       style="fill:#ffffff;fill-opacity:1;fill-rule:nonzero;stroke:#4d4d4d;stroke-width:1.16234636;stroke-linecap:round;stroke-linejoin:miter;stroke-miterlimit:4;stroke-opacity:1;stroke-dasharray:none"
       d="m 306.06812,202.84851 c -0.0984,1.73084 0.60578,2.61667 1.6967,3.09535 0.87814,-0.25291 1.86245,-0.24354 3.17357,-1.4269 -0.49689,-1.03631 -0.47671,-1.58456 -0.53584,-2.40319 -0.9673,-0.3111 -2.08258,0.5522 -2.89734,-0.96924 -0.20221,0.68854 -0.76524,1.47208 -1.43711,1.70394 z"
       id="path9973-5-7-5-6-9"
       inkscape:connector-curvature="0"
       sodipodi:nodetypes="cccccc" />
    <path
       style="fill:#ffffff;fill-opacity:1;fill-rule:nonzero;stroke:#4d4d4d;stroke-width:0.77489758;stroke-linecap:round;stroke-linejoin:miter;stroke-miterlimit:4;stroke-opacity:1;stroke-dasharray:none"
       d="m 307.58315,201.89483 c 0.19439,0.60501 0.23107,1.55726 0.87836,2.34099"
       id="path9975-2-8-5-1-4"
       inkscape:connector-curvature="0"
       sodipodi:nodetypes="cc" />
    <path
       style="fill:#ffffff;fill-opacity:0;fill-rule:nonzero;stroke:#000000;stroke-width:1.16234636;stroke-linecap:round;stroke-linejoin:miter;stroke-miterlimit:4;stroke-opacity:1;stroke-dasharray:none"
       d="m 304.70646,202.66871 c 0.85928,0.81281 2.05534,-0.0388 2.78531,-1.39552 l -0.77077,-2.5332"
       id="path9969-4-7-0-2-4"
       inkscape:connector-curvature="0"
       sodipodi:nodetypes="ccc" />
    <path
       style="fill:#ffffff;fill-opacity:1;fill-rule:nonzero;stroke:#000000;stroke-width:1.16234636;stroke-linecap:round;stroke-linejoin:miter;stroke-miterlimit:4;stroke-opacity:1;stroke-dasharray:none"
       d="m 307.52362,201.25491 c 4.0264,3.56622 6.34892,1.1154 7.78229,-0.58132"
       id="path9971-3-6-8-8-3"
       inkscape:connector-curvature="0"
       sodipodi:nodetypes="cc" />
    <path
       style="fill:#ffffff;fill-opacity:1;fill-rule:nonzero;stroke:#000000;stroke-width:1.16234636;stroke-linecap:round;stroke-linejoin:miter;stroke-miterlimit:4;stroke-opacity:1;stroke-dasharray:none"
       d="m 304.29825,197.75057 c 0.59289,0.63167 1.32982,0.78729 2.29127,0.89035 0.98337,-0.45664 1.7646,-1.36233 1.94756,-2.08469"
       id="path9977-6-2-7-6-8"
       inkscape:connector-curvature="0"
       sodipodi:nodetypes="ccc" />
    <path
       style="fill:#ffffff;fill-opacity:0;fill-rule:nonzero;stroke:#000000;stroke-width:1.70477462;stroke-linecap:round;stroke-linejoin:miter;stroke-miterlimit:4;stroke-opacity:1;stroke-dasharray:none"
       d="m 300.20225,198.84875 c 0,0 -5.34254,11.51406 -0.96969,14.59191 4.54071,3.19603 14.31819,-11.54141 14.31819,-11.54141"
       id="path9981-8-5-8-5-3"
       inkscape:connector-curvature="0"
       sodipodi:nodetypes="csc" />
    <path
       style="fill:#ffffff;fill-opacity:0;fill-rule:nonzero;stroke:#000000;stroke-width:1.70477462;stroke-linecap:round;stroke-linejoin:miter;stroke-miterlimit:4;stroke-opacity:1;stroke-dasharray:none"
       d="m 302.13653,201.06608 c -1.16467,1.68093 -2.79316,6.668 -1.61763,12.59646"
       id="path9983-5-0-1-3-6"
       inkscape:connector-curvature="0"
       sodipodi:nodetypes="cc" />
    <path
       style="fill:#ffffff;fill-opacity:0;fill-rule:nonzero;stroke:#000000;stroke-width:1.70477462;stroke-linecap:round;stroke-linejoin:miter;stroke-miterlimit:4;stroke-opacity:1;stroke-dasharray:none"
       d="m 313.36922,202.71532 c 1.80915,1.33089 4.29263,4.49094 9.55839,6.1998 4.61358,1.49723 9.47218,0.53223 14.24594,-0.29936 6.16814,-1.07451 13.44041,-2.42633 20.09685,-5.69928 2.00723,-0.91731 -4.3044,4.15964 -8.55861,7.48227 -1.10066,0.85963 -2.86613,2.81321 -1.33928,4.45778 0.59963,0.64585 1.35723,0.60575 2.71592,0.94476 4.00146,0.99838 15.6652,-8.16714 18.14685,-11.0094 2.70937,-2.13877 1.0195,-10.9007 0.49524,-16.36574 -1.9e-4,-0.009 0,-0.0166 -0.001,-0.025 -0.0294,-2.84711 -0.97091,-5.7765 -2.04919,-8.39717 -3.86794,-9.40074 -9.89964,-14.64879 -18.99278,-16.08348 -2.31431,-0.36516 -4.7523,-0.30384 -7.02263,0.26933 -0.63571,0.16049 -1.26565,0.35916 -1.88114,0.58436 -2.66722,0.97581 -5.14921,2.49627 -7.53952,4.03328 -1.79992,1.15731 -6.03765,4.4905 -6.9879,4.86949"
       id="path9985-3-2-7-3-8"
       inkscape:connector-curvature="0"
       sodipodi:nodetypes="csscssscccsccscc" />
    <path
       style="fill:#ffffff;fill-opacity:1;fill-rule:nonzero;stroke:#000000;stroke-width:1.70477462;stroke-linecap:round;stroke-linejoin:miter;stroke-miterlimit:4;stroke-opacity:1;stroke-dasharray:none"
       d="m 329.92256,207.74727 c 0,0 0.79423,1.58714 1.16573,2.66279 0.3256,0.9428 -0.61932,3.12076 -0.79437,4.15811 -0.20854,1.23563 -1.35187,2.41822 -0.98667,3.54898 0.10614,0.32917 0.57471,0.46833 0.92329,0.64142 1.05903,0.52591 4.02895,-0.0819 5.70309,-1.99985 1.66799,-1.91087 1.37557,-5.63317 1.46997,-7.598 0.0515,-1.07105 -0.19199,-4.06603 -0.19199,-4.06603"
       id="path9989-2-5-5-8-1"
       inkscape:connector-curvature="0"
       sodipodi:nodetypes="cssssssc" />
    <path
       style="fill:#ffffff;fill-opacity:0;fill-rule:nonzero;stroke:#000000;stroke-width:1.70477462;stroke-linecap:round;stroke-linejoin:miter;stroke-miterlimit:4;stroke-opacity:1;stroke-dasharray:none"
       d="m 324.04701,209.22612 c 0,0 0.49849,0.97634 0.86998,2.052 0.32559,0.94279 -0.15195,2.2908 -0.70284,3.1871 -0.75945,1.23563 -1.37068,2.44722 -1.00551,3.57801 0.10615,0.32918 0.57475,0.46832 0.92331,0.6414 1.05902,0.52592 3.2798,0.63523 4.95393,-1.28271"
       id="path9989-3-1-0-5-1-3"
       inkscape:connector-curvature="0"
       sodipodi:nodetypes="cssssc" />
    <path
       style="fill:#ffffff;fill-opacity:1;fill-rule:nonzero;stroke:#000000;stroke-width:1.70477462;stroke-linecap:round;stroke-linejoin:miter;stroke-miterlimit:4;stroke-opacity:1;stroke-dasharray:none"
       d="m 365.37076,199.55536 c 0,0 -2.95431,2.44247 -4.65633,3.28472 -1.42695,0.70608 -2.96889,1.30535 -4.55599,1.43234 -1.95464,0.15642 -3.9829,-0.1672 -5.82357,-0.84888 -1.3349,-0.49438 -2.58479,-1.2962 -3.61068,-2.28564 -1.62627,-1.56852 -3.43424,-3.3686 -3.83317,-5.59415 -1.42249,-7.9358 2.6502,-10.81395 5.40828,-12.63422 4.53197,-2.99101 10.2995,-2.95075 10.2995,-2.95075"
       id="path10011-1-7-9-4-3"
       inkscape:connector-curvature="0"
       sodipodi:nodetypes="cssssssc" />
    <path
       style="fill:#000000;fill-opacity:0;fill-rule:nonzero;stroke:#000000;stroke-width:1.70477462;stroke-linecap:round;stroke-linejoin:miter;stroke-miterlimit:4;stroke-opacity:1;stroke-dasharray:none"
       d="m 350.71755,205.62391 c 0.74277,0.74408 -3.48394,2.35101 -5.68088,3.47025 -1.58504,0.8075 -2.73663,0.99616 -4.38298,3.40354 -1.00744,1.47314 -0.13047,3.3519 0.48573,3.7859 0.7132,0.50231 2.21612,0.28818 3.05874,0.0689 1.458,-0.37943 2.88288,-1.1927 2.88288,-1.1927"
       id="path10014-9-0-1-9-7"
       inkscape:connector-curvature="0"
       sodipodi:nodetypes="cssssc" />
    <path
       style="fill:#000000;fill-opacity:0;fill-rule:nonzero;stroke:#000000;stroke-width:1.70477462;stroke-linecap:round;stroke-linejoin:miter;stroke-miterlimit:4;stroke-opacity:1;stroke-dasharray:none"
       d="m 369.48086,194.14119 c -0.0297,0.3872 4.50147,-4.08857 6.03728,-9.7956 0.52338,-1.94505 -0.60772,-4.30527 -1.65436,-4.37501 -1.04661,-0.0698 -2.16181,2.08792 -2.16181,2.08792 0,0 2.114,-2.97909 2.01879,-4.40195 -0.0952,-1.42285 -1.09551,-2.56109 -1.99157,-3.14351 -0.89606,-0.58237 -1.7126,-1.08041 -2.66134,-0.39665 -0.94878,0.68371 -0.73731,4.2481 -0.73731,4.2481 0,0 0.0486,-2.35597 -0.66398,-3.1657 -0.39341,-0.44707 -1.04616,-0.7869 -1.69024,-0.58939 -0.6441,0.19749 -1.04479,1.25293 -1.04479,1.25293"
       id="path10020-6-2-8-2-9"
       inkscape:connector-curvature="0"
       sodipodi:nodetypes="csscssscssc" />
    <path
       style="fill:#000000;fill-opacity:0;fill-rule:nonzero;stroke:#502d16;stroke-width:0;stroke-linecap:round;stroke-linejoin:miter;stroke-miterlimit:4;stroke-opacity:1;stroke-dasharray:none"
       d="m 319.90262,173.06724 c 0.16577,0.97792 0.40084,2.01944 0.98215,2.83508 1.14577,0.28598 2.41986,-0.75322 3.51965,-0.0588 0.61238,0.39817 1.40855,1.27358 0.85622,2.03969 -0.26085,0.50719 -0.85698,0.60571 -1.25713,0.91901 0.0838,0.49252 0.76971,0.61584 1.05227,0.99229 2.81213,2.56565 3.82491,6.40698 4.61562,10.00016 0.91285,3.80689 1.42865,7.84665 3.49258,11.24943 0.95248,1.54595 2.2637,2.97837 4.06785,3.46873 2.85186,0.85083 6.17449,0.64234 8.67945,-1.06493 1.35987,-0.95297 2.42612,-2.66633 2.04194,-4.37002 -1.35784,-3.04718 -3.46382,-5.68136 -5.45386,-8.33519 -3.99094,-5.02661 -8.20007,-9.9661 -13.23644,-13.97083 -1.773,-1.34972 -3.8601,-2.75623 -6.18311,-2.54817 -0.57171,0.0362 -1.18248,0.56389 -1.7361,0.3204 -0.36985,-0.28073 0.0559,-0.68074 0.008,-0.99563 -0.38835,-0.31108 -0.95681,-0.39879 -1.41662,-0.54361 l -0.0326,0.0626 z"
       id="path10024-4-6-0-0-1"
       inkscape:connector-curvature="0" />
    <path
       style="fill:#4d4d4d;fill-opacity:1;fill-rule:nonzero;stroke:#000000;stroke-width:0;stroke-linecap:round;stroke-linejoin:miter;stroke-miterlimit:4;stroke-opacity:1;stroke-dasharray:none"
       d="m 339.02554,165.10459 c -0.45277,0.2255 -1.07724,0.27359 -1.37794,0.71543 0.0203,0.69877 0.4094,1.34946 0.62093,2.00975 0.41541,1.11001 1.29745,2.02991 2.33462,2.57834 1.24053,0.60782 2.54665,-0.21127 3.6007,-0.82246 0.7529,-0.41291 1.58773,-0.72552 2.40979,-0.94445 1.64295,0.11261 3.44294,0.61622 4.45805,2.00146 0.55582,1.13366 0.66031,2.42812 1.18163,3.57104 0.5966,1.00488 1.70399,1.57351 2.75293,1.99014 1.59518,0.60019 3.49138,0.57397 4.91496,-0.43799 0.84418,-0.56273 1.65257,-1.41978 1.61461,-2.50723 -0.0506,-0.61424 0.15348,-1.38603 -0.42427,-1.803 -2.97093,-3.38991 -7.02891,-5.73769 -11.4011,-6.7331 -3.35282,-0.81889 -6.94767,-0.9263 -10.23551,0.2256 -0.15117,0.0484 -0.30025,0.10243 -0.44914,0.15739 z"
       id="path10044-6-0-5-6-9"
       inkscape:connector-curvature="0" />
    <path
       style="fill:#4d4d4d;fill-opacity:1;fill-rule:nonzero;stroke:#000000;stroke-width:0;stroke-linecap:round;stroke-linejoin:miter;stroke-miterlimit:4;stroke-opacity:1;stroke-dasharray:none"
       d="m 301.16219,181.05727 c -0.6186,1.14009 -1.0354,2.51418 -0.78355,3.79736 1.32847,0.42086 1.5879,1.98735 1.66855,3.18556 0.0213,1.38834 0.0115,2.86364 -0.57998,4.12772 -0.18414,0.51831 -0.95711,0.0583 -1.04206,0.65012 -0.0884,0.39307 -0.32205,1.10823 0.31363,1.12382 1.25136,0.21644 2.87306,0.62974 3.82624,-0.51299 1.059,-1.36731 1.71159,-3.17018 1.42706,-4.91001 -0.21471,-1.63083 -2.37419,-2.28687 -2.2476,-4.02671 -0.0562,-0.96352 0.43245,-2.15183 -0.29133,-2.96051 -0.62948,-0.46084 -1.505,-0.58241 -2.2506,-0.52499 l -0.0405,0.0508 z"
       id="path10078-8-2-4-2-7"
       inkscape:connector-curvature="0" />
    <path
       style="fill:#4d4d4d;fill-opacity:1;fill-rule:nonzero;stroke:#000000;stroke-width:0;stroke-linecap:round;stroke-linejoin:miter;stroke-miterlimit:4;stroke-opacity:1;stroke-dasharray:none"
       d="m 312.21546,179.94477 c -1.06818,0.40962 -2.29372,1.39493 -1.98682,2.6788 0.38015,1.79525 1.11722,3.50856 1.55917,5.2784 0.0387,1.35855 -0.45054,3.07896 0.69851,4.12544 1.52814,1.38291 4.07248,1.63873 5.67317,0.24106 0.85757,-0.82331 1.40952,-2.38607 0.55232,-3.38774 -0.6049,-0.25248 -1.06589,0.52743 -1.66052,0.55687 -1.05531,0.31082 -2.22799,-0.10591 -2.85699,-1.00954 -1.72882,-2.14605 -1.32606,-5.62621 0.76795,-7.37291 0.42597,-0.0707 0.65036,-0.66067 0.1678,-0.84 -0.90193,-0.53992 -1.93317,-0.758 -2.91451,-0.27026 z"
       id="path10080-0-4-6-1-1"
       inkscape:connector-curvature="0" />
    <path
       style="fill:#4d4d4d;fill-opacity:1;fill-rule:nonzero;stroke:#000000;stroke-width:0;stroke-linecap:round;stroke-linejoin:miter;stroke-miterlimit:4;stroke-opacity:1;stroke-dasharray:none"
       d="m 311.03675,173.37127 c -1.21577,0.5668 -2.5435,1.01448 -3.61494,1.82238 -0.51715,0.88914 -0.12527,2.23461 0.76465,2.74342 0.86833,0.14715 1.67126,-0.48216 2.45556,-0.75692 0.98925,-0.53582 2.42997,-0.87391 2.76987,-2.09744 0.0548,-1.0262 -1.06176,-1.98256 -2.05553,-1.82719 -0.10878,0.0319 -0.21599,0.0697 -0.31962,0.11577 z"
       id="path10082-0-5-0-0-4"
       inkscape:connector-curvature="0" />
    <path
       style="fill:#4d4d4d;fill-opacity:1;fill-rule:nonzero;stroke:#000000;stroke-width:0;stroke-linecap:round;stroke-linejoin:miter;stroke-miterlimit:4;stroke-opacity:1;stroke-dasharray:none"
       d="m 303.29785,195.39902 c -0.54701,0.24039 -0.39014,0.88368 -0.431,1.35575 -0.14242,0.99917 -0.95172,1.75315 -1.18568,2.71185 0.10666,0.80386 0.94241,1.26531 1.48269,1.78635 0.8458,0.6242 1.80689,1.21599 2.84024,1.40311 0.60218,-0.48261 1.39487,-1.14951 1.04801,-2.02475 -0.21229,-0.58306 -0.23295,-1.29312 -0.61739,-1.77296 -0.79591,-0.14299 -1.73065,-0.36722 -2.25965,-1.01825 -0.0833,-0.25645 0.15539,-0.38909 0.33741,-0.1585 0.75454,0.53703 1.95824,1.07519 2.72666,0.27409 0.59865,-0.39919 0.82763,-1.15291 1.35496,-1.58483 0.28301,0.19381 -0.0468,0.71358 -0.18126,0.94695 -0.33845,0.5543 -0.89406,0.92324 -1.30744,1.36741 -0.0167,0.85339 0.25761,1.75513 0.705,2.47958 1.29432,1.21996 3.27468,2.2342 5.0175,1.33978 1.01954,-0.42635 1.63415,-1.38768 2.48953,-2.02284 0.38288,0.0812 -0.11796,0.60411 -0.0775,0.84854 0.13719,0.53427 0.8401,0.0518 1.20724,0.0514 1.15893,-0.35485 2.40556,-0.45095 3.52593,-0.90437 0.65563,-0.61473 0.93505,-1.56533 1.15787,-2.41739 0.24785,-0.78031 -0.45741,-1.39216 -1.14226,-1.57794 -1.38549,-0.59807 -2.86402,-0.0362 -4.09868,0.65966 -1.09155,0.41468 -2.28155,0.91033 -3.46762,0.78885 -0.8923,-0.15651 -0.97879,-1.27403 -1.33291,-1.94551 -0.32227,-0.5548 -0.32019,-1.41764 -0.87117,-1.76307 -0.97514,-0.30436 -2.26143,-0.48678 -2.9402,0.47727 -0.42295,0.43806 -0.90525,0.91236 -1.56678,0.74423 -0.7989,0.021 -1.6391,-0.27168 -2.41333,-0.0444 z"
       id="path10084-9-7-5-4-0"
       inkscape:connector-curvature="0" />
    <path
       style="fill:#4d4d4d;fill-opacity:1;fill-rule:nonzero;stroke:#000000;stroke-width:0;stroke-linecap:round;stroke-linejoin:miter;stroke-miterlimit:4;stroke-opacity:1;stroke-dasharray:none"
       d="m 324.26067,202.49651 c -0.86239,0.30497 -1.42908,1.368 -1.19214,2.24687 0.75908,1.35685 2.61261,1.94655 4.04797,1.43883 0.54875,-0.66758 1.25591,-1.16663 1.86483,-1.75999 0.5317,-0.83387 -0.35821,-2.04498 -1.29774,-1.9907 -0.93617,0.14791 -1.8247,-0.45216 -2.76019,-0.13089 -0.22529,0.0508 -0.44977,0.10487 -0.66272,0.19583 z"
       id="path10086-1-5-0-8-1"
       inkscape:connector-curvature="0" />
    <path
       style="fill:#4d4d4d;fill-opacity:1;fill-rule:nonzero;stroke:#000000;stroke-width:0;stroke-linecap:round;stroke-linejoin:miter;stroke-miterlimit:4;stroke-opacity:1;stroke-dasharray:none"
       d="m 327.59671,212.21417 c -0.80094,0.42196 -1.23401,1.87377 -0.33041,2.401 0.60679,0.16378 1.37719,-0.36252 1.28015,-1.04026 0.0565,-0.55126 -0.23177,-1.52817 -0.94974,-1.36074 z"
       id="path10088-6-3-6-5-1"
       inkscape:connector-curvature="0" />
    <path
       style="fill:#4d4d4d;fill-opacity:1;fill-rule:nonzero;stroke:#000000;stroke-width:0;stroke-linecap:round;stroke-linejoin:miter;stroke-miterlimit:4;stroke-opacity:1;stroke-dasharray:none"
       d="m 333.15795,210.07963 c -0.56526,0.30038 -1.53729,0.54594 -1.46134,1.35261 0.008,0.74206 -0.39869,1.48472 -0.29894,2.20597 0.66245,0.3346 1.44238,-0.13241 2.09935,-0.31451 0.92457,-0.32026 2.13008,-1.0767 1.8319,-2.23021 -0.27495,-0.84735 -1.36197,-1.27654 -2.17097,-1.01385 z"
       id="path10090-2-5-4-4-6"
       inkscape:connector-curvature="0" />
    <path
       style="fill:#4d4d4d;fill-opacity:1;fill-rule:nonzero;stroke:#000000;stroke-width:0;stroke-linecap:round;stroke-linejoin:miter;stroke-miterlimit:4;stroke-opacity:1;stroke-dasharray:none"
       d="m 344.04737,210.48916 c -0.39976,0.15673 -1.31174,0.31367 -1.06621,0.93276 0.35352,0.79795 0.49652,2.00731 1.4596,2.29046 0.85373,-0.29513 1.55915,-1.61494 0.74973,-2.32485 -0.37979,-0.25437 -0.60949,-0.67686 -0.98486,-0.8979 -0.0523,-0.007 -0.1063,-0.0128 -0.15834,-9.2e-4 z"
       id="path10092-0-3-5-3-7"
       inkscape:connector-curvature="0"
       inkscape:transform-center-x="-1.1614292"
       inkscape:transform-center-y="0.85231712" />
    <path
       style="fill:#4d4d4d;fill-opacity:1;fill-rule:nonzero;stroke:#000000;stroke-width:0;stroke-linecap:round;stroke-linejoin:miter;stroke-miterlimit:4;stroke-opacity:1;stroke-dasharray:none"
       d="m 367.44045,200.87652 c -1.55062,1.26182 -2.18469,3.22403 -3.11171,4.92557 -0.83558,1.38743 -2.60052,1.60741 -4.00021,2.12174 -1.00489,0.41525 -2.41108,0.27701 -3.06994,1.30103 -0.41855,0.65633 0.19807,1.3278 0.80758,1.54079 0.53392,0.31962 1.14491,0.63666 1.62387,0.0406 2.86862,-1.94104 5.7895,-3.92156 8.10781,-6.50935 0.69191,-0.90923 1.34619,-2.16776 0.9387,-3.32012 -0.28346,-0.51231 -0.90146,-0.47151 -1.29589,-0.10033 z"
       id="path10094-9-0-6-5-5"
       inkscape:connector-curvature="0" />
    <path
       style="fill:#4d4d4d;fill-opacity:1;fill-rule:nonzero;stroke:#000000;stroke-width:0;stroke-linecap:round;stroke-linejoin:miter;stroke-miterlimit:4;stroke-opacity:1;stroke-dasharray:none"
       d="m 354.79401,195.61917 c -0.88213,0.57992 -1.61284,1.55001 -1.7455,2.61978 -0.0716,1.89248 2.04295,3.28294 3.80134,2.84309 1.34308,-0.29832 2.57965,-1.09143 3.51272,-2.09328 0.98604,-1.15686 0.79364,-2.95513 0.0172,-4.16746 -0.27639,-0.49487 -0.96673,-0.60529 -1.31199,-0.12034 -0.93959,0.94076 -1.49031,2.28689 -2.61999,3.02132 -0.81761,0.30365 -1.23747,-0.69038 -1.21915,-1.3612 0.0303,-0.28642 0.23183,-0.8911 -0.27576,-0.79763 -0.0556,0.009 -0.10713,0.0346 -0.15886,0.0555 z"
       id="path10096-8-9-9-0-5"
       inkscape:connector-curvature="0" />
    <path
       style="fill:#4d4d4d;fill-opacity:1;fill-rule:nonzero;stroke:#000000;stroke-width:0;stroke-linecap:round;stroke-linejoin:miter;stroke-miterlimit:4;stroke-opacity:1;stroke-dasharray:none"
       d="m 361.61768,183.20254 c -1.22675,0.57623 -2.576,1.62817 -2.58049,3.11335 0.15488,1.35038 1.28812,2.30241 2.03082,3.35873 0.81284,1.16243 2.1447,2.07806 2.4291,3.5243 0.12281,0.78999 -0.0702,1.8953 0.83688,2.28372 1.1034,0.56447 2.61519,0.86834 3.69073,0.10757 0.97096,-0.84427 0.90856,-2.21828 0.73624,-3.38016 -0.451,-3.08912 -0.34277,-6.3057 -1.46152,-9.26225 -0.57388,-0.30844 -1.35583,-0.15676 -2.01452,-0.23541 -1.23651,-0.018 -2.50136,0.038 -3.6669,0.49001 z"
       id="path10098-3-8-1-1-5"
       inkscape:connector-curvature="0" />
    <path
       style="fill:#4d4d4d;fill-opacity:1;fill-rule:nonzero;stroke:#000000;stroke-width:0;stroke-linecap:round;stroke-linejoin:miter;stroke-miterlimit:4;stroke-opacity:1;stroke-dasharray:none"
       d="m 349.07762,182.92726 c -2.0408,1.19382 -4.0084,2.77243 -5.08424,4.92942 -0.26274,0.7129 -0.77369,1.46291 -0.65124,2.24337 0.97965,1.67191 1.3003,3.02617 2.33538,4.64648 0.2558,0.40041 1.66257,0.35724 1.8723,0.0107 0.24435,-0.40381 0.98476,-1.08083 0.40363,-1.46146 -0.63002,-0.41263 -1.50569,-0.78232 -1.67739,-1.59258 -0.15234,-0.71883 0.0641,-1.65412 0.93676,-1.71929 0.95959,-0.0717 1.99412,0.4203 2.86017,9.4e-4 1.65769,-0.80272 3.15681,-2.52903 3.10642,-4.50965 -0.14451,-1.28983 -1.56849,-1.84953 -2.60007,-2.30479 -0.46474,-0.18664 -1.00026,-0.48773 -1.50172,-0.24312 z"
       id="path10100-5-3-8-4-2"
       inkscape:connector-curvature="0"
       sodipodi:nodetypes="cccssssssccc" />
    <path
       style="fill:#4d4d4d;fill-opacity:1;fill-rule:nonzero;stroke:#000000;stroke-width:0;stroke-linecap:round;stroke-linejoin:miter;stroke-miterlimit:4;stroke-opacity:1;stroke-dasharray:none"
       d="m 346.77886,172.59608 c -1.21152,0.3555 -2.00797,1.62536 -1.77519,2.86742 0.21918,1.80342 2.05121,3.35102 3.88776,2.88213 0.68134,-0.097 1.36972,-0.70406 1.0911,-1.44483 -0.12911,-0.90989 -1.05847,-1.68569 -0.79216,-2.62431 0.57372,-0.7247 -0.0588,-1.72058 -0.8702,-1.8814 -0.51612,-0.15634 -1.05639,0.0232 -1.54142,0.20104 z"
       id="path10102-2-0-0-4-2"
       inkscape:connector-curvature="0" />
    <path
       style="fill:#4d4d4d;fill-opacity:1;fill-rule:nonzero;stroke:#000000;stroke-width:0;stroke-linecap:round;stroke-linejoin:miter;stroke-miterlimit:4;stroke-opacity:1;stroke-dasharray:none"
       d="m 334.28941,170.28437 c -0.90502,0.41464 -1.95947,0.60668 -2.7423,1.23903 -0.68677,0.9271 -0.02,2.33516 1.03434,2.63062 1.33295,0.57759 3.04859,0.8229 3.71017,2.31287 0.68431,1.13548 0.89483,2.62658 1.96728,3.4862 1.3824,0.94867 3.67411,0.48507 4.38617,-1.08534 0.35752,-1.35173 -0.64169,-2.60648 -1.47628,-3.56093 -0.92487,-1.24025 -2.74156,-0.83229 -3.82432,-1.7753 -0.54851,-0.92965 -0.76318,-2.06177 -1.45855,-2.9272 -0.23469,-0.43028 -0.7399,-0.8084 -1.22183,-0.45495 -0.12519,0.0443 -0.24981,0.0902 -0.37474,0.13515 z"
       id="path10104-9-7-3-9-9"
       inkscape:connector-curvature="0" />
    <path
       style="fill:#f7f7f7;fill-opacity:1;fill-rule:nonzero;stroke:#000000;stroke-width:0;stroke-linecap:round;stroke-linejoin:miter;stroke-miterlimit:4;stroke-opacity:1;stroke-dasharray:none"
       d="m 366.13046,175.04698 c -0.66723,0.33967 -0.92852,1.28005 -0.40415,1.88662 1.83637,3.55987 3.10961,7.42117 3.44273,11.42058 0.25829,1.50431 0.12345,3.10575 0.64417,4.5333 0.51172,0.35472 0.83117,-0.6419 1.16404,-0.87796 2.04529,-2.61928 3.93501,-5.56317 4.56336,-8.85848 0.0582,-1.13237 -0.65163,-2.60614 -1.8783,-2.71758 -0.71532,0.33145 -1.11859,1.09838 -1.53888,1.73212 -1.01891,-0.25258 -0.46434,-0.81757 -0.0903,-1.41933 0.62806,-1.29155 1.80505,-2.80607 0.903,-4.26549 -0.63802,-1.12985 -1.82361,-2.14948 -3.1504,-2.25086 -1.0244,0.42406 -0.90981,1.85187 -1.03339,2.77835 -0.0944,0.3928 0.20636,1.35043 -0.49629,1.22717 -0.66351,0.15138 -0.2507,-0.80186 -0.43048,-1.15516 -0.12934,-0.79817 -0.59513,-2.41045 -1.69515,-2.03326 z"
       id="path10116-5-2-8-3-4"
       inkscape:connector-curvature="0" />
    <path
       style="fill:#d7d7d7;fill-opacity:1;fill-rule:nonzero;stroke:#2a1431;stroke-width:0;stroke-linecap:round;stroke-linejoin:miter;stroke-miterlimit:4;stroke-opacity:1;stroke-dasharray:none"
       d="m 352.76423,205.38439 c -0.77043,0.12582 -1.48574,0.51058 -1.89818,1.1905 -1.61123,1.25631 -3.59285,1.91181 -5.39338,2.8498 -0.50696,0.3586 -1.42529,0.38972 -1.58027,1.06618 0.23274,0.65118 1.04953,0.95192 1.2731,1.59734 0.0125,0.48231 -0.28956,1.07265 -0.77084,1.18327 -0.81876,-0.45411 -0.66706,-1.66253 -1.36844,-2.20944 -0.73807,-0.15914 -1.12647,0.73353 -1.56024,1.1748 -0.95275,0.94379 -1.02185,2.67358 0.0136,3.57492 1.07945,0.63057 2.3845,0.087 3.48294,-0.23678 0.57343,-0.27498 1.71275,-0.36807 1.45881,-1.24958 -0.21304,-0.98115 -0.0805,-2.01876 0.56724,-2.8054 1.49188,-1.86971 3.6139,-3.10608 5.39214,-4.67701 0.33558,-0.37372 1.3069,-0.76555 0.84833,-1.38189 -0.14092,-0.0975 -0.3014,-0.11769 -0.4648,-0.0767 z"
       id="path15132-2"
       inkscape:connector-curvature="0" />
    <path
       style="fill:#ffffff;fill-opacity:1;fill-rule:nonzero;stroke:#000000;stroke-width:1.70477462;stroke-linecap:round;stroke-linejoin:miter;stroke-miterlimit:4;stroke-opacity:1;stroke-dasharray:none"
       d="m 321.86332,174.00966 c 0.0685,-0.39054 1.43169,-1.73057 4.38039,-1.71242 7.61486,0.0468 29.10224,11.72026 30.3093,14.48976 2.5819,5.92409 -6.63249,11.02335 -11.24632,9.29042 -8.40511,-3.15692 -10.36678,-15.23193 -18.57137,-17.83621 -0.7736,-0.24564 -2.39894,-0.24705 -2.39894,-0.24705"
       id="path9979-6-6-9-5-9-5-6-8-5"
       inkscape:connector-curvature="0"
       sodipodi:nodetypes="cssssc" />
    <path
       style="fill:#4d4d4d;fill-opacity:1;fill-rule:nonzero;stroke:#000000;stroke-width:0;stroke-linecap:round;stroke-linejoin:miter;stroke-miterlimit:4;stroke-opacity:1;stroke-dasharray:none"
       d="m 317.3378,174.08209 c -1.27678,1.17777 -0.44088,3.34423 0.49355,3.79773 3.07639,1.49305 2.54733,2.57273 3.00695,5.15194 0.33533,1.88173 2.28432,3.64821 4.0835,3.93544 1.16929,0.18666 2.87314,-0.0585 3.71299,-0.92088 0.57887,-0.59439 0.79792,-2.85884 0.58365,-3.57616 -0.50973,-1.70662 -3.79879,-2.4465 -5.08594,-4.24313 -0.16975,-0.23693 -0.0608,-0.54774 0.23915,-0.53281 1.07826,0.0537 2.19386,0.0865 3.21268,0.5245 1.77025,0.76109 3.3094,1.94492 4.6172,3.34864 2.1934,2.35427 3.8547,5.11674 5.76614,7.68311 1.59776,2.21936 3.41641,4.37837 5.82293,5.74388 0.77828,0.43098 1.59722,0.86943 2.48216,0.98689 0.38832,-0.19088 0.67164,-0.59133 1.01971,-0.86128 2.85949,-2.62873 5.76203,-5.21143 8.58843,-7.87567 0.21635,-0.16669 0.36881,-0.49628 0.11902,-0.70783 -1.53073,-1.50401 -3.3817,-2.62884 -5.18692,-3.76775 -4.6577,-2.81083 -9.53185,-5.25974 -14.55234,-7.3469 -2.75623,-1.0956 -5.55326,-2.19165 -8.49983,-2.64667 -1.72767,-0.26669 -3.60948,-0.17256 -5.1164,0.82259 -0.29627,0.19577 -0.69118,-0.0465 -1.00785,0.0761 -0.24886,0.0964 -0.56437,-0.11867 -0.43896,-0.33705 0.19412,-0.33795 -0.13053,-0.51506 -0.47708,-0.49697 -1.91935,0.1626 -1.99721,-0.0358 -3.38274,1.24228 z"
       id="path10034-3-6-4-6-6-6-7-8-6"
       inkscape:connector-curvature="0"
       sodipodi:nodetypes="ssssssssssccccccccsssscs" />
    <path
       style="fill:#4d4d4d;fill-opacity:1;fill-rule:nonzero;stroke:#000000;stroke-width:0;stroke-linecap:round;stroke-linejoin:miter;stroke-miterlimit:4;stroke-opacity:1;stroke-dasharray:none"
       d="m 350.69591,191.63552 c -1.20845,1.28725 -4.66246,2.24099 -5.47503,3.82815 0.15535,0.93861 3.30841,0.37883 3.92119,0.34933 2.99272,-0.57357 5.96972,-2.45509 7.31258,-5.20335 0.38546,-1.16417 0.33784,-2.78932 -0.28986,-3.87214 -1.41494,0.78331 -2.56764,2.3998 -3.87536,3.43493 -0.53443,0.48416 -1.06552,0.97194 -1.59374,1.46289 z"
       id="path10036-7-8-2-3-8-3-2-1-5"
       inkscape:connector-curvature="0"
       sodipodi:nodetypes="cccccccc" />
    <path
       style="fill:#d7d7d7;fill-opacity:1;fill-rule:nonzero;stroke:#2a1431;stroke-width:0;stroke-linecap:round;stroke-linejoin:miter;stroke-miterlimit:4;stroke-opacity:1;stroke-dasharray:none"
       d="m 22.002984,23.294831 c -1.189835,0.07902 -2.496221,0.05318 -3.558261,0.64 -0.478976,0.69266 0.711714,1.008575 0.674783,1.683478 -0.05253,0.970503 -1.252049,1.290007 -1.957173,1.725839 -0.874198,0.375969 -1.753374,0.970224 -2.714131,1.015031 -0.576277,-0.379704 -0.756569,-1.119422 -0.8,-1.766957 -0.311433,-0.669138 -1.053405,-0.04166 -1.422253,0.228858 -1.742348,1.318307 -3.5049958,2.774566 -4.6264431,4.682446 -0.2126843,0.590649 0.4724784,0.718504 0.8973913,0.747826 0.5368882,0.102758 1.1007612,0.442836 1.0330435,1.053914 0.102409,1.321869 -0.2819833,2.882442 0.7697063,3.926068 0.643387,0.778221 1.568017,1.547207 1.466815,2.661758 0.07399,1.553272 -0.517246,3.159319 -1.596521,4.274782 -1.0464486,0.787781 -2.4434724,0.137707 -3.5965221,0.313044 -0.3270027,0.642546 -0.043028,1.446798 -0.024348,2.156522 0.220229,1.124917 0.3410237,2.370065 1.0365218,3.314782 0.6227652,0.440137 0.9440298,-0.485061 1.1672472,-0.903486 0.4710444,-0.735402 0.548724,-1.605927 0.7214484,-2.432166 1.0934237,-0.292776 2.3502367,0.179014 3.4260877,-0.264348 0.728208,-0.463457 1.30193,-1.422396 2.292173,-1.2 0.437078,0.08958 1.124731,-0.0106 1.196522,0.587826 0.554751,1.02169 0.67416,2.37755 1.641739,3.123479 1.257084,0.465997 2.635508,-0.08678 3.828455,-0.521604 1.317583,-0.541859 2.831256,-1.426609 4.244589,-0.664483 0.441287,0.192464 1.041331,0.579985 0.754783,1.144347 -0.09309,0.676142 -0.563947,1.261133 -0.657392,1.926957 0.27572,0.702756 1.098094,0.108388 1.611422,0.08097 2.181109,-0.464932 4.312387,-1.409564 5.863361,-3.044446 0.33759,0.353906 0.988291,0.727325 0.340869,1.078261 -1.720577,1.581332 -3.936407,2.526986 -6.205958,2.973972 -2.194595,0.536379 -4.423522,0.976716 -6.587085,1.613854 -0.585533,0.543522 0.321114,1.132436 0.688696,1.474782 3.38579,3.038134 7.806201,5.137319 12.417381,5.0102 0.499896,-0.02979 1.52969,0.191207 1.481749,-0.596287 -0.256082,-0.393013 -0.364782,-1.330484 0.326957,-1.273043 0.654785,0.506074 0.83099,1.447729 1.203478,2.163478 0.246441,0.444838 0.281661,0.994915 0.573913,1.398261 0.778849,0.312694 1.465012,-0.748976 2.267826,-0.427826 0.765631,0.145602 1.214093,1.137844 0.608696,1.721739 -0.888494,0.882783 -2.210399,1.15076 -3.399621,1.310481 -0.509782,0.420233 -0.407915,1.268834 -0.709654,1.852153 -0.181926,0.84252 -0.912804,1.607686 -0.763769,2.499975 0.484841,0.710265 1.537015,0.695308 2.288696,0.507826 2.146006,-0.35766 4.140849,-1.994691 4.500869,-4.201739 0.411675,-3.09892 0.05625,-6.259771 0.299131,-9.363479 0.307479,-0.142765 0.787982,-0.11815 0.754782,0.32 0.215972,0.887663 0.01548,1.874781 0.382609,2.713044 0.712793,0.235692 1.475603,-0.195908 2.210303,-0.232497 3.533528,-0.665592 7.072897,-1.430342 10.474915,-2.584894 0.572039,-0.186975 0.301068,-0.958392 -0.229566,-0.966957 -2.741814,-0.917832 -4.76297,-3.115048 -6.594782,-5.252174 -0.841742,-0.974608 -1.236904,-2.195178 -1.572174,-3.408696 -0.444797,-0.888912 -1.409252,-1.331001 -2.019574,-2.099574 -3.365048,-3.275589 -5.446102,-7.633901 -8.655209,-11.069121 -1.72637,-1.808394 -3.929748,-3.574044 -6.535652,-3.634783 -0.55907,0.08949 -0.46514,0.832988 -0.0035,1.036522 1.114737,0.931179 2.606388,1.44159 3.516521,2.591304 0.53454,0.985247 0.246245,2.213602 -0.06609,3.238261 -0.483243,0.893319 -1.612342,1.257878 -2.577391,1.175652 -0.893465,0.0817 -1.796495,-0.04805 -2.525217,-0.601739 -1.332085,-0.833497 -2.247464,-2.255812 -2.36156,-3.831705 -0.202188,-1.237329 -0.309624,-2.659239 -1.388005,-3.486556 -0.806964,-0.813464 -2.23332,-1.021816 -2.52174,-2.285217 -0.433793,-1.037852 0.303769,-2.040826 1.116522,-2.626087 0.366293,-0.237064 0.664256,-0.912865 0.07652,-1.085218 -0.819392,-0.122943 -1.658737,-0.142646 -2.486957,-0.142608 z m -2.775652,7.575652 c 0.843738,-0.09854 1.565047,0.383102 2.337391,0.573913 0.819243,-0.171004 1.717492,-0.236126 2.469566,0.226087 1.818158,1.100546 2.140401,3.521519 1.746087,5.436522 -0.143138,0.886463 -0.684017,1.620649 -1.168696,2.333913 -0.158375,0.547953 0.387123,1.012525 0.236522,1.57913 -0.121454,1.575465 -1.729802,2.686468 -3.266087,2.556522 -1.334035,0.0081 -2.924865,-0.710699 -3.286957,-2.093913 -0.187449,-1.335803 0.242733,-2.755457 -0.374305,-4.025677 -0.409949,-1.525594 -1.080376,-2.995157 -1.201347,-4.579541 0.159525,-1.155766 1.401815,-1.775267 2.42087,-2.003478 0.02907,0.0013 0.05789,-0.0047 0.08696,-0.0035 z m 12.382609,22.50087 c 0.83404,0.119193 1.707535,0.130337 2.535652,0.281739 0.538506,0.187751 1.013875,1.03024 0.431304,1.433043 -0.58732,0.574472 -1.120178,1.321171 -1.881739,1.652174 -1.158903,0.154683 -2.557458,-0.318864 -3.130435,-1.394782 -0.219073,-0.862461 0.514089,-1.747316 1.384348,-1.850435 0.219027,-0.06386 0.431416,-0.123359 0.66087,-0.121739 z"
       id="path15607"
       inkscape:connector-curvature="0"
       transform="translate(293.88257,149.22342)" />
    <path
       style="fill:#d7d7d7;fill-opacity:1;fill-rule:nonzero;stroke:#2a1431;stroke-width:0;stroke-linecap:round;stroke-linejoin:miter;stroke-miterlimit:4;stroke-opacity:1;stroke-dasharray:none"
       d="m 43.529941,16.627004 c -3.07319,1.545608 -6.06405,3.319051 -8.744348,5.453914 -0.441591,0.482124 0.281718,0.897571 0.736439,0.945873 0.658026,0.140836 1.316453,0.460084 1.990518,0.393257 0.277878,-0.378607 0.361492,-0.946457 0.883478,-1.116522 0.930304,-0.431682 1.90726,-0.927849 2.921739,-1.078261 1.079611,0.919329 1.167332,2.531277 2.166957,3.509566 1.205788,0.783645 2.919145,0.616201 3.812174,1.906087 0.448135,0.669108 0.952218,1.349355 1.743217,1.656247 2.381436,1.192557 4.722424,2.478501 7.040857,3.770039 0.847263,-0.09071 1.647104,-0.618282 2.498133,-0.811497 2.005286,-0.56134 4.124637,-1.033521 6.234314,-0.948702 0.469842,0.03758 0.523758,0.755379 0.02435,0.834782 -0.944451,0.2777 -1.975603,0.120558 -2.942608,0.365218 -1.259233,0.266667 -2.623411,0.368132 -3.749566,1.033043 -0.496742,0.557579 0.369896,0.986745 0.744348,1.262609 1.412302,0.999977 2.970791,1.933553 4.048696,3.297391 1.112591,1.960818 0.712289,4.518949 -0.688696,6.212174 -2.411949,3.033078 -6.512336,4.882845 -10.37913,4.163478 -0.596622,-0.05563 -1.185894,-0.607879 -1.777392,-0.316521 -0.341303,0.595581 0.340939,1.181535 0.616694,1.67487 1.682418,2.092963 3.644535,4.170302 6.284757,5.002259 2.174483,0.777053 4.588256,0.889869 6.841158,0.422001 2.747728,-0.722262 5.017373,-2.519454 7.248696,-4.194782 0.399137,-0.462259 1.106228,0.115014 0.730435,0.573913 -2.296198,1.96711 -4.835291,3.809586 -7.794783,4.580869 -0.674377,0.20928 -1.405969,0.192192 -1.925871,0.75388 -2.533983,2.116589 -5.198163,4.082159 -7.649781,6.289599 -0.801724,0.691605 -1.4815,2.083413 -0.612174,2.977391 1.164336,0.826215 2.72817,0.973915 4.111304,0.733913 2.508817,-0.59873 4.694306,-2.0319 6.862609,-3.366957 0.439532,-0.159635 0.788315,-0.8161 0.226087,-1.060869 -0.46224,-0.328221 -1.408897,-0.470023 -1.398261,-1.182609 0.404427,-0.955047 1.675152,-0.893523 2.507826,-1.213913 1.399397,-0.485997 3.003567,-0.733971 4.114783,-1.78087 1.414093,-1.706394 1.850216,-4.223383 3.756522,-5.533913 0.463927,-0.125096 1.279305,0.259433 1.302487,-0.483361 0.08127,-1.833465 -0.03548,-3.680269 -0.245096,-5.499247 -0.279118,-0.639859 -0.906595,-0.109975 -1.206957,0.201739 -1.055493,0.683864 -2.525135,0.350549 -3.488695,-0.347826 -0.525165,-0.678288 -0.202974,-1.67803 -0.622609,-2.424348 -0.819674,-1.630029 -2.256005,-2.850114 -3.276723,-4.350282 -0.614752,-0.733406 -1.214049,-1.741994 -0.719799,-2.696675 0.841383,-1.678093 2.853166,-2.328834 4.601632,-2.342279 0.914615,-0.09358 1.877832,0.117572 2.758368,-0.130764 0.294437,-0.629098 -0.305688,-1.288149 -0.436985,-1.915863 -1.161234,-2.872718 -2.544832,-5.724407 -4.456928,-8.167616 -0.460306,-0.434518 -0.963506,0.221664 -0.973913,0.702609 -0.501711,1.823314 -2.616472,2.746377 -4.396522,2.58087 -1.605457,-0.149609 -3.311011,-0.861936 -4.184348,-2.264348 -0.652594,-1.523685 -0.685965,-3.549278 -2.253913,-4.50087 -1.14185,-0.747765 -2.558926,-1.160243 -3.923478,-1.053913 -1.647929,0.360838 -3.040161,1.500317 -4.657391,1.881739 -1.567539,0.01351 -2.620068,-1.520119 -3.196522,-2.824348 -0.334509,-0.487053 -0.318306,-1.71891 -1.106087,-1.572174 z m 10.486957,6.918261 c 0.717118,-0.155551 1.43418,0.690667 0.998261,1.335653 -0.436495,1.192122 0.875575,2.186415 0.695652,3.353043 -0.635726,0.835501 -1.977278,0.681947 -2.779131,0.156522 -1.34277,-0.799743 -2.076591,-2.966724 -0.796522,-4.121739 0.504773,-0.47774 1.197207,-0.70393 1.88174,-0.723479 z M 65.724724,45.5557 c 0.743536,0.172277 0.875143,1.126665 0.970435,1.76 0.109276,0.842656 0.03388,1.759014 -0.667826,2.337392 -1.234306,1.215617 -3.068971,2.340738 -4.838261,1.666087 -1.172637,-0.429558 -2.031879,-1.849441 -1.40174,-3.04 0.227018,-0.536321 0.75061,-1.252465 1.2,-1.38087 -0.0027,0.822036 0.33623,2.046658 1.373914,1.972174 1.147101,-0.229565 1.664681,-1.478673 2.375652,-2.257391 0.313294,-0.355316 0.578655,-0.809805 0.987826,-1.057392 z"
       id="path15609"
       inkscape:connector-curvature="0"
       transform="translate(293.88257,149.22342)" />
    <path
       style="fill:#d7d7d7;fill-opacity:1;fill-rule:nonzero;stroke:#2a1431;stroke-width:0;stroke-linecap:round;stroke-linejoin:miter;stroke-miterlimit:4;stroke-opacity:1;stroke-dasharray:none"
       d="m 31.585593,60.846135 c -0.661873,0.438297 0.136257,1.165994 0.01044,1.76 0.06528,1.880199 -1.357202,3.325285 -1.822609,5.06087 -0.229397,0.662422 0.233668,1.32041 0.907826,1.422609 1.316284,0.414523 2.775908,0.04993 3.784348,-0.88 0.829516,-0.696866 0.977996,-1.865098 1.373326,-2.822444 0.382064,-1.375664 1.006598,-2.785649 0.864277,-4.230734 -0.334178,-0.58624 -1.181629,-0.131127 -1.750603,-0.216775 -1.124729,0.06261 -2.248158,-0.121523 -3.367,-0.09353 z m 2.302609,2.542609 c 0.436133,0.145963 0.38512,0.827367 0.368695,1.206957 -0.135244,0.37419 -0.859352,0.652154 -0.935652,0.09739 -0.08341,-0.445841 0.04377,-1.189993 0.566957,-1.304348 z"
       id="path15611"
       inkscape:connector-curvature="0"
       transform="translate(293.88257,149.22342)" />
    <path
       style="fill:#4d4d4d;fill-opacity:1;fill-rule:nonzero;stroke:#2a1431;stroke-width:0;stroke-linecap:round;stroke-linejoin:miter;stroke-miterlimit:4;stroke-opacity:1;stroke-dasharray:none"
       d="M 6.5455928,50.953961 C 5.9111165,51.368789 5.878571,52.276633 5.5682015,52.919179 4.6831856,55.746051 3.711174,58.763027 4.3647233,61.743527 4.5762132,62.329936 4.7403621,63.232631 5.4534189,63.371353 6.2050275,63.238292 5.7339337,62.353134 5.8116798,61.868744 5.656455,58.51827 6.0122935,55.055676 7.5403755,52.053092 7.5703281,51.566393 7.069814,50.871746 6.5455928,50.953961 z"
       id="path15613"
       inkscape:connector-curvature="0"
       transform="translate(293.88257,149.22342)" />
    <path
       style="fill:#de8787;fill-opacity:1;fill-rule:nonzero;stroke:#2a1431;stroke-width:0;stroke-linecap:round;stroke-linejoin:miter;stroke-miterlimit:4;stroke-opacity:1;stroke-dasharray:none"
       d="m 8.5177668,52.793961 c -0.6961752,0.400002 -0.7308497,1.375311 -1.0109699,2.054983 -0.6374679,2.034002 -0.7806292,4.169612 -0.6916395,6.289325 0.1006838,0.879599 -0.128623,1.882573 0.3286963,2.674823 0.5458624,0.551099 1.267622,-0.155763 1.8156522,-0.351304 1.8210931,-1.030714 3.3536701,-2.513346 4.7703351,-4.034354 0.602398,-0.743625 1.364795,-1.404592 1.801245,-2.25834 -0.0088,-0.769859 -0.911744,-0.395191 -1.364624,-0.284698 -0.525551,0.17037 -0.980608,-0.317774 -1.346086,-0.615652 -0.474138,-0.524797 -0.66855,-1.217647 -0.966957,-1.81913 -0.930759,-0.586541 -2.0958048,-0.791709 -2.9217392,-1.568696 -0.1186255,-0.08434 -0.2714293,-0.11496 -0.413913,-0.08696 z"
       id="path15615"
       inkscape:connector-curvature="0"
       transform="translate(293.88257,149.22342)" />
  </g>
</svg>
