<?xml version="1.0" encoding="UTF-8" standalone="no"?>
<!-- Created with Inkscape (http://www.inkscape.org/) -->

<svg
   xmlns:dc="http://purl.org/dc/elements/1.1/"
   xmlns:cc="http://creativecommons.org/ns#"
   xmlns:rdf="http://www.w3.org/1999/02/22-rdf-syntax-ns#"
   xmlns:svg="http://www.w3.org/2000/svg"
   xmlns="http://www.w3.org/2000/svg"
   xmlns:sodipodi="http://sodipodi.sourceforge.net/DTD/sodipodi-0.dtd"
   xmlns:inkscape="http://www.inkscape.org/namespaces/inkscape"
   width="88"
   height="75"
   id="svg10388"
   version="1.1"
   inkscape:version="0.48.5 r10040"
   sodipodi:docname="bunny-jump5.svg"
   inkscape:export-filename="/home/rhiannon/caveexplorer/lua-cave-gen/assets/bunny-jump5.png"
   inkscape:export-xdpi="90"
   inkscape:export-ydpi="90">
  <defs
     id="defs10390" />
  <sodipodi:namedview
     id="base"
     pagecolor="#ffffff"
     bordercolor="#666666"
     borderopacity="1.0"
     inkscape:pageopacity="0.0"
     inkscape:pageshadow="2"
     inkscape:zoom="3.1764562"
     inkscape:cx="42.309565"
     inkscape:cy="20.69394"
     inkscape:document-units="px"
     inkscape:current-layer="layer1"
     showgrid="false"
     fit-margin-top="0"
     fit-margin-left="0"
     fit-margin-right="0"
     fit-margin-bottom="0"
     inkscape:window-width="1278"
     inkscape:window-height="781"
     inkscape:window-x="0"
     inkscape:window-y="17"
     inkscape:window-maximized="0"
     showguides="true"
     inkscape:guide-bbox="true" />
  <metadata
     id="metadata10393">
    <rdf:RDF>
      <cc:Work
         rdf:about="">
        <dc:format>image/svg+xml</dc:format>
        <dc:type
           rdf:resource="http://purl.org/dc/dcmitype/StillImage" />
        <dc:title></dc:title>
      </cc:Work>
    </rdf:RDF>
  </metadata>
  <g
     inkscape:label="Layer 1"
     inkscape:groupmode="layer"
     id="layer1"
     transform="translate(-293.88257,-149.22342)">
    <path
       style="fill:#ffffff;fill-opacity:0;fill-rule:nonzero;stroke:#000000;stroke-width:1.70477462;stroke-linecap:butt;stroke-linejoin:miter;stroke-miterlimit:4;stroke-opacity:1;stroke-dasharray:none"
       d="m 326.18938,168.79916 c 0,0 -1.36694,-1.61491 -5.81406,-2.3017 -4.81765,-0.74401 -11.4559,2.00826 -14.49222,4.72968 -5.83594,5.23034 -2.04646,7.98864 -3.26088,11.15242 -1.18924,3.09823 -1.94953,5.44425 -1.11957,8.66024 0.6322,2.44981 3.31447,5.36108 6.90679,5.50101 6.1206,0.23846 8.77198,-0.65058 13.13726,-0.95303 3.44383,-0.23861 5.64021,-1.05847 7.52117,-2.72938"
       id="path9922-1-4-5-5"
       inkscape:connector-curvature="0"
       sodipodi:nodetypes="cssssssc" />
    <path
       style="fill:#000000;fill-opacity:1;fill-rule:nonzero;stroke:#000000;stroke-width:1.70477462;stroke-linecap:butt;stroke-linejoin:miter;stroke-miterlimit:4;stroke-opacity:1;stroke-dasharray:none"
       d="m 303.33034,178.06951 c 1.29245,1.47771 -0.0571,6.57392 -0.61362,6.53411 -0.98355,-0.0703 -1.8702,-0.76984 -1.70411,-3.50495 0.13136,-2.16336 1.56743,-3.88702 2.31774,-3.02918 z"
       id="path9924-5-2-5-6"
       inkscape:connector-curvature="0"
       sodipodi:nodetypes="ssss" />
    <path
       sodipodi:type="arc"
       style="fill:#ffffff;fill-opacity:1;fill-rule:nonzero;stroke:#ffffff;stroke-width:7.89696932;stroke-linecap:butt;stroke-linejoin:miter;stroke-miterlimit:4;stroke-opacity:1;stroke-dasharray:none"
       id="path9926-2-1-0-7"
       sodipodi:cx="246.53337"
       sodipodi:cy="1104.5435"
       sodipodi:rx="3.8544929"
       sodipodi:ry="4.1628523"
       d="m 250.38786,1104.5435 a 3.8544929,4.1628523 0 1 1 -7.70898,0 3.8544929,4.1628523 0 1 1 7.70898,0 z"
       transform="matrix(0.10225868,0.0248682,-0.04817946,0.20014379,330.87629,-47.519311)"
       inkscape:transform-center-x="4.2122885"
       inkscape:transform-center-y="0.724156" />
    <path
       sodipodi:type="arc"
       style="fill:#ffffff;fill-opacity:1;fill-rule:nonzero;stroke:#ffffff;stroke-width:16.73293495;stroke-linecap:butt;stroke-linejoin:miter;stroke-miterlimit:4;stroke-opacity:1;stroke-dasharray:none"
       id="path9926-1-7-1-1-4"
       sodipodi:cx="246.53337"
       sodipodi:cy="1104.5435"
       sodipodi:rx="3.8544929"
       sodipodi:ry="4.1628523"
       d="m 250.38786,1104.5435 a 3.8544929,4.1628523 0 1 1 -7.70898,0 3.8544929,4.1628523 0 1 1 7.70898,0 z"
       transform="matrix(0.02752401,0.01221298,-0.00723921,0.0747049,304.17351,96.57281)"
       inkscape:transform-center-x="1.0810413"
       inkscape:transform-center-y="0.18589539" />
    <path
       style="fill:#000000;fill-opacity:1;fill-rule:nonzero;stroke:#000000;stroke-width:1.16234636;stroke-linecap:butt;stroke-linejoin:miter;stroke-miterlimit:4;stroke-opacity:1"
       d="m 322.01953,180.12257 c -0.45832,2.34568 -2.21703,3.95763 -3.92813,3.60046 -1.71111,-0.35721 -2.72671,-2.54826 -2.26834,-4.89386 0.45829,-2.34563 2.21697,-3.95761 3.92809,-3.60044 1.71114,0.3572 2.72672,2.54823 2.26845,4.89381 z"
       id="path9946-1-9-0-8"
       inkscape:connector-curvature="0" />
    <path
       sodipodi:type="arc"
       style="fill:#ffffff;fill-opacity:1;fill-rule:nonzero;stroke:#ffffff;stroke-width:6.14886189;stroke-linecap:butt;stroke-linejoin:miter;stroke-miterlimit:4;stroke-opacity:1;stroke-dasharray:none"
       id="path9949-4-8-0-7"
       sodipodi:cx="217.08504"
       sodipodi:cy="1121.1949"
       sodipodi:rx="5.5504699"
       sodipodi:ry="8.4798841"
       d="m 222.63551,1121.1949 a 5.5504699,8.4798841 0 1 1 -11.10094,0 5.5504699,8.4798841 0 1 1 11.10094,0 z"
       transform="matrix(0.18426884,0.03579365,-0.03364179,0.18738838,316.13795,-39.688442)" />
    <path
       sodipodi:type="arc"
       style="fill:#ffffff;fill-opacity:1;fill-rule:nonzero;stroke:#ffffff;stroke-width:6.19660568;stroke-linecap:butt;stroke-linejoin:miter;stroke-miterlimit:4;stroke-opacity:1;stroke-dasharray:none"
       id="path9926-1-4-2-7-6-3"
       sodipodi:cx="246.53337"
       sodipodi:cy="1104.5435"
       sodipodi:rx="3.8544929"
       sodipodi:ry="4.1628523"
       d="m 250.38786,1104.5435 a 3.8544929,4.1628523 0 1 1 -7.70898,0 3.8544929,4.1628523 0 1 1 7.70898,0 z"
       transform="matrix(0.09373564,-0.01285212,3.2738686e-4,0.16678587,296.52172,-0.43796006)"
       inkscape:transform-center-x="3.5090868"
       inkscape:transform-center-y="1.8273107" />
    <path
       style="fill:#ffffff;fill-opacity:1;fill-rule:nonzero;stroke:#4d4d4d;stroke-width:1.16234636;stroke-linecap:round;stroke-linejoin:miter;stroke-miterlimit:4;stroke-opacity:1;stroke-dasharray:none"
       d="m 306.43909,195.90239 c -0.30629,1.70636 0.28599,2.67061 1.31127,3.27728 0.90222,-0.14523 1.87823,-0.0173 3.32241,-1.03401 -0.36837,-1.08865 -0.28226,-1.63047 -0.24229,-2.45026 -0.92276,-0.42541 -2.13395,0.29718 -2.75941,-1.31137 -0.28372,0.65915 -0.93708,1.36912 -1.632,1.51832 z"
       id="path9973-5-7-5-6"
       inkscape:connector-curvature="0"
       sodipodi:nodetypes="cccccc" />
    <path
       style="fill:#ffffff;fill-opacity:1;fill-rule:nonzero;stroke:#4d4d4d;stroke-width:0.77489758;stroke-linecap:round;stroke-linejoin:miter;stroke-miterlimit:4;stroke-opacity:1;stroke-dasharray:none"
       d="m 308.05802,195.13826 c 0.12005,0.62403 0.0417,1.57376 0.58981,2.42979"
       id="path9975-2-8-5-1"
       inkscape:connector-curvature="0"
       sodipodi:nodetypes="cc" />
    <path
       style="fill:#ffffff;fill-opacity:0;fill-rule:nonzero;stroke:#000000;stroke-width:1.16234636;stroke-linecap:round;stroke-linejoin:miter;stroke-miterlimit:4;stroke-opacity:1;stroke-dasharray:none"
       d="m 305.10903,195.55979 c 0.75505,0.91045 2.04503,0.20921 2.93319,-1.04966 l -0.45984,-2.60762"
       id="path9969-4-7-0-2"
       inkscape:connector-curvature="0"
       sodipodi:nodetypes="ccc" />
    <path
       style="fill:#ffffff;fill-opacity:1;fill-rule:nonzero;stroke:#000000;stroke-width:1.16234636;stroke-linecap:round;stroke-linejoin:miter;stroke-miterlimit:4;stroke-opacity:1;stroke-dasharray:none"
       d="m 308.07604,194.49583 c 3.56724,4.02549 6.16821,1.87246 7.79563,0.36086"
       id="path9971-3-6-8-8"
       inkscape:connector-curvature="0"
       sodipodi:nodetypes="cc" />
    <path
       style="fill:#ffffff;fill-opacity:1;fill-rule:nonzero;stroke:#000000;stroke-width:1.16234636;stroke-linecap:round;stroke-linejoin:miter;stroke-miterlimit:4;stroke-opacity:1;stroke-dasharray:none"
       d="m 305.29654,190.6283 c 0.51244,0.69852 1.22524,0.94183 2.16726,1.16001 1.03124,-0.33479 1.91593,-1.13972 2.18462,-1.83477"
       id="path9977-6-2-7-6"
       inkscape:connector-curvature="0"
       sodipodi:nodetypes="ccc" />
    <path
       style="fill:#ffffff;fill-opacity:0;fill-rule:nonzero;stroke:#000000;stroke-width:1.70477462;stroke-linecap:round;stroke-linejoin:miter;stroke-miterlimit:4;stroke-opacity:1;stroke-dasharray:none"
       d="m 301.36616,190.51923 c 0,0 -8.54356,9.38744 -5.29227,13.63291 3.3761,4.40847 17.11601,-6.72732 17.11601,-6.72732"
       id="path9981-8-5-8-5"
       inkscape:connector-curvature="0"
       sodipodi:nodetypes="csc" />
    <path
       style="fill:#ffffff;fill-opacity:0;fill-rule:nonzero;stroke:#000000;stroke-width:1.70477462;stroke-linecap:round;stroke-linejoin:miter;stroke-miterlimit:4;stroke-opacity:1;stroke-dasharray:none"
       d="m 302.75098,193.65911 c -1.35877,1.5283 -4.87871,5.00343 -4.42626,11.03036"
       id="path9983-5-0-1-3"
       inkscape:connector-curvature="0"
       sodipodi:nodetypes="cc" />
    <path
       style="fill:#ffffff;fill-opacity:0;fill-rule:nonzero;stroke:#000000;stroke-width:1.70477462;stroke-linecap:round;stroke-linejoin:miter;stroke-miterlimit:4;stroke-opacity:1;stroke-dasharray:none"
       d="m 313.70302,196.65012 c 1.63556,1.53923 3.72008,4.97556 8.7415,7.30661 4.3995,2.04236 9.33898,1.66997 14.17817,1.41979 6.25268,-0.32328 13.63487,-0.78877 20.63725,-3.23561 2.10316,-0.6687 -4.77435,3.61054 -9.39801,6.39622 -1.19624,0.72071 -3.18429,2.44727 -1.86678,4.26387 0.51742,0.71342 1.27433,0.76492 2.58226,1.26521 3.85196,1.47337 16.53534,-6.21959 19.34145,-8.74204 2.94739,-1.79664 2.32586,-10.69836 2.46408,-16.18675 9e-4,-0.009 0.002,-0.0165 0.002,-0.0249 0.31393,-2.82991 -0.26764,-5.85141 -1.0222,-8.58294 -2.70674,-9.79839 -8.06197,-15.73514 -16.91591,-18.2553 -2.25343,-0.64143 -4.68104,-0.87439 -7.0039,-0.57902 -0.65042,0.0827 -1.29971,0.204 -1.93786,0.35338 -2.76538,0.64723 -5.41253,1.85747 -7.97066,3.09519 -1.92628,0.93194 -6.53485,3.73009 -7.52385,3.99179"
       id="path9985-3-2-7-3"
       inkscape:connector-curvature="0"
       sodipodi:nodetypes="csscssscccsccscc" />
    <path
       style="fill:#ffffff;fill-opacity:1;fill-rule:nonzero;stroke:#000000;stroke-width:1.70477462;stroke-linecap:round;stroke-linejoin:miter;stroke-miterlimit:4;stroke-opacity:1;stroke-dasharray:none"
       d="m 329.52923,203.64045 c 0,0 0.59715,1.67129 0.83631,2.78388 0.20959,0.97516 -0.52664,1.81123 -0.82544,2.81992 -0.35594,1.20149 -1.63346,2.23766 -1.40721,3.40419 0.0657,0.33956 0.51408,0.53418 0.83926,0.74802 0.98792,0.64972 4.00945,0.40429 5.90254,-1.29792 1.88614,-1.69591 1.58018,-4.21418 1.91069,-6.15331 0.18019,-1.05704 0.29946,-4.05953 0.29946,-4.05953"
       id="path9989-2-5-5-8"
       inkscape:connector-curvature="0"
       sodipodi:nodetypes="cssssssc" />
    <path
       style="fill:#ffffff;fill-opacity:0;fill-rule:nonzero;stroke:#000000;stroke-width:1.70477462;stroke-linecap:round;stroke-linejoin:miter;stroke-miterlimit:4;stroke-opacity:1;stroke-dasharray:none"
       d="m 323.51827,204.40038 c 0,0 0.86494,0.92995 1.10408,2.04254 0.20959,0.97516 -0.0915,1.59944 -0.39039,2.60814 -0.35592,1.20149 -2.34932,2.10068 -2.1231,3.26724 0.0657,0.33957 0.51412,0.53418 0.83928,0.748 0.98791,0.64973 2.55429,0.95001 4.44737,-0.75218"
       id="path9989-3-1-0-5-1"
       inkscape:connector-curvature="0"
       sodipodi:nodetypes="cssssc" />
    <path
       style="fill:#ffffff;fill-opacity:1;fill-rule:nonzero;stroke:#000000;stroke-width:1.70477462;stroke-linecap:round;stroke-linejoin:miter;stroke-miterlimit:4;stroke-opacity:1;stroke-dasharray:none"
       d="m 365.70635,199.78057 c 0,0 -3.22715,2.06861 -5.01828,2.69958 -1.50164,0.52896 -3.10457,0.93802 -4.69541,0.8728 -1.95924,-0.0803 -3.93371,-0.64601 -5.67881,-1.54456 -1.26558,-0.65167 -2.40972,-1.59828 -3.30888,-2.70415 -1.42538,-1.75309 -3.00322,-3.75795 -3.13101,-6.01536 -0.45567,-8.04939 3.93421,-10.41571 6.89157,-11.8903 4.85942,-2.423 10.58006,-1.68791 10.58006,-1.68791"
       id="path10011-1-7-9-4"
       inkscape:connector-curvature="0"
       sodipodi:nodetypes="cssssssc" />
    <path
       style="fill:#000000;fill-opacity:0;fill-rule:nonzero;stroke:#000000;stroke-width:1.70477462;stroke-linecap:round;stroke-linejoin:miter;stroke-miterlimit:4;stroke-opacity:1;stroke-dasharray:none"
       d="m 350.42855,204.03884 c 0.64768,0.82818 -3.74189,1.91398 -6.05771,2.76028 -1.67081,0.61058 -2.83675,0.65907 -4.76124,2.85048 -1.17764,1.34098 -0.5335,3.31174 0.0259,3.81684 0.64746,0.58461 2.16524,0.55317 3.02815,0.43702 1.4931,-0.20094 3.00561,-0.83655 3.00561,-0.83655"
       id="path10014-9-0-1-9"
       inkscape:connector-curvature="0"
       sodipodi:nodetypes="cssssc" />
    <path
       style="fill:#000000;fill-opacity:0;fill-rule:nonzero;stroke:#000000;stroke-width:1.70477462;stroke-linecap:round;stroke-linejoin:miter;stroke-miterlimit:4;stroke-opacity:1;stroke-dasharray:none"
       d="m 370.43902,194.90123 c -0.0762,0.38079 4.96142,-3.51623 7.17386,-8.99656 0.75399,-1.8678 -0.0844,-4.34713 -1.11501,-4.54251 -1.03057,-0.19541 -2.39769,1.81215 -2.39769,1.81215 0,0 2.45764,-2.70259 2.53461,-4.12655 0.077,-1.42395 -0.77886,-2.67446 -1.59819,-3.36062 -0.81934,-0.68613 -1.5699,-1.27895 -2.59413,-0.71452 -1.02427,0.56438 -1.24393,4.12828 -1.24393,4.12828 0,0 0.33219,-2.33294 -0.2776,-3.22265 -0.33666,-0.49123 -0.9437,-0.90725 -1.60689,-0.78881 -0.6632,0.11842 -1.18818,1.11788 -1.18818,1.11788"
       id="path10020-6-2-8-2"
       inkscape:connector-curvature="0"
       sodipodi:nodetypes="csscssscssc" />
    <path
       style="fill:#000000;fill-opacity:0;fill-rule:nonzero;stroke:#502d16;stroke-width:0;stroke-linecap:round;stroke-linejoin:miter;stroke-miterlimit:4;stroke-opacity:1;stroke-dasharray:none"
       d="m 323.76207,168.00558 c 0.0467,0.99077 0.15453,2.05303 0.6333,2.93279 1.10295,0.42199 2.493,-0.45608 3.50108,0.36585 0.55992,0.46907 1.24478,1.43405 0.60415,2.12801 -0.32008,0.47206 -0.92374,0.49801 -1.35873,0.7608 0.0238,0.49903 0.68987,0.70412 0.925,1.11188 2.48242,2.88587 3.02484,6.82126 3.37673,10.48355 0.44738,3.88916 0.47253,7.96164 2.11131,11.58837 0.75921,1.64947 1.88823,3.22948 3.62013,3.93371 2.72853,1.18834 6.05207,1.38183 8.74453,-0.0111 1.46481,-0.78212 2.72979,-2.35449 2.55375,-4.09206 -0.98069,-3.18862 -2.75384,-6.05741 -4.40953,-8.93175 -3.35602,-5.47096 -6.93915,-10.88174 -11.45615,-15.46428 -1.5974,-1.55357 -3.49977,-3.20137 -5.83092,-3.2748 -0.5719,-0.033 -1.24182,0.41726 -1.76206,0.10882 -0.33332,-0.32326 0.13752,-0.66904 0.1277,-0.98743 -0.34803,-0.35562 -0.90177,-0.5112 -1.34078,-0.71039 l -0.0399,0.0582 z"
       id="path10024-4-6-0-0"
       inkscape:connector-curvature="0" />
    <path
       style="fill:#4d4d4d;fill-opacity:1;fill-rule:nonzero;stroke:#000000;stroke-width:0;stroke-linecap:round;stroke-linejoin:miter;stroke-miterlimit:4;stroke-opacity:1;stroke-dasharray:none"
       d="m 343.70528,162.40573 c -0.47665,0.16928 -1.10237,0.14176 -1.45413,0.54414 -0.0641,0.69612 0.24378,1.38896 0.37419,2.06994 0.2786,1.15198 1.04334,2.17148 2.00685,2.84092 1.15823,0.7529 2.55355,0.0972 3.67358,-0.3825 0.79718,-0.31916 1.6636,-0.52888 2.50605,-0.64713 1.6174,0.3098 3.34357,1.02668 4.18433,2.52417 0.41514,1.19238 0.36285,2.49 0.74263,3.68742 0.47114,1.06946 1.50192,1.76741 2.493,2.30742 1.51122,0.78807 3.39675,0.99058 4.93192,0.15757 0.90585,-0.45688 1.81164,-1.21026 1.90502,-2.29436 0.0238,-0.61586 0.31941,-1.35742 -0.20387,-1.84099 -2.54072,-3.72326 -6.28615,-6.54301 -10.5065,-8.05811 -3.22969,-1.21701 -6.78539,-1.7569 -10.18809,-1.00966 -0.1559,0.0298 -0.31041,0.0655 -0.46484,0.10211 z"
       id="path10044-6-0-5-6"
       inkscape:connector-curvature="0" />
    <path
       style="fill:#4d4d4d;fill-opacity:1;fill-rule:nonzero;stroke:#000000;stroke-width:0;stroke-linecap:round;stroke-linejoin:miter;stroke-miterlimit:4;stroke-opacity:1;stroke-dasharray:none"
       d="m 304.19527,173.67872 c -0.7515,1.05722 -1.33087,2.37106 -1.23551,3.67524 1.26806,0.57791 1.3368,2.16424 1.27245,3.36344 -0.14619,1.38079 -0.33375,2.84415 -1.07323,4.02773 -0.24527,0.49234 -0.95716,-0.0575 -1.11282,0.51979 -0.13509,0.37955 -0.45327,1.06134 0.17589,1.15343 1.21616,0.36568 2.77622,0.97142 3.86018,-0.0481 1.21607,-1.22971 2.08119,-2.94079 2.00843,-4.70223 -0.0166,-1.64482 -2.08127,-2.55634 -1.74591,-4.26824 0.0603,-0.96328 0.68864,-2.08403 0.0676,-2.97405 -0.56935,-0.53334 -1.42383,-0.75955 -2.17092,-0.79241 l -0.0463,0.0456 z"
       id="path10078-8-2-4-2"
       inkscape:connector-curvature="0" />
    <path
       style="fill:#4d4d4d;fill-opacity:1;fill-rule:nonzero;stroke:#000000;stroke-width:0;stroke-linecap:round;stroke-linejoin:miter;stroke-miterlimit:4;stroke-opacity:1;stroke-dasharray:none"
       d="m 315.30204,173.9065 c -1.10976,0.27789 -2.44512,1.10832 -2.29519,2.41982 0.16101,1.82798 0.68622,3.61763 0.91164,5.42784 -0.1253,1.35331 -0.81834,3.00221 0.19621,4.17955 1.35032,1.557 3.84528,2.11761 5.60276,0.92305 0.95054,-0.71395 1.68682,-2.1988 0.95659,-3.29648 -0.57006,-0.32354 -1.12169,0.39512 -1.71553,0.35268 -1.08508,0.18137 -2.19898,-0.37366 -2.71449,-1.34651 -1.45757,-2.33877 -0.63831,-5.74502 1.65096,-7.22661 0.43138,-0.0188 0.72524,-0.57747 0.26781,-0.81366 -0.83028,-0.64468 -1.82772,-0.98546 -2.86069,-0.61955 z"
       id="path10080-0-4-6-1"
       inkscape:connector-curvature="0" />
    <path
       style="fill:#4d4d4d;fill-opacity:1;fill-rule:nonzero;stroke:#000000;stroke-width:0;stroke-linecap:round;stroke-linejoin:miter;stroke-miterlimit:4;stroke-opacity:1;stroke-dasharray:none"
       d="m 314.92418,167.23886 c -1.27522,0.41614 -2.64722,0.70053 -3.80822,1.37341 -0.62055,0.82033 -0.39368,2.20322 0.42843,2.81558 0.84426,0.25073 1.71719,-0.27722 2.52888,-0.45545 1.04662,-0.41269 2.51759,-0.57467 3.00247,-1.74832 0.17811,-1.01211 -0.81507,-2.09607 -1.82032,-2.06161 -0.11184,0.0186 -0.22283,0.0432 -0.33125,0.0764 z"
       id="path10082-0-5-0-0"
       inkscape:connector-curvature="0" />
    <path
       style="fill:#4d4d4d;fill-opacity:1;fill-rule:nonzero;stroke:#000000;stroke-width:0;stroke-linecap:round;stroke-linejoin:miter;stroke-miterlimit:4;stroke-opacity:1;stroke-dasharray:none"
       d="m 304.58685,188.17332 c -0.572,0.17271 -0.4938,0.83022 -0.59126,1.29392 -0.2618,0.97473 -1.15608,1.62567 -1.50388,2.54918 0.009,0.81086 0.78305,1.36967 1.25659,1.95203 0.7644,0.72159 1.64716,1.4249 2.65043,1.7352 0.65595,-0.40652 1.52324,-0.97302 1.2844,-1.88368 -0.14047,-0.6044 -0.0754,-1.31177 -0.39921,-1.83445 -0.77287,-0.23787 -1.67378,-0.57313 -2.12046,-1.28317 -0.0518,-0.26462 0.20116,-0.36752 0.35406,-0.11668 0.68431,0.62406 1.81438,1.30337 2.67375,0.60072 0.6424,-0.32413 0.96055,-1.04476 1.53609,-1.40997 0.25759,0.2265 -0.13241,0.70274 -0.29407,0.9182 -0.40279,0.50947 -0.99881,0.80875 -1.46271,1.19986 -0.11943,0.84516 0.0442,1.77339 0.40101,2.54648 1.13785,1.36706 2.98154,2.61259 4.81945,1.93473 1.0635,-0.30036 1.78949,-1.18061 2.71518,-1.70804 0.37031,0.12675 -0.1899,0.58549 -0.17918,0.83301 0.0718,0.54691 0.82773,0.15269 1.19225,0.19652 1.19325,-0.21259 2.44237,-0.15774 3.60922,-0.47282 0.72494,-0.53124 1.11689,-1.44123 1.44078,-2.26022 0.34009,-0.74475 -0.28629,-1.43714 -0.94375,-1.70411 -1.30331,-0.76069 -2.83879,-0.38108 -4.14831,0.16087 -1.13357,0.2801 -2.37463,0.62871 -3.53742,0.36517 -0.86693,-0.26291 -0.8181,-1.38271 -1.08871,-2.09197 -0.25306,-0.5896 -0.147,-1.4459 -0.65233,-1.85522 -0.93135,-0.41967 -2.18628,-0.75579 -2.97629,0.11943 -0.47266,0.38389 -1.00861,0.79661 -1.64506,0.54997 -0.79561,-0.0754 -1.5944,-0.46725 -2.39038,-0.33497 z"
       id="path10084-9-7-5-4"
       inkscape:connector-curvature="0" />
    <path
       style="fill:#4d4d4d;fill-opacity:1;fill-rule:nonzero;stroke:#000000;stroke-width:0;stroke-linecap:round;stroke-linejoin:miter;stroke-miterlimit:4;stroke-opacity:1;stroke-dasharray:none"
       d="m 324.54145,197.74558 c -0.89286,0.1988 -1.58354,1.18579 -1.45425,2.08681 0.59002,1.43844 2.35896,2.24724 3.84505,1.91621 0.62521,-0.59658 1.38736,-1.00676 2.06336,-1.5224 0.62832,-0.76371 -0.10914,-2.07325 -1.04836,-2.1326 -0.94717,0.034 -1.7569,-0.66878 -2.72429,-0.4626 -0.22978,0.0233 -0.45913,0.0499 -0.68149,0.11453 z"
       id="path10086-1-5-0-8"
       inkscape:connector-curvature="0" />
    <path
       style="fill:#4d4d4d;fill-opacity:1;fill-rule:nonzero;stroke:#000000;stroke-width:0;stroke-linecap:round;stroke-linejoin:miter;stroke-miterlimit:4;stroke-opacity:1;stroke-dasharray:none"
       d="m 327.21716,207.30448 c -0.84596,0.32235 -1.45085,1.71138 -0.61738,2.34367 0.58263,0.23572 1.41084,-0.19389 1.39619,-0.87839 0.12251,-0.54043 -0.0459,-1.54496 -0.77881,-1.46528 z"
       id="path10088-6-3-6-5"
       inkscape:connector-curvature="0" />
    <path
       style="fill:#4d4d4d;fill-opacity:1;fill-rule:nonzero;stroke:#000000;stroke-width:0;stroke-linecap:round;stroke-linejoin:miter;stroke-miterlimit:4;stroke-opacity:1;stroke-dasharray:none"
       d="m 332.45993,206.34574 c -0.59734,0.23007 -1.59188,0.35669 -1.6137,1.16663 -0.081,0.73768 -0.57473,1.42585 -0.56264,2.15386 0.6173,0.412 1.44783,0.0424 2.12196,-0.0592 0.95643,-0.20649 2.24432,-0.81212 2.08733,-1.99316 -0.17082,-0.87432 -1.19818,-1.43139 -2.03295,-1.26812 z"
       id="path10090-2-5-4-4"
       inkscape:connector-curvature="0" />
    <path
       style="fill:#4d4d4d;fill-opacity:1;fill-rule:nonzero;stroke:#000000;stroke-width:0;stroke-linecap:round;stroke-linejoin:miter;stroke-miterlimit:4;stroke-opacity:1;stroke-dasharray:none"
       d="m 343.22062,208.06471 c -0.41574,0.10741 -1.33998,0.15329 -1.17086,0.79746 0.25477,0.83474 0.25098,2.05252 1.17291,2.44968 0.88307,-0.19008 1.74242,-1.41525 1.02446,-2.21754 -0.34636,-0.29829 -0.52347,-0.74539 -0.86946,-1.01005 -0.0511,-0.0134 -0.10399,-0.0255 -0.15708,-0.02 z"
       id="path10092-0-3-5-3"
       inkscape:connector-curvature="0"
       inkscape:transform-center-x="-1.1614292"
       inkscape:transform-center-y="0.85231712" />
    <path
       style="fill:#4d4d4d;fill-opacity:1;fill-rule:nonzero;stroke:#000000;stroke-width:0;stroke-linecap:round;stroke-linejoin:miter;stroke-miterlimit:4;stroke-opacity:1;stroke-dasharray:none"
       d="m 367.60172,201.34155 c -1.6914,1.06573 -2.55734,2.93722 -3.68267,4.51463 -0.99671,1.27661 -2.7753,1.28227 -4.22677,1.62416 -1.04761,0.29111 -2.42689,-0.0156 -3.20437,0.92155 -0.4946,0.6011 0.0366,1.34199 0.61599,1.62689 0.49151,0.38164 1.05984,0.77 1.60715,0.23598 3.08165,-1.58115 6.21993,-3.1952 8.83323,-5.48472 0.79645,-0.81921 1.59764,-1.98971 1.33201,-3.18278 -0.21965,-0.54274 -0.83806,-0.57672 -1.27435,-0.25579 z"
       id="path10094-9-0-6-5"
       inkscape:connector-curvature="0" />
    <path
       style="fill:#4d4d4d;fill-opacity:1;fill-rule:nonzero;stroke:#000000;stroke-width:0;stroke-linecap:round;stroke-linejoin:miter;stroke-miterlimit:4;stroke-opacity:1;stroke-dasharray:none"
       d="m 355.6811,194.59834 c -0.9456,0.46937 -1.7879,1.34432 -2.04852,2.39031 -0.2992,1.87005 1.63238,3.50523 3.43097,3.28051 1.36924,-0.13427 2.69239,-0.77257 3.7394,-1.65466 1.11828,-1.02958 1.14402,-2.83793 0.51931,-4.13501 -0.21473,-0.52458 -0.88673,-0.71739 -1.28792,-0.27759 -1.04613,0.82066 -1.75507,2.0906 -2.96503,2.68353 -0.84825,0.20289 -1.14525,-0.83449 -1.04621,-1.49821 0.0646,-0.28069 0.33754,-0.85667 -0.17762,-0.82506 -0.0563,0.002 -0.11051,0.0214 -0.16438,0.0359 z"
       id="path10096-8-9-9-0"
       inkscape:connector-curvature="0" />
    <path
       style="fill:#4d4d4d;fill-opacity:1;fill-rule:nonzero;stroke:#000000;stroke-width:0;stroke-linecap:round;stroke-linejoin:miter;stroke-miterlimit:4;stroke-opacity:1;stroke-dasharray:none"
       d="m 363.95151,183.09462 c -1.28725,0.42418 -2.75345,1.30584 -2.93691,2.77965 -0.009,1.3592 1.00124,2.44088 1.61122,3.57901 0.66681,1.25192 1.87861,2.3214 1.98663,3.79137 0.0267,0.79903 -0.29814,1.87302 0.55554,2.36794 1.02732,0.69334 2.49147,1.1772 3.65086,0.5516 1.06564,-0.72109 1.16929,-2.09261 1.13826,-3.26679 -0.0754,-3.12095 0.41971,-6.30104 -0.33455,-9.37088 -0.53252,-0.37535 -1.32706,-0.31902 -1.97146,-0.47649 -1.22533,-0.16694 -2.48771,-0.26376 -3.69923,0.0445 z"
       id="path10098-3-8-1-1"
       inkscape:connector-curvature="0" />
    <path
       style="fill:#4d4d4d;fill-opacity:1;fill-rule:nonzero;stroke:#000000;stroke-width:0;stroke-linecap:round;stroke-linejoin:miter;stroke-miterlimit:4;stroke-opacity:1;stroke-dasharray:none"
       d="m 351.53604,181.30999 c -2.1698,0.93915 -4.31332,2.26911 -5.64129,4.28072 -0.34674,0.67603 -0.94436,1.35899 -0.91687,2.14852 0.77101,1.7778 0.9261,3.16083 1.75835,4.89408 0.20568,0.42832 1.6074,0.55501 1.85737,0.23626 0.29124,-0.37142 1.10784,-0.95427 0.57682,-1.40216 -0.57569,-0.48556 -1.40042,-0.95809 -1.47321,-1.78314 -0.0646,-0.73195 0.26302,-1.63433 1.13714,-1.59385 0.96123,0.0445 1.92893,0.65757 2.83921,0.34565 1.74235,-0.59708 3.4386,-2.13013 3.62729,-4.10239 0.012,-1.29784 -1.33415,-2.02508 -2.30334,-2.60135 -0.43885,-0.2413 -0.93418,-0.60473 -1.46147,-0.42234 z"
       id="path10100-5-3-8-4"
       inkscape:connector-curvature="0"
       sodipodi:nodetypes="cccssssssccc" />
    <path
       style="fill:#4d4d4d;fill-opacity:1;fill-rule:nonzero;stroke:#000000;stroke-width:0;stroke-linecap:round;stroke-linejoin:miter;stroke-miterlimit:4;stroke-opacity:1;stroke-dasharray:none"
       d="m 350.49918,170.77706 c -1.24553,0.20689 -2.18922,1.37151 -2.10784,2.63257 2.3e-4,1.81669 1.63239,3.57381 3.51206,3.32968 0.68807,-0.0142 1.44459,-0.53384 1.25728,-1.30279 -0.0185,-0.91882 -0.84759,-1.80097 -0.47009,-2.70065 0.65688,-0.65028 0.14903,-1.71513 -0.63711,-1.97257 -0.49351,-0.2174 -1.05149,-0.10428 -1.55441,0.0138 z"
       id="path10102-2-0-0-4"
       inkscape:connector-curvature="0" />
    <path
       style="fill:#4d4d4d;fill-opacity:1;fill-rule:nonzero;stroke:#000000;stroke-width:0;stroke-linecap:round;stroke-linejoin:miter;stroke-miterlimit:4;stroke-opacity:1;stroke-dasharray:none"
       d="m 338.37939,166.97694 c -0.9484,0.30254 -2.01831,0.36609 -2.87164,0.89949 -0.79351,0.83757 -0.30131,2.31572 0.70975,2.7361 1.25362,0.73403 2.92719,1.18433 3.40437,2.74317 0.54247,1.20968 0.57174,2.71528 1.53277,3.69789 1.25799,1.10837 3.58887,0.92435 4.485,-0.54879 0.51783,-1.29879 -0.32287,-2.66482 -1.03634,-3.7129 -0.76865,-1.34268 -2.62127,-1.15664 -3.58248,-2.22328 -0.43247,-0.98898 -0.50912,-2.13872 -1.09512,-3.08165 -0.18112,-0.45543 -0.63708,-0.89168 -1.15809,-0.59889 -0.12962,0.0289 -0.25886,0.0594 -0.3883,0.089 z"
       id="path10104-9-7-3-9"
       inkscape:connector-curvature="0" />
    <path
       style="fill:#f7f7f7;fill-opacity:1;fill-rule:nonzero;stroke:#000000;stroke-width:0;stroke-linecap:round;stroke-linejoin:miter;stroke-miterlimit:4;stroke-opacity:1;stroke-dasharray:none"
       d="m 369.41433,175.54241 c -0.7033,0.25678 -1.07603,1.15881 -0.62859,1.82416 1.39394,3.75524 2.19253,7.74185 2.0412,11.75225 0.0751,1.52448 -0.25177,3.09799 0.0931,4.5779 0.46524,0.4138 0.90248,-0.53705 1.26137,-0.73127 2.34607,-2.35368 4.57682,-5.04836 5.59775,-8.24392 0.19421,-1.1171 -0.33278,-2.66568 -1.53708,-2.92415 -0.75005,0.24283 -1.24281,0.95556 -1.73642,1.53403 -0.98104,-0.37354 -0.36242,-0.86758 0.0814,-1.41987 0.77914,-1.20644 2.13009,-2.56807 1.41051,-4.12557 -0.4972,-1.19851 -1.55126,-2.3536 -2.85616,-2.61415 -1.06804,0.29751 -1.12637,1.72872 -1.36071,2.63356 -0.141,0.37856 0.0421,1.36545 -0.64057,1.15841 -0.67692,0.0703 -0.15223,-0.82623 -0.28812,-1.19863 -0.0322,-0.80794 -0.30028,-2.4646 -1.43774,-2.22274 z"
       id="path10116-5-2-8-3"
       inkscape:connector-curvature="0" />
    <path
       style="fill:#d7d7d7;fill-opacity:1;fill-rule:nonzero;stroke:#2a1431;stroke-width:0;stroke-linecap:round;stroke-linejoin:miter;stroke-miterlimit:4;stroke-opacity:1;stroke-dasharray:none"
       d="m 325.1488,205.80161 c -0.1257,0.6752 0.12484,1.39844 -0.0963,2.08642 -0.14806,1.35264 -0.98853,2.4487 -1.90643,3.39074 -0.3965,0.31547 -0.65263,0.97241 -0.0971,1.2671 1.156,0.82619 2.75724,0.51703 3.75749,-0.39563 0.71056,-0.29322 1.17686,-0.91197 1.50595,-1.60052 0.61889,-1.26266 1.38219,-2.53252 1.58629,-3.93488 -0.16324,-0.78228 -1.25693,-0.56527 -1.84901,-0.71391 -0.88801,-0.0287 -1.79428,-0.36151 -2.67709,-0.30616 -0.0746,0.0688 -0.14918,0.13786 -0.22376,0.20679 z m 2.12849,1.89071 c 0.51272,0.21941 0.45215,1.07674 0.1333,1.45306 -0.27709,0.35683 -0.95257,0.19308 -0.80585,-0.33696 0.0356,-0.44858 0.32699,-0.85113 0.67255,-1.1161 z"
       id="path12980-5-8-8"
       inkscape:connector-curvature="0" />
    <path
       style="fill:#ffffff;fill-opacity:1;fill-rule:nonzero;stroke:#000000;stroke-width:1.70477462;stroke-linecap:round;stroke-linejoin:miter;stroke-miterlimit:4;stroke-opacity:1;stroke-dasharray:none"
       d="m 325.5079,169.23103 c 0.006,-0.39646 1.14099,-1.93464 4.05568,-2.38154 7.52703,-1.15417 30.58595,6.98599 32.21451,9.53059 3.48349,5.443 -4.81183,11.93107 -9.64115,10.94714 -8.79768,-1.79246 -12.63834,-13.40724 -21.15089,-14.68559 -0.80265,-0.12056 -2.40789,0.13422 -2.40789,0.13422"
       id="path9979-6-6-9-5-9-5-6"
       inkscape:connector-curvature="0"
       sodipodi:nodetypes="cssssc" />
    <path
       style="fill:#4d4d4d;fill-opacity:1;fill-rule:nonzero;stroke:#000000;stroke-width:0;stroke-linecap:round;stroke-linejoin:miter;stroke-miterlimit:4;stroke-opacity:1;stroke-dasharray:none"
       d="m 321.09417,169.29167 c -1.02108,1.40525 -0.53724,3.20824 0.37417,3.70638 2.98025,1.62892 1.43343,4.6517 2.63069,6.39124 1.08366,1.57449 2.62253,3.43514 4.44449,3.43515 1.1841,0 2.42699,-0.52636 3.12039,-1.51037 0.47794,-0.67821 0.33729,-2.94889 0.0126,-3.62346 -0.77239,-1.60493 -1.70868,-3.0814 -3.26296,-4.65266 -0.20498,-0.20721 -0.14639,-0.53131 0.15215,-0.56386 1.07323,-0.11698 2.18007,-0.26043 3.25519,0.0115 1.8681,0.47251 3.57463,1.39891 5.08736,2.57891 2.5371,1.97906 4.6131,4.44509 6.90521,6.67806 1.92764,1.93974 4.06391,3.78506 6.65561,4.75413 0.83648,0.3029 1.71429,0.60676 2.60668,0.58325 0.35338,-0.24969 0.57003,-0.68981 0.87119,-1.01126 2.40934,-3.04662 4.86845,-6.05459 7.23951,-9.13108 0.18738,-0.19872 0.28597,-0.54821 0.006,-0.71773 -1.74869,-1.2439 -3.75383,-2.06288 -5.71602,-2.90297 -5.04257,-2.04144 -10.24183,-3.69137 -15.52857,-4.96099 -2.89447,-0.64741 -5.82931,-1.28882 -8.81077,-1.27366 -1.7481,0.009 -3.59156,0.39852 -4.92275,1.61887 -0.26171,0.24003 -0.68987,0.063 -0.98326,0.23403 -0.23054,0.13437 -0.57602,-0.0282 -0.4866,-0.26365 0.13843,-0.36432 -0.21009,-0.48804 -0.54945,-0.41555 -1.32169,0.28225 -1.8179,-0.73022 -3.10097,1.03559 z"
       id="path10034-3-6-4-6-6-6-7"
       inkscape:connector-curvature="0"
       sodipodi:nodetypes="ssssssssssccccccccssssss" />
    <path
       style="fill:#4d4d4d;fill-opacity:1;fill-rule:nonzero;stroke:#000000;stroke-width:0;stroke-linecap:round;stroke-linejoin:miter;stroke-miterlimit:4;stroke-opacity:1;stroke-dasharray:none"
       d="m 356.75855,182.09129 c -0.99042,1.46166 -4.2509,2.94797 -4.8031,4.64338 0.30137,0.90239 3.32676,-0.14745 3.92723,-0.27318 2.86488,-1.03818 5.50805,-3.36546 6.40089,-6.29105 0.19712,-1.21038 -0.10609,-2.8077 -0.89665,-3.77802 -1.27376,0.99655 -2.15722,2.77455 -3.28542,4.00289 -0.45143,0.56235 -0.89898,1.12775 -1.3432,1.69583 z"
       id="path10036-7-8-2-3-8-3-2"
       inkscape:connector-curvature="0"
       sodipodi:nodetypes="cccccccc" />
    <path
       style="fill:#de8787;fill-opacity:1;fill-rule:nonzero;stroke:#2a1431;stroke-width:0;stroke-linecap:round;stroke-linejoin:miter;stroke-miterlimit:4;stroke-opacity:1;stroke-dasharray:none"
       d="m 302.48947,194.76045 c -2.28873,2.54431 -3.91348,5.98685 -3.59708,9.46556 0.54333,0.80115 1.67915,-0.1506 2.4681,-0.23209 2.45803,-0.90307 4.80103,-2.18548 6.89737,-3.74064 0.50739,-0.77418 -0.62334,-0.80859 -1.02157,-1.15492 -1.01645,-0.84794 -0.90575,-2.55328 -2.30001,-3.06371 -0.79723,-0.39594 -1.39835,-1.09991 -2.21026,-1.41114 l -0.15299,0.0886 -0.0836,0.0483 z"
       id="path13589-6"
       inkscape:connector-curvature="0" />
    <path
       style="fill:#4d4d4d;fill-opacity:1;fill-rule:nonzero;stroke:#2a1431;stroke-width:0;stroke-linecap:round;stroke-linejoin:miter;stroke-miterlimit:4;stroke-opacity:1;stroke-dasharray:none"
       d="m 300.88292,192.12976 c -1.20701,0.80812 -1.80338,2.32463 -2.63768,3.48792 -1.19647,2.17615 -2.80288,4.63561 -2.18755,7.24441 0.15589,0.60587 0.8013,1.78738 1.52768,1.13595 0.46754,-1.07212 0.12351,-2.35988 0.58442,-3.46715 0.64283,-2.52464 2.0299,-4.73874 3.68086,-6.71345 0.22709,-0.58584 -0.33071,-1.75644 -0.96773,-1.68768 z"
       id="path13591-3"
       inkscape:connector-curvature="0" />
    <path
       style="fill:#d7d7d7;fill-opacity:1;fill-rule:nonzero;stroke:#2a1431;stroke-width:0;stroke-linecap:round;stroke-linejoin:miter;stroke-miterlimit:4;stroke-opacity:1;stroke-dasharray:none"
       d="m 316.349,167.1203 c -0.78562,0.49002 0.35525,1.05751 0.30902,1.67578 0.17285,0.91156 -1.1273,1.12395 -1.69631,1.472 -1.05799,0.29334 -2.25947,1.15952 -3.35267,0.67999 -0.79747,-0.45862 -0.0764,-1.67457 -0.88254,-2.05129 -2.32909,0.94956 -4.46049,2.50333 -6.15658,4.37847 -0.39574,1.16698 2.06696,0.86331 1.70745,2.10165 -0.0534,1.3734 -0.74797,2.92915 0.34226,4.09179 0.80651,1.06417 1.45756,2.41085 0.90934,3.74494 -0.53989,1.29183 -1.23073,3.03922 -2.7951,3.31489 -0.9228,0.1426 -1.84885,-0.51321 -2.73055,-0.22129 -0.56104,1.5545 -0.29264,3.36162 0.20615,4.91836 0.31196,0.78408 1.20144,0.2359 1.36002,-0.36775 0.51418,-0.68233 0.7061,-1.62981 1.13859,-2.29864 1.3218,-0.15475 2.8729,0.89531 3.98188,-0.26471 0.77099,-0.59189 2.14581,-0.68959 2.81759,0.0641 0.63454,1.21013 0.33038,3.27582 1.92844,3.75099 2.2554,0.37403 4.39962,-1.116 6.64149,-0.81047 0.747,0.21953 1.90822,0.76602 1.43295,1.72645 -0.0968,0.61529 -1.01438,1.66647 -0.0979,1.99963 2.48795,-0.0796 5.00853,-0.76533 7.01262,-2.27933 0.25533,0.01 0.954,0.77906 0.36263,0.98213 -3.01429,2.28494 -7.04191,2.22278 -10.62543,2.75771 -0.95499,0.2353 -2.12292,9.4e-4 -2.95776,0.55888 -0.0438,0.96473 1.09524,1.48293 1.61646,2.19021 2.96916,3.1015 6.98849,5.26703 11.28759,5.67237 0.6202,0.29369 1.34269,-0.21925 1.00259,-0.8916 -0.3023,-0.507 0.54952,-1.28831 0.80728,-0.57107 0.6164,1.11601 0.65401,2.48826 1.28925,3.5668 0.82429,-6.4e-4 1.80661,-0.73047 2.50194,0.0858 0.90666,0.59442 0.0451,1.8244 -0.79541,1.91265 -0.8693,0.33977 -1.81637,0.40283 -2.70136,0.5405 -0.75394,0.72814 -1.3271,1.76479 -1.55596,2.78642 0.40813,1.09886 1.95995,0.84964 2.88464,0.75755 2.22522,-0.37658 4.27589,-2.15626 4.37127,-4.51332 0.49787,-2.26366 0.30918,-4.63872 0.83162,-6.88506 0.13798,-0.53673 0.97179,-0.18715 0.80104,0.32737 0.15446,0.85854 -0.3691,1.95676 0.22556,2.66539 2.79518,0.12894 5.61028,-0.39263 8.39939,-0.64102 1.53837,-0.27589 3.259,-0.18774 4.64458,-0.95149 -0.0746,-0.9238 -1.40844,-1.0212 -2.00422,-1.65427 -2.70573,-2.07522 -4.96791,-5.08097 -5.45195,-8.53235 -0.14226,-2.8394 0.42908,-5.74886 1.96449,-8.18603 -0.0508,-0.92047 -1.26545,-1.32048 -1.75768,-2.06376 -3.02272,-2.81253 -5.57505,-6.29379 -9.27582,-8.29052 -1.60785,-0.7835 -3.51932,-1.64327 -5.3048,-0.95881 -0.51275,0.76604 0.6855,1.34569 0.9538,2.0193 1.03114,1.42849 1.98924,3.15155 1.57898,4.99522 -0.20134,1.65139 -2.32196,2.21859 -3.71535,1.91246 -1.56227,-0.64974 -2.79685,-2.06034 -3.56643,-3.5505 -0.57873,-1.8534 -0.22792,-4.18468 -1.92126,-5.54638 -0.84198,-0.60432 -1.73094,-1.51433 -1.37136,-2.65229 0.24145,-1.01994 1.01866,-2.10639 2.14361,-2.14549 0.59256,-0.75578 -0.8447,-0.99008 -1.40491,-1.16481 -1.73883,-0.3831 -3.57387,-0.43382 -5.3332,-0.15747 z m -1.24204,7.21974 c 1.04905,-0.41764 2.14418,-0.0659 3.05345,0.48487 1.06273,0.20379 2.25933,0.16287 3.07779,1.02968 1.74541,2.05605 1.29184,5.35395 -0.50672,7.23836 -0.51565,0.74347 0.20222,1.65781 -0.38415,2.40374 -1.25682,2.63801 -5.97785,1.88177 -6.35205,-1.00277 0.0469,-1.62745 0.31697,-3.26631 -0.11814,-4.87802 -0.0825,-1.28695 -0.70544,-2.61232 -0.42156,-3.88173 0.27659,-0.70867 0.97582,-1.15062 1.65138,-1.39413 z m 9.64131,23.73281 c 1.12117,-0.31901 2.2253,0.2977 3.30373,0.39572 0.66142,0.32647 1.11312,1.32528 0.3191,1.7706 -0.86834,0.68914 -1.9133,1.66125 -3.08906,1.07151 -0.93994,-0.3389 -2.34982,-1.36613 -1.5957,-2.47288 0.23479,-0.38893 0.62987,-0.64257 1.06196,-0.76496 z"
       id="path13593-8"
       inkscape:connector-curvature="0" />
    <path
       style="fill:#d7d7d7;fill-opacity:1;fill-rule:nonzero;stroke:#2a1431;stroke-width:0;stroke-linecap:round;stroke-linejoin:miter;stroke-miterlimit:4;stroke-opacity:1;stroke-dasharray:none"
       d="m 365.07611,172.97241 c -0.61209,0.87568 -1.17675,1.84722 -2.21886,2.29039 -1.25507,0.5202 -0.045,1.81226 0.0531,2.73469 0.62456,1.87709 -0.45341,3.62847 -1.12498,5.30657 -0.28966,0.78432 0.72248,1.1143 1.22413,0.61965 1.85634,-1.04275 4.0775,-0.60282 6.06078,-0.34952 0.65786,-0.5009 -0.038,-1.59089 -0.0871,-2.33824 -0.84657,-2.79136 -1.73258,-5.64646 -3.22628,-8.15454 -0.15469,-0.21031 -0.47117,-0.29608 -0.68083,-0.109 z"
       id="path13597-9"
       inkscape:connector-curvature="0" />
    <path
       style="fill:#d7d7d7;fill-opacity:1;fill-rule:nonzero;stroke:#2a1431;stroke-width:0;stroke-linecap:round;stroke-linejoin:miter;stroke-miterlimit:4;stroke-opacity:1;stroke-dasharray:none"
       d="m 340.86843,163.39736 c -1.75947,0.73308 -3.58021,1.3932 -5.20419,2.39198 -0.48142,0.86736 0.90925,0.98064 1.46011,1.12086 2.63059,0.34242 5.13532,1.38158 7.73803,1.7656 0.90778,-0.32003 -0.0171,-1.21643 -0.46131,-1.50557 -1.18276,-1.02441 -1.64442,-2.61262 -1.88744,-4.08246 -0.40966,-0.47142 -1.16156,0.23965 -1.64519,0.30956 z"
       id="path13599-6"
       inkscape:connector-curvature="0" />
    <path
       style="fill:#d7d7d7;fill-opacity:1;fill-rule:nonzero;stroke:#2a1431;stroke-width:0;stroke-linecap:round;stroke-linejoin:miter;stroke-miterlimit:4;stroke-opacity:1;stroke-dasharray:none"
       d="m 347.01498,167.54575 c -0.56841,0.33795 -2.07156,0.23112 -1.79736,1.20616 1.38698,0.76544 3.05981,0.96968 4.53145,1.59411 1.88606,0.58606 3.71568,1.36367 5.59192,1.95192 0.86835,-0.26458 0.23074,-1.53444 0.1887,-2.20389 -0.39461,-2.07295 -2.62926,-3.15703 -4.51115,-3.53771 -1.37223,0.091 -2.68192,0.6408 -4.00356,0.98943 z"
       id="path13603-8"
       inkscape:connector-curvature="0" />
    <path
       style="fill:#d7d7d7;fill-opacity:1;fill-rule:nonzero;stroke:#2a1431;stroke-width:0;stroke-linecap:round;stroke-linejoin:miter;stroke-miterlimit:4;stroke-opacity:1;stroke-dasharray:none"
       d="m 67.862261,34.302582 c -1.141112,0.643999 -1.917857,1.776782 -3.04865,2.458981 -1.893843,1.38919 -4.23398,1.953388 -6.55135,1.996671 -0.957236,0.166889 -1.89317,0.07486 -2.817392,-0.170435 -0.874126,-0.235777 -1.92323,0.304112 -1.916521,1.286957 -0.212546,1.057565 0.521246,1.956814 1.349565,2.500869 0.444197,0.288425 -0.221085,0.705094 -0.410435,0.928696 -0.35664,0.271239 -0.951938,0.158461 -1.269565,-0.114783 -0.733361,-1.214463 -0.797365,-2.79873 -1.624348,-3.968695 -0.589189,-0.345671 -0.883924,0.495987 -0.90087,0.953043 -0.166342,1.683673 -0.350047,3.451504 0.132174,5.092174 0.936788,2.256998 2.463112,4.279257 4.309566,5.871304 3.223217,2.386698 7.702816,3.208657 11.467826,1.645218 1.799537,-0.652667 3.369861,-1.795618 5.078261,-2.598261 0.581327,-0.324078 0.882406,0.726863 0.278261,0.866087 -2.790466,1.750838 -5.819362,3.44118 -9.173686,3.539916 -0.934173,0.179105 -1.645389,0.970097 -2.486896,1.398439 -2.261398,1.504526 -4.700222,2.777591 -6.864636,4.404254 -0.864162,0.611015 -1.693914,1.940593 -0.869565,2.914782 0.742805,0.655673 1.766785,0.934715 2.716521,1.14087 2.956149,0.168864 5.687358,-1.258179 8.299131,-2.448696 0.417638,-0.123913 1.080619,-0.606755 0.566957,-1.036522 -0.454498,-0.385044 -1.276235,-0.644937 -1.346087,-1.311304 0.448682,-0.912319 1.694595,-0.771811 2.534533,-0.951393 1.576319,-0.282657 3.260196,-0.494332 4.606336,-1.417303 1.37634,-1.646205 2.307422,-3.771221 4.16,-4.932174 0.36074,-0.265528 0.680705,0.394809 1.088696,0.135653 0.575606,-0.413232 0.347178,-1.289975 0.517979,-1.895188 0.08313,-1.360197 0.323923,-2.745531 0.16376,-4.101334 -0.453826,-0.661876 -1.018657,0.205937 -1.547826,0.281739 -1.087389,0.205657 -2.297007,-0.200476 -3.074783,-0.96 -0.285488,-0.976003 0.08664,-2.111078 -0.50195,-3.031728 -0.926047,-1.82486 -2.3066,-3.430643 -3.066745,-5.330011 -0.297311,-0.844275 0.07644,-1.739701 0.751304,-2.281739 0.353564,-0.389193 -0.06513,-0.99852 -0.549565,-0.866087 z m -1.165218,10.831304 c 0.591881,0.131344 0.600636,0.960081 0.716522,1.44 0.238454,1.182833 -0.344038,2.390239 -1.373913,2.991305 -1.14842,0.739259 -2.594277,1.289576 -3.958261,1.008695 -1.291275,-0.393711 -2.451132,-1.906618 -1.766956,-3.234782 0.324419,-0.613142 0.929691,-1.306981 1.506087,-1.499131 -0.20081,0.884226 0.180465,2.259468 1.300869,2.163478 0.882858,-0.190412 1.408843,-1.075873 2.093913,-1.603478 0.484319,-0.416141 0.903441,-0.989601 1.481739,-1.266087 z"
       id="path15130"
       inkscape:connector-curvature="0"
       transform="translate(293.88257,149.22342)" />
    <path
       style="fill:#d7d7d7;fill-opacity:1;fill-rule:nonzero;stroke:#2a1431;stroke-width:0;stroke-linecap:round;stroke-linejoin:miter;stroke-miterlimit:4;stroke-opacity:1;stroke-dasharray:none"
       d="m 58.606608,54.824321 c -0.779979,0.03205 -1.536439,0.327788 -2.027826,0.953043 -1.750898,1.052964 -3.797073,1.464861 -5.697524,2.179006 -0.546484,0.294886 -1.461877,0.215093 -1.697258,0.867951 0.152567,0.674481 0.927157,1.07147 1.071304,1.73913 -0.04574,0.480301 -0.416726,1.029933 -0.907826,1.08174 -0.758064,-0.549474 -0.461822,-1.730808 -1.092174,-2.358261 -0.713512,-0.246931 -1.206669,0.592417 -1.690462,0.978193 -1.059548,0.82208 -1.33663,2.530934 -0.417364,3.550502 0.995581,0.75607 2.356628,0.373783 3.486083,0.18472 0.602393,-0.203867 1.744631,-0.15897 1.598776,-1.064654 -0.09323,-0.999675 0.163365,-2.01375 0.901228,-2.716587 1.706341,-1.676277 3.961908,-2.647881 5.916522,-3.993044 0.378168,-0.330542 1.389636,-0.602454 1.008695,-1.269565 -0.128145,-0.113787 -0.285024,-0.153161 -0.452174,-0.132174 z"
       id="path15132"
       inkscape:connector-curvature="0"
       transform="translate(293.88257,149.22342)" />
  </g>
</svg>
