<?xml version="1.0" encoding="UTF-8" standalone="no"?>
<!-- Created with Inkscape (http://www.inkscape.org/) -->

<svg
   xmlns:dc="http://purl.org/dc/elements/1.1/"
   xmlns:cc="http://creativecommons.org/ns#"
   xmlns:rdf="http://www.w3.org/1999/02/22-rdf-syntax-ns#"
   xmlns:svg="http://www.w3.org/2000/svg"
   xmlns="http://www.w3.org/2000/svg"
   xmlns:sodipodi="http://sodipodi.sourceforge.net/DTD/sodipodi-0.dtd"
   xmlns:inkscape="http://www.inkscape.org/namespaces/inkscape"
   width="85"
   height="75"
   id="svg10388"
   version="1.1"
   inkscape:version="0.48.5 r10040"
   sodipodi:docname="bunny-still1.svg"
   inkscape:export-filename="/home/rhiannon/caveexplorer/lua-cave-gen/assets/bunny-still1.png"
   inkscape:export-xdpi="90"
   inkscape:export-ydpi="90">
  <defs
     id="defs10390" />
  <sodipodi:namedview
     id="base"
     pagecolor="#ffffff"
     bordercolor="#666666"
     borderopacity="1.0"
     inkscape:pageopacity="0.0"
     inkscape:pageshadow="2"
     inkscape:zoom="2.8284271"
     inkscape:cx="41.349948"
     inkscape:cy="60.474494"
     inkscape:document-units="px"
     inkscape:current-layer="layer1"
     showgrid="false"
     fit-margin-top="0"
     fit-margin-left="0"
     fit-margin-right="0"
     fit-margin-bottom="0"
     inkscape:window-width="1278"
     inkscape:window-height="781"
     inkscape:window-x="0"
     inkscape:window-y="17"
     inkscape:window-maximized="0"
     showguides="true"
     inkscape:guide-bbox="true">
    <sodipodi:guide
       orientation="1,0"
       position="-9,3.625"
       id="guide12968" />
  </sodipodi:namedview>
  <metadata
     id="metadata10393">
    <rdf:RDF>
      <cc:Work
         rdf:about="">
        <dc:format>image/svg+xml</dc:format>
        <dc:type
           rdf:resource="http://purl.org/dc/dcmitype/StillImage" />
        <dc:title></dc:title>
      </cc:Work>
    </rdf:RDF>
  </metadata>
  <g
     inkscape:label="Layer 1"
     inkscape:groupmode="layer"
     id="layer1"
     transform="translate(-293.88257,-149.22342)">
    <path
       style="fill:#ffffff;fill-opacity:0;fill-rule:nonzero;stroke:#000000;stroke-width:1.70477462;stroke-linecap:butt;stroke-linejoin:miter;stroke-miterlimit:4;stroke-opacity:1;stroke-dasharray:none"
       d="m 332.78725,172.52168 c 0,0 -0.72756,-1.98674 -4.66656,-4.16227 -4.26717,-2.35679 -11.44713,-2.0576 -15.23464,-0.54757 -7.27963,2.90199 -4.67112,6.7961 -6.90031,9.34856 -2.18299,2.49956 -3.70432,4.44055 -4.03203,7.74569 -0.24963,2.51774 1.26665,6.17434 4.59129,7.54221 5.66454,2.33062 8.4599,2.40851 12.66255,3.62708 3.31553,0.96135 5.6599,0.94757 8.00105,0.0262"
       id="path9922-1"
       inkscape:connector-curvature="0"
       sodipodi:nodetypes="cssssssc" />
    <path
       style="fill:#000000;fill-opacity:1;fill-rule:nonzero;stroke:#000000;stroke-width:1.70477462;stroke-linecap:butt;stroke-linejoin:miter;stroke-miterlimit:4;stroke-opacity:1;stroke-dasharray:none"
       d="m 308.13411,173.35744 c 0.70485,1.83228 -2.31632,6.15258 -2.82517,5.92364 -0.89925,-0.40455 -1.49094,-1.36652 -0.39359,-3.87734 0.86796,-1.98595 2.80958,-3.10999 3.21876,-2.0463 z"
       id="path9924-5"
       inkscape:connector-curvature="0"
       sodipodi:nodetypes="ssss" />
    <path
       sodipodi:type="arc"
       style="fill:#ffffff;fill-opacity:1;fill-rule:nonzero;stroke:#ffffff;stroke-width:7.89696932;stroke-linecap:butt;stroke-linejoin:miter;stroke-miterlimit:4;stroke-opacity:1;stroke-dasharray:none"
       id="path9926-2"
       sodipodi:cx="246.53337"
       sodipodi:cy="1104.5435"
       sodipodi:rx="3.8544929"
       sodipodi:ry="4.1628523"
       d="m 250.38786,1104.5435 a 3.8544929,4.1628523 0 1 1 -7.70898,0 3.8544929,4.1628523 0 1 1 7.70898,0 z"
       transform="matrix(0.08745054,0.05854628,-0.11412537,0.17133066,411.64501,-28.965547)"
       inkscape:transform-center-x="4.2447684"
       inkscape:transform-center-y="0.4997621" />
    <path
       sodipodi:type="arc"
       style="fill:#ffffff;fill-opacity:1;fill-rule:nonzero;stroke:#ffffff;stroke-width:16.73293495;stroke-linecap:butt;stroke-linejoin:miter;stroke-miterlimit:4;stroke-opacity:1;stroke-dasharray:none"
       id="path9926-1-7"
       sodipodi:cx="246.53337"
       sodipodi:cy="1104.5435"
       sodipodi:rx="3.8544929"
       sodipodi:ry="4.1628523"
       d="m 250.38786,1104.5435 a 3.8544929,4.1628523 0 1 1 -7.70898,0 3.8544929,4.1628523 0 1 1 7.70898,0 z"
       transform="matrix(0.02163844,0.02094053,-0.03251044,0.06764835,336.9771,97.13077)"
       inkscape:transform-center-x="1.0893764"
       inkscape:transform-center-y="0.12830452" />
    <path
       style="fill:#000000;fill-opacity:1;fill-rule:nonzero;stroke:#000000;stroke-width:1.16234636;stroke-linecap:butt;stroke-linejoin:miter;stroke-miterlimit:4;stroke-opacity:1"
       d="m 324.97464,181.71791 c -1.2377,2.04459 -3.44376,2.9527 -4.92737,2.02838 -1.48361,-0.92435 -1.68299,-3.33108 -0.4453,-5.37559 1.23768,-2.04456 3.44373,-2.95269 4.92736,-2.02837 1.48362,0.92435 1.68299,3.33106 0.44531,5.37558 z"
       id="path9946-1"
       inkscape:connector-curvature="0" />
    <path
       sodipodi:type="arc"
       style="fill:#ffffff;fill-opacity:1;fill-rule:nonzero;stroke:#ffffff;stroke-width:6.14886189;stroke-linecap:butt;stroke-linejoin:miter;stroke-miterlimit:4;stroke-opacity:1;stroke-dasharray:none"
       id="path9949-4"
       sodipodi:cx="217.08504"
       sodipodi:cy="1121.1949"
       sodipodi:rx="5.5504699"
       sodipodi:ry="8.4798841"
       d="m 222.63551,1121.1949 a 5.5504699,8.4798841 0 1 1 -11.10094,0 5.5504699,8.4798841 0 1 1 11.10094,0 z"
       transform="matrix(0.16068896,0.09703219,-0.09608559,0.16435856,395.11185,-26.686143)" />
    <path
       sodipodi:type="arc"
       style="fill:#ffffff;fill-opacity:1;fill-rule:nonzero;stroke:#ffffff;stroke-width:6.19660568;stroke-linecap:butt;stroke-linejoin:miter;stroke-miterlimit:4;stroke-opacity:1;stroke-dasharray:none"
       id="path9926-1-4-2"
       sodipodi:cx="246.53337"
       sodipodi:cy="1104.5435"
       sodipodi:rx="3.8544929"
       sodipodi:ry="4.1628523"
       d="m 250.38786,1104.5435 a 3.8544929,4.1628523 0 1 1 -7.70898,0 3.8544929,4.1628523 0 1 1 7.70898,0 z"
       transform="matrix(0.09243171,0.0201972,-0.05710064,0.15670721,363.18415,3.4140165)"
       inkscape:transform-center-x="3.6010486"
       inkscape:transform-center-y="1.6386612" />
    <path
       style="fill:#ffffff;fill-opacity:1;fill-rule:nonzero;stroke:#4d4d4d;stroke-width:1.16234636;stroke-linecap:round;stroke-linejoin:miter;stroke-miterlimit:4;stroke-opacity:1;stroke-dasharray:none"
       d="m 304.91479,191.17069 c -0.87489,1.49667 -0.65071,2.60587 0.1031,3.52837 0.89709,0.17422 1.76941,0.63029 3.4753,0.17279 0.0289,-1.14891 0.29626,-1.628 0.61591,-2.38394 -0.71994,-0.71702 -2.10584,-0.45548 -2.13942,-2.18103 -0.49326,0.52122 -1.35108,0.96292 -2.05489,0.86381 z"
       id="path9973-5"
       inkscape:connector-curvature="0"
       sodipodi:nodetypes="cccccc" />
    <path
       style="fill:#ffffff;fill-opacity:1;fill-rule:nonzero;stroke:#4d4d4d;stroke-width:0.77489758;stroke-linecap:round;stroke-linejoin:miter;stroke-miterlimit:4;stroke-opacity:1;stroke-dasharray:none"
       d="m 306.69782,191.0105 c -0.10201,0.62723 -0.50257,1.49194 -0.28255,2.48434"
       id="path9975-2"
       inkscape:connector-curvature="0"
       sodipodi:nodetypes="cc" />
    <path
       style="fill:#ffffff;fill-opacity:0;fill-rule:nonzero;stroke:#000000;stroke-width:1.16234636;stroke-linecap:round;stroke-linejoin:miter;stroke-miterlimit:4;stroke-opacity:1;stroke-dasharray:none"
       d="m 303.78394,190.39121 c 0.39554,1.11471 1.84806,0.90033 3.11525,0.0241 l 0.4658,-2.60656"
       id="path9969-4"
       inkscape:connector-curvature="0"
       sodipodi:nodetypes="ccc" />
    <path
       style="fill:#ffffff;fill-opacity:1;fill-rule:nonzero;stroke:#000000;stroke-width:1.16234636;stroke-linecap:round;stroke-linejoin:miter;stroke-miterlimit:4;stroke-opacity:1;stroke-dasharray:none"
       d="m 306.93587,190.41352 c 1.96368,5.00737 5.14679,3.88115 7.19507,3.02209"
       id="path9971-3"
       inkscape:connector-curvature="0"
       sodipodi:nodetypes="cc" />
    <path
       style="fill:#ffffff;fill-opacity:1;fill-rule:nonzero;stroke:#000000;stroke-width:1.16234636;stroke-linecap:round;stroke-linejoin:miter;stroke-miterlimit:4;stroke-opacity:1;stroke-dasharray:none"
       d="m 305.65741,185.82561 c 0.24071,0.83222 0.82621,1.30601 1.63556,1.8351 1.08346,0.0406 2.19116,-0.41061 2.68266,-0.9707"
       id="path9977-6"
       inkscape:connector-curvature="0"
       sodipodi:nodetypes="ccc" />
    <path
       style="fill:#ffffff;fill-opacity:0;fill-rule:nonzero;stroke:#000000;stroke-width:1.70477462;stroke-linecap:round;stroke-linejoin:miter;stroke-miterlimit:4;stroke-opacity:1;stroke-dasharray:none"
       d="m 302.70172,185.26667 c 0,0 -8.3366,12.57286 -4.6535,16.44966 3.82451,4.02566 13.74511,-5.69461 13.74511,-5.69461"
       id="path9981-8"
       inkscape:connector-curvature="0"
       sodipodi:nodetypes="csc" />
    <path
       style="fill:#ffffff;fill-opacity:0;fill-rule:nonzero;stroke:#000000;stroke-width:1.70477462;stroke-linecap:round;stroke-linejoin:miter;stroke-miterlimit:4;stroke-opacity:1;stroke-dasharray:none"
       d="m 303.30671,189.99945 c -1.38805,2.58004 -3.33281,4.93207 -3.63341,11.70246"
       id="path9983-5"
       inkscape:connector-curvature="0"
       sodipodi:nodetypes="cc" />
    <path
       style="fill:#ffffff;fill-opacity:0;fill-rule:nonzero;stroke:#000000;stroke-width:1.70477462;stroke-linecap:round;stroke-linejoin:miter;stroke-miterlimit:4;stroke-opacity:1;stroke-dasharray:none"
       d="m 311.4775,194.37299 c 1.00582,2.00814 1.78018,5.952 5.6924,9.86899 3.4277,3.43188 8.19353,4.78243 12.82314,6.21319 5.98188,1.84866 13.07321,3.95258 20.48992,4.06547 -3.03382,-0.19982 -6.00984,3.44228 -9.86118,2.83978 -1.39404,-0.084 -3.83207,1.2017 -3.22034,3.36078 0.24024,0.84793 0.86326,1.24384 1.98898,2.07671 1.5992,1.18322 16.38838,-0.33163 20.00447,-1.61969 3.38571,-0.67236 5.86615,-9.24407 7.88503,-14.34954 0.003,-0.008 0.008,-0.0146 0.0111,-0.0225 1.26882,-2.54893 1.76278,-5.58597 1.99452,-8.41032 0.83129,-10.13133 -2.15328,-17.5486 -9.59875,-22.9623 -1.89496,-1.37788 -4.09405,-2.4322 -6.37664,-2.9544 -0.63914,-0.14621 -1.29051,-0.2558 -1.94108,-0.33528 -2.81915,-0.34428 -5.72115,-0.11903 -8.54898,0.16255 -2.12935,0.212 -7.41944,1.25285 -8.4381,1.15815"
       id="path9985-3"
       inkscape:connector-curvature="0"
       sodipodi:nodetypes="cssccsscccsccscc" />
    <path
       style="fill:#ffffff;fill-opacity:1;fill-rule:nonzero;stroke:#000000;stroke-width:1.70477462;stroke-linecap:round;stroke-linejoin:miter;stroke-miterlimit:4;stroke-opacity:1;stroke-dasharray:none"
       d="m 323.93058,206.3836 c 0,0 -0.0146,1.7747 -0.17298,2.90162 -0.13887,0.98772 -1.11788,1.5193 -1.74562,2.3635 -0.74775,1.00556 -2.30385,1.53869 -2.49296,2.71182 -0.0552,0.34144 0.29882,0.67848 0.53052,0.99118 0.70391,0.95007 3.62531,1.75966 5.98861,0.81309 2.35462,-0.94307 2.93415,-3.41279 3.91193,-5.11966 0.533,-0.93042 1.67844,-3.70839 1.67844,-3.70839"
       id="path9989-2"
       inkscape:connector-curvature="0"
       sodipodi:nodetypes="cssssssc" />
    <path
       style="fill:#ffffff;fill-opacity:0;fill-rule:nonzero;stroke:#000000;stroke-width:1.70477462;stroke-linecap:round;stroke-linejoin:miter;stroke-miterlimit:4;stroke-opacity:1;stroke-dasharray:none"
       d="m 318.02534,205.02811 c 0,0 0.492,1.17084 0.33358,2.29776 -0.13888,0.98772 -0.63647,1.4702 -1.26426,2.31439 -0.74774,1.00556 -2.92884,1.16368 -3.11796,2.33682 -0.0552,0.34145 0.29883,0.67849 0.53052,0.99119 0.70391,0.95006 2.07122,1.77114 4.43452,0.82456"
       id="path9989-3-1"
       inkscape:connector-curvature="0"
       sodipodi:nodetypes="cssssc" />
    <path
       style="fill:#ffffff;fill-opacity:1;fill-rule:nonzero;stroke:#000000;stroke-width:1.70477462;stroke-linecap:round;stroke-linejoin:miter;stroke-miterlimit:4;stroke-opacity:1;stroke-dasharray:none"
       d="m 359.22569,215.21181 c 0,0 -3.74198,0.83142 -5.64084,0.80732 -1.59196,-0.0202 -3.23773,-0.18792 -4.70892,-0.7967 -1.81187,-0.74974 -3.47098,-1.96053 -4.80016,-3.40484 -0.96395,-1.04746 -1.71235,-2.33005 -2.17592,-3.67784 -0.73488,-2.13658 -1.52622,-4.56204 -0.8692,-6.7255 2.34279,-7.71437 7.27892,-8.4251 10.56314,-8.79165 5.39648,-0.60233 10.51454,2.0569 10.51454,2.0569"
       id="path10011-1"
       inkscape:connector-curvature="0"
       sodipodi:nodetypes="cssssssc" />
    <path
       style="fill:#000000;fill-opacity:0;fill-rule:nonzero;stroke:#000000;stroke-width:1.70477462;stroke-linecap:round;stroke-linejoin:miter;stroke-miterlimit:4;stroke-opacity:1;stroke-dasharray:none"
       d="m 343.41574,213.95124 c 0.32303,1.0005 -2.62594,1.86308 -5.55339,1.97611 -2.58194,0.0997 -4.20143,-1.24431 -6.76262,0.15081 -1.56723,0.8537 -1.6408,2.92574 -1.28945,3.59251 0.40667,0.77175 1.64483,1.16079 2.47064,1.4367 2.11327,0.70609 6.05029,0.79692 6.05029,0.79692"
       id="path10014-9"
       inkscape:connector-curvature="0"
       sodipodi:nodetypes="cssssc" />
    <path
       style="fill:#000000;fill-opacity:0;fill-rule:nonzero;stroke:#000000;stroke-width:1.70477462;stroke-linecap:round;stroke-linejoin:miter;stroke-miterlimit:4;stroke-opacity:1;stroke-dasharray:none"
       d="m 365.34865,212.25961 c -0.20263,0.33128 5.86855,-1.59364 9.83214,-5.97758 1.35082,-1.49413 1.41706,-4.11054 0.5167,-4.64872 -0.90034,-0.53819 -2.87493,0.87612 -2.87493,0.87612 0,0 3.23771,-1.69152 3.8001,-3.00198 0.56238,-1.31046 0.1893,-2.77913 -0.34381,-3.70537 -0.53311,-0.92622 -1.03376,-1.74116 -2.18968,-1.56376 -1.15593,0.17738 -2.58888,3.44786 -2.58888,3.44786 0,0 1.1149,-2.07604 0.84861,-3.12128 -0.14703,-0.57709 -0.57376,-1.17664 -1.23719,-1.2937 -0.66344,-0.11705 -1.50035,0.64059 -1.50035,0.64059"
       id="path10020-6"
       inkscape:connector-curvature="0"
       sodipodi:nodetypes="csscssscssc" />
    <path
       style="fill:#000000;fill-opacity:0;fill-rule:nonzero;stroke:#502d16;stroke-width:0;stroke-linecap:round;stroke-linejoin:miter;stroke-miterlimit:4;stroke-opacity:1;stroke-dasharray:none"
       d="m 330.78141,170.94111 c -0.29715,0.9463 -0.56157,1.98077 -0.41483,2.97156 0.8903,0.77585 2.49764,0.42989 3.16122,1.54858 0.36425,0.63314 0.67511,1.77488 -0.16496,2.20595 -0.46301,0.33304 -1.03871,0.14965 -1.53757,0.24663 -0.14947,0.47673 0.40535,0.89855 0.48576,1.36232 1.33741,3.56399 0.49212,7.44562 -0.43806,11.00525 -0.91861,3.8055 -2.29676,7.63779 -2.00643,11.60697 0.14543,1.80999 0.66124,3.68209 2.04492,4.93941 2.15278,2.05489 5.20663,3.38054 8.21403,2.99943 1.64451,-0.23016 3.37341,-1.27102 3.80621,-2.96301 0.17675,-3.33133 -0.50058,-6.63515 -1.06577,-9.90374 -1.26784,-6.29182 -2.76962,-12.60529 -5.43329,-18.46258 -0.96505,-2.00847 -2.184,-4.21037 -4.34743,-5.08171 -0.52562,-0.22779 -1.30956,-0.0357 -1.69185,-0.50434 -0.20169,-0.41824 0.3594,-0.58082 0.45977,-0.88313 -0.20436,-0.45368 -0.67071,-0.79035 -1.01434,-1.12848 l -0.0575,0.0409 z"
       id="path10024-4"
       inkscape:connector-curvature="0" />
    <path
       style="fill:#4d4d4d;fill-opacity:1;fill-rule:nonzero;stroke:#000000;stroke-width:0;stroke-linecap:round;stroke-linejoin:miter;stroke-miterlimit:4;stroke-opacity:1;stroke-dasharray:none"
       d="m 351.43347,172.54791 c -0.50578,-0.005 -1.0838,-0.24633 -1.55256,0.0104 -0.29977,0.63151 -0.24917,1.38799 -0.36116,2.07225 -0.13503,1.17747 0.23219,2.39791 0.90637,3.35809 0.82831,1.10554 2.36407,0.97016 3.58077,0.90532 0.85832,-0.0253 1.74401,0.076 2.57567,0.255 1.41193,0.84757 2.78588,2.11479 3.05983,3.81017 -0.0207,1.26241 -0.51639,2.46274 -0.57197,3.71773 0.0742,1.16628 0.80181,2.17637 1.54644,3.02452 1.14762,1.26007 2.84824,2.09921 4.57632,1.84551 1.00777,-0.11717 2.11753,-0.51274 2.57835,-1.49845 0.23432,-0.57003 0.76713,-1.16453 0.44226,-1.79867 -1.10393,-4.37028 -3.64993,-8.30692 -7.0909,-11.18208 -2.61344,-2.25431 -5.76603,-3.98509 -9.21802,-4.45473 -0.15657,-0.0261 -0.31399,-0.0454 -0.47161,-0.0639 z"
       id="path10044-6"
       inkscape:connector-curvature="0" />
    <path
       style="fill:#4d4d4d;fill-opacity:1;fill-rule:nonzero;stroke:#000000;stroke-width:0;stroke-linecap:round;stroke-linejoin:miter;stroke-miterlimit:4;stroke-opacity:1;stroke-dasharray:none"
       d="m 310.45752,169.53265 c -1.06948,0.73397 -2.06566,1.76809 -2.42505,3.0254 0.99167,0.97908 0.51018,2.49214 0.037,3.5959 -0.61253,1.2461 -1.29231,2.55549 -2.394,3.41221 -0.39975,0.37785 -0.87887,-0.38346 -1.22374,0.105 -0.25746,0.30986 -0.79089,0.84047 -0.23186,1.14351 1.01597,0.76192 2.27222,1.86764 3.64088,1.28347 1.56503,-0.736 2.96624,-2.04475 3.50422,-3.72361 0.55054,-1.55003 -1.0742,-3.11652 -0.17008,-4.60838 0.38817,-0.88366 1.36388,-1.71964 1.08715,-2.76905 -0.35099,-0.69672 -1.07539,-1.20322 -1.76552,-1.49121 l -0.0591,0.0268 z"
       id="path10078-8"
       inkscape:connector-curvature="0" />
    <path
       style="fill:#4d4d4d;fill-opacity:1;fill-rule:nonzero;stroke:#000000;stroke-width:0;stroke-linecap:round;stroke-linejoin:miter;stroke-miterlimit:4;stroke-opacity:1;stroke-dasharray:none"
       d="m 320.80722,173.56949 c -1.1376,-0.12108 -2.67719,0.19902 -2.98786,1.48195 -0.47802,1.7717 -0.60091,3.63278 -1.01234,5.40997 -0.58345,1.22749 -1.80171,2.53709 -1.25438,3.99169 0.73188,1.92664 2.88142,3.31177 4.94269,2.79513 1.1382,-0.34314 2.34058,-1.48383 2.03279,-2.76579 -0.42386,-0.49998 -1.18915,-0.0151 -1.7321,-0.25937 -1.0812,-0.2032 -1.936,-1.10773 -2.08514,-2.19857 -0.5635,-2.69755 1.37813,-5.61369 4.03749,-6.21677 0.41147,0.13085 0.87969,-0.29256 0.53151,-0.67176 -0.55766,-0.89107 -1.37684,-1.55435 -2.47264,-1.56635 z"
       id="path10080-0"
       inkscape:connector-curvature="0" />
    <path
       style="fill:#4d4d4d;fill-opacity:1;fill-rule:nonzero;stroke:#000000;stroke-width:0;stroke-linecap:round;stroke-linejoin:miter;stroke-miterlimit:4;stroke-opacity:1;stroke-dasharray:none"
       d="m 322.74745,167.17921 c -1.34054,-0.0482 -2.72657,-0.2535 -4.04824,-0.0213 -0.865,0.55662 -1.12798,1.93309 -0.56688,2.79101 0.70636,0.52599 1.70767,0.33077 2.53112,0.44281 1.12472,-0.0272 2.56151,0.32737 3.42078,-0.60803 0.51559,-0.88895 -0.0438,-2.24854 -0.99948,-2.56219 -0.11143,-0.021 -0.22407,-0.0362 -0.33733,-0.0423 z"
       id="path10082-0"
       inkscape:connector-curvature="0" />
    <path
       style="fill:#4d4d4d;fill-opacity:1;fill-rule:nonzero;stroke:#000000;stroke-width:0;stroke-linecap:round;stroke-linejoin:miter;stroke-miterlimit:4;stroke-opacity:1;stroke-dasharray:none"
       d="m 305.8361,183.27636 c -0.59654,-0.0343 -0.74939,0.60953 -1.0005,1.01134 -0.5813,0.82506 -1.64499,1.12841 -2.28942,1.87578 -0.27033,0.76452 0.26377,1.5555 0.50792,2.26527 0.46931,0.94061 1.05605,1.90478 1.89121,2.54145 0.75579,-0.15592 1.76508,-0.38925 1.85428,-1.32648 0.0758,-0.61586 0.38077,-1.25756 0.25658,-1.85976 -0.64379,-0.48937 -1.37424,-1.11424 -1.54923,-1.93463 0.0427,-0.26626 0.31538,-0.27584 0.37259,0.0123 0.42768,0.82147 1.25488,1.84824 2.3036,1.48432 0.71471,-0.0832 1.26147,-0.6503 1.92755,-0.79509 0.16388,0.30133 -0.36621,0.61422 -0.59216,0.76088 -0.55354,0.3397 -1.21615,0.41554 -1.78631,0.62307 -0.40305,0.75241 -0.56894,1.68024 -0.50001,2.52891 0.59778,1.67517 1.90009,3.4792 3.85902,3.47537 1.10191,0.084 2.08652,-0.49253 3.13718,-0.6691 0.30406,0.24648 -0.37982,0.48436 -0.45496,0.72043 -0.12078,0.53822 0.7246,0.42827 1.05176,0.5949 1.19352,0.21117 2.34744,0.69257 3.55143,0.79836 0.8635,-0.24925 1.54471,-0.96872 2.13072,-1.62618 0.57565,-0.58219 0.22583,-1.44788 -0.29953,-1.92483 -0.96184,-1.16281 -2.53415,-1.33491 -3.95021,-1.27681 -1.16071,-0.12715 -2.44591,-0.22709 -3.44695,-0.87473 -0.72347,-0.54525 -0.29217,-1.57982 -0.30212,-2.33888 -0.0346,-0.64069 0.35966,-1.40815 0.0261,-1.96639 -0.72999,-0.7146 -1.79255,-1.46214 -2.83554,-0.91232 -0.57591,0.19774 -1.22117,0.40078 -1.73384,-0.0499 -0.72102,-0.34469 -1.33615,-0.9875 -2.12901,-1.13729 z"
       id="path10084-9"
       inkscape:connector-curvature="0" />
    <path
       style="fill:#4d4d4d;fill-opacity:1;fill-rule:nonzero;stroke:#000000;stroke-width:0;stroke-linecap:round;stroke-linejoin:miter;stroke-miterlimit:4;stroke-opacity:1;stroke-dasharray:none"
       d="m 321.27659,199.13213 c -0.90673,-0.12058 -1.89492,0.56827 -2.08367,1.45874 0.0589,1.55362 1.44132,2.92188 2.95054,3.12259 0.79235,-0.34493 1.64912,-0.46771 2.4613,-0.71916 0.85279,-0.50077 0.61114,-1.98412 -0.2503,-2.36313 -0.90097,-0.29414 -1.41933,-1.23265 -2.39858,-1.37204 -0.22379,-0.0571 -0.44827,-0.11114 -0.67929,-0.127 z"
       id="path10086-1"
       inkscape:connector-curvature="0" />
    <path
       style="fill:#4d4d4d;fill-opacity:1;fill-rule:nonzero;stroke:#000000;stroke-width:0;stroke-linecap:round;stroke-linejoin:miter;stroke-miterlimit:4;stroke-opacity:1;stroke-dasharray:none"
       d="m 320.49862,209.02792 c -0.90523,0.0114 -1.95125,1.10743 -1.38635,1.98795 0.46589,0.42187 1.39136,0.30357 1.61322,-0.34413 0.30105,-0.46524 0.48864,-1.46636 -0.22687,-1.64382 z"
       id="path10088-6"
       inkscape:connector-curvature="0" />
    <path
       style="fill:#4d4d4d;fill-opacity:1;fill-rule:nonzero;stroke:#000000;stroke-width:0;stroke-linecap:round;stroke-linejoin:miter;stroke-miterlimit:4;stroke-opacity:1;stroke-dasharray:none"
       d="m 325.75103,209.93234 c -0.64003,0.0105 -1.61739,-0.21304 -1.91665,0.5399 -0.32999,0.66472 -1.03039,1.1409 -1.26962,1.82859 0.43776,0.5993 1.34474,0.53819 2.01267,0.67478 0.96906,0.13539 2.38672,0.01 2.64584,-1.15291 0.14063,-0.87968 -0.63227,-1.75633 -1.47224,-1.89037 z"
       id="path10090-2"
       inkscape:connector-curvature="0" />
    <path
       style="fill:#4d4d4d;fill-opacity:1;fill-rule:nonzero;stroke:#000000;stroke-width:0;stroke-linecap:round;stroke-linejoin:miter;stroke-miterlimit:4;stroke-opacity:1;stroke-dasharray:none"
       d="m 335.47514,216.28446 c -0.4253,-0.0591 -1.29699,-0.36996 -1.38664,0.28998 -0.0833,0.86876 -0.55173,1.99284 0.14871,2.71191 0.88876,0.16147 2.15078,-0.6427 1.79357,-1.65834 -0.20622,-0.40793 -0.19918,-0.88879 -0.41791,-1.26551 -0.0422,-0.0318 -0.0863,-0.0633 -0.13754,-0.0784 z"
       id="path10092-0"
       inkscape:connector-curvature="0" />
    <path
       style="fill:#4d4d4d;fill-opacity:1;fill-rule:nonzero;stroke:#000000;stroke-width:0;stroke-linecap:round;stroke-linejoin:miter;stroke-miterlimit:4;stroke-opacity:1;stroke-dasharray:none"
       d="m 360.34714,217.59995 c -1.98244,0.25792 -3.55358,1.59351 -5.23682,2.55336 -1.44029,0.74074 -3.05721,-2.1e-4 -4.5182,-0.29875 -1.0731,-0.17529 -2.19652,-1.03216 -3.29538,-0.50764 -0.70114,0.33815 -0.52975,1.23356 -0.12327,1.73522 0.28608,0.55262 0.63907,1.14357 1.35991,0.8884 3.46069,-0.14259 6.98657,-0.29128 10.31923,-1.27336 1.06665,-0.40954 2.28496,-1.13599 2.54431,-2.33044 0.0283,-0.58482 -0.51884,-0.87505 -1.04949,-0.76678 z"
       id="path10094-9"
       inkscape:connector-curvature="0" />
    <path
       style="fill:#4d4d4d;fill-opacity:1;fill-rule:nonzero;stroke:#000000;stroke-width:0;stroke-linecap:round;stroke-linejoin:miter;stroke-miterlimit:4;stroke-opacity:1;stroke-dasharray:none"
       d="m 351.59678,206.89552 c -1.0494,0.11524 -2.14139,0.64678 -2.74612,1.53915 -0.92458,1.6528 0.32658,3.85289 2.09217,4.261 1.33179,0.34523 2.79378,0.20145 4.08045,-0.26641 1.40434,-0.58175 2.05093,-2.27076 1.91085,-3.70359 -0.021,-0.56645 -0.58561,-0.97878 -1.11367,-0.70394 -1.26469,0.41044 -2.36741,1.35876 -3.70753,1.49899 -0.86627,-0.10133 -0.78804,-1.1777 -0.4666,-1.76677 0.15724,-0.24132 0.61178,-0.68815 0.1172,-0.83579 -0.0535,-0.0177 -0.11113,-0.0179 -0.1667,-0.0228 z"
       id="path10096-8"
       inkscape:connector-curvature="0" />
    <path
       style="fill:#4d4d4d;fill-opacity:1;fill-rule:nonzero;stroke:#000000;stroke-width:0;stroke-linecap:round;stroke-linejoin:miter;stroke-miterlimit:4;stroke-opacity:1;stroke-dasharray:none"
       d="m 363.32141,198.94142 c -1.35459,-0.0448 -3.03465,0.27831 -3.7142,1.59891 -0.47588,1.27322 0.0999,2.63637 0.28086,3.91491 0.19518,1.40493 0.9648,2.82616 0.56025,4.2435 -0.24991,0.75942 -0.92463,1.65595 -0.29383,2.41442 0.7259,1.00458 1.93403,1.96284 3.23791,1.77453 1.24873,-0.31023 1.81813,-1.56227 2.19315,-2.67539 1.00342,-2.95621 2.56289,-5.77154 2.91137,-8.91343 -0.37079,-0.53571 -1.13617,-0.75631 -1.68699,-1.12595 -1.093,-0.5785 -2.24491,-1.10392 -3.48852,-1.2315 z"
       id="path10098-3"
       inkscape:connector-curvature="0" />
    <path
       style="fill:#4d4d4d;fill-opacity:1;fill-rule:nonzero;stroke:#000000;stroke-width:0;stroke-linecap:round;stroke-linejoin:miter;stroke-miterlimit:4;stroke-opacity:1;stroke-dasharray:none"
       d="m 352.27885,192.99242 c -2.36046,0.1349 -4.83079,0.64579 -6.77,2.07739 -0.55826,0.51538 -1.35443,0.95091 -1.60037,1.70165 0.11198,1.93455 0.56723,3.85344 0.80333,5.76158 -0.006,0.4751 0.51403,0.55871 0.82557,0.29982 0.428,-0.199 1.17067,-0.56493 0.77485,-1.13583 -0.31944,-0.68202 -0.80245,-1.38475 -0.52006,-2.16337 0.12291,-0.72445 0.84033,-1.50962 1.61624,-1.10505 0.91274,0.30473 1.60982,1.0826 2.54676,1.30178 1.83481,-0.16059 3.96168,-0.81639 4.81769,-2.60319 0.45803,-1.21439 -0.55559,-2.36057 -1.2672,-3.23522 -0.32898,-0.37761 -0.66895,-0.88932 -1.22681,-0.89956 z"
       id="path10100-5"
       inkscape:connector-curvature="0" />
    <path
       style="fill:#4d4d4d;fill-opacity:1;fill-rule:nonzero;stroke:#000000;stroke-width:0;stroke-linecap:round;stroke-linejoin:miter;stroke-miterlimit:4;stroke-opacity:1;stroke-dasharray:none"
       d="m 354.93082,182.74619 c -1.24064,-0.23446 -2.52753,0.53419 -2.8852,1.7462 -0.62508,1.70576 0.30259,3.9173 2.1514,4.33508 0.6509,0.2235 1.54006,-0.004 1.62888,-0.79043 0.29889,-0.86904 -0.17628,-1.98263 0.4882,-2.69743 0.84056,-0.38446 0.73027,-1.55904 0.0808,-2.07133 -0.38852,-0.37399 -0.95134,-0.45983 -1.46417,-0.5221 z"
       id="path10102-2"
       inkscape:connector-curvature="0" />
    <path
       style="fill:#4d4d4d;fill-opacity:1;fill-rule:nonzero;stroke:#000000;stroke-width:0;stroke-linecap:round;stroke-linejoin:miter;stroke-miterlimit:4;stroke-opacity:1;stroke-dasharray:none"
       d="m 344.85961,175.00663 c -0.99459,-0.0424 -2.02099,-0.35095 -3.00578,-0.1439 -1.03332,0.51325 -1.07997,2.07049 -0.27531,2.81321 0.92437,1.12067 2.34068,2.11951 2.25216,3.74735 0.0929,1.32248 -0.39779,2.74616 0.16628,3.99951 0.79962,1.47365 3.05142,2.10316 4.39985,1.02848 0.93322,-1.04118 0.61409,-2.61311 0.30495,-3.84273 -0.25953,-1.52521 -2.06298,-1.98821 -2.59832,-3.32052 -0.0656,-1.07742 0.25812,-2.18328 0.0325,-3.2703 -0.0133,-0.48994 -0.29122,-1.05647 -0.88119,-0.96091 -0.13165,-0.0175 -0.26347,-0.0333 -0.39518,-0.0501 z"
       id="path10104-9"
       inkscape:connector-curvature="0" />
    <path
       style="fill:#f7f7f7;fill-opacity:1;fill-rule:nonzero;stroke:#000000;stroke-width:0;stroke-linecap:round;stroke-linejoin:miter;stroke-miterlimit:4;stroke-opacity:1;stroke-dasharray:none"
       d="m 371.04992,193.731 c -0.74871,-0.001 -1.40914,0.71764 -1.21805,1.49633 0.0162,4.00558 -0.60621,8.02346 -2.12868,11.73672 -0.45424,1.45717 -1.30271,2.82203 -1.48832,4.33022 0.29439,0.54865 1.03219,-0.1936 1.436,-0.25242 3.01286,-1.40235 6.03482,-3.16454 8.09328,-5.81342 0.56685,-0.982 0.6051,-2.61735 -0.43666,-3.27454 -0.78781,-0.0302 -1.49577,0.46939 -2.15833,0.84262 -0.79251,-0.6884 -0.0416,-0.93932 0.56514,-1.3051 1.1468,-0.86454 2.88388,-1.67796 2.74436,-3.38798 -0.0543,-1.29641 -0.64636,-2.74373 -1.78185,-3.4375 -1.10516,-0.0885 -1.65257,1.23539 -2.18404,2.00427 -0.26267,0.30688 -0.4305,1.2965 -1.00014,0.86714 -0.65976,-0.16698 0.14152,-0.82812 0.14206,-1.22456 0.24786,-0.76966 0.56638,-2.41735 -0.58482,-2.58179 z"
       id="path10116-5"
       inkscape:connector-curvature="0" />
    <path
       style="fill:#ffffff;fill-opacity:1;fill-rule:nonzero;stroke:#000000;stroke-width:1.70477462;stroke-linecap:round;stroke-linejoin:miter;stroke-miterlimit:4;stroke-opacity:1;stroke-dasharray:none"
       d="m 331.79444,172.36576 c 0.31025,-0.2469 2.21973,-0.34286 4.41205,1.62916 5.66162,5.09258 13.97207,28.09067 13.03501,30.9628 -2.00442,6.14357 -12.2797,3.83576 -14.57795,-0.52412 -4.18678,-7.94249 2.36656,-18.27241 -2.03735,-25.66858 -0.41523,-0.69741 -1.62932,-1.77798 -1.62932,-1.77798"
       id="path9979-6-6"
       inkscape:connector-curvature="0"
       sodipodi:nodetypes="cssssc" />
    <path
       style="fill:#4d4d4d;fill-opacity:1;fill-rule:nonzero;stroke:#000000;stroke-width:0;stroke-linecap:round;stroke-linejoin:miter;stroke-miterlimit:4;stroke-opacity:1;stroke-dasharray:none"
       d="m 328.8392,170.63015 c -1.05845,0.0275 -2.0258,0.73357 -2.54434,1.63354 -0.28297,0.49112 -0.13379,1.06109 0.16201,1.51885 0.48306,0.74756 1.53494,1.08069 1.72138,1.94456 0.29992,1.38969 -0.40224,2.49747 -0.55368,3.6687 -0.099,0.76559 -0.51721,1.47432 -0.57923,2.23994 -0.0928,1.1458 -0.0496,2.44287 0.73709,3.37509 0.76368,0.90494 1.94485,1.54432 3.14546,1.45742 0.82754,-0.0599 1.95176,-1.76483 2.05244,-2.50666 0.27083,-1.99557 0.37949,-3.31066 -0.65741,-5.04525 -0.4312,-0.72133 -1.23983,-1.16627 -1.63313,-1.89062 -0.13908,-0.25614 0.31838,-0.44984 0.53266,-0.2395 0.77043,0.75627 1.58265,1.52177 2.05336,2.52588 0.81791,1.74473 1.18228,3.65201 1.22768,5.57001 0.0761,3.21679 -0.51669,6.38533 -0.79224,9.57344 -0.27958,2.72034 -0.35394,5.54228 0.53821,8.16145 0.29559,0.83909 0.61659,1.71078 1.20014,2.38632 0.41708,0.11525 0.89485,0.004 1.33436,0.0334 3.88362,-0.066 7.76886,-0.069 11.65134,-0.18354 0.27245,0.0191 0.60533,-0.12607 0.55914,-0.45002 -0.14538,-2.14104 -0.78209,-4.2113 -1.37521,-6.2617 -1.61515,-5.19483 -3.63247,-10.26287 -5.9995,-15.15764 -1.33282,-2.64966 -2.70037,-5.32304 -4.59645,-7.62394 -1.11884,-1.34318 -2.58372,-2.52636 -4.37128,-2.78319 -0.35149,-0.0505 -0.68556,0.17485 -1.00375,0.0562 -0.25004,-0.0932 -0.16921,-0.49531 0.0696,-0.57527 0.36958,-0.12374 0.29281,-0.55282 -0.0266,-0.68837 -0.39715,-0.35373 -0.83599,-0.78119 -1.41821,-0.73238 -0.47779,-0.0101 -0.95605,-0.0182 -1.43387,-0.007 z"
       id="path10034-3-6"
       inkscape:connector-curvature="0"
       sodipodi:nodetypes="cssssssssssssscccccccccssscccc" />
    <path
       style="fill:#4d4d4d;fill-opacity:1;fill-rule:nonzero;stroke:#000000;stroke-width:0;stroke-linecap:round;stroke-linejoin:miter;stroke-miterlimit:4;stroke-opacity:1;stroke-dasharray:none"
       d="m 341.6426,204.69227 c -1.75841,0.15923 -4.97398,-1.42134 -6.63557,-0.7745 -0.50724,0.8049 2.2217,2.48056 2.69939,2.86549 2.61827,1.55889 6.09344,2.12953 8.92267,0.96688 1.06136,-0.6143 2.10515,-1.86085 2.35507,-3.08724 -1.57803,-0.35413 -3.51338,0.0887 -5.17852,-0.006 -0.7211,0.007 -1.44209,0.0189 -2.16305,0.0351 z"
       id="path10036-7-8"
       inkscape:connector-curvature="0"
       sodipodi:nodetypes="cccccccc" />
    <path
       style="fill:#d7d7d7;fill-opacity:1;fill-rule:nonzero;stroke:#2a1431;stroke-width:0;stroke-linecap:round;stroke-linejoin:miter;stroke-miterlimit:4;stroke-opacity:1;stroke-dasharray:none"
       d="m 23.652292,18.064336 c -2.318853,0.206707 -4.63081,0.869978 -6.628906,2.082031 -0.573989,0.688315 0.632679,0.978924 0.867187,1.535156 0.549435,0.681226 -0.290772,1.396264 -0.523437,2.03125 -0.758658,1.102776 -0.722975,2.505642 -0.316406,3.726563 0.546055,1.519669 -0.489088,3.012278 -1.570313,3.996093 -0.867413,0.707793 -2.079504,1.659572 -3.226562,0.976563 -0.671561,-0.290355 -1.22379,-0.885838 -1.933594,-1.101563 -0.7135938,0.242132 -0.7516436,1.236428 -1.1015627,1.820313 -0.2824683,0.816014 -0.8778097,1.957442 -0.046875,2.652344 0.07582,0.53022 0.7070343,0.736686 1.1132817,0.367187 0.706083,-0.375516 1.015967,-1.161637 1.535156,-1.691406 1.186833,0.09865 2.057538,1.517812 3.359375,1.292969 0.865704,-0.207927 1.927189,-0.557755 2.644531,0.183593 0.50812,0.291267 0.691373,0.867424 0.519531,1.410157 -0.072,1.015822 -0.338174,2.1545 0.09766,3.113281 0.954554,0.999159 2.484319,0.97262 3.76112,1.191905 1.421978,0.117316 3.123363,0.13957 4.024036,1.456532 0.514697,0.454659 0.295971,1.178732 -0.191406,1.554688 -0.327632,0.451017 -1.340789,0.861505 -0.902344,1.53125 1.187739,0.543316 2.558865,0.668014 3.851562,0.828125 1.295955,0.137862 2.680044,-0.156391 3.863282,-0.429688 0.04757,0.33673 0.541853,0.977012 -0.05469,1 -2.336399,0.697379 -4.812504,0.508482 -7.134176,-0.146108 -2.181564,-0.473398 -4.324438,-1.222393 -6.541605,-1.474985 -0.783475,0.378913 0.0093,1.309753 0.140625,1.871093 1.68283,4.363859 4.94752,8.162844 9.228464,10.12595 0.521922,0.513943 1.269498,0.128459 1.041067,-0.598606 -0.09113,-0.544597 0.863193,-0.956171 0.957031,-0.289062 0.120184,1.29348 -0.192583,2.603616 -0.136718,3.867187 0.656827,0.430519 1.719507,-0.197082 2.21875,0.59375 0.622216,0.463573 0.477502,1.607821 -0.355469,1.742188 -1.147728,0.313361 -2.358678,-0.0037 -3.429688,-0.390625 -0.890896,0.24479 -1.519686,1.074355 -2.210937,1.636718 -0.598828,0.485084 -0.191555,1.308805 0.398437,1.582032 1.634109,0.977688 3.796865,0.910406 5.480469,0.105468 1.731168,-1.101425 2.379328,-3.195222 3.312791,-4.91519 0.647747,-1.138913 0.956729,-2.473661 1.726272,-3.530122 0.400632,-0.406999 0.924697,0.290382 0.636718,0.675781 -0.212031,0.822418 -0.896071,1.587693 -0.765625,2.460938 0.731282,0.585281 1.790123,0.621265 2.656669,0.957232 3.286345,0.915886 6.605708,1.86835 9.999581,2.284955 0.656967,-0.149395 0.290328,-0.844414 -0.07031,-1.121094 -0.844644,-0.857487 -1.424683,-1.924321 -2.054688,-2.9375 -0.945698,-0.598193 -2.157301,-0.560578 -3.154981,-1.093648 -2.135697,-0.850827 -4.099464,-2.415942 -4.860644,-4.644633 -1.593552,-3.756081 -0.962726,-7.942242 -0.580051,-11.873274 0.241796,-2.511903 0.616988,-5.046601 0.439426,-7.572038 -0.05102,-0.636758 -0.906118,-0.534372 -1.054687,0.01563 -0.41566,0.711617 -0.837994,1.610946 -1.636719,1.925781 -1.893629,0.106354 -3.67348,-1.619986 -3.519531,-3.515625 0.0053,-1.871919 0.830921,-3.621267 1.123925,-5.458146 0.430989,-1.24441 -0.492416,-2.363619 -1.366113,-3.127792 -0.509431,-0.440104 -0.91073,-1.236667 -0.324218,-1.796875 0.627791,-1.037837 1.915098,-1.217232 3.019531,-1.28125 0.84926,-0.400371 -0.174941,-1.024362 -0.616146,-1.256202 -1.600077,-0.982144 -3.353627,-1.952592 -5.251042,-2.079735 -0.711587,0.280994 -0.0046,0.954178 -0.132812,1.492187 0.09134,0.871934 -1.044946,1.010756 -1.675764,0.978646 -1.223892,-0.07081 -2.533562,0.121982 -3.69533,-0.298958 -0.497161,-0.512863 -0.294744,-1.342936 -0.0078,-1.914063 0.09915,-0.609726 -0.54064,-0.54934 -0.945313,-0.527343 z m 2.847656,6.671875 c 1.100699,-0.09605 2.07846,0.523348 2.640625,1.425781 0.524318,0.598458 1.465303,0.454518 1.996094,1.082031 1.398655,1.312597 1.074908,3.54628 0.285156,5.097656 -0.672135,1.112627 -1.683286,2.017245 -2.8125,2.644532 -0.431293,0.570037 -0.244447,1.420365 -0.855468,1.902343 -1.473338,1.521357 -4.116969,0.797729 -5.175782,-0.824218 -0.609505,-0.770842 -0.903485,-1.852669 -0.355468,-2.734375 0.655348,-1.18106 1.239576,-2.42638 1.373581,-3.794921 0.328115,-1.338632 0.312731,-2.786882 0.915481,-4.037111 0.424085,-0.645951 1.273923,-0.75578 1.988281,-0.761718 z m 0.605469,25.527343 c 1.349671,0.01655 2.317375,1.002215 3.410156,1.636719 0.432312,0.424441 0.532799,1.390743 -0.1875,1.546875 -0.97961,0.269471 -2.142076,0.960351 -3.105468,0.28125 -0.787948,-0.520101 -1.625022,-1.470215 -1.480469,-2.457031 0.23149,-0.536518 0.81087,-0.871733 1.363281,-1.007813 z"
       id="path12970"
       inkscape:connector-curvature="0"
       transform="translate(293.88257,149.22342)" />
    <path
       style="fill:#d7d7d7;fill-opacity:1;fill-rule:nonzero;stroke:#2a1431;stroke-width:0;stroke-linecap:round;stroke-linejoin:miter;stroke-miterlimit:4;stroke-opacity:1;stroke-dasharray:none"
       d="m 53.449167,23.314336 c -3.316176,0.07658 -6.624945,0.481408 -9.875,1.117187 -0.649788,0.551546 0.262039,1.187168 0.574219,1.644531 2.11463,2.719133 3.497873,5.928371 5.207031,8.90625 0.376522,0.584886 1.029837,-0.0295 0.894531,-0.554687 -0.04442,-1.598505 0.278337,-3.494368 -0.975737,-4.73956 -0.553551,-0.794671 -1.574964,-1.416952 -1.7352,-2.420596 -0.07127,-0.67841 0.3906,-1.547919 1.186797,-1.275048 0.973614,0.144484 2.098451,-0.09464 2.988984,0.360985 0.393618,0.879662 0.07291,1.954604 0.164799,2.898369 -0.163996,0.811759 0.120337,1.520212 0.806763,1.985687 0.93641,0.894024 2.029978,1.895999 1.964459,3.318649 0.139978,0.931917 0.160997,2.185791 -0.857896,2.629326 -0.995888,0.511347 -2.064584,-0.06806 -2.988281,-0.464843 -0.826608,-0.01194 -0.417414,0.908238 -0.199219,1.335937 0.801839,1.832959 1.456197,3.718074 2.222656,5.558594 0.493583,0.527715 1.241433,-0.104125 1.824219,-0.164063 3.770368,-0.995211 7.865736,-0.673597 11.515335,0.64374 0.851039,0.361804 1.950378,0.539605 2.535446,1.297667 0.0022,0.443287 -0.466881,0.628877 -0.828125,0.402343 -2.69185,-1.11044 -5.557862,-1.959671 -8.496093,-1.957031 -0.656144,0.125554 -0.329617,0.880009 0.02344,1.160156 0.699709,0.842814 1.696386,2.042977 0.902344,3.140625 -0.945943,1.406444 -2.771316,1.870438 -4.363281,1.941407 -0.528325,-0.278399 -1.043652,0.198506 -0.775092,0.731706 0.300221,1.709009 0.986247,3.460077 0.611029,5.201887 -0.808678,2.319247 -3.190085,3.814035 -5.585937,3.914063 -0.546206,-0.0702 -1.110542,0.489296 -0.675782,0.972656 1.866498,2.642165 4.732247,4.783006 7.992188,5.21875 2.382457,0.134785 4.786072,0.07382 7.117187,-0.472656 0.387742,-0.06752 1.218844,-0.259651 1.175782,0.386719 -0.299994,0.656518 -1.270362,0.536818 -1.849343,0.753921 -3.124259,0.545051 -6.497674,0.803125 -9.482689,-0.457046 -1.376661,0.357195 -2.611378,1.233283 -3.964843,1.710937 -1.370445,0.63543 -2.873176,0.640994 -4.351563,0.703125 -1.349192,0.09668 -2.719851,1.593585 -1.960937,2.929688 0.739318,1.148481 2.074101,1.89212 3.457026,1.743283 2.087582,-0.03593 4.209718,0.09007 6.273442,-0.24719 0.528509,-0.09105 0.454916,-0.713687 0.0625,-0.914062 -0.250273,-0.475813 -0.876884,-1.112119 -0.574218,-1.660156 1.019416,-0.619635 2.201619,0.214708 3.245748,0.371933 1.549017,0.328785 3.288573,1.104252 4.789408,0.190567 1.689264,-0.81111 3.225959,-2.19837 5.125,-2.40625 0.537749,-0.01986 1.04913,0.884452 1.507812,0.230468 0.941077,-1.738528 1.833385,-3.546393 2.515625,-5.402343 0.0185,-0.746032 -0.816158,-0.411393 -1.234375,-0.296875 -1.260818,0.07271 -2.535031,-0.896305 -2.9375,-2.0625 0.01793,-0.935899 0.700728,-1.759699 0.5625,-2.734375 -0.181225,-2.092278 -0.928292,-4.111617 -1.082031,-6.203125 -0.008,-1.383399 1.575095,-2.106994 2.78125,-2.15625 2.011653,-0.144714 3.719781,1.09572 5.490119,1.807801 0.749644,-0.164746 0.435114,-1.189406 0.63306,-1.752349 0.222711,-3.040445 0.243456,-6.124175 -0.154429,-9.149202 0.01681,-0.55544 -0.659341,-0.872935 -1.007812,-0.390625 -1.388402,1.82208 -4.221755,1.615126 -5.878907,0.242187 -1.332005,-1.056705 -2.54621,-2.724955 -2.070247,-4.517986 0.272451,-1.416565 0.735826,-3.066364 -0.238346,-4.32967 -0.961702,-1.506329 -2.562592,-2.743864 -4.425782,-2.691406 -1.286496,-0.173789 -2.782022,0.251958 -3.90625,-0.503907 -0.871748,-0.882248 -1.161351,-2.159939 -1.035156,-3.371093 -0.115046,-0.669198 0.2519,-1.584297 -0.228424,-2.091621 -0.76216,-0.163354 -1.623053,-0.02637 -2.412201,-0.06463 z m 7.117188,10.566406 c 0.806895,-0.01854 2.11113,0.303342 2.066406,1.3125 -0.156451,0.645808 -0.927369,0.986566 -0.867188,1.730469 -0.153147,0.727032 0.07072,1.693395 -0.484375,2.265625 -1.089586,0.393306 -2.244007,-0.569377 -2.65625,-1.535157 -0.691598,-1.514151 0.03934,-3.763501 1.941407,-3.773437 z m -2.933594,24.222656 c -0.505188,0.707098 -0.690246,2.182551 0.363281,2.472656 1.568396,0.05372 2.866255,-1.146512 4.34375,-1.453125 0.69128,0.374712 0.264535,1.327418 0.167969,1.921875 -0.376845,1.519352 -2.005911,2.198938 -3.453125,2.203125 -1.222139,0.06811 -2.612719,-0.05429 -3.375,-1.148437 -0.803817,-0.879979 -0.935287,-2.533906 0.171875,-3.253906 0.495012,-0.388699 1.179101,-0.76819 1.78125,-0.742188 z"
       id="path12972"
       inkscape:connector-curvature="0"
       transform="translate(293.88257,149.22342)" />
    <path
       style="fill:#d7d7d7;fill-opacity:1;fill-rule:nonzero;stroke:#2a1431;stroke-width:0;stroke-linecap:round;stroke-linejoin:miter;stroke-miterlimit:4;stroke-opacity:1;stroke-dasharray:none"
       d="m 39.51948,66.720586 c -1.300046,0.103708 -2.786724,0.668473 -3.144532,2.066406 -0.398489,0.917279 0.180147,1.921006 1.097657,2.207031 1.598165,0.683081 3.380921,0.95772 5.095341,1.058713 0.675284,-0.381693 0.243268,-1.376289 0.490596,-1.9884 0.297393,-0.967524 1.178267,-1.589638 1.964844,-2.140625 0.297885,-0.834869 -0.857287,-0.72995 -1.351404,-0.756287 -0.672937,0.07416 -1.563083,-0.319651 -2.088617,0.134977 -0.220851,0.634668 0.697861,1.526925 -0.09904,2.023653 -0.238852,0.204878 -0.740953,0.515101 -1.003906,0.296875 -0.224223,-0.822655 0.07053,-1.64831 0.06641,-2.453125 -0.122045,-0.433741 -0.653925,-0.478352 -1.027343,-0.449218 z"
       id="path12974"
       inkscape:connector-curvature="0"
       transform="translate(293.88257,149.22342)" />
    <path
       style="fill:#d7d7d7;fill-opacity:1;fill-rule:nonzero;stroke:#2a1431;stroke-width:0;stroke-linecap:round;stroke-linejoin:miter;stroke-miterlimit:4;stroke-opacity:1;stroke-dasharray:none"
       d="m 50.335886,65.329961 c -0.687488,0.14048 -1.111639,0.834145 -1.804688,1.023437 -0.453124,0.139009 -6.155135,1.07282 -5.589843,1.519531 0.932987,0.312041 6.898042,-0.662416 7.769531,-0.972656 0.502826,-0.339671 1.536547,-0.425616 1.460937,-1.171875 -0.462391,-0.403086 -1.237882,-0.338122 -1.835937,-0.398437 z"
       id="path12978"
       inkscape:connector-curvature="0"
       transform="translate(293.88257,149.22342)"
       sodipodi:nodetypes="cccccc" />
    <path
       style="fill:#d7d7d7;fill-opacity:1;fill-rule:nonzero;stroke:#2a1431;stroke-width:0;stroke-linecap:round;stroke-linejoin:miter;stroke-miterlimit:4;stroke-opacity:1;stroke-dasharray:none"
       d="m 25.191355,57.681523 c -0.35042,0.590685 -0.364131,1.355962 -0.808594,1.925781 -0.604608,1.21901 -1.770981,1.958809 -2.957031,2.527344 -0.480871,0.159718 -0.947476,0.688353 -0.527344,1.15625 0.800981,1.173597 2.410792,1.434482 3.664062,0.921875 0.768076,-0.03079 1.41885,-0.451159 1.964844,-0.984375 1.015672,-0.972478 2.16942,-1.902011 2.84375,-3.148437 0.115986,-0.790664 -0.985556,-0.963367 -1.490302,-1.306711 -0.823878,-0.332598 -1.560206,-0.957019 -2.408135,-1.208914 -0.09375,0.03906 -0.1875,0.07813 -0.28125,0.117187 z m 1.347656,2.507813 c 0.405861,0.382488 0.05388,1.16658 -0.375,1.410156 -0.382977,0.239649 -0.960815,-0.146629 -0.640625,-0.59375 0.187773,-0.408927 0.599975,-0.686563 1.015625,-0.816406 z"
       id="path12980"
       inkscape:connector-curvature="0"
       transform="translate(293.88257,149.22342)" />
    <path
       style="fill:#4d4d4d;fill-opacity:1;fill-rule:nonzero;stroke:#2a1431;stroke-width:0;stroke-linecap:round;stroke-linejoin:miter;stroke-miterlimit:4;stroke-opacity:1;stroke-dasharray:none"
       d="m 7.6718233,39.271367 c -0.7317052,0.495289 -0.9043345,1.508195 -1.3554688,2.230469 -1.328732,2.81992 -2.7699084,5.838776 -2.5039062,9.042968 0.1255045,0.636947 0.3464205,1.675869 1.1523437,1.65625 0.7101426,-0.335742 0.3040641,-1.319536 0.5078125,-1.929687 0.3055251,-3.113306 1.3580536,-6.110265 2.9745533,-8.779013 0.5420087,-0.55304 0.382032,-1.216873 -0.048772,-1.756143 -0.1400652,-0.265648 -0.383744,-0.575046 -0.7265625,-0.464844 z"
       id="path12982"
       inkscape:connector-curvature="0"
       transform="translate(293.88257,149.22342)" />
    <path
       style="fill:#de8787;fill-opacity:1;fill-rule:nonzero;stroke:#2a1431;stroke-width:0;stroke-linecap:round;stroke-linejoin:miter;stroke-miterlimit:4;stroke-opacity:1;stroke-dasharray:none"
       d="m 9.574167,41.978398 c -0.7287622,0.305864 -0.8509962,1.285815 -1.2715541,1.888739 -1.3643446,2.724143 -1.9384772,5.807205 -1.9516015,8.82782 0.3183251,0.6228 1.2060152,0.08293 1.7456127,0.02227 3.4486919,-1.12967 6.3496679,-3.482905 9.0048869,-5.879454 0.746952,-0.582148 0.02556,-1.593647 -0.710938,-1.738281 -0.484275,-0.178675 -1.434725,-0.59018 -1.519531,0.234375 -0.03268,0.285989 8.08e-4,0.615921 -0.40625,0.570312 -1.173611,0.25847 -2.52076,0.149513 -3.558026,-0.34509 -0.464089,-0.710447 -0.780997,-1.51669 -0.578693,-2.377566 0.08575,-0.530765 -0.05478,-1.288477 -0.753906,-1.203125 z"
       id="path12984"
       inkscape:connector-curvature="0"
       transform="translate(293.88257,149.22342)" />
  </g>
</svg>
