<?xml version="1.0" encoding="UTF-8" standalone="no"?>
<!-- Created with Inkscape (http://www.inkscape.org/) -->

<svg
   xmlns:dc="http://purl.org/dc/elements/1.1/"
   xmlns:cc="http://creativecommons.org/ns#"
   xmlns:rdf="http://www.w3.org/1999/02/22-rdf-syntax-ns#"
   xmlns:svg="http://www.w3.org/2000/svg"
   xmlns="http://www.w3.org/2000/svg"
   xmlns:sodipodi="http://sodipodi.sourceforge.net/DTD/sodipodi-0.dtd"
   xmlns:inkscape="http://www.inkscape.org/namespaces/inkscape"
   width="80"
   height="75"
   id="svg10388"
   version="1.1"
   inkscape:version="0.48.5 r10040"
   sodipodi:docname="bunny-jump1.svg"
   inkscape:export-filename="/home/rhiannon/caveexplorer/lua-cave-gen/assets/bunny-still1.png"
   inkscape:export-xdpi="90"
   inkscape:export-ydpi="90">
  <defs
     id="defs10390" />
  <sodipodi:namedview
     id="base"
     pagecolor="#ffffff"
     bordercolor="#666666"
     borderopacity="1.0"
     inkscape:pageopacity="0.0"
     inkscape:pageshadow="2"
     inkscape:zoom="2.9057669"
     inkscape:cx="19.74502"
     inkscape:cy="51.717681"
     inkscape:document-units="px"
     inkscape:current-layer="layer1"
     showgrid="false"
     fit-margin-top="0"
     fit-margin-left="0"
     fit-margin-right="0"
     fit-margin-bottom="0"
     inkscape:window-width="1278"
     inkscape:window-height="781"
     inkscape:window-x="0"
     inkscape:window-y="17"
     inkscape:window-maximized="0" />
  <metadata
     id="metadata10393">
    <rdf:RDF>
      <cc:Work
         rdf:about="">
        <dc:format>image/svg+xml</dc:format>
        <dc:type
           rdf:resource="http://purl.org/dc/dcmitype/StillImage" />
        <dc:title></dc:title>
      </cc:Work>
    </rdf:RDF>
  </metadata>
  <g
     inkscape:label="Layer 1"
     inkscape:groupmode="layer"
     id="layer1"
     transform="translate(-293.88257,-149.22342)">
    <path
       style="fill:#ffffff;fill-opacity:1;fill-rule:nonzero;stroke:#000000;stroke-width:1.66864264;stroke-linecap:round;stroke-linejoin:miter;stroke-miterlimit:4;stroke-opacity:1;stroke-dasharray:none"
       d="m 309.3322,186.8821 c -0.35924,0.16075 -2.23849,-0.17645 -3.91056,-2.50342 -4.31811,-6.00928 -7.03695,-29.29199 -5.456,-31.75848 3.38167,-5.2759 12.8356,-0.8304 14.05389,3.74492 2.21941,8.33493 -6.56196,16.49485 -4.00403,24.36929 0.24118,0.74251 2.1532,5.14765 2.1532,5.14765"
       id="path9979-3-0"
       inkscape:connector-curvature="0"
       sodipodi:nodetypes="cssssc" />
    <path
       style="fill:#4d4d4d;fill-opacity:1;fill-rule:nonzero;stroke:#000000;stroke-width:0;stroke-linecap:round;stroke-linejoin:miter;stroke-miterlimit:4;stroke-opacity:1;stroke-dasharray:none"
       d="m 311.69332,192.57323 c 0.9075,0.52259 1.69753,1.51718 2.55847,2.68847 1.47462,2.0062 6.66858,1.72909 6.14523,-2.35426 -0.52336,-4.08335 -7.87287,-1.79797 -10.8854,-12.82815 -0.43168,-1.79917 -0.34369,-3.67644 0.10495,-5.46355 0.63027,-3.02302 1.99133,-5.83348 3.00267,-8.74212 0.90618,-2.47197 1.63649,-5.08442 1.37966,-7.72385 -0.0918,-0.84779 -0.20069,-1.7316 -0.61063,-2.49133 -0.37868,-0.2006 -0.86932,-0.2034 -1.28979,-0.32925 -3.79197,-0.80608 -7.57079,-1.67127 -11.37298,-2.43184 -0.26044,-0.0788 -0.61803,-0.0177 -0.64866,0.29435 -0.35786,2.02717 -0.22143,4.09817 -0.12275,6.14093 0.35934,5.20059 1.13931,10.37289 2.29977,15.46189 0.67825,2.7663 1.38475,5.56247 2.69206,8.12968 0.77481,1.50131 1.92342,2.93084 3.60181,3.56947 0.33002,0.12557 -1.84682,0.35612 -2.4261,1.29672 -0.51796,1.00836 -1.5338,2.13649 -0.75683,3.38429 0.92311,1.48249 2.10094,0.85971 3.21893,0.74671 1.03085,-0.10418 1.67817,-0.17247 3.10959,0.65184 z"
       id="path10034-7-4"
       inkscape:connector-curvature="0"
       sodipodi:nodetypes="sszcccccccccccscsss" />
    <path
       style="fill:#4d4d4d;fill-opacity:1;fill-rule:nonzero;stroke:#000000;stroke-width:0;stroke-linecap:round;stroke-linejoin:miter;stroke-miterlimit:4;stroke-opacity:1;stroke-dasharray:none"
       d="m 307.29318,154.56505 c 1.74707,0.24447 4.50544,2.43534 6.27207,2.2039 0.68094,-0.63656 -1.58207,-2.80732 -1.95684,-3.27265 -2.18259,-2.03726 -5.42892,-3.34521 -8.45125,-2.89408 -1.17535,0.33523 -2.48104,1.2634 -3.01003,2.35013 1.45198,0.68242 3.43722,0.70223 5.03442,1.16229 0.70283,0.15466 1.40676,0.30454 2.11162,0.4505 z"
       id="path10036-6-3"
       inkscape:connector-curvature="0"
       sodipodi:nodetypes="cccccccc" />
    <path
       style="fill:#ffffff;fill-opacity:0;fill-rule:nonzero;stroke:#000000;stroke-width:1.70477462;stroke-linecap:butt;stroke-linejoin:miter;stroke-miterlimit:4;stroke-opacity:1;stroke-dasharray:none"
       d="m 324.87263,178.14039 c 0,0 -1.06709,-1.82696 -5.32847,-3.27241 -4.6164,-1.56589 -11.63058,-0.003 -15.09176,2.15238 -6.65248,4.14236 -3.39706,7.5144 -5.14028,10.42053 -1.70708,2.84589 -2.86159,5.02511 -2.60026,8.33616 0.19907,2.52224 2.33748,5.85346 5.85147,6.61249 5.98718,1.29327 8.75233,0.87611 13.10416,1.33308 3.43321,0.36051 5.73827,-0.0672 7.87983,-1.38772"
       id="path9922"
       inkscape:connector-curvature="0"
       sodipodi:nodetypes="cssssssc" />
    <path
       style="fill:#000000;fill-opacity:1;fill-rule:nonzero;stroke:#000000;stroke-width:1.70477462;stroke-linecap:butt;stroke-linejoin:miter;stroke-miterlimit:4;stroke-opacity:1;stroke-dasharray:none"
       d="m 300.75488,183.31821 c 1.01745,1.67894 -1.19298,6.46501 -1.73427,6.32957 -0.95658,-0.23933 -1.7089,-1.08164 -1.07237,-3.74683 0.50347,-2.10805 2.21598,-3.55741 2.80664,-2.58274 z"
       id="path9924"
       inkscape:connector-curvature="0"
       sodipodi:nodetypes="ssss" />
    <path
       sodipodi:type="arc"
       style="fill:#ffffff;fill-opacity:1;fill-rule:nonzero;stroke:#ffffff;stroke-width:7.89696932;stroke-linecap:butt;stroke-linejoin:miter;stroke-miterlimit:4;stroke-opacity:1;stroke-dasharray:none"
       id="path9926"
       sodipodi:cx="246.53337"
       sodipodi:cy="1104.5435"
       sodipodi:rx="3.8544929"
       sodipodi:ry="4.1628523"
       d="m 250.38786,1104.5435 c 0,2.299 -1.72571,4.1628 -3.85449,4.1628 -2.12878,0 -3.85449,-1.8638 -3.85449,-4.1628 0,-2.2991 1.72571,-4.1629 3.85449,-4.1629 2.12878,0 3.85449,1.8638 3.85449,4.1629 z"
       transform="matrix(0.09641786,0.04217654,-0.0820633,0.18879727,366.89558,-34.108802)"
       inkscape:transform-center-x="4.2447684"
       inkscape:transform-center-y="0.4997621" />
    <path
       sodipodi:type="arc"
       style="fill:#ffffff;fill-opacity:1;fill-rule:nonzero;stroke:#ffffff;stroke-width:16.73293495;stroke-linecap:butt;stroke-linejoin:miter;stroke-miterlimit:4;stroke-opacity:1;stroke-dasharray:none"
       id="path9926-1"
       sodipodi:cx="246.53337"
       sodipodi:cy="1104.5435"
       sodipodi:rx="3.8544929"
       sodipodi:ry="4.1628523"
       d="m 250.38786,1104.5435 c 0,2.299 -1.72571,4.1628 -3.85449,4.1628 -2.12878,0 -3.85449,-1.8638 -3.85449,-4.1628 0,-2.2991 1.72571,-4.1629 3.85449,-4.1629 2.12878,0 3.85449,1.8638 3.85449,4.1629 z"
       transform="matrix(0.02499745,0.01678855,-0.02004842,0.07232765,315.67809,103.19505)"
       inkscape:transform-center-x="1.0893764"
       inkscape:transform-center-y="0.12830452" />
    <path
       style="fill:#000000;fill-opacity:1;fill-rule:nonzero;stroke:#000000;stroke-width:1.16234636;stroke-linecap:butt;stroke-linejoin:miter;stroke-miterlimit:4;stroke-opacity:1"
       d="m 318.80749,188.57216 c -0.85703,2.23108 -2.86797,3.51463 -4.49154,2.86694 -1.62357,-0.64772 -2.24498,-2.98138 -1.38794,-5.21238 0.85702,-2.23105 2.86795,-3.51462 4.49153,-2.86693 1.62358,0.64772 2.24498,2.98135 1.38795,5.21237 z"
       id="path9946"
       inkscape:connector-curvature="0" />
    <path
       sodipodi:type="arc"
       style="fill:#ffffff;fill-opacity:1;fill-rule:nonzero;stroke:#ffffff;stroke-width:6.14886189;stroke-linecap:butt;stroke-linejoin:miter;stroke-miterlimit:4;stroke-opacity:1;stroke-dasharray:none"
       id="path9949"
       sodipodi:cx="217.08504"
       sodipodi:cy="1121.1949"
       sodipodi:rx="5.5504699"
       sodipodi:ry="8.4798841"
       d="m 222.63551,1121.1949 c 0,4.6834 -2.48503,8.4799 -5.55047,8.4799 -3.06544,0 -5.55047,-3.7965 -5.55047,-8.4799 0,-4.6833 2.48503,-8.4798 5.55047,-8.4798 3.06544,0 5.55047,3.7965 5.55047,8.4798 z"
       transform="matrix(0.17530328,0.06711891,-0.06553893,0.17874794,351.02512,-28.944514)" />
    <path
       sodipodi:type="arc"
       style="fill:#ffffff;fill-opacity:1;fill-rule:nonzero;stroke:#ffffff;stroke-width:6.19660568;stroke-linecap:butt;stroke-linejoin:miter;stroke-miterlimit:4;stroke-opacity:1;stroke-dasharray:none"
       id="path9926-1-4"
       sodipodi:cx="246.53337"
       sodipodi:cy="1104.5435"
       sodipodi:rx="3.8544929"
       sodipodi:ry="4.1628523"
       d="m 250.38786,1104.5435 c 0,2.299 -1.72571,4.1628 -3.85449,4.1628 -2.12878,0 -3.85449,-1.8638 -3.85449,-4.1628 0,-2.2991 1.72571,-4.1629 3.85449,-4.1629 2.12878,0 3.85449,1.8638 3.85449,4.1629 z"
       transform="matrix(0.09454597,0.00355064,-0.02851882,0.16432988,324.91705,6.3225498)"
       inkscape:transform-center-x="3.6010486"
       inkscape:transform-center-y="1.6386612" />
    <path
       style="fill:#ffffff;fill-opacity:1;fill-rule:nonzero;stroke:#4d4d4d;stroke-width:1.16234636;stroke-linecap:round;stroke-linejoin:miter;stroke-miterlimit:4;stroke-opacity:1;stroke-dasharray:none"
       d="m 300.73306,201.42002 c -0.59673,1.62769 -0.18012,2.67984 0.7248,3.45466 0.91376,0.013 1.85293,0.30779 3.45117,-0.44387 -0.17451,-1.13595 0.004,-1.65473 0.18507,-2.45525 -0.83528,-0.57856 -2.15318,-0.0763 -2.49107,-1.76878 -0.39342,0.60016 -1.15972,1.18645 -1.86997,1.21324 z"
       id="path9973"
       inkscape:connector-curvature="0"
       sodipodi:nodetypes="cccccc" />
    <path
       style="fill:#ffffff;fill-opacity:1;fill-rule:nonzero;stroke:#4d4d4d;stroke-width:0.77489758;stroke-linecap:round;stroke-linejoin:miter;stroke-miterlimit:4;stroke-opacity:1;stroke-dasharray:none"
       d="m 302.45975,200.94736 c 0.0104,0.63538 -0.2311,1.55726 0.16078,2.49518"
       id="path9975"
       inkscape:connector-curvature="0"
       sodipodi:nodetypes="cc" />
    <path
       style="fill:#ffffff;fill-opacity:0;fill-rule:nonzero;stroke:#000000;stroke-width:1.16234636;stroke-linecap:round;stroke-linejoin:miter;stroke-miterlimit:4;stroke-opacity:1;stroke-dasharray:none"
       d="m 299.4823,200.85257 c 0.58624,1.0273 1.97804,0.5597 3.0705,-0.52664 l -0.002,-2.64786"
       id="path9969"
       inkscape:connector-curvature="0"
       sodipodi:nodetypes="ccc" />
    <path
       style="fill:#ffffff;fill-opacity:1;fill-rule:nonzero;stroke:#000000;stroke-width:1.16234636;stroke-linecap:round;stroke-linejoin:miter;stroke-miterlimit:4;stroke-opacity:1;stroke-dasharray:none"
       d="m 302.58859,200.31771 c 2.8174,4.58172 5.75149,2.91088 7.61579,1.70349"
       id="path9971"
       inkscape:connector-curvature="0"
       sodipodi:nodetypes="cc" />
    <path
       style="fill:#ffffff;fill-opacity:1;fill-rule:nonzero;stroke:#000000;stroke-width:1.16234636;stroke-linecap:round;stroke-linejoin:miter;stroke-miterlimit:4;stroke-opacity:1;stroke-dasharray:none"
       d="m 300.51975,196.02781 c 0.38394,0.77661 1.04393,1.13952 1.93402,1.5173 1.07359,-0.15146 2.08416,-0.79124 2.46898,-1.42934"
       id="path9977"
       inkscape:connector-curvature="0"
       sodipodi:nodetypes="ccc" />
    <path
       style="fill:#ffffff;fill-opacity:0;fill-rule:nonzero;stroke:#000000;stroke-width:1.70477462;stroke-linecap:round;stroke-linejoin:miter;stroke-miterlimit:4;stroke-opacity:1;stroke-dasharray:none"
       d="m 307.75827,203.41259 c 1.34476,1.79887 2.80366,5.5439 7.34632,8.70816 3.98006,2.77237 8.90952,3.25975 13.71907,3.85014 6.21438,0.76283 13.56586,1.58092 20.88586,0.3818 -3.0214,0.33928 -6.11479,0.65786 -10.012,0.74521 -1.38695,0.16361 -3.55951,1.85977 -2.57598,3.87683 0.38626,0.79215 1.06942,1.07177 2.32457,1.69267 1.78308,0.8821 16.87963,0.5704 20.2113,-1.33621 3.21368,-1.2599 4.14084,-10.13499 5.22604,-15.51682 0.002,-0.008 0.005,-0.0157 0.007,-0.0241 0.79857,-2.73299 0.74824,-5.80953 0.47739,-8.6304 -0.97158,-10.11884 -5.21953,-16.8922 -13.50428,-20.90544 -2.10857,-1.02145 -4.45933,-1.6707 -6.79827,-1.78144 -0.65492,-0.031 -1.3154,-0.0238 -1.96978,0.0129 -2.83563,0.15916 -5.6522,0.89354 -8.38581,1.67025 -2.05841,0.58483 -7.08142,2.54386 -8.10079,2.6306"
       id="path9985"
       inkscape:connector-curvature="0"
       sodipodi:nodetypes="cssccsscccsccscc" />
    <path
       style="fill:#ffffff;fill-opacity:1;fill-rule:nonzero;stroke:#000000;stroke-width:1.70477462;stroke-linecap:round;stroke-linejoin:miter;stroke-miterlimit:4;stroke-opacity:1;stroke-dasharray:none"
       d="m 322.13727,213.03435 c 0,0 0.2992,1.74936 0.34234,2.88654 0.0378,0.99672 -0.39655,1.99574 -0.86528,2.93756 -0.55835,1.12184 -1.97371,2.04452 -1.9526,3.23261 0.006,0.34582 0.41398,0.61502 0.69727,0.88187 0.86068,0.81077 3.87916,1.09154 6.03807,-0.25764 2.15098,-1.3442 1.82767,-4.30335 2.48853,-6.15611 0.36025,-1.00994 0.99693,-3.94657 0.99693,-3.94657"
       id="path9989"
       inkscape:connector-curvature="0"
       sodipodi:nodetypes="cssssssc" />
    <path
       style="fill:#ffffff;fill-opacity:0;fill-rule:nonzero;stroke:#000000;stroke-width:1.70477462;stroke-linecap:round;stroke-linejoin:miter;stroke-miterlimit:4;stroke-opacity:1;stroke-dasharray:none"
       d="m 316.08545,212.74339 c 0,0 0.88038,1.41253 0.92353,2.54971 0.0378,0.99672 -0.0765,1.76142 -0.54528,2.70324 -0.55834,1.12184 -1.9737,2.04451 -1.9526,3.23261 0.006,0.34582 0.41399,0.61502 0.69728,0.88187 0.86067,0.81077 2.35153,1.37739 4.51044,0.0282"
       id="path9989-3"
       inkscape:connector-curvature="0"
       sodipodi:nodetypes="cssssc" />
    <path
       style="fill:#ffffff;fill-opacity:1;fill-rule:nonzero;stroke:#000000;stroke-width:1.70477462;stroke-linecap:round;stroke-linejoin:miter;stroke-miterlimit:4;stroke-opacity:1;stroke-dasharray:none"
       d="m 358.43685,215.48851 c 0,0 -3.53625,1.4794 -5.4095,1.79113 -1.57049,0.26134 -3.22001,0.38701 -4.77561,0.0477 -1.91582,-0.41786 -3.76273,-1.31652 -5.32616,-2.5033 -1.13383,-0.86069 -2.09704,-1.9909 -2.79142,-3.2356 -1.10076,-1.97315 -2.30814,-4.22066 -2.04365,-6.46617 0.94313,-8.00691 5.67607,-9.57847 8.84388,-10.51945 5.2052,-1.54619 10.71254,0.16706 10.71254,0.16706"
       id="path10011"
       inkscape:connector-curvature="0"
       sodipodi:nodetypes="cssssssc" />
    <path
       style="fill:#000000;fill-opacity:0;fill-rule:nonzero;stroke:#000000;stroke-width:1.70477462;stroke-linecap:round;stroke-linejoin:miter;stroke-miterlimit:4;stroke-opacity:1;stroke-dasharray:none"
       d="m 333.29598,216.56117 c -1.11762,0.36323 -2.83473,1.15715 -3.36763,2.13035 -0.30623,0.55925 -0.61546,2.32097 -0.15184,2.91518 0.53661,0.68777 1.82402,0.85196 2.68558,0.97765 2.20477,0.32165 6.09592,-0.28446 6.09592,-0.28446"
       id="path10014"
       inkscape:connector-curvature="0"
       sodipodi:nodetypes="csssc" />
    <path
       style="fill:#000000;fill-opacity:0;fill-rule:nonzero;stroke:#000000;stroke-width:1.70477462;stroke-linecap:round;stroke-linejoin:miter;stroke-miterlimit:4;stroke-opacity:1;stroke-dasharray:none"
       d="m 363.94197,211.50106 c -0.14092,0.36187 5.49472,-2.6053 8.62151,-7.6205 1.06562,-1.70926 0.66861,-4.29623 -0.31266,-4.66688 -0.98126,-0.37068 -2.67494,1.37022 -2.67494,1.37022 0,0 2.88796,-2.23689 3.21,-3.62609 0.32203,-1.3892 -0.30463,-2.76886 -0.99299,-3.58635 -0.68835,-0.81748 -1.32509,-1.53116 -2.43149,-1.15234 -1.10641,0.37879 -1.93907,3.85098 -1.93907,3.85098 0,0 0.73062,-2.24035 0.28386,-3.2221 -0.24666,-0.54204 -0.7726,-1.05678 -1.44627,-1.0548 -0.67368,0.002 -1.36359,0.89557 -1.36359,0.89557"
       id="path10020"
       inkscape:connector-curvature="0"
       sodipodi:nodetypes="csscssscssc" />
    <path
       style="fill:#000000;fill-opacity:0;fill-rule:nonzero;stroke:#502d16;stroke-width:0;stroke-linecap:round;stroke-linejoin:miter;stroke-miterlimit:4;stroke-opacity:1;stroke-dasharray:none"
       d="m 322.61912,176.93903 c -0.12531,0.98391 -0.20282,2.04883 0.11664,2.99811 1.01336,0.60637 2.53431,-0.0181 3.38508,0.96577 0.47037,0.55883 0.97804,1.6277 0.22733,2.20039 -0.39689,0.4096 -0.99594,0.3308 -1.46982,0.51438 -0.0629,0.49564 0.55771,0.81281 0.71879,1.25508 1.94599,3.27167 1.79972,7.24158 1.51301,10.90955 -0.23189,3.90793 -0.91136,7.9234 0.0756,11.77887 0.46289,1.75583 1.30131,3.50736 2.88535,4.50047 2.48194,1.64226 5.72194,2.40757 8.61472,1.50117 1.57798,-0.51706 3.09581,-1.84697 3.2229,-3.58881 -0.41454,-3.31016 -1.66487,-6.44236 -2.79859,-9.5597 -2.35941,-5.96888 -4.9529,-11.91775 -8.60942,-17.21236 -1.30469,-1.80639 -2.89345,-3.75833 -5.17679,-4.23377 -0.55759,-0.13135 -1.29527,0.19619 -1.75433,-0.19753 -0.27241,-0.37603 0.25114,-0.63518 0.29652,-0.95046 -0.28129,-0.41044 -0.79978,-0.65943 -1.19774,-0.93154 l -0.0494,0.0504 z"
       id="path10024"
       inkscape:connector-curvature="0" />
    <path
       style="fill:#4d4d4d;fill-opacity:1;fill-rule:nonzero;stroke:#000000;stroke-width:0;stroke-linecap:round;stroke-linejoin:miter;stroke-miterlimit:4;stroke-opacity:1;stroke-dasharray:none"
       d="m 343.23022,174.87219 c -0.49866,0.0847 -1.11027,-0.051 -1.5263,0.28452 -0.1835,0.67453 -5e-5,1.41018 0.0106,2.10346 0.0751,1.1828 0.65215,2.31917 1.48535,3.14515 1.01059,0.94183 2.49828,0.53727 3.68438,0.25851 0.84036,-0.17653 1.73001,-0.23331 2.58021,-0.20403 1.53946,0.58481 3.11566,1.58938 3.68481,3.2097 0.20264,1.24621 -0.0732,2.51523 0.0938,3.7603 0.27909,1.13483 1.17367,2.0005 2.05642,2.70376 1.35218,1.03751 3.17429,1.56303 4.83037,1.00804 0.97122,-0.29336 1.99365,-0.87876 2.27309,-1.93038 0.12993,-0.60246 0.54934,-1.28173 0.11755,-1.84851 -1.85862,-4.10652 -5.06002,-7.53147 -8.95479,-9.75353 -2.97058,-1.75717 -6.37935,-2.90379 -9.86001,-2.75622 -0.15871,0.002 -0.31707,0.0108 -0.47548,0.0204 z"
       id="path10044"
       inkscape:connector-curvature="0" />
    <path
       style="fill:#4d4d4d;fill-opacity:1;fill-rule:nonzero;stroke:#000000;stroke-width:0;stroke-linecap:round;stroke-linejoin:miter;stroke-miterlimit:4;stroke-opacity:1;stroke-dasharray:none"
       d="m 302.36606,179.14313 c -0.923,0.91136 -1.72082,2.10519 -1.85244,3.40622 1.14903,0.78849 0.94241,2.36282 0.6717,3.5328 -0.38276,1.33471 -0.82053,2.7436 -1.75355,3.78146 -0.32671,0.44253 -0.93279,-0.22216 -1.18594,0.31954 -0.19867,0.35047 -0.62998,0.96697 -0.0262,1.16648 1.13459,0.57046 2.56641,1.43686 3.81035,0.62009 1.41039,-1.0009 2.55836,-2.5366 2.7913,-4.2841 0.26805,-1.6229 -1.60787,-2.87773 -0.98152,-4.50585 0.22596,-0.93834 1.03864,-1.93354 0.58087,-2.91755 -0.46855,-0.62376 -1.27103,-0.99432 -2.00118,-1.15586 l -0.0534,0.0368 z"
       id="path10078"
       inkscape:connector-curvature="0" />
    <path
       style="fill:#4d4d4d;fill-opacity:1;fill-rule:nonzero;stroke:#000000;stroke-width:0;stroke-linecap:round;stroke-linejoin:miter;stroke-miterlimit:4;stroke-opacity:1;stroke-dasharray:none"
       d="m 313.26613,181.2881 c -1.1411,0.0818 -2.59993,0.66885 -2.67907,1.98648 -0.15752,1.82828 0.0503,3.6818 -0.0407,5.50372 -0.35742,1.31126 -1.32517,2.81548 -0.52948,4.15051 1.06073,1.76704 3.42115,2.75065 5.35874,1.878 1.05967,-0.53882 2.04163,-1.87398 1.51221,-3.0814 -0.50552,-0.41724 -1.17312,0.19517 -1.75068,0.0507 -1.10009,-0.009 -2.10124,-0.7483 -2.44074,-1.79564 -1.03118,-2.55557 0.36475,-5.76885 2.87574,-6.83225 0.42812,0.0561 0.81417,-0.44336 0.40448,-0.75509 -0.70631,-0.77854 -1.62978,-1.28667 -2.71046,-1.1049 z"
       id="path10080"
       inkscape:connector-curvature="0" />
    <path
       style="fill:#4d4d4d;fill-opacity:1;fill-rule:nonzero;stroke:#000000;stroke-width:0;stroke-linecap:round;stroke-linejoin:miter;stroke-miterlimit:4;stroke-opacity:1;stroke-dasharray:none"
       d="m 314.04694,174.65557 c -1.32798,0.18934 -2.72847,0.23216 -3.98833,0.69424 -0.75306,0.70067 -0.76874,2.10195 -0.0649,2.84725 0.78817,0.39293 1.73924,0.0239 2.56953,-0.0113 1.10222,-0.2255 2.57906,-0.13029 3.25957,-1.20278 0.35044,-0.96605 -0.44034,-2.20543 -1.4364,-2.34532 -0.11339,-0.001 -0.22693,0.004 -0.33949,0.018 z"
       id="path10082"
       inkscape:connector-curvature="0" />
    <path
       style="fill:#4d4d4d;fill-opacity:1;fill-rule:nonzero;stroke:#000000;stroke-width:0;stroke-linecap:round;stroke-linejoin:miter;stroke-miterlimit:4;stroke-opacity:1;stroke-dasharray:none"
       d="m 300.24528,193.48709 c -0.59322,0.0716 -0.62993,0.73233 -0.8061,1.17218 -0.42641,0.91478 -1.41978,1.40127 -1.92204,2.25073 -0.13102,0.80025 0.53441,1.48444 0.90011,2.13991 0.6281,0.84291 1.37594,1.68826 2.31043,2.16738 0.71636,-0.28699 1.66856,-0.69495 1.59079,-1.63319 -0.0342,-0.61957 0.15262,-1.30505 -0.076,-1.87584 -0.72012,-0.36794 -1.54947,-0.85394 -1.86664,-1.63052 -0.005,-0.26961 0.26169,-0.32721 0.36891,-0.0537 0.56607,0.73299 1.56165,1.59748 2.52959,1.05402 0.68876,-0.20818 1.12674,-0.86292 1.75677,-1.1231 0.21453,0.26764 -0.25194,0.66925 -0.44843,0.85352 -0.48482,0.43214 -1.12361,0.62385 -1.64814,0.92884 -0.2638,0.81178 -0.26317,1.75432 -0.0454,2.57747 0.88432,1.54321 2.48484,3.08881 4.41228,2.73897 1.09942,-0.11199 1.9667,-0.85338 2.96964,-1.21278 0.34282,0.18889 -0.28828,0.54384 -0.32053,0.78947 -0.0238,0.55109 0.78886,0.29352 1.14031,0.39974 1.21205,-0.003 2.43287,0.26698 3.63661,0.15841 0.80589,-0.39788 1.34928,-1.22637 1.80993,-1.97701 0.46375,-0.67473 -0.0335,-1.46501 -0.63486,-1.84165 -1.15213,-0.9746 -2.73012,-0.86623 -4.11364,-0.55888 -1.16492,0.0799 -2.44756,0.20857 -3.54727,-0.25204 -0.80841,-0.40887 -0.56666,-1.50336 -0.71055,-2.24872 -0.14728,-0.6245 0.10524,-1.44954 -0.32173,-1.94007 -0.84475,-0.5744 -2.02266,-1.12247 -2.95211,-0.39705 -0.53192,0.29637 -1.13116,0.61021 -1.71539,0.25716 -0.77057,-0.2119 -1.48959,-0.73593 -2.29644,-0.7433 z"
       id="path10084"
       inkscape:connector-curvature="0" />
    <path
       style="fill:#4d4d4d;fill-opacity:1;fill-rule:nonzero;stroke:#000000;stroke-width:0;stroke-linecap:round;stroke-linejoin:miter;stroke-miterlimit:4;stroke-opacity:1;stroke-dasharray:none"
       d="m 318.24399,206.36578 c -0.91377,0.0415 -1.76473,0.89409 -1.7932,1.8039 0.33238,1.51879 1.93483,2.6213 3.45577,2.55223 0.71895,-0.47948 1.54055,-0.75168 2.29554,-1.14265 0.75091,-0.64355 0.25101,-2.06088 -0.66383,-2.28175 -0.93877,-0.13035 -1.61477,-0.96253 -2.60324,-0.92673 -0.23037,-0.0167 -0.46085,-0.0302 -0.69104,-0.005 z"
       id="path10086"
       inkscape:connector-curvature="0" />
    <path
       style="fill:#4d4d4d;fill-opacity:1;fill-rule:nonzero;stroke:#000000;stroke-width:0;stroke-linecap:round;stroke-linejoin:miter;stroke-miterlimit:4;stroke-opacity:1;stroke-dasharray:none"
       d="m 319.22643,216.24337 c -0.88897,0.17117 -1.72492,1.43471 -1.01335,2.20159 0.53309,0.33293 1.4231,0.053 1.52705,-0.62371 0.21413,-0.5111 0.22191,-1.52962 -0.5137,-1.57788 z"
       id="path10088"
       inkscape:connector-curvature="0" />
    <path
       style="fill:#4d4d4d;fill-opacity:1;fill-rule:nonzero;stroke:#000000;stroke-width:0;stroke-linecap:round;stroke-linejoin:miter;stroke-miterlimit:4;stroke-opacity:1;stroke-dasharray:none"
       d="m 324.38521,216.16117 c -0.6119,0.18796 -1.61287,0.24492 -1.69108,1.05133 -0.13224,0.73025 -0.6727,1.38233 -0.71137,2.10942 0.58708,0.45401 1.44134,0.14323 2.12091,0.0888 0.96852,-0.13925 2.29547,-0.65374 2.22117,-1.84286 -0.10943,-0.8841 -1.09551,-1.5114 -1.93963,-1.4067 z"
       id="path10090"
       inkscape:connector-curvature="0" />
    <path
       style="fill:#4d4d4d;fill-opacity:1;fill-rule:nonzero;stroke:#000000;stroke-width:0;stroke-linecap:round;stroke-linejoin:miter;stroke-miterlimit:4;stroke-opacity:1;stroke-dasharray:none"
       d="m 333.07233,217.1007 c -0.40268,0.1491 -1.3177,0.28762 -1.08449,0.91145 0.33756,0.80482 0.45668,2.01674 1.41392,2.31892 0.85941,-0.27819 1.59086,-1.5837 0.79569,-2.30952 -0.37466,-0.26184 -0.59594,-0.68883 -0.96686,-0.91725 -0.0522,-0.008 -0.10591,-0.0149 -0.15826,-0.004 z"
       id="path10092"
       inkscape:connector-curvature="0" />
    <path
       style="fill:#4d4d4d;fill-opacity:1;fill-rule:nonzero;stroke:#000000;stroke-width:0;stroke-linecap:round;stroke-linejoin:miter;stroke-miterlimit:4;stroke-opacity:1;stroke-dasharray:none"
       d="m 360.19709,217.93087 c -1.98122,0.26715 -3.54608,1.61012 -5.22481,2.57784 -1.43681,0.74747 -3.05718,0.0141 -4.51956,-0.27758 -1.0739,-0.17024 -2.20132,-1.02187 -3.29771,-0.49221 -0.69955,0.34142 -0.52397,1.23602 -0.11544,1.73575 0.28866,0.55128 0.64442,1.14058 1.36405,0.88202 3.45999,-0.15877 6.98513,-0.32397 10.31317,-1.32163 1.06471,-0.41453 2.2796,-1.14667 2.53337,-2.34232 0.0256,-0.58495 -0.52293,-0.87261 -1.05307,-0.76187 z"
       id="path10094"
       inkscape:connector-curvature="0" />
    <path
       style="fill:#4d4d4d;fill-opacity:1;fill-rule:nonzero;stroke:#000000;stroke-width:0;stroke-linecap:round;stroke-linejoin:miter;stroke-miterlimit:4;stroke-opacity:1;stroke-dasharray:none"
       d="m 349.45878,208.65073 c -1.01254,0.29882 -1.99345,1.0149 -2.43103,2.00007 -0.61805,1.79014 1.00209,3.7346 2.81201,3.82438 1.37183,0.10453 2.78543,-0.29526 3.96921,-0.98306 1.27948,-0.82069 1.61752,-2.59737 1.22653,-3.98291 -0.12075,-0.55383 -0.74932,-0.85994 -1.22052,-0.49613 -1.17229,0.6274 -2.09014,1.75561 -3.38441,2.13038 -0.87054,0.0533 -0.98369,-1.01996 -0.77137,-1.65655 0.11213,-0.2653 0.48059,-0.78541 -0.0323,-0.84335 -0.0558,-0.008 -0.11254,0.002 -0.1681,0.007 z"
       id="path10096"
       inkscape:connector-curvature="0" />
    <path
       style="fill:#4d4d4d;fill-opacity:1;fill-rule:nonzero;stroke:#000000;stroke-width:0;stroke-linecap:round;stroke-linejoin:miter;stroke-miterlimit:4;stroke-opacity:1;stroke-dasharray:none"
       d="m 359.59384,198.75047 c -1.34121,0.19517 -2.93776,0.81003 -3.37332,2.22991 -0.24347,1.33726 0.56402,2.57727 0.96804,3.80372 0.44031,1.34835 1.4489,2.61127 1.3011,4.07779 -0.11183,0.79162 -0.61755,1.79325 0.13732,2.42835 0.89195,0.86054 2.25036,1.59031 3.50047,1.17461 1.17428,-0.52595 1.51354,-1.85888 1.68602,-3.02075 0.4654,-3.08698 1.50299,-6.13352 1.29094,-9.28756 -0.45959,-0.46178 -1.25191,-0.5437 -1.85936,-0.81022 -1.17801,-0.37631 -2.40462,-0.68997 -3.65121,-0.59585 z"
       id="path10098"
       inkscape:connector-curvature="0" />
    <path
       style="fill:#4d4d4d;fill-opacity:1;fill-rule:nonzero;stroke:#000000;stroke-width:0;stroke-linecap:round;stroke-linejoin:miter;stroke-miterlimit:4;stroke-opacity:1;stroke-dasharray:none"
       d="m 347.67401,194.8458 c -2.2995,0.54978 -4.64073,1.48904 -6.29653,3.2407 -0.45843,0.6059 -1.16514,1.17523 -1.27459,1.95761 -0.0527,2.01051 -0.11667,4.03156 1.80853,5.52905 0.0782,0.46865 0.60465,0.45911 0.86555,0.14926 0.38612,-0.27148 1.05246,-0.76286 0.56201,-1.25485 -0.4349,-0.61486 -1.03446,-1.22121 -0.89406,-2.03747 -0.007,-0.73477 0.56043,-1.63433 1.3956,-1.3732 0.95222,0.1387 1.77576,0.78119 2.73668,0.8314 1.77758,-0.4822 3.75515,-1.50342 4.28204,-3.41334 0.2363,-1.2762 -0.96387,-2.22529 -1.8188,-2.96047 -0.39051,-0.31356 -0.81553,-0.75716 -1.36643,-0.66869 z"
       id="path10100"
       inkscape:connector-curvature="0"
       sodipodi:nodetypes="cccccccccccc" />
    <path
       style="fill:#4d4d4d;fill-opacity:1;fill-rule:nonzero;stroke:#000000;stroke-width:0;stroke-linecap:round;stroke-linejoin:miter;stroke-miterlimit:4;stroke-opacity:1;stroke-dasharray:none"
       d="m 348.47418,184.29223 c -1.26255,-0.0116 -2.39341,0.9723 -2.53134,2.22843 -0.31391,1.78936 0.98986,3.80224 2.8834,3.88684 0.68014,0.105 1.51508,-0.27625 1.46362,-1.06576 0.14067,-0.90817 -0.52376,-1.9203 0.004,-2.74125 0.75942,-0.5269 0.44336,-1.66352 -0.28636,-2.05303 -0.44848,-0.29947 -1.01761,-0.28453 -1.53338,-0.25523 z"
       id="path10102"
       inkscape:connector-curvature="0" />
    <path
       style="fill:#4d4d4d;fill-opacity:1;fill-rule:nonzero;stroke:#000000;stroke-width:0;stroke-linecap:round;stroke-linejoin:miter;stroke-miterlimit:4;stroke-opacity:1;stroke-dasharray:none"
       d="m 337.19411,178.45357 c -0.98644,0.13395 -2.05121,0.0116 -2.98393,0.38936 -0.9264,0.68772 -0.69721,2.22871 0.226,2.8176 1.10781,0.93975 2.6783,1.67267 2.87874,3.29055 0.32508,1.28526 0.0936,2.77324 0.87022,3.90723 1.04737,1.30921 3.37496,1.53102 4.51234,0.23503 0.7346,-1.18967 0.1428,-2.6805 -0.3787,-3.83616 -0.5249,-1.45538 -2.38177,-1.5925 -3.14406,-2.80928 -0.2549,-1.04889 -0.13163,-2.19454 -0.54571,-3.22461 -0.0996,-0.4799 -0.47327,-0.98841 -1.03708,-0.79013 -0.13268,0.006 -0.26521,0.0138 -0.39782,0.0205 z"
       id="path10104"
       inkscape:connector-curvature="0" />
    <path
       style="fill:#d7d7d7;fill-opacity:1;fill-rule:nonzero;stroke:#000000;stroke-width:0;stroke-linecap:round;stroke-linejoin:miter;stroke-miterlimit:4;stroke-opacity:1;stroke-dasharray:none"
       d="m 317.38701,213.99108 c -0.37455,0.2477 0.084,0.7305 -0.0226,1.08706 0.13734,1.55414 -0.33594,3.15488 -1.41246,4.2949 -0.3638,0.58103 -1.18413,1.18112 -0.9453,1.94634 0.76856,1.09728 2.31232,1.55465 3.52916,0.95963 0.37312,-0.11727 0.83797,-0.31857 0.8193,-0.7797 0.65963,-1.4601 1.9782,-2.52805 2.46597,-4.09439 0.21348,-0.6486 0.39349,-1.48677 0.0118,-2.07268 -1.48162,-0.37125 -2.91345,-0.91311 -4.36735,-1.35483 l -0.0137,5.9e-4 -0.0648,0.013 z m 1.8486,2.42083 c 0.53716,0.20099 0.58086,0.88598 0.32778,1.32724 -0.0834,0.52196 -0.75702,0.80829 -1.19185,0.58527 -0.55941,-0.68692 0.1401,-1.7027 0.86407,-1.91251 z"
       id="path10108"
       inkscape:connector-curvature="0" />
    <path
       style="fill:#f7f7f7;fill-opacity:1;fill-rule:nonzero;stroke:#000000;stroke-width:0;stroke-linecap:round;stroke-linejoin:miter;stroke-miterlimit:4;stroke-opacity:1;stroke-dasharray:none"
       d="m 366.28033,192.25669 c -0.73712,0.13123 -1.2602,0.95529 -0.93456,1.68797 0.7236,3.93972 0.82075,8.00436 -0.0218,11.92818 -0.18967,1.5145 -0.78368,3.00778 -0.69994,4.52504 0.38669,0.48801 0.98176,-0.3729 1.36883,-0.50213 2.71773,-1.91254 5.38086,-4.18088 6.93899,-7.15174 0.38446,-1.0667 0.13321,-2.68308 -1.00827,-3.1459 -0.78076,0.1094 -1.38932,0.72625 -1.97552,1.21066 -0.90166,-0.53757 -0.20686,-0.91721 0.32569,-1.38441 0.97603,-1.05354 2.5421,-2.16104 2.10268,-3.81951 -0.28245,-1.26643 -1.1209,-2.5864 -2.36109,-3.06866 -1.10342,0.1081 -1.40834,1.5079 -1.79562,2.35858 -0.20432,0.34845 -0.19469,1.35216 -0.83122,1.03018 -0.67888,-0.0478 -0.007,-0.84009 -0.0765,-1.23039 0.10799,-0.80134 0.13042,-2.47939 -1.03172,-2.43787 z"
       id="path10116"
       inkscape:connector-curvature="0" />
    <path
       style="fill:#d7d7d7;fill-opacity:1;fill-rule:nonzero;stroke:#2a1431;stroke-width:0;stroke-linecap:round;stroke-linejoin:miter;stroke-miterlimit:4;stroke-opacity:1;stroke-dasharray:none"
       d="m 40.164911,53.158442 c -0.05784,0.839399 0.455693,2.133161 -0.65625,2.523437 -0.795321,-0.502938 -0.862713,-2.78721 -1.990332,-1.918035 -1.318344,0.779437 -1.86865,3.36168 -0.05654,3.847723 1.661439,0.105839 3.449947,0.437449 5.0625,0 0.586518,-0.715314 -0.325695,-1.728236 0.09375,-2.578125 0.147847,-0.698184 1.193405,-1.968819 -0.179687,-2.007813 -0.747996,0.03978 -1.580758,-0.152761 -2.273438,0.132813 z"
       id="path12405"
       inkscape:connector-curvature="0"
       transform="translate(293.88257,164.22342)" />
    <path
       style="fill:#ffffff;fill-opacity:1;fill-rule:nonzero;stroke:#000000;stroke-width:1.6779803;stroke-linecap:round;stroke-linejoin:miter;stroke-miterlimit:4;stroke-opacity:1;stroke-dasharray:none"
       d="m 324.58089,178.75915 c -0.35466,-0.17173 -1.24641,-1.8102 -0.38202,-4.54148 2.2322,-7.05344 19.58579,-23.74484 22.58532,-24.09424 6.41608,-0.74738 8.65366,9.22247 5.66843,13.02179 -5.4382,6.9213 -17.5678,5.38138 -22.41907,12.27037 -0.45745,0.64957 -2.87248,4.86862 -2.87248,4.86862"
       id="path9979-3"
       inkscape:connector-curvature="0"
       sodipodi:nodetypes="cssssc" />
    <path
       style="fill:#4d4d4d;fill-opacity:1;fill-rule:nonzero;stroke:#000000;stroke-width:0;stroke-linecap:round;stroke-linejoin:miter;stroke-miterlimit:4;stroke-opacity:1;stroke-dasharray:none"
       d="m 321.39307,184.45925 c 0.13638,1.02317 -0.18625,2.2549 -0.60936,3.65243 -0.7247,2.39371 2.72884,6.18457 5.74343,3.20464 3.01459,-2.97992 -3.42069,-7.14764 3.72918,-16.41797 1.20334,-1.46653 2.79341,-2.58561 4.5338,-3.37233 2.86408,-1.42902 6.00833,-2.1657 9.01561,-3.23147 2.58479,-0.87012 5.17522,-1.96331 7.17443,-3.8273 0.63637,-0.60582 1.29158,-1.24744 1.65827,-2.04054 -0.0712,-0.41592 -0.37373,-0.79232 -0.53203,-1.1929 -1.69658,-3.40481 -3.33665,-6.83692 -5.0768,-10.22078 -0.0974,-0.24863 -0.36945,-0.48313 -0.64375,-0.30929 -1.88034,1.00773 -3.48943,2.42059 -5.09888,3.78677 -4.03027,3.56068 -7.77608,7.42466 -11.21736,11.52653 -1.84116,2.26594 -3.68919,4.57232 -4.97669,7.19279 -0.74654,1.54031 -1.20213,3.32069 -0.68171,5.00582 0.10233,0.33134 -1.43866,-1.18515 -2.56787,-1.0331 -1.14652,0.2417 -2.70033,0.1789 -3.23818,1.56067 -0.639,1.64165 0.60212,2.14747 1.38912,2.92973 0.72566,0.72129 1.18368,1.17241 1.39879,2.7863 z"
       id="path10034-7"
       inkscape:connector-curvature="0"
       sodipodi:nodetypes="sszcccccccccccscsss" />
    <path
       style="fill:#4d4d4d;fill-opacity:1;fill-rule:nonzero;stroke:#000000;stroke-width:0;stroke-linecap:round;stroke-linejoin:miter;stroke-miterlimit:4;stroke-opacity:1;stroke-dasharray:none"
       d="m 349.74595,156.74568 c 0.88547,1.38549 0.80729,4.63456 2.09415,5.75403 0.9437,0.10955 1.31319,-2.77563 1.46094,-3.31569 0.31026,-2.7495 -0.63685,-5.82606 -2.88354,-7.70878 -1.0044,-0.63818 -2.57474,-1.02024 -3.79222,-0.75702 0.34394,1.43335 1.56113,2.85597 2.17715,4.26174 0.31016,0.59049 0.62491,1.17895 0.94345,1.76577 z"
       id="path10036-6"
       inkscape:connector-curvature="0"
       sodipodi:nodetypes="cccccccc" />
    <path
       style="fill:#d7d7d7;fill-opacity:1;fill-rule:nonzero;stroke:#2a1431;stroke-width:0;stroke-linecap:round;stroke-linejoin:miter;stroke-miterlimit:4;stroke-opacity:1;stroke-dasharray:none"
       d="m 21.704716,25.519724 c -0.787814,0.109511 -0.3075,1.007963 -0.09126,1.425856 0.278999,0.825316 -0.77269,1.314544 -1.418251,1.391635 -1.237524,0.160952 -2.511587,0.552856 -3.764258,0.353612 -0.546879,-0.396136 -0.502426,-1.33102 -0.319392,-1.927757 -0.0894,-0.889343 -1.115572,-0.23134 -1.638783,-0.121673 -2.033163,0.706881 -4.162947,1.589788 -5.6621631,3.185179 -0.2508253,0.731787 0.9152192,0.710954 1.2249011,1.217863 0.557548,0.693321 -0.067924,1.644298 -0.2557922,2.369985 -0.5289607,1.17756 -0.082942,2.43854 0.4535102,3.519749 0.510472,0.87713 0.380327,1.911993 -0.05703,2.798479 -0.5420853,1.205272 -1.4776826,2.271019 -2.634981,2.904943 -1.1875112,0.264836 -2.215179,-0.641914 -3.3307984,-0.790874 -0.5578126,0.463996 -0.4984606,1.339068 -0.7262358,1.98479 -0.1585759,1.118507 -0.3203805,2.344617 0.045627,3.429658 0.549861,0.568112 1.2382154,-0.365424 1.6121673,-0.768061 0.4975611,-0.531925 0.8218296,-1.169793 1.1596958,-1.798479 1.116649,-0.02292 2.0647234,0.826762 3.1787072,0.821293 0.8467859,-0.24662 1.6120109,-0.992395 2.5437269,-0.581749 0.476878,0.189294 1.247267,0.332827 1.163498,1.003802 0.211647,1.098572 -0.0089,2.368919 0.60076,3.357415 1.024352,0.921174 2.550352,0.616667 3.813586,0.648996 1.29038,0.06368 2.754431,-0.527062 3.897441,0.316783 0.545408,0.295986 1.221414,0.92292 0.775665,1.585552 -0.224238,0.65899 -1.061179,1.106917 -0.961977,1.855513 0.424894,0.590733 1.322957,0.235547 1.946768,0.361217 2.015057,0.08358 4.094451,-0.152767 5.847909,-1.21673 0.142631,0.285424 0.4154,0.605736 0.463878,0.889733 -1.931435,1.065851 -4.123161,1.440027 -6.31936,1.316628 -2.563138,-0.0197 -5.121498,-0.423863 -7.68064,-0.362255 -0.750584,0.256706 -0.134544,1.040955 0.114069,1.448669 2.101493,3.350974 5.0128,6.377381 8.739098,7.877091 0.990937,0.368729 1.983504,0.921366 3.055579,0.917586 0.704545,-0.292055 -0.07812,-1.325345 0.692015,-1.577947 0.538007,-0.151827 0.603731,0.681969 0.669201,1.019012 0.19997,0.964952 0.06442,2.035764 0.475285,2.946768 0.482833,0.439222 1.141962,-0.197366 1.714829,0.06844 0.773392,0.0744 1.327751,1.049704 0.768061,1.669201 -0.910537,0.948709 -2.371463,0.821501 -3.565012,0.91317 -0.730031,0.633736 -1.254441,1.549332 -1.815216,2.356792 -0.278185,0.829707 0.792586,1.391195 1.479087,1.471483 1.487829,0.141304 3.082971,0.09591 4.353613,-0.787072 1.611516,-1.006595 1.588414,-3.12028 2.044674,-4.755631 0.460191,-1.733963 0.714987,-3.589109 1.449622,-5.213951 0.364067,-0.361594 0.933715,0.262545 0.65019,0.676806 -0.02977,0.814938 -0.567868,1.670005 -0.299858,2.463971 0.609632,0.461565 1.521954,0.274005 2.244438,0.454267 3.525792,0.400345 7.088543,0.599878 10.633367,0.496211 0.61089,-0.122079 0.379168,-0.890485 -0.09398,-1.043055 -2.412335,-1.808004 -3.831035,-4.607265 -4.850125,-7.376324 -0.748659,-2.398648 -0.0759,-4.958846 0.786377,-7.228722 1.080507,-2.775745 3.42771,-4.9578 6.215058,-5.951197 3.670468,-1.461369 7.77808,-1.606232 11.615678,-0.765721 0.520253,0.161204 1.719957,0.147844 1.539924,0.973384 -0.362219,0.436355 -1.085802,0.03418 -1.562738,0.03802 -2.570045,-0.471031 -5.306318,-0.826729 -7.882129,-0.193917 -0.557528,0.573113 0.376411,1.080509 0.719338,1.467889 0.70213,0.603894 1.518405,1.606744 0.946061,2.581541 -0.711641,1.472669 -2.34652,2.294603 -3.863118,2.623574 -1.082112,-0.190904 -2.13956,-0.926152 -3.277566,-0.749049 -1.242744,0.589291 -1.370295,2.440755 -0.475285,3.395437 0.194293,0.319726 0.734868,0.819119 0.144486,1.072243 -2.791129,0.158841 -2.364821,-4.086564 -2.357154,-4.525838 -0.582928,-0.434078 -0.963997,0.498225 -1.072503,0.970731 -0.580783,2.002991 -1.250014,4.205788 -0.418251,6.235742 1.037196,2.854564 2.634017,5.720108 5.358376,7.269092 2.342782,1.480068 5.19435,2.232573 7.952077,1.705342 2.034734,-0.256181 3.919429,-1.09229 5.84544,-1.723484 0.387773,-0.174781 0.928481,0.05817 0.718631,0.53232 -0.897373,0.726114 -2.164227,0.978342 -3.25095,1.406844 -2.805387,0.949557 -5.898341,1.331836 -8.760457,0.372623 -2.039012,-0.248306 -4.105704,0.10497 -6.153142,0.128746 -0.827868,-0.0415 -1.636693,0.0856 -2.268911,0.658327 -0.932885,0.609592 -1.411532,2.085548 -0.498099,2.920152 1.657544,1.561601 4.097934,1.357716 6.201521,1.460076 1.207883,-0.05416 2.472514,0.15395 3.642586,-0.102662 0.316806,-0.717722 -0.6977,-1.232673 -0.676806,-1.984791 -0.0291,-0.642893 0.913178,-0.611548 1.353612,-0.505703 1.82085,0.461131 3.662876,1.188226 5.577947,1.121673 1.638709,-0.299433 2.84628,-1.57989 4.34981,-2.201521 0.833462,-0.355816 1.799793,-0.905711 2.707224,-0.467681 0.764829,-0.0071 0.651297,-1.047222 0.927757,-1.543726 0.431948,-1.55987 0.923855,-3.111507 1.209125,-4.703422 -0.127036,-0.771511 -0.919634,-0.268093 -1.346008,-0.07985 -1.19143,0.255843 -2.366676,-0.544311 -3.144486,-1.372623 -0.324842,-0.451831 0.08998,-1.087556 0.03422,-1.600761 0.343707,-1.732942 -0.83018,-3.208816 -1.311787,-4.78327 -0.318439,-1.069358 -1.0372,-2.139203 -0.840304,-3.292775 0.520153,-1.526427 2.385683,-1.978001 3.828897,-1.946769 1.433436,0.0016 2.752304,0.700232 4.152092,0.931559 0.760416,-0.195826 0.312369,-1.184805 0.370074,-1.740796 -0.242824,-3.135966 -0.72415,-6.303123 -1.887185,-9.240192 -0.328438,-0.679597 -1.077333,-0.15755 -1.190114,0.38403 -1.341565,1.84283 -4.14661,1.868809 -5.893536,0.642586 -1.193039,-0.794823 -2.488891,-1.960999 -2.353612,-3.539924 -0.13637,-1.483779 0.235556,-3.254117 -0.954373,-4.410647 -0.953776,-0.991829 -2.186561,-1.887203 -3.574144,-2.076045 -1.744746,-0.08935 -3.47771,0.79556 -5.201521,0.323194 -1.303625,-0.876672 -1.911689,-2.51969 -1.847906,-4.052737 0.07072,-0.5924 -0.07029,-1.552972 -0.893539,-1.186807 -4.293878,0.710752 -8.447632,2.117525 -12.5188,3.59183 -0.543071,0.54715 -0.67666,1.477684 -1.29869,1.92528 -0.948325,0.04132 -0.813562,1.261461 -0.87959,1.923849 -0.284771,2.314458 0.545101,4.562147 0.514571,6.863223 -0.161805,1.37285 -1.52642,2.53658 -2.908746,2.520913 -1.870109,-0.122087 -3.275032,-2.102393 -2.86692,-3.904943 0.27647,-1.35883 0.693325,-2.750961 0.452472,-4.1673 -0.03516,-1.74404 -1.55293,-2.809421 -2.577947,-4.015209 -0.723532,-0.92533 0.214856,-2.355531 1.295482,-2.471441 0.543816,-0.244723 1.545699,-0.03122 1.647484,-0.768103 -0.565315,-0.673228 -1.545356,-0.885449 -2.346008,-1.220532 -1.314618,-0.44391 -2.692425,-0.698165 -4.079848,-0.718632 z m 22.479088,4.167301 c 0.83782,1.352227 0.149487,3.345689 1.482889,4.43346 1.00249,0.711844 2.281864,1.267834 2.64828,2.568284 0.339154,0.960025 0.851538,2.256115 -0.0019,3.100917 -1.309693,1.233718 -3.905256,0.359463 -4.114068,-1.46768 -0.39376,-1.559701 -0.161346,-3.492799 -1.551331,-4.608365 -0.777263,-0.960745 -2.270569,-1.423344 -2.539924,-2.737643 -0.108744,-0.659072 0.4165,-1.212047 1.072243,-1.190114 0.968527,-0.146285 1.951692,-0.14634 2.927757,-0.209125 l 0.06908,0.100162 0.007,0.0101 z m -24.43346,2.73384 c 0.984529,-0.07869 1.638917,0.715082 2.387832,1.174905 0.833257,0.237528 1.799975,0.272999 2.403042,0.996198 1.373064,1.578106 1.161083,4.041372 0.129278,5.737642 -0.476855,0.792435 -1.18749,1.437752 -1.889734,1.992396 -0.09611,0.653739 0.07873,1.38937 -0.39924,1.95057 -1.058495,1.698213 -3.56704,1.52645 -4.927756,0.311787 -0.780774,-0.63326 -1.533989,-1.565046 -1.163499,-2.634981 0.341797,-1.223282 0.840525,-2.42798 0.710192,-3.733822 0.06964,-1.500635 -0.120561,-3.064386 0.194751,-4.528535 0.441436,-0.945056 1.61048,-1.225631 2.555134,-1.26616 z m 35.064638,3.019011 c 0.710106,-0.07786 1.694992,0.293613 1.638784,1.144487 -0.23562,0.55213 -0.704198,1.043632 -0.551331,1.711027 -0.03444,0.723323 0.206622,1.51257 0.01521,2.205323 -0.873785,0.727833 -2.22458,0.0612 -2.821293,-0.722434 -1.041528,-1.19559 -0.967048,-3.569738 0.695818,-4.171102 0.326161,-0.123655 0.675684,-0.165495 1.022812,-0.167301 z M 24.659089,57.474097 c 1.17169,0.08193 2.236505,0.658461 3.25095,1.205323 0.390861,0.368919 0.670164,1.280929 -0.06084,1.456274 -0.756659,0.352815 -1.50592,0.905436 -2.346008,1.007604 -1.145588,-0.285474 -2.50427,-1.150446 -2.486692,-2.456273 0.111011,-0.745162 0.962505,-1.179427 1.64259,-1.212928 z m 30.889734,2.365019 c -0.221805,0.760872 -0.395025,2.102329 0.604562,2.368821 1.23539,0.03637 2.206348,-0.959535 3.193917,-1.574144 0.377899,-0.206066 0.818573,-0.71068 1.266159,-0.558936 0.714253,1.386388 0.215269,3.405264 -1.273764,4.060837 -1.240157,0.614372 -2.763661,0.994965 -4.110266,0.585551 -1.286158,-0.492744 -2.18434,-1.984519 -1.638783,-3.315589 0.425785,-0.725513 1.170105,-1.300436 1.958175,-1.56654 z"
       id="path3148"
       inkscape:connector-curvature="0"
       transform="translate(293.88257,149.22342)"
       sodipodi:nodetypes="ccccccccccccccccccccccccccccccccccccccccccccccccccccccccccccccccccccccccccccccccccccccccccccccccccccccccccccccccccccccccccccccccccccccccccccccccccccccccccccc" />
    <path
       style="fill:#000000;fill-opacity:0;fill-rule:nonzero;stroke:#000000;stroke-width:1.20000005;stroke-linecap:round;stroke-linejoin:miter;stroke-miterlimit:4;stroke-opacity:1;stroke-dasharray:none"
       d="m 305.9282,150.12456 c -6.39931,1.95083 -3.2957,16.22052 -1.33841,26.52472"
       id="path3174"
       inkscape:connector-curvature="0"
       sodipodi:nodetypes="cc" />
    <path
       style="fill:#de8787;fill-opacity:1;fill-rule:nonzero;stroke:#000000;stroke-width:0;stroke-linecap:round;stroke-linejoin:miter;stroke-miterlimit:4;stroke-opacity:1;stroke-dasharray:none"
       d="M 12.206617,1.1264259 C 10.225072,1.5364174 9.242537,3.6175103 8.8454005,5.4192015 7.9194597,10.007878 8.7876861,14.70511 9.4396315,19.269243 c 0.4145913,2.464517 0.8381525,4.951987 1.3677465,7.374293 0.571458,0.501339 1.246067,-0.276005 1.849505,-0.364751 1.089385,-0.500054 2.301425,-0.69579 3.374829,-1.209393 0.49664,-0.582124 0.449466,-1.441413 0.794677,-2.114069 1.324361,-4.111477 3.421349,-8.056056 3.69962,-12.437262 C 20.580535,8.606038 20.35994,6.5147589 18.959469,5.0807985 17.257265,3.0583662 14.833812,1.5137625 12.206617,1.1264259 z"
       id="path3944"
       inkscape:connector-curvature="0"
       transform="translate(293.88257,149.22342)" />
  </g>
</svg>
