<?xml version="1.0" encoding="UTF-8" standalone="no"?>
<!-- Created with Inkscape (http://www.inkscape.org/) -->

<svg
   xmlns:dc="http://purl.org/dc/elements/1.1/"
   xmlns:cc="http://creativecommons.org/ns#"
   xmlns:rdf="http://www.w3.org/1999/02/22-rdf-syntax-ns#"
   xmlns:svg="http://www.w3.org/2000/svg"
   xmlns="http://www.w3.org/2000/svg"
   xmlns:sodipodi="http://sodipodi.sourceforge.net/DTD/sodipodi-0.dtd"
   xmlns:inkscape="http://www.inkscape.org/namespaces/inkscape"
   width="88"
   height="75"
   id="svg10388"
   version="1.1"
   inkscape:version="0.48.5 r10040"
   sodipodi:docname="bunny-jump4.svg"
   inkscape:export-filename="/home/rhiannon/caveexplorer/lua-cave-gen/assets/bunny-jump3.png"
   inkscape:export-xdpi="90"
   inkscape:export-ydpi="90">
  <defs
     id="defs10390" />
  <sodipodi:namedview
     id="base"
     pagecolor="#ffffff"
     bordercolor="#666666"
     borderopacity="1.0"
     inkscape:pageopacity="0.0"
     inkscape:pageshadow="2"
     inkscape:zoom="4.4921875"
     inkscape:cx="42.309565"
     inkscape:cy="20.69394"
     inkscape:document-units="px"
     inkscape:current-layer="layer1"
     showgrid="false"
     fit-margin-top="0"
     fit-margin-left="0"
     fit-margin-right="0"
     fit-margin-bottom="0"
     inkscape:window-width="1278"
     inkscape:window-height="781"
     inkscape:window-x="0"
     inkscape:window-y="17"
     inkscape:window-maximized="0"
     showguides="true"
     inkscape:guide-bbox="true" />
  <metadata
     id="metadata10393">
    <rdf:RDF>
      <cc:Work
         rdf:about="">
        <dc:format>image/svg+xml</dc:format>
        <dc:type
           rdf:resource="http://purl.org/dc/dcmitype/StillImage" />
        <dc:title></dc:title>
      </cc:Work>
    </rdf:RDF>
  </metadata>
  <g
     inkscape:label="Layer 1"
     inkscape:groupmode="layer"
     id="layer1"
     transform="translate(-293.88257,-149.22342)">
    <path
       style="fill:#ffffff;fill-opacity:0;fill-rule:nonzero;stroke:#000000;stroke-width:1.70477462;stroke-linecap:butt;stroke-linejoin:miter;stroke-miterlimit:4;stroke-opacity:1;stroke-dasharray:none"
       d="m 332.85197,164.22016 c 0,0 -0.96892,-1.88087 -5.14783,-3.5498 -4.52708,-1.80798 -11.61414,-0.61845 -15.18452,1.35075 -6.86236,3.78454 -3.78994,7.32412 -5.6845,10.13392 -1.85529,2.75158 -3.1235,4.86664 -3.03775,8.18689 0.0653,2.52923 2.02446,5.96896 5.49337,6.91287 5.91034,1.60828 8.69371,1.33803 13.01525,2.02464 3.40933,0.54168 5.73379,0.23655 7.94223,-0.96875"
       id="path9922-1-4-5"
       inkscape:connector-curvature="0"
       sodipodi:nodetypes="cssssssc" />
    <path
       style="fill:#000000;fill-opacity:1;fill-rule:nonzero;stroke:#000000;stroke-width:1.70477462;stroke-linecap:butt;stroke-linejoin:miter;stroke-miterlimit:4;stroke-opacity:1;stroke-dasharray:none"
       d="m 308.49402,168.11448 c 0.92718,1.73043 -1.53343,6.39283 -2.06679,6.22893 -0.94257,-0.28961 -1.64927,-1.17056 -0.87257,-3.79833 0.61432,-2.07846 2.40112,-3.43517 2.93938,-2.43061 z"
       id="path9924-5-2-5"
       inkscape:connector-curvature="0"
       sodipodi:nodetypes="ssss" />
    <path
       sodipodi:type="arc"
       style="fill:#ffffff;fill-opacity:1;fill-rule:nonzero;stroke:#ffffff;stroke-width:7.89696932;stroke-linecap:butt;stroke-linejoin:miter;stroke-miterlimit:4;stroke-opacity:1;stroke-dasharray:none"
       id="path9926-2-1-0"
       sodipodi:cx="246.53337"
       sodipodi:cy="1104.5435"
       sodipodi:rx="3.8544929"
       sodipodi:ry="4.1628523"
       d="m 250.38786,1104.5435 a 3.8544929,4.1628523 0 1 1 -7.70898,0 3.8544929,4.1628523 0 1 1 7.70898,0 z"
       transform="matrix(0.09405091,0.0472196,-0.09193893,0.1841902,386.04765,-45.507921)"
       inkscape:transform-center-x="4.2122885"
       inkscape:transform-center-y="0.724156" />
    <path
       sodipodi:type="arc"
       style="fill:#ffffff;fill-opacity:1;fill-rule:nonzero;stroke:#ffffff;stroke-width:16.73293495;stroke-linecap:butt;stroke-linejoin:miter;stroke-miterlimit:4;stroke-opacity:1;stroke-dasharray:none"
       id="path9926-1-7-1-1"
       sodipodi:cx="246.53337"
       sodipodi:cy="1104.5435"
       sodipodi:rx="3.8544929"
       sodipodi:ry="4.1628523"
       d="m 250.38786,1104.5435 a 3.8544929,4.1628523 0 1 1 -7.70898,0 3.8544929,4.1628523 0 1 1 7.70898,0 z"
       transform="matrix(0.02407402,0.01808782,-0.0238477,0.07116541,327.6362,88.893272)"
       inkscape:transform-center-x="1.0810413"
       inkscape:transform-center-y="0.18589539" />
    <path
       style="fill:#000000;fill-opacity:1;fill-rule:nonzero;stroke:#000000;stroke-width:1.16234636;stroke-linecap:butt;stroke-linejoin:miter;stroke-miterlimit:4;stroke-opacity:1"
       d="m 326.24332,174.31635 c -0.9739,2.18261 -3.04996,3.35794 -4.63697,2.62526 -1.58701,-0.73273 -2.08407,-3.09601 -1.11014,-5.27853 0.97387,-2.18257 3.04991,-3.35793 4.63694,-2.62524 1.58704,0.73272 2.08408,3.09598 1.11025,5.2785 z"
       id="path9946-1-9-0"
       inkscape:connector-curvature="0" />
    <path
       sodipodi:type="arc"
       style="fill:#ffffff;fill-opacity:1;fill-rule:nonzero;stroke:#ffffff;stroke-width:6.14886189;stroke-linecap:butt;stroke-linejoin:miter;stroke-miterlimit:4;stroke-opacity:1;stroke-dasharray:none"
       id="path9949-4-8-0"
       sodipodi:cx="217.08504"
       sodipodi:cy="1121.1949"
       sodipodi:rx="5.5504699"
       sodipodi:ry="8.4798841"
       d="m 222.63551,1121.1949 a 5.5504699,8.4798841 0 1 1 -11.10094,0 5.5504699,8.4798841 0 1 1 11.10094,0 z"
       transform="matrix(0.17150593,0.07630142,-0.07490592,0.17502936,369.92615,-41.190689)" />
    <path
       sodipodi:type="arc"
       style="fill:#ffffff;fill-opacity:1;fill-rule:nonzero;stroke:#ffffff;stroke-width:6.19660568;stroke-linecap:butt;stroke-linejoin:miter;stroke-miterlimit:4;stroke-opacity:1;stroke-dasharray:none"
       id="path9926-1-4-2-7-6"
       sodipodi:cx="246.53337"
       sodipodi:cy="1104.5435"
       sodipodi:rx="3.8544929"
       sodipodi:ry="4.1628523"
       d="m 250.38786,1104.5435 a 3.8544929,4.1628523 0 1 1 -7.70898,0 3.8544929,4.1628523 0 1 1 7.70898,0 z"
       transform="matrix(0.09422561,0.00854876,-0.03717472,0.16259051,341.98843,-7.3546009)"
       inkscape:transform-center-x="3.5090868"
       inkscape:transform-center-y="1.8273107" />
    <path
       style="fill:#ffffff;fill-opacity:1;fill-rule:nonzero;stroke:#4d4d4d;stroke-width:1.16234636;stroke-linecap:round;stroke-linejoin:miter;stroke-miterlimit:4;stroke-opacity:1;stroke-dasharray:none"
       d="m 307.51434,186.18977 c -0.68204,1.59383 -0.32168,2.66655 0.54097,3.48818 0.91178,0.0613 1.83404,0.40541 3.46982,-0.26067 -0.11421,-1.14359 0.0915,-1.65219 0.31474,-2.44201 -0.80351,-0.62196 -2.14614,-0.19014 -2.39399,-1.89812 -0.42463,0.5785 -1.22087,1.12342 -1.93155,1.11258 z"
       id="path9973-5-7-5"
       inkscape:connector-curvature="0"
       sodipodi:nodetypes="cccccc" />
    <path
       style="fill:#ffffff;fill-opacity:1;fill-rule:nonzero;stroke:#4d4d4d;stroke-width:0.77489758;stroke-linecap:round;stroke-linejoin:miter;stroke-miterlimit:4;stroke-opacity:1;stroke-dasharray:none"
       d="m 309.26361,185.80914 c -0.0233,0.63505 -0.31318,1.54285 0.0285,2.50019"
       id="path9975-2-8-5"
       inkscape:connector-curvature="0"
       sodipodi:nodetypes="cc" />
    <path
       style="fill:#ffffff;fill-opacity:0;fill-rule:nonzero;stroke:#000000;stroke-width:1.16234636;stroke-linecap:round;stroke-linejoin:miter;stroke-miterlimit:4;stroke-opacity:1;stroke-dasharray:none"
       d="m 306.29534,185.55694 c 0.53106,1.05689 1.94566,0.66358 3.09408,-0.36341 l 0.13813,-2.64424"
       id="path9969-4-7-0"
       inkscape:connector-curvature="0"
       sodipodi:nodetypes="ccc" />
    <path
       style="fill:#ffffff;fill-opacity:1;fill-rule:nonzero;stroke:#000000;stroke-width:1.16234636;stroke-linecap:round;stroke-linejoin:miter;stroke-miterlimit:4;stroke-opacity:1;stroke-dasharray:none"
       d="m 309.42559,185.1872 c 2.571,4.72438 5.5894,3.21116 7.51498,2.1041"
       id="path9971-3-6-8"
       inkscape:connector-curvature="0"
       sodipodi:nodetypes="cc" />
    <path
       style="fill:#ffffff;fill-opacity:1;fill-rule:nonzero;stroke:#000000;stroke-width:1.16234636;stroke-linecap:round;stroke-linejoin:miter;stroke-miterlimit:4;stroke-opacity:1;stroke-dasharray:none"
       d="m 307.58666,180.79383 c 0.3423,0.79584 0.98216,1.19316 1.85102,1.61752 1.0801,-0.0944 2.1231,-0.67984 2.54116,-1.2967"
       id="path9977-6-2-7"
       inkscape:connector-curvature="0"
       sodipodi:nodetypes="ccc" />
    <path
       style="fill:#ffffff;fill-opacity:0;fill-rule:nonzero;stroke:#000000;stroke-width:1.70477462;stroke-linecap:round;stroke-linejoin:miter;stroke-miterlimit:4;stroke-opacity:1;stroke-dasharray:none"
       d="m 303.7814,179.804 c 0,0 -10.43519,7.22655 -8.22151,12.09425 2.29865,5.05459 18.19023,-2.70742 18.19023,-2.70742"
       id="path9981-8-5-8"
       inkscape:connector-curvature="0"
       sodipodi:nodetypes="csc" />
    <path
       style="fill:#ffffff;fill-opacity:0;fill-rule:nonzero;stroke:#000000;stroke-width:1.70477462;stroke-linecap:round;stroke-linejoin:miter;stroke-miterlimit:4;stroke-opacity:1;stroke-dasharray:none"
       d="m 304.42492,183.17482 c -1.66755,1.18373 -5.87861,3.77862 -6.7926,9.753"
       id="path9983-5-0-1"
       inkscape:connector-curvature="0"
       sodipodi:nodetypes="cc" />
    <path
       style="fill:#ffffff;fill-opacity:0;fill-rule:nonzero;stroke:#000000;stroke-width:1.70477462;stroke-linecap:round;stroke-linejoin:miter;stroke-miterlimit:4;stroke-opacity:1;stroke-dasharray:none"
       d="m 314.42426,188.55131 c 1.24767,1.86751 2.50635,5.68449 6.87522,9.0847 3.82777,2.9791 8.72453,3.72664 13.4961,4.57072 6.16531,1.09061 13.4632,2.29656 20.8364,1.48649 2.19966,-0.17879 -4.61281,3.21232 -9.74435,4.88729 -1.32764,0.43335 -3.65294,1.6688 -2.77752,3.73508 0.3438,0.81148 1.06976,1.03181 2.23174,1.81332 3.42215,2.30159 16.65929,-3.11069 19.96063,-4.93776 3.27584,-1.08808 4.67134,-9.90167 6.03982,-15.21852 0.003,-0.009 0.006,-0.0155 0.008,-0.0237 0.94207,-2.68691 1.05462,-5.76181 0.93342,-8.59305 -0.43476,-10.15608 -4.31833,-17.14474 -12.37911,-21.59077 -2.05156,-1.13159 -4.36467,-1.90432 -6.69447,-2.13869 -0.65237,-0.0656 -1.3123,-0.0934 -1.9677,-0.0913 -2.8401,0.009 -5.69156,0.59318 -8.46245,1.22415 -2.08648,0.47506 -7.20612,2.16557 -8.22864,2.19825"
       id="path9985-3-2-7"
       inkscape:connector-curvature="0"
       sodipodi:nodetypes="csscssscccsccscc" />
    <path
       style="fill:#ffffff;fill-opacity:1;fill-rule:nonzero;stroke:#000000;stroke-width:1.70477462;stroke-linecap:round;stroke-linejoin:miter;stroke-miterlimit:4;stroke-opacity:1;stroke-dasharray:none"
       d="m 328.27395,198.92047 c 0,0 0.20616,1.76276 0.18909,2.90063 -0.015,0.99732 -0.92033,1.64649 -1.43824,2.56219 -0.61693,1.09072 -2.09468,1.81318 -2.13646,3.00071 -0.0123,0.34564 0.38084,0.63607 0.64963,0.91754 0.81657,0.85518 3.81594,1.29528 6.04323,0.0622 2.21911,-1.22849 2.48709,-3.75109 3.24506,-5.56628 0.4132,-0.98948 1.20438,-3.88831 1.20438,-3.88831"
       id="path9989-2-5-5"
       inkscape:connector-curvature="0"
       sodipodi:nodetypes="cssssssc" />
    <path
       style="fill:#ffffff;fill-opacity:0;fill-rule:nonzero;stroke:#000000;stroke-width:1.70477462;stroke-linecap:round;stroke-linejoin:miter;stroke-miterlimit:4;stroke-opacity:1;stroke-dasharray:none"
       d="m 322.24601,198.30968 c 0,0 0.63375,1.10059 0.61666,2.23846 -0.015,0.99732 -0.44874,1.53793 -0.96671,2.45362 -0.61691,1.09073 -2.76143,1.51878 -2.80324,2.70634 -0.0123,0.34565 0.38087,0.63608 0.64964,0.91753 0.81657,0.85518 2.27535,1.4999 4.50263,0.26684"
       id="path9989-3-1-0-5"
       inkscape:connector-curvature="0"
       sodipodi:nodetypes="cssssc" />
    <path
       style="fill:#ffffff;fill-opacity:1;fill-rule:nonzero;stroke:#000000;stroke-width:1.70477462;stroke-linecap:round;stroke-linejoin:miter;stroke-miterlimit:4;stroke-opacity:1;stroke-dasharray:none"
       d="m 364.39281,203.29206 c 0,0 -3.60958,1.2902 -5.4967,1.50237 -1.58212,0.17785 -3.23598,0.2161 -4.77144,-0.20508 -1.89104,-0.51866 -3.6878,-1.51378 -5.18624,-2.78163 -1.08669,-0.91949 -1.98874,-2.09908 -2.61629,-3.37878 -0.9948,-2.02864 -2.08156,-4.33689 -1.69861,-6.56525 1.36551,-7.94579 6.17498,-9.2647 9.38814,-10.03672 5.27973,-1.26858 10.6887,0.7337 10.6887,0.7337"
       id="path10011-1-7-9"
       inkscape:connector-curvature="0"
       sodipodi:nodetypes="cssssssc" />
    <path
       style="fill:#000000;fill-opacity:0;fill-rule:nonzero;stroke:#000000;stroke-width:1.70477462;stroke-linecap:round;stroke-linejoin:miter;stroke-miterlimit:4;stroke-opacity:1;stroke-dasharray:none"
       d="m 348.54879,204.00687 c 0.44492,0.95258 -3.68423,1.79964 -5.85571,2.39565 -1.71543,0.47085 -3.28771,0.14635 -5.65557,1.84904 -1.44895,1.04192 -1.26433,3.10704 -0.83282,3.72496 0.49947,0.7152 1.98547,1.02576 2.8524,1.10657 1.50006,0.13985 3.56721,-0.60668 3.56721,-0.60668"
       id="path10014-9-0-1"
       inkscape:connector-curvature="0"
       sodipodi:nodetypes="cssssc" />
    <path
       style="fill:#000000;fill-opacity:0;fill-rule:nonzero;stroke:#000000;stroke-width:1.70477462;stroke-linecap:round;stroke-linejoin:miter;stroke-miterlimit:4;stroke-opacity:1;stroke-dasharray:none"
       d="m 370.10123,199.60152 c -0.15988,0.35391 5.62488,-2.31089 9.01268,-7.15359 1.15458,-1.65049 0.89502,-4.25483 -0.0653,-4.6769 -0.96027,-0.42208 -2.7437,1.22676 -2.7437,1.22676 0,0 3.00228,-2.08093 3.39739,-3.45114 0.39509,-1.37021 -0.1577,-2.7811 -0.80181,-3.63388 -0.64412,-0.85276 -1.24221,-1.59913 -2.36711,-1.2794 -1.12492,0.31968 -2.14013,3.74298 -2.14013,3.74298 0,0 0.84814,-2.19855 0.45396,-3.20257 -0.21761,-0.55434 -0.71559,-1.09617 -1.38843,-1.12985 -0.67285,-0.0337 -1.40907,0.82216 -1.40907,0.82216"
       id="path10020-6-2-8"
       inkscape:connector-curvature="0"
       sodipodi:nodetypes="csscssscssc" />
    <path
       style="fill:#000000;fill-opacity:0;fill-rule:nonzero;stroke:#502d16;stroke-width:0;stroke-linecap:round;stroke-linejoin:miter;stroke-miterlimit:4;stroke-opacity:1;stroke-dasharray:none"
       d="m 330.66518,162.90123 c -0.17719,0.97591 -0.31095,2.03522 -0.0422,3.00009 0.97985,0.65913 2.53171,0.11602 3.32922,1.14353 0.44014,0.58294 0.89054,1.67718 0.11031,2.20936 -0.41801,0.38802 -1.01205,0.27761 -1.49498,0.43588 -0.089,0.49161 0.51392,0.84118 0.65137,1.29136 1.77013,3.37006 1.41399,7.32666 0.93358,10.97432 -0.43836,3.89018 -1.32935,7.86408 -0.54781,11.76638 0.36897,1.77793 1.1139,3.5713 2.64316,4.64684 2.39155,1.7713 5.58653,2.70698 8.52321,1.95494 1.60314,-0.43281 3.18922,-1.68057 3.40829,-3.41324 -0.23878,-3.32746 -1.32164,-6.52143 -2.28879,-9.6944 -2.04024,-6.08537 -4.31531,-12.16315 -7.68653,-17.64383 -1.20727,-1.8729 -2.69052,-3.90618 -4.9455,-4.50178 -0.54985,-0.16068 -1.30383,0.12742 -1.74142,-0.29008 -0.25212,-0.38992 0.2844,-0.621 0.34641,-0.93345 -0.25918,-0.42475 -0.76377,-0.70083 -1.14677,-0.99361 l -0.0519,0.0477 z"
       id="path10024-4-6-0"
       inkscape:connector-curvature="0" />
    <path
       style="fill:#4d4d4d;fill-opacity:1;fill-rule:nonzero;stroke:#000000;stroke-width:0;stroke-linecap:round;stroke-linejoin:miter;stroke-miterlimit:4;stroke-opacity:1;stroke-dasharray:none"
       d="m 351.35679,161.92797 c -0.5025,0.0578 -1.10602,-0.10968 -1.53923,0.20333 -0.21893,0.66389 -0.0747,1.40821 -0.10072,2.10107 0.0125,1.18513 0.52849,2.35045 1.31684,3.21935 0.95934,0.994 2.46635,0.66873 3.66554,0.45312 0.84853,-0.13178 1.73992,-0.14136 2.58739,-0.0672 1.50635,0.66546 3.02719,1.75204 3.50979,3.4002 0.13646,1.25519 -0.20619,2.50784 -0.10532,3.75999 0.21867,1.148 1.06617,2.0598 1.91048,2.80879 1.29538,1.10762 3.08713,1.72882 4.77026,1.26224 0.98538,-0.24155 2.03735,-0.77203 2.37204,-1.80739 0.16164,-0.59474 0.61639,-1.25087 0.21521,-1.83969 -1.6387,-4.19913 -4.65438,-7.78868 -8.42611,-10.21374 -2.87344,-1.9119 -6.21676,-3.2373 -9.70035,-3.27412 -0.15861,-0.006 -0.31718,-0.006 -0.47589,-0.005 z"
       id="path10044-6-0-5"
       inkscape:connector-curvature="0" />
    <path
       style="fill:#4d4d4d;fill-opacity:1;fill-rule:nonzero;stroke:#000000;stroke-width:0;stroke-linecap:round;stroke-linejoin:miter;stroke-miterlimit:4;stroke-opacity:1;stroke-dasharray:none"
       d="m 310.32387,164.03051 c -0.96993,0.86123 -1.82982,2.01119 -2.03009,3.30343 1.10569,0.84818 0.81606,2.40936 0.48378,3.5634 -0.45285,1.31258 -0.96458,2.69632 -1.9512,3.68337 -0.34967,0.42461 -0.91973,-0.27122 -1.20119,0.25633 -0.21695,0.33946 -0.68026,0.93227 -0.0879,1.16345 1.10282,0.62971 2.48678,1.57065 3.7722,0.82085 1.46138,-0.92486 2.68901,-2.39766 3.01409,-4.13038 0.35355,-1.60645 -1.45333,-2.95878 -0.74171,-4.55147 0.27529,-0.92507 1.1395,-1.87588 0.73445,-2.88273 -0.43489,-0.64768 -1.21664,-1.06019 -1.93722,-1.26015 l -0.0554,0.034 z"
       id="path10078-8-2-4"
       inkscape:connector-curvature="0" />
    <path
       style="fill:#4d4d4d;fill-opacity:1;fill-rule:nonzero;stroke:#000000;stroke-width:0;stroke-linecap:round;stroke-linejoin:miter;stroke-miterlimit:4;stroke-opacity:1;stroke-dasharray:none"
       d="m 321.09515,166.74928 c -1.14382,0.0213 -2.63168,0.53029 -2.78042,1.84192 -0.25404,1.81739 -0.14459,3.6793 -0.33188,5.49385 -0.42632,1.29051 -1.4723,2.74141 -0.74838,4.11669 0.96574,1.8207 3.27081,2.92783 5.25185,2.15893 1.08671,-0.48199 2.13794,-1.76332 1.67316,-2.99706 -0.48274,-0.44341 -1.1818,0.13285 -1.7509,-0.042 -1.09808,-0.0672 -2.0587,-0.85843 -2.34232,-1.92227 -0.8945,-2.60657 0.66952,-5.74147 3.23326,-6.6705 0.42455,0.0787 0.83649,-0.39966 0.44387,-0.73263 -0.66411,-0.81483 -1.55941,-1.37112 -2.6482,-1.24678 z"
       id="path10080-0-4-6"
       inkscape:connector-curvature="0" />
    <path
       style="fill:#4d4d4d;fill-opacity:1;fill-rule:nonzero;stroke:#000000;stroke-width:0;stroke-linecap:round;stroke-linejoin:miter;stroke-miterlimit:4;stroke-opacity:1;stroke-dasharray:none"
       d="m 322.22586,160.16736 c -1.33613,0.11882 -2.73694,0.0875 -4.01949,0.48216 -0.78908,0.65984 -0.87889,2.05833 -0.21548,2.83983 0.76628,0.4341 1.73555,0.1159 2.56654,0.1247 1.1126,-0.16684 2.58233,0.006 3.31864,-1.02861 0.40107,-0.94616 -0.32301,-2.22565 -1.31027,-2.41805 -0.11317,-0.007 -0.22684,-0.008 -0.33996,3e-5 z"
       id="path10082-0-5-0"
       inkscape:connector-curvature="0" />
    <path
       style="fill:#4d4d4d;fill-opacity:1;fill-rule:nonzero;stroke:#000000;stroke-width:0;stroke-linecap:round;stroke-linejoin:miter;stroke-miterlimit:4;stroke-opacity:1;stroke-dasharray:none"
       d="m 307.44702,178.24215 c -0.59619,0.0397 -0.6678,0.69796 -0.867,1.12788 -0.47422,0.89093 -1.49194,1.32417 -2.03845,2.14586 -0.17318,0.7922 0.45511,1.51064 0.78561,2.18455 0.58262,0.87496 1.28468,1.75871 2.19251,2.28661 0.73055,-0.24866 1.70299,-0.60569 1.67498,-1.54673 -0.001,-0.62051 0.22146,-1.29514 0.0234,-1.87724 -0.69962,-0.40553 -1.5021,-0.93473 -1.77773,-1.72701 0.009,-0.2695 0.27863,-0.3129 0.37123,-0.0341 0.5265,0.76192 1.47494,1.67788 2.47027,1.1864 0.69882,-0.17142 1.17083,-0.80208 1.81374,-1.02856 0.20008,0.27861 -0.287,0.65499 -0.49296,0.82859 -0.50701,0.40588 -1.15505,0.56352 -1.695,0.84033 -0.30637,0.79668 -0.35562,1.73793 -0.18171,2.57145 0.80141,1.58786 2.31791,3.21597 4.26117,2.96863 1.1038,-0.0536 2.00909,-0.74811 3.02965,-1.05395 0.33234,0.20676 -0.31666,0.52782 -0.36186,0.77141 -0.053,0.54905 0.77222,0.33486 1.11756,0.45951 1.2105,0.0611 2.41532,0.39535 3.62313,0.35064 0.82581,-0.35467 1.41229,-1.15326 1.91201,-1.87848 0.4988,-0.64923 0.0441,-1.46471 -0.53651,-1.87265 -1.09895,-1.0342 -2.68046,-1.00949 -4.0783,-0.77579 -1.16752,0.0181 -2.45518,0.0788 -3.52897,-0.4394 -0.78564,-0.45106 -0.48632,-1.53122 -0.59056,-2.28316 -0.11404,-0.6314 0.1818,-1.44194 -0.21858,-1.95438 -0.81317,-0.6183 -1.96042,-1.22793 -2.92696,-0.55271 -0.54686,0.26781 -1.16187,0.54949 -1.72659,0.16609 -0.75828,-0.25237 -1.44855,-0.81372 -2.25389,-0.86376 z"
       id="path10084-9-7-5"
       inkscape:connector-curvature="0" />
    <path
       style="fill:#4d4d4d;fill-opacity:1;fill-rule:nonzero;stroke:#000000;stroke-width:0;stroke-linecap:round;stroke-linejoin:miter;stroke-miterlimit:4;stroke-opacity:1;stroke-dasharray:none"
       d="m 324.73901,192.05522 c -0.91469,-0.007 -1.80957,0.79946 -1.88614,1.70649 0.25155,1.53425 1.7934,2.72001 3.31587,2.73153 0.74331,-0.44076 1.57817,-0.66911 2.35278,-1.01959 0.78392,-0.60291 0.35972,-2.04471 -0.54212,-2.31368 -0.93055,-0.17984 -1.56158,-1.04662 -2.55056,-1.06319 -0.22915,-0.0289 -0.4586,-0.0546 -0.6898,-0.0416 z"
       id="path10086-1-5-0"
       inkscape:connector-curvature="0" />
    <path
       style="fill:#4d4d4d;fill-opacity:1;fill-rule:nonzero;stroke:#000000;stroke-width:0;stroke-linecap:round;stroke-linejoin:miter;stroke-miterlimit:4;stroke-opacity:1;stroke-dasharray:none"
       d="m 325.19738,201.97096 c -0.89677,0.12393 -1.79843,1.34143 -1.12844,2.1449 0.51473,0.36066 1.41832,0.12823 1.55792,-0.54204 0.24087,-0.49906 0.30255,-1.51574 -0.42948,-1.60286 z"
       id="path10088-6-3-6"
       inkscape:connector-curvature="0" />
    <path
       style="fill:#4d4d4d;fill-opacity:1;fill-rule:nonzero;stroke:#000000;stroke-width:0;stroke-linecap:round;stroke-linejoin:miter;stroke-miterlimit:4;stroke-opacity:1;stroke-dasharray:none"
       d="m 330.52149,202.21535 c -0.63377,0.0899 -1.63132,-0.0103 -1.83466,0.774 -0.24478,0.70059 -0.88055,1.26016 -1.03243,1.97225 0.50888,0.54023 1.40123,0.36683 2.08096,0.41932 0.97837,0.0138 2.36944,-0.28681 2.48197,-1.47291 0.0301,-0.89034 -0.84573,-1.6641 -1.69584,-1.69267 z"
       id="path10090-2-5-4"
       inkscape:connector-curvature="0" />
    <path
       style="fill:#4d4d4d;fill-opacity:1;fill-rule:nonzero;stroke:#000000;stroke-width:0;stroke-linecap:round;stroke-linejoin:miter;stroke-miterlimit:4;stroke-opacity:1;stroke-dasharray:none"
       d="m 341.42128,207.29372 c -0.42925,0.0112 -1.34015,-0.15186 -1.32017,0.51384 0.0606,0.87064 -0.21685,2.0564 0.5922,2.65065 0.9032,0.0133 2.01597,-0.98733 1.49675,-1.93048 -0.27044,-0.36852 -0.34251,-0.84399 -0.62015,-1.17966 -0.0468,-0.0245 -0.0956,-0.0482 -0.14856,-0.0548 z"
       id="path10092-0-3-5"
       inkscape:connector-curvature="0"
       inkscape:transform-center-x="-1.1614292"
       inkscape:transform-center-y="0.85231712" />
    <path
       style="fill:#4d4d4d;fill-opacity:1;fill-rule:nonzero;stroke:#000000;stroke-width:0;stroke-linecap:round;stroke-linejoin:miter;stroke-miterlimit:4;stroke-opacity:1;stroke-dasharray:none"
       d="m 366.04614,204.87683 c -1.82868,0.8078 -2.95816,2.53308 -4.3014,3.92962 -1.17215,1.11768 -2.93257,0.86403 -4.41837,0.9907 -1.07886,0.1353 -2.39871,-0.36913 -3.30447,0.44463 -0.57694,0.52259 -0.15941,1.33299 0.37227,1.6993 0.43063,0.44921 0.93628,0.91626 1.55558,0.46773 3.27921,-1.11508 6.61924,-2.25445 9.53836,-4.13859 0.90736,-0.69437 1.8706,-1.73558 1.78172,-2.95462 -0.1382,-0.56897 -0.74505,-0.69272 -1.22346,-0.43882 z"
       id="path10094-9-0-6"
       inkscape:connector-curvature="0" />
    <path
       style="fill:#4d4d4d;fill-opacity:1;fill-rule:nonzero;stroke:#000000;stroke-width:0;stroke-linecap:round;stroke-linejoin:miter;stroke-miterlimit:4;stroke-opacity:1;stroke-dasharray:none"
       d="m 355.78914,195.98878 c -1.02692,0.24479 -2.04435,0.90799 -2.53344,1.86862 -0.71193,1.75493 0.80262,3.78248 2.60569,3.96783 1.36438,0.17698 2.79715,-0.14754 4.01566,-0.77168 1.32111,-0.75184 1.75271,-2.50812 1.43557,-3.91243 -0.0913,-0.55943 -0.70276,-0.89837 -1.19255,-0.56002 -1.20384,0.56449 -2.18012,1.64255 -3.4924,1.94831 -0.87215,0.007 -0.92834,-1.07059 -0.68263,-1.69506 0.12601,-0.25899 0.52148,-0.75886 0.0124,-0.84387 -0.0553,-0.0109 -0.11249,-0.004 -0.16823,-0.002 z"
       id="path10096-8-9-9"
       inkscape:connector-curvature="0" />
    <path
       style="fill:#4d4d4d;fill-opacity:1;fill-rule:nonzero;stroke:#000000;stroke-width:0;stroke-linecap:round;stroke-linejoin:miter;stroke-miterlimit:4;stroke-opacity:1;stroke-dasharray:none"
       d="m 366.43391,186.63871 c -1.34965,0.12394 -2.97652,0.65343 -3.4866,2.04828 -0.31389,1.32249 0.4269,2.60348 0.76541,3.84961 0.36831,1.36977 1.30867,2.68429 1.08348,4.14092 -0.15356,0.7846 -0.71157,1.75806 0.009,2.43222 0.84516,0.90654 2.16306,1.70716 3.43341,1.3582 1.20047,-0.46307 1.60979,-1.77619 1.84351,-2.92729 0.6281,-3.05802 1.82545,-6.04541 1.7806,-9.20624 -0.43451,-0.48545 -1.22138,-0.60918 -1.81388,-0.90748 -1.15644,-0.43812 -2.36475,-0.81625 -3.61456,-0.78822 z"
       id="path10098-3-8-1"
       inkscape:connector-curvature="0" />
    <path
       style="fill:#4d4d4d;fill-opacity:1;fill-rule:nonzero;stroke:#000000;stroke-width:0;stroke-linecap:round;stroke-linejoin:miter;stroke-miterlimit:4;stroke-opacity:1;stroke-dasharray:none"
       d="m 354.73741,182.10874 c -2.32538,0.42734 -4.71302,1.24139 -6.45921,2.90298 -0.48984,0.58078 -1.22569,1.11191 -1.37639,1.88741 0.35162,1.90562 0.19183,3.28812 0.61314,5.1641 0.10413,0.46359 1.4415,0.90215 1.75672,0.64775 0.36728,-0.29644 1.29401,-0.6808 0.87727,-1.2366 -0.4518,-0.60255 -1.1492,-1.24839 -1.03465,-2.06868 0.10162,-0.72773 0.62368,-1.53337 1.46633,-1.29742 0.92662,0.25946 1.73174,1.07436 2.68884,0.97506 1.83198,-0.19012 3.82944,-1.30261 4.45667,-3.18197 0.30349,-1.26191 -0.84476,-2.27317 -1.6596,-3.05256 -0.37337,-0.33378 -0.77432,-0.79926 -1.32912,-0.74007 z"
       id="path10100-5-3-8"
       inkscape:connector-curvature="0"
       sodipodi:nodetypes="cccssssssccc" />
    <path
       style="fill:#4d4d4d;fill-opacity:1;fill-rule:nonzero;stroke:#000000;stroke-width:0;stroke-linecap:round;stroke-linejoin:miter;stroke-miterlimit:4;stroke-opacity:1;stroke-dasharray:none"
       d="m 356.09491,171.61231 c -1.26016,-0.0784 -2.4415,0.84427 -2.6457,2.09135 -0.40816,1.77024 0.78722,3.8493 2.67366,4.03397 0.67364,0.14085 1.52762,-0.19543 1.51797,-0.98681 0.18853,-0.89946 -0.42104,-1.94541 0.14905,-2.7372 0.78625,-0.48597 0.53078,-1.63773 -0.17737,-2.0653 -0.43201,-0.32278 -1.00113,-0.33799 -1.51772,-0.33602 z"
       id="path10102-2-0-0"
       inkscape:connector-curvature="0" />
    <path
       style="fill:#4d4d4d;fill-opacity:1;fill-rule:nonzero;stroke:#000000;stroke-width:0;stroke-linecap:round;stroke-linejoin:miter;stroke-miterlimit:4;stroke-opacity:1;stroke-dasharray:none"
       d="m 345.13961,165.18491 c -0.99214,0.0816 -2.04895,-0.097 -3.00035,0.23092 -0.96149,0.63775 -0.81418,2.18871 0.0765,2.82562 1.05652,0.99706 2.58603,1.81206 2.70057,3.43827 0.25665,1.30066 -0.0533,2.77431 0.66224,3.94781 0.97663,1.3628 3.28922,1.70747 4.49358,0.47349 0.79654,-1.14914 0.28445,-2.66919 -0.17515,-3.85084 -0.44714,-1.48111 -2.29416,-1.7163 -2.99099,-2.97172 -0.19907,-1.06089 -0.0153,-2.19843 -0.37433,-3.24896 -0.0741,-0.48449 -0.42032,-1.01207 -0.99382,-0.8439 -0.1328,-9.6e-4 -0.26558,-3.2e-4 -0.39836,-5.8e-4 z"
       id="path10104-9-7-3"
       inkscape:connector-curvature="0" />
    <path
       style="fill:#f7f7f7;fill-opacity:1;fill-rule:nonzero;stroke:#000000;stroke-width:0;stroke-linecap:round;stroke-linejoin:miter;stroke-miterlimit:4;stroke-opacity:1;stroke-dasharray:none"
       d="m 373.45466,180.50785 c -0.74302,0.0921 -1.30899,0.88726 -1.02257,1.63616 0.51407,3.97248 0.39603,8.03658 -0.65297,11.91031 -0.26955,1.50234 -0.94176,2.9621 -0.93841,4.48166 0.36031,0.50779 1.00011,-0.32043 1.39348,-0.429 2.81513,-1.76603 5.59455,-3.89027 7.30772,-6.77453 0.44036,-1.04485 0.27499,-2.67226 -0.84039,-3.19484 -0.78544,0.068 -1.42581,0.65172 -2.03682,1.10442 -0.87196,-0.58452 -0.15811,-0.92685 0.3985,-1.36523 1.03041,-1.00041 2.65288,-2.02349 2.30184,-3.70289 -0.21504,-1.27961 -0.98246,-2.64209 -2.19539,-3.18931 -1.10758,0.0498 -1.48616,1.43126 -1.91791,2.26026 -0.22249,0.33717 -0.26597,1.33996 -0.88458,0.98476 -0.67539,-0.0837 0.0374,-0.8393 -0.0113,-1.23272 0.15026,-0.7945 0.26146,-2.46902 -0.90126,-2.48905 z"
       id="path10116-5-2-8"
       inkscape:connector-curvature="0" />
    <path
       style="fill:#d7d7d7;fill-opacity:1;fill-rule:nonzero;stroke:#2a1431;stroke-width:0;stroke-linecap:round;stroke-linejoin:miter;stroke-miterlimit:4;stroke-opacity:1;stroke-dasharray:none"
       d="m 323.51981,200.04159 c -0.27427,0.62966 -0.19273,1.39071 -0.5629,2.01136 -0.44835,1.28474 -1.5137,2.1638 -2.61988,2.87539 -0.45727,0.21826 -0.85453,0.8008 -0.37949,1.21283 0.94068,1.06491 2.57044,1.12363 3.75025,0.45918 0.75829,-0.12598 1.35175,-0.62406 1.82721,-1.22101 0.88689,-1.09121 1.91612,-2.15698 2.43025,-3.47756 0.0168,-0.79896 -1.09768,-0.83337 -1.6412,-1.1113 -0.85883,-0.22758 -1.66708,-0.75562 -2.53974,-0.90014 -0.0882,0.0503 -0.17635,0.1008 -0.26452,0.1512 z m 1.64898,2.32081 c 0.45027,0.32905 0.19852,1.15082 -0.19677,1.44583 -0.35021,0.28541 -0.97159,-0.026 -0.70947,-0.50949 0.13548,-0.42911 0.50996,-0.75584 0.90624,-0.93634 z"
       id="path12980-5-8"
       inkscape:connector-curvature="0" />
    <path
       style="fill:#ffffff;fill-opacity:1;fill-rule:nonzero;stroke:#000000;stroke-width:1.70477462;stroke-linecap:round;stroke-linejoin:miter;stroke-miterlimit:4;stroke-opacity:1;stroke-dasharray:none"
       d="m 332.09084,164.48778 c 0.0945,-0.38508 1.5467,-1.62863 4.48725,-1.40886 7.59383,0.56746 28.23263,13.68295 29.24747,16.52852 2.17074,6.08678 -7.37079,10.54398 -11.85531,8.4996 -8.16955,-3.72432 -9.30089,-15.9052 -17.30818,-19.06446 -0.75501,-0.29791 -2.37643,-0.41051 -2.37643,-0.41051"
       id="path9979-6-6-9-5-9-5"
       inkscape:connector-curvature="0"
       sodipodi:nodetypes="cssssc" />
    <path
       style="fill:#4d4d4d;fill-opacity:1;fill-rule:nonzero;stroke:#000000;stroke-width:0;stroke-linecap:round;stroke-linejoin:miter;stroke-miterlimit:4;stroke-opacity:1;stroke-dasharray:none"
       d="m 327.77645,163.55465 c -1.31084,1.13974 -1.2447,3.00535 -0.46861,3.69563 2.53779,2.25719 0.35104,4.85488 1.1266,6.81904 0.70198,1.7778 1.78318,3.93676 3.55851,4.34635 1.15379,0.26619 2.48319,0.0327 3.38005,-0.77024 0.61817,-0.55341 0.99157,-2.79759 0.82687,-3.52788 -0.39183,-1.73748 -0.97225,-3.38664 -2.13352,-5.26709 -0.15315,-0.24799 -0.0232,-0.55062 0.27501,-0.51523 1.07206,0.12728 2.18282,0.23632 3.16928,0.743 1.71407,0.88037 3.16866,2.16669 4.37741,3.65655 2.02726,2.49875 3.49576,5.36835 5.22723,8.05943 1.44224,2.32343 3.109,4.60176 5.41652,6.12864 0.74698,0.48319 1.53401,0.97661 2.40884,1.15431 0.40047,-0.16386 0.71051,-0.54401 1.07623,-0.78953 3.03255,-2.42702 6.10492,-4.80519 9.10689,-7.26992 0.22726,-0.1515 0.40189,-0.46989 0.16724,-0.69799 -1.4243,-1.60517 -3.19401,-2.85395 -4.91712,-4.11364 -4.45458,-3.12277 -9.14986,-5.89927 -14.01587,-8.32486 -2.67485,-1.28152 -5.39038,-2.56627 -8.29894,-3.22174 -1.70535,-0.38432 -3.58922,-0.41906 -5.16067,0.4708 -0.30897,0.17505 -0.68638,-0.0937 -1.0107,0.007 -0.25485,0.0791 -0.55494,-0.15699 -0.41488,-0.36629 0.21679,-0.32388 -0.095,-0.52278 -0.44197,-0.52843 -1.35131,-0.0221 -1.60722,-1.1202 -3.2544,0.31198 z"
       id="path10034-3-6-4-6-6-6"
       inkscape:connector-curvature="0"
       sodipodi:nodetypes="ssssssssssccccccccssssss" />
    <path
       style="fill:#4d4d4d;fill-opacity:1;fill-rule:nonzero;stroke:#000000;stroke-width:0;stroke-linecap:round;stroke-linejoin:miter;stroke-miterlimit:4;stroke-opacity:1;stroke-dasharray:none"
       d="m 359.65061,184.04407 c -1.29365,1.2016 -4.8048,1.91691 -5.724,3.44478 0.0908,0.94705 3.27476,0.60419 3.88812,0.61666 3.02494,-0.36757 6.12363,-2.0411 7.6513,-4.69109 0.46417,-1.13509 0.5278,-2.75969 -0.0244,-3.88289 -1.46518,0.6847 -2.72573,2.21859 -4.10118,3.16187 -0.5663,0.44647 -1.12949,0.89679 -1.69005,1.35047 z"
       id="path10036-7-8-2-3-8-3"
       inkscape:connector-curvature="0"
       sodipodi:nodetypes="cccccccc" />
    <path
       style="fill:#de8787;fill-opacity:1;fill-rule:nonzero;stroke:#2a1431;stroke-width:0;stroke-linecap:round;stroke-linejoin:miter;stroke-miterlimit:4;stroke-opacity:1;stroke-dasharray:none"
       d="m 303.92253,184.18918 c -2.80212,1.96468 -5.15917,4.95386 -5.63289,8.41466 0.34933,0.90278 1.67003,0.23073 2.4571,0.32868 2.59813,-0.32739 5.16945,-1.05026 7.56174,-2.09436 0.66843,-0.6403 -0.42562,-0.92802 -0.7358,-1.35501 -0.79982,-1.05473 -0.30859,-2.69154 -1.55241,-3.50234 -0.68782,-0.56502 -1.1153,-1.3861 -1.83646,-1.87189 l -0.16899,0.0519 -0.0923,0.0283 z"
       id="path13589"
       inkscape:connector-curvature="0" />
    <path
       style="fill:#4d4d4d;fill-opacity:1;fill-rule:nonzero;stroke:#2a1431;stroke-width:0;stroke-linecap:round;stroke-linejoin:miter;stroke-miterlimit:4;stroke-opacity:1;stroke-dasharray:none"
       d="m 302.94848,181.26467 c -1.35778,0.5161 -2.2798,1.85973 -3.35426,2.80569 -1.65504,1.85148 -3.77323,3.88687 -3.76011,6.56722 0.0157,0.62541 0.37898,1.92177 1.23321,1.4503 0.69659,-0.93957 0.65086,-2.27171 1.34889,-3.24703 1.19392,-2.31551 3.04322,-4.16112 5.09584,-5.71415 0.35297,-0.5198 0.0726,-1.78583 -0.56357,-1.86203 z"
       id="path13591"
       inkscape:connector-curvature="0" />
    <path
       style="fill:#d7d7d7;fill-opacity:1;fill-rule:nonzero;stroke:#2a1431;stroke-width:0;stroke-linecap:round;stroke-linejoin:miter;stroke-miterlimit:4;stroke-opacity:1;stroke-dasharray:none"
       d="m 323.64086,160.37214 c -0.87567,0.30087 0.10843,1.1103 -0.0756,1.70235 -0.0365,0.92709 -1.35112,0.84177 -1.9838,1.05299 -1.09686,0.048 -2.4623,0.62191 -3.41972,-0.0911 -0.67396,-0.62615 0.30201,-1.64888 -0.39882,-2.19718 -2.48294,0.40167 -4.90907,1.43653 -6.98329,2.88239 -0.64795,1.04815 1.81999,1.30587 1.19129,2.4317 -0.36077,1.32624 -1.3873,2.68603 -0.58634,4.064 0.54665,1.21823 0.8783,2.6768 0.0442,3.8535 -0.81648,1.1374 -1.88245,2.68476 -3.46875,2.60171 -0.93124,-0.0685 -1.68616,-0.9157 -2.61091,-0.82946 -0.89614,1.38859 -1.04085,3.20979 -0.90478,4.83881 0.12771,0.83414 1.11765,0.49995 1.40788,-0.0526 0.6544,-0.54928 1.05441,-1.42936 1.62618,-1.98385 1.32276,0.14636 2.5981,1.51823 3.93947,0.6372 0.88431,-0.40342 2.24591,-0.18956 2.73106,0.69585 0.34626,1.3218 -0.41448,3.26624 1.03586,4.0885 2.11359,0.87147 4.53789,-0.0984 6.65369,0.70329 0.67853,0.38184 1.68718,1.17538 1.00816,2.00439 -0.23267,0.57777 -1.36304,1.39578 -0.54495,1.92643 2.44217,0.48173 5.05238,0.38018 7.34553,-0.64454 0.24662,0.0668 0.75444,0.97358 0.13256,1.03851 -3.4508,1.54884 -7.36135,0.58286 -10.9734,0.29851 -0.98345,0.0146 -2.0688,-0.47632 -3.0077,-0.12033 -0.25951,0.9302 0.73385,1.69118 1.08273,2.49753 2.19594,3.68959 5.62558,6.70324 9.72352,8.06465 0.5383,0.4256 1.35761,0.0882 1.17736,-0.64339 -0.18059,-0.56198 0.82507,-1.1318 0.915,-0.37498 0.34974,1.22602 0.0779,2.5716 0.45442,3.76533 0.80334,0.18468 1.92458,-0.30564 2.41862,0.64605 0.74983,0.78302 -0.36615,1.78785 -1.20502,1.68488 -0.92343,0.13566 -1.86044,-0.0158 -2.75372,-0.0806 -0.89833,0.54002 -1.68986,1.42128 -2.14253,2.36532 0.15066,1.16248 1.71878,1.26849 2.64051,1.38663 2.25292,0.13329 4.65118,-1.13984 5.27399,-3.41513 0.994,-2.0938 1.34405,-4.45049 2.3581,-6.52189 0.25511,-0.49197 0.98899,0.0361 0.70695,0.49907 -0.0425,0.87129 -0.79954,1.8237 -0.3794,2.64787 2.69465,0.754 5.55495,0.87862 8.3285,1.26359 1.56102,0.077 3.21779,0.54969 4.7396,0.11697 0.13494,-0.91694 -1.14282,-1.31168 -1.58104,-2.06248 -2.16996,-2.63036 -3.69854,-6.06771 -3.39432,-9.53957 0.49969,-2.7987 1.71045,-5.50526 3.75444,-7.53488 0.1574,-0.90834 -0.93621,-1.57116 -1.24875,-2.40607 -2.31309,-3.42005 -4.0175,-7.38598 -7.17468,-10.16354 -1.39056,-1.12489 -3.05983,-2.39236 -4.95348,-2.1268 -0.67183,0.63117 0.36544,1.46535 0.47545,2.18204 0.68362,1.62373 1.22985,3.51807 0.41563,5.22232 -0.56742,1.56386 -2.76127,1.63982 -4.05018,1.02829 -1.37622,-0.98431 -2.2621,-2.63634 -2.67699,-4.26136 -0.14727,-1.93606 0.71864,-4.12881 -0.62525,-5.83632 -0.68458,-0.77813 -1.34621,-1.86469 -0.74002,-2.89269 0.46456,-0.93955 1.46611,-1.82348 2.57106,-1.60869 0.74729,-0.60322 -0.60051,-1.15462 -1.1071,-1.45082 -1.60821,-0.76419 -3.38488,-1.22613 -5.1613,-1.35235 z m -2.83325,6.75573 c 1.11608,-0.17112 2.10411,0.41781 2.86629,1.15888 0.98972,0.43748 2.16489,0.6666 2.76754,1.69522 1.23853,2.39579 0.0552,5.50732 -2.12094,6.93918 -0.66959,0.60852 -0.17564,1.66084 -0.91469,2.25586 -1.81768,2.28795 -6.24786,0.48977 -5.96404,-2.40506 0.41151,-1.57526 1.04313,-3.11145 0.98147,-4.77972 0.20892,-1.27256 -0.10013,-2.70404 0.46185,-3.87714 0.42882,-0.62836 1.20951,-0.90181 1.92252,-0.98722 z m 4.05936,25.29274 c 1.16419,-0.0588 2.10142,0.79033 3.13021,1.12828 0.5711,0.4668 0.7867,1.54159 -0.0871,1.79701 -1.00103,0.4763 -2.23778,1.18862 -3.25087,0.34966 -0.8397,-0.54153 -1.98257,-1.85941 -0.99895,-2.7683 0.31621,-0.32619 0.7582,-0.48453 1.20674,-0.50665 z"
       id="path13593"
       inkscape:connector-curvature="0" />
    <path
       style="fill:#d7d7d7;fill-opacity:1;fill-rule:nonzero;stroke:#2a1431;stroke-width:0;stroke-linecap:round;stroke-linejoin:miter;stroke-miterlimit:4;stroke-opacity:1;stroke-dasharray:none"
       d="m 369.80522,177.02839 c -0.79328,0.71567 -1.56189,1.53541 -2.67695,1.73296 -1.33989,0.22475 -0.45121,1.75577 -0.56301,2.67664 0.1866,1.96945 -1.25749,3.43367 -2.28912,4.91785 -0.45856,0.69913 0.4535,1.24819 1.05351,0.87897 2.04323,-0.59875 4.10864,0.32924 5.98422,1.0219 0.75362,-0.34019 0.32066,-1.5587 0.4408,-2.29796 -0.1974,-2.91023 -0.4189,-5.89143 -1.31055,-8.6711 -0.10345,-0.2397 -0.39255,-0.39442 -0.6389,-0.25926 z"
       id="path13597"
       inkscape:connector-curvature="0" />
    <path
       style="fill:#d7d7d7;fill-opacity:1;fill-rule:nonzero;stroke:#2a1431;stroke-width:0;stroke-linecap:round;stroke-linejoin:miter;stroke-miterlimit:4;stroke-opacity:1;stroke-dasharray:none"
       d="m 348.36963,162.25649 c -1.87923,0.31879 -3.80177,0.55271 -5.60871,1.16085 -0.66408,0.73693 0.66553,1.15994 1.17077,1.42041 2.48628,0.92501 4.6933,2.50064 7.14306,3.45993 0.95649,-0.10777 0.25681,-1.18914 -0.11105,-1.57074 -0.92219,-1.26408 -1.015,-2.91542 -0.92138,-4.40227 -0.2932,-0.55144 -1.18571,-0.0276 -1.67267,-0.0682 z"
       id="path13599"
       inkscape:connector-curvature="0" />
    <path
       style="fill:#d7d7d7;fill-opacity:1;fill-rule:nonzero;stroke:#2a1431;stroke-width:0;stroke-linecap:round;stroke-linejoin:miter;stroke-miterlimit:4;stroke-opacity:1;stroke-dasharray:none"
       d="m 353.42629,167.68046 c -0.62983,0.20152 -2.07049,-0.24049 -2.0225,0.77124 1.17941,1.05764 2.76351,1.63271 4.05711,2.57198 1.70604,0.99505 3.31402,2.16406 5.01,3.15903 0.9056,-0.0626 0.56977,-1.44329 0.6793,-2.10506 0.0815,-2.1086 -1.85225,-3.66728 -3.6004,-4.46127 -1.35756,-0.21984 -2.75733,0.0215 -4.12351,0.0641 z"
       id="path13603"
       inkscape:connector-curvature="0" />
    <path
       style="fill:#d7d7d7;fill-opacity:1;fill-rule:nonzero;stroke:#2a1431;stroke-width:0;stroke-linecap:round;stroke-linejoin:miter;stroke-miterlimit:4;stroke-opacity:1;stroke-dasharray:none"
       d="m 55.211826,55.321712 c -1.552615,1.350489 -3.713384,1.57312 -5.610435,2.156522 -0.602347,0.246028 -1.330418,0.17515 -1.881739,0.504348 -0.610104,0.723986 0.794413,1.571185 0.135652,2.285217 -0.242048,0.239177 -0.652972,0.624738 -0.987826,0.518261 -0.524703,-0.737544 0.09087,-1.828314 -0.50087,-2.511304 -0.721308,-0.235149 -1.411594,0.391298 -2.055652,0.646956 -1.178007,0.480361 -2.057023,1.755523 -1.73913,3.046957 0.263447,1.079489 1.585396,1.166378 2.48,1.363478 1.083102,0.08933 2.250675,-0.0523 3.220869,-0.53913 0.430461,-0.543202 0.220708,-1.356405 0.706087,-1.899131 1.179762,-1.78123 3.492008,-2.105586 5.330497,-2.910184 1.510252,-0.620211 3.09445,-1.150173 4.474327,-2.01588 0.480935,-0.779823 -0.769974,-0.717331 -1.251572,-0.690897 -0.765485,0.03712 -1.580393,-0.144013 -2.320208,0.04479 z"
       id="path14677"
       inkscape:connector-curvature="0"
       transform="translate(293.88257,149.22342)" />
    <path
       style="fill:#d7d7d7;fill-opacity:1;fill-rule:nonzero;stroke:#2a1431;stroke-width:0;stroke-linecap:round;stroke-linejoin:miter;stroke-miterlimit:4;stroke-opacity:1;stroke-dasharray:none"
       d="m 70.137043,37.290408 c -0.863745,0.302346 -1.535823,1.015777 -2.398684,1.350646 -2.205571,1.077575 -4.786939,1.544049 -7.203832,0.944315 -0.900838,-0.106917 -1.827577,-0.04223 -2.620092,-0.552353 -0.776599,-0.380307 -1.941086,-0.877791 -2.573914,0.0035 -0.624655,0.796305 -0.575116,1.946707 0.08759,2.707244 0.132616,0.30858 0.798891,0.767036 0.31241,1.049278 -0.43884,0.534204 -1.295263,0.441839 -1.711304,-0.05565 -0.403824,-1.361672 -0.229641,-2.889138 -0.646956,-4.243478 -0.559868,-0.551365 -1.055273,0.34226 -1.19612,0.816387 -0.744882,1.931028 -1.283163,4.106112 -0.753785,6.158437 0.87608,2.414079 1.847987,4.941542 3.880339,6.635611 1.617757,1.398696 3.575439,2.509211 5.693913,2.897391 1.661015,0.108599 3.366663,0.203076 5.008696,-0.104348 1.528574,-0.332826 2.986515,-0.916496 4.50087,-1.28 0.514034,-0.04694 0.588459,0.750132 0.13913,0.883479 -2.341931,0.895351 -4.811735,1.565336 -7.325217,1.666087 -1.076165,0.06014 -2.239419,-0.303501 -3.209909,0.33686 -2.793888,1.46889 -5.765514,2.493844 -8.689222,3.638792 -0.946315,0.421072 -2.151489,1.332037 -1.829565,2.507826 0.553692,1.070286 1.747361,1.633933 2.796522,2.107826 2.025927,0.450793 4.127367,-0.04118 6.115739,-0.46508 0.866411,-0.289896 1.871053,-0.333346 2.639043,-0.828833 0.350735,-0.806374 -0.906735,-1.145185 -0.900869,-1.881739 0.182516,-0.689201 1.10506,-0.525499 1.648474,-0.622668 1.795002,-0.179582 3.701903,0.122806 5.408917,-0.566897 1.381207,-0.891582 2.258581,-2.354951 3.526997,-3.391837 0.583869,-0.42126 1.220746,-1.155012 2.006916,-1.039468 0.260471,0.342068 0.886576,0.533192 1.071305,0.01391 0.579795,-1.628139 1.150016,-3.281487 1.49913,-4.973913 -0.125705,-0.696714 -0.844065,-0.291094 -1.245217,-0.125217 -1.273437,0.2506 -2.53438,-0.623274 -3.210435,-1.638261 0.04106,-1.12253 0.660621,-2.258647 0.139206,-3.379877 -0.535876,-1.98972 -1.617038,-3.866619 -1.725293,-5.94534 0.07111,-0.801263 0.787249,-1.274553 1.349565,-1.746087 0.292182,-0.389967 -0.143398,-0.946451 -0.584348,-0.876522 z m -8.285217,9.913043 c -0.28668,0.754646 -0.48377,2.061281 0.504348,2.382609 1.16502,0.181424 2.103155,-0.798936 3.058946,-1.307191 0.41549,-0.173366 0.810729,-0.632541 1.257575,-0.658026 0.577969,0.148667 0.431111,0.918884 0.483479,1.370434 -0.03103,1.331022 -0.985801,2.620578 -2.326957,2.90087 -1.086731,0.338763 -2.318777,0.484801 -3.436522,0.187826 -1.247611,-0.516257 -2.210394,-2.046527 -1.634782,-3.36 0.456803,-0.729036 1.330956,-1.333821 2.093913,-1.516522 z"
       id="path14679"
       inkscape:connector-curvature="0"
       transform="translate(293.88257,149.22342)" />
  </g>
</svg>
