<?xml version="1.0" encoding="UTF-8" standalone="no"?>
<!-- Created with Inkscape (http://www.inkscape.org/) -->

<svg
   xmlns:dc="http://purl.org/dc/elements/1.1/"
   xmlns:cc="http://creativecommons.org/ns#"
   xmlns:rdf="http://www.w3.org/1999/02/22-rdf-syntax-ns#"
   xmlns:svg="http://www.w3.org/2000/svg"
   xmlns="http://www.w3.org/2000/svg"
   xmlns:sodipodi="http://sodipodi.sourceforge.net/DTD/sodipodi-0.dtd"
   xmlns:inkscape="http://www.inkscape.org/namespaces/inkscape"
   width="88"
   height="75"
   id="svg10388"
   version="1.1"
   inkscape:version="0.48.5 r10040"
   sodipodi:docname="bunny-jump3.svg"
   inkscape:export-filename="/home/rhiannon/caveexplorer/lua-cave-gen/assets/bunny-jump3.png"
   inkscape:export-xdpi="90"
   inkscape:export-ydpi="90">
  <defs
     id="defs10390" />
  <sodipodi:namedview
     id="base"
     pagecolor="#ffffff"
     bordercolor="#666666"
     borderopacity="1.0"
     inkscape:pageopacity="0.0"
     inkscape:pageshadow="2"
     inkscape:zoom="2.8284271"
     inkscape:cx="123.35192"
     inkscape:cy="46.447184"
     inkscape:document-units="px"
     inkscape:current-layer="layer1"
     showgrid="false"
     fit-margin-top="0"
     fit-margin-left="0"
     fit-margin-right="0"
     fit-margin-bottom="0"
     inkscape:window-width="1278"
     inkscape:window-height="781"
     inkscape:window-x="0"
     inkscape:window-y="17"
     inkscape:window-maximized="0"
     showguides="true"
     inkscape:guide-bbox="true">
    <sodipodi:guide
       orientation="1,0"
       position="-9,3.625"
       id="guide12968" />
  </sodipodi:namedview>
  <metadata
     id="metadata10393">
    <rdf:RDF>
      <cc:Work
         rdf:about="">
        <dc:format>image/svg+xml</dc:format>
        <dc:type
           rdf:resource="http://purl.org/dc/dcmitype/StillImage" />
        <dc:title></dc:title>
      </cc:Work>
    </rdf:RDF>
  </metadata>
  <g
     inkscape:label="Layer 1"
     inkscape:groupmode="layer"
     id="layer1"
     transform="translate(-293.88257,-149.22342)">
    <path
       style="fill:#ffffff;fill-opacity:0;fill-rule:nonzero;stroke:#000000;stroke-width:1.70477462;stroke-linecap:butt;stroke-linejoin:miter;stroke-miterlimit:4;stroke-opacity:1;stroke-dasharray:none"
       d="m 334.07169,164.00476 c 0,0 -0.86782,-1.92961 -4.95235,-3.81779 -4.42483,-2.0455 -11.565,-1.23346 -15.23478,0.54364 -7.05339,3.41531 -4.173,7.11284 -6.21389,9.81822 -1.99859,2.64932 -3.37717,4.69416 -3.46761,8.01428 -0.0689,2.52914 1.70508,6.06792 5.11906,7.19445 5.81674,1.91944 8.61052,1.79716 12.88957,2.71197 3.37581,0.72171 5.71318,0.54027 7.98243,-0.54622"
       id="path9922-1-4-5"
       inkscape:connector-curvature="0"
       sodipodi:nodetypes="cssssssc" />
    <path
       style="fill:#000000;fill-opacity:1;fill-rule:nonzero;stroke:#000000;stroke-width:1.70477462;stroke-linecap:butt;stroke-linejoin:miter;stroke-miterlimit:4;stroke-opacity:1;stroke-dasharray:none"
       d="m 309.5415,166.60193 c 0.83411,1.77717 -1.87027,6.30252 -2.39419,6.11057 -0.92589,-0.33919 -1.58488,-1.25637 -0.66992,-3.83926 0.72367,-2.04296 2.5799,-3.30301 3.06413,-2.27132 z"
       id="path9924-5-2-5"
       inkscape:connector-curvature="0"
       sodipodi:nodetypes="ssss" />
    <path
       sodipodi:type="arc"
       style="fill:#ffffff;fill-opacity:1;fill-rule:nonzero;stroke:#ffffff;stroke-width:7.89696932;stroke-linecap:butt;stroke-linejoin:miter;stroke-miterlimit:4;stroke-opacity:1;stroke-dasharray:none"
       id="path9926-2-1-0"
       sodipodi:cx="246.53337"
       sodipodi:cy="1104.5435"
       sodipodi:rx="3.8544929"
       sodipodi:ry="4.1628523"
       d="m 250.38786,1104.5435 a 3.8544929,4.1628523 0 1 1 -7.70898,0 3.8544929,4.1628523 0 1 1 7.70898,0 z"
       transform="matrix(0.0914146,0.05214054,-0.1015769,0.17905566,398.31408,-42.607351)"
       inkscape:transform-center-x="4.2447684"
       inkscape:transform-center-y="0.4997621" />
    <path
       sodipodi:type="arc"
       style="fill:#ffffff;fill-opacity:1;fill-rule:nonzero;stroke:#ffffff;stroke-width:16.73293495;stroke-linecap:butt;stroke-linejoin:miter;stroke-miterlimit:4;stroke-opacity:1;stroke-dasharray:none"
       id="path9926-1-7-1-1"
       sodipodi:cx="246.53337"
       sodipodi:cy="1104.5435"
       sodipodi:rx="3.8544929"
       sodipodi:ry="4.1628523"
       d="m 250.38786,1104.5435 a 3.8544929,4.1628523 0 1 1 -7.70898,0 3.8544929,4.1628523 0 1 1 7.70898,0 z"
       transform="matrix(0.02308098,0.01933898,-0.02758794,0.06980067,332.85773,88.50727)"
       inkscape:transform-center-x="1.0893764"
       inkscape:transform-center-y="0.12830452" />
    <path
       style="fill:#000000;fill-opacity:1;fill-rule:nonzero;stroke:#000000;stroke-width:1.16234636;stroke-linecap:butt;stroke-linejoin:miter;stroke-miterlimit:4;stroke-opacity:1"
       d="m 326.93695,173.7363 c -1.08827,2.12789 -3.22373,3.19148 -4.76966,2.37567 -1.54592,-0.81586 -1.91696,-3.20217 -0.82866,-5.32997 1.08824,-2.12786 3.22368,-3.19148 4.76963,-2.37566 1.54595,0.81585 1.91697,3.20214 0.82877,5.32995 z"
       id="path9946-1-9-0"
       inkscape:connector-curvature="0" />
    <path
       sodipodi:type="arc"
       style="fill:#ffffff;fill-opacity:1;fill-rule:nonzero;stroke:#ffffff;stroke-width:6.14886189;stroke-linecap:butt;stroke-linejoin:miter;stroke-miterlimit:4;stroke-opacity:1;stroke-dasharray:none"
       id="path9949-4-8-0"
       sodipodi:cx="217.08504"
       sodipodi:cy="1121.1949"
       sodipodi:rx="5.5504699"
       sodipodi:ry="8.4798841"
       d="m 222.63551,1121.1949 a 5.5504699,8.4798841 0 1 1 -11.10094,0 5.5504699,8.4798841 0 1 1 11.10094,0 z"
       transform="matrix(0.16721847,0.08528876,-0.08408207,0.17081095,381.98633,-39.151092)" />
    <path
       sodipodi:type="arc"
       style="fill:#ffffff;fill-opacity:1;fill-rule:nonzero;stroke:#ffffff;stroke-width:6.19660568;stroke-linecap:butt;stroke-linejoin:miter;stroke-miterlimit:4;stroke-opacity:1;stroke-dasharray:none"
       id="path9926-1-4-2-7-6"
       sodipodi:cx="246.53337"
       sodipodi:cy="1104.5435"
       sodipodi:rx="3.8544929"
       sodipodi:ry="4.1628523"
       d="m 250.38786,1104.5435 a 3.8544929,4.1628523 0 1 1 -7.70898,0 3.8544929,4.1628523 0 1 1 7.70898,0 z"
       transform="matrix(0.09363971,0.01353337,-0.04574434,0.16039043,352.29364,-6.8441056)"
       inkscape:transform-center-x="3.6010486"
       inkscape:transform-center-y="1.6386612" />
    <path
       style="fill:#ffffff;fill-opacity:1;fill-rule:nonzero;stroke:#4d4d4d;stroke-width:1.16234636;stroke-linecap:round;stroke-linejoin:miter;stroke-miterlimit:4;stroke-opacity:1;stroke-dasharray:none"
       d="m 307.60469,184.59984 c -0.76559,1.55542 -0.46263,2.64574 0.35524,3.51196 0.90725,0.1096 1.80996,0.5021 3.47876,-0.0763 -0.0534,-1.14804 0.17904,-1.64502 0.44379,-2.42189 -0.76939,-0.66369 -2.13303,-0.30368 -2.28996,-2.0224 -0.45471,0.55517 -1.27873,1.0571 -1.98783,1.00859 z"
       id="path9973-5-7-5"
       inkscape:connector-curvature="0"
       sodipodi:nodetypes="cccccc" />
    <path
       style="fill:#ffffff;fill-opacity:1;fill-rule:nonzero;stroke:#4d4d4d;stroke-width:0.77489758;stroke-linecap:round;stroke-linejoin:miter;stroke-miterlimit:4;stroke-opacity:1;stroke-dasharray:none"
       d="m 309.37169,184.31251 c -0.0569,0.63292 -0.39456,1.52407 -0.1041,2.49818"
       id="path9975-2-8-5"
       inkscape:connector-curvature="0"
       sodipodi:nodetypes="cc" />
    <path
       style="fill:#ffffff;fill-opacity:0;fill-rule:nonzero;stroke:#000000;stroke-width:1.16234636;stroke-linecap:round;stroke-linejoin:miter;stroke-miterlimit:4;stroke-opacity:1;stroke-dasharray:none"
       d="m 306.42097,183.90326 c 0.47427,1.08356 1.90773,0.76582 3.109,-0.19882 l 0.27815,-2.6332"
       id="path9969-4-7-0"
       inkscape:connector-curvature="0"
       sodipodi:nodetypes="ccc" />
    <path
       style="fill:#ffffff;fill-opacity:1;fill-rule:nonzero;stroke:#000000;stroke-width:1.16234636;stroke-linecap:round;stroke-linejoin:miter;stroke-miterlimit:4;stroke-opacity:1;stroke-dasharray:none"
       d="m 309.56642,183.70003 c 2.31686,4.85407 5.41125,3.50304 7.39283,2.49965"
       id="path9971-3-6-8"
       inkscape:connector-curvature="0"
       sodipodi:nodetypes="cc" />
    <path
       style="fill:#ffffff;fill-opacity:1;fill-rule:nonzero;stroke:#000000;stroke-width:1.16234636;stroke-linecap:round;stroke-linejoin:miter;stroke-miterlimit:4;stroke-opacity:1;stroke-dasharray:none"
       d="m 307.96305,179.21533 c 0.29962,0.81287 0.91751,1.24356 1.76264,1.7134 1.08359,-0.037 2.15617,-0.5663 2.60635,-1.16012"
       id="path9977-6-2-7"
       inkscape:connector-curvature="0"
       sodipodi:nodetypes="ccc" />
    <path
       style="fill:#ffffff;fill-opacity:0;fill-rule:nonzero;stroke:#000000;stroke-width:1.70477462;stroke-linecap:round;stroke-linejoin:miter;stroke-miterlimit:4;stroke-opacity:1;stroke-dasharray:none"
       d="m 304.21563,178.0251 c 0,0 -10.80372,6.66302 -8.85128,11.64126 2.02738,5.16937 18.30821,-1.73901 18.30821,-1.73901"
       id="path9981-8-5-8"
       inkscape:connector-curvature="0"
       sodipodi:nodetypes="csc" />
    <path
       style="fill:#ffffff;fill-opacity:0;fill-rule:nonzero;stroke:#000000;stroke-width:1.70477462;stroke-linecap:round;stroke-linejoin:miter;stroke-miterlimit:4;stroke-opacity:1;stroke-dasharray:none"
       d="m 304.6795,181.42531 c -1.72798,1.09363 -6.07071,3.46157 -7.30023,9.37907"
       id="path9983-5-0-1"
       inkscape:connector-curvature="0"
       sodipodi:nodetypes="cc" />
    <path
       style="fill:#ffffff;fill-opacity:0;fill-rule:nonzero;stroke:#000000;stroke-width:1.70477462;stroke-linecap:round;stroke-linejoin:miter;stroke-miterlimit:4;stroke-opacity:1;stroke-dasharray:none"
       d="m 314.37966,187.32448 c 1.14689,1.93104 2.20139,5.8094 6.3838,9.4365 3.66441,3.17789 8.51464,4.18405 13.23474,5.27997 6.0988,1.41601 13.32247,3.00726 20.72825,2.58932 2.20605,-0.0619 -3.77492,5.07797 -8.98806,6.47846 -1.34875,0.36234 -3.7363,1.47275 -2.97168,3.58254 0.30028,0.82857 1.01354,1.08709 2.13244,1.92911 3.29529,2.47983 15.79907,-4.33767 19.19265,-5.98711 3.32893,-0.91283 5.18984,-9.64002 6.83834,-14.87682 0.003,-0.009 0.007,-0.0151 0.009,-0.0233 1.08323,-2.63317 1.35868,-5.69777 1.38779,-8.53146 0.10441,-10.16484 -3.4031,-17.34961 -11.21677,-22.21683 -1.98867,-1.23879 -4.25755,-2.1331 -6.57164,-2.49068 -0.64797,-0.10011 -1.3055,-0.16283 -1.96009,-0.19556 -2.83657,-0.14174 -5.71501,0.29053 -8.51546,0.77368 -2.10873,0.36375 -7.31081,1.78039 -8.33363,1.7588"
       id="path9985-3-2-7"
       inkscape:connector-curvature="0"
       sodipodi:nodetypes="csscssscccsccscc" />
    <path
       style="fill:#ffffff;fill-opacity:1;fill-rule:nonzero;stroke:#000000;stroke-width:1.70477462;stroke-linecap:round;stroke-linejoin:miter;stroke-miterlimit:4;stroke-opacity:1;stroke-dasharray:none"
       d="m 327.66001,198.41348 c 0,0 0.11239,1.77121 0.035,2.90657 -0.0679,0.99512 -1.00634,1.59537 -1.57208,2.48232 -0.6739,1.05647 -2.18788,1.69955 -2.29258,2.8832 -0.0306,0.3445 0.34658,0.65537 0.60006,0.95069 0.77007,0.89728 3.74189,1.49582 6.03143,0.38261 2.28113,-1.10909 2.6825,-3.61393 3.53567,-5.38637 0.46508,-0.96617 1.40887,-3.81897 1.40887,-3.81897"
       id="path9989-2-5-5"
       inkscape:connector-curvature="0"
       sodipodi:nodetypes="cssssssc" />
    <path
       style="fill:#ffffff;fill-opacity:0;fill-rule:nonzero;stroke:#000000;stroke-width:1.70477462;stroke-linecap:round;stroke-linejoin:miter;stroke-miterlimit:4;stroke-opacity:1;stroke-dasharray:none"
       d="m 321.67294,197.4839 c 0,0 0.57449,1.13264 0.49709,2.26801 -0.0679,0.99512 -0.52967,1.51197 -1.09546,2.3989 -0.67389,1.05648 -2.83809,1.37021 -2.94281,2.55388 -0.0306,0.34451 0.3466,0.65538 0.60007,0.95069 0.77007,0.89728 2.19261,1.61845 4.48214,0.50523"
       id="path9989-3-1-0-5"
       inkscape:connector-curvature="0"
       sodipodi:nodetypes="cssssc" />
    <path
       style="fill:#ffffff;fill-opacity:1;fill-rule:nonzero;stroke:#000000;stroke-width:1.70477462;stroke-linecap:round;stroke-linejoin:miter;stroke-miterlimit:4;stroke-opacity:1;stroke-dasharray:none"
       d="m 363.49623,204.69425 c 0,0 -3.67292,1.09697 -5.56864,1.20877 -1.58932,0.0937 -3.24288,0.0442 -4.75385,-0.45781 -1.86087,-0.61821 -3.60234,-1.70721 -5.03143,-3.05274 -1.03641,-0.97582 -1.87464,-2.20158 -2.43344,-3.51276 -0.88583,-2.07854 -1.84865,-4.44117 -1.34808,-6.64609 1.78494,-7.8622 6.65759,-8.92421 9.90717,-9.52476 5.33957,-0.98682 10.63475,1.29947 10.63475,1.29947"
       id="path10011-1-7-9"
       inkscape:connector-curvature="0"
       sodipodi:nodetypes="cssssssc" />
    <path
       style="fill:#000000;fill-opacity:0;fill-rule:nonzero;stroke:#000000;stroke-width:1.70477462;stroke-linecap:round;stroke-linejoin:miter;stroke-miterlimit:4;stroke-opacity:1;stroke-dasharray:none"
       d="m 347.6366,204.56787 c 0.39378,0.97483 -1.77101,1.71304 -4.41625,2.9722 -1.6062,0.76457 -3.29085,1.30743 -5.74567,2.88218 -1.50216,0.96362 -1.42731,3.03562 -1.02917,3.67555 0.46084,0.74068 1.72366,1.04015 2.56709,1.25628 2.15837,0.5531 3.81697,-0.41667 3.81697,-0.41667"
       id="path10014-9-0-1"
       inkscape:connector-curvature="0"
       sodipodi:nodetypes="cssssc" />
    <path
       style="fill:#000000;fill-opacity:0;fill-rule:nonzero;stroke:#000000;stroke-width:1.70477462;stroke-linecap:round;stroke-linejoin:miter;stroke-miterlimit:4;stroke-opacity:1;stroke-dasharray:none"
       d="m 369.39232,201.31161 c -0.17842,0.34493 5.73951,-2.00936 9.37934,-6.6656 1.24048,-1.58694 1.11939,-4.20138 0.18283,-4.67378 -0.93653,-0.47241 -2.80489,1.07954 -2.80489,1.07954 0,0 3.10841,-1.9188 3.57562,-3.26613 0.46719,-1.34733 -0.01,-2.78555 -0.60798,-3.67128 -0.598,-0.88572 -1.15567,-1.66275 -2.29594,-1.40313 -1.14029,0.25958 -2.3356,3.62423 -2.3356,3.62423 0,0 0.96353,-2.15048 0.62315,-3.17399 -0.18791,-0.5651 -0.65646,-1.13258 -1.32656,-1.20189 -0.67012,-0.0693 -1.45069,0.74628 -1.45069,0.74628"
       id="path10020-6-2-8"
       inkscape:connector-curvature="0"
       sodipodi:nodetypes="csscssscssc" />
    <path
       style="fill:#000000;fill-opacity:0;fill-rule:nonzero;stroke:#502d16;stroke-width:0;stroke-linecap:round;stroke-linejoin:miter;stroke-miterlimit:4;stroke-opacity:1;stroke-dasharray:none"
       d="m 331.95792,162.57172 c -0.22869,0.96514 -0.41844,2.01587 -0.20119,2.99363 0.94351,0.71017 2.52199,0.25011 3.26389,1.31847 0.40861,0.60546 0.80035,1.72204 -0.007,2.2121 -0.438,0.36531 -1.02535,0.22355 -1.51599,0.35599 -0.11499,0.4862 0.46859,0.86725 0.58197,1.32408 1.58893,3.45919 1.02348,7.39134 0.35032,11.00839 -0.64404,3.86146 -1.7445,7.78252 -1.17099,11.72077 0.27417,1.795 0.92295,3.62535 2.39302,4.78047 2.29426,1.89563 5.43512,2.99942 8.40755,2.40416 1.62384,-0.34719 3.27385,-1.50908 3.5845,-3.2277 -0.062,-3.33544 -0.97396,-6.58234 -1.7715,-9.80213 -1.71467,-6.185 -3.66424,-12.37487 -6.74009,-18.02661 -1.10625,-1.93429 -2.47959,-4.04336 -4.69981,-4.7577 -0.54056,-0.18961 -1.30876,0.0581 -1.72359,-0.38202 -0.23109,-0.40274 0.31693,-0.60504 0.39542,-0.91376 -0.23629,-0.4379 -0.72553,-0.74035 -1.09247,-1.05303 l -0.0544,0.0449 z"
       id="path10024-4-6-0"
       inkscape:connector-curvature="0" />
    <path
       style="fill:#4d4d4d;fill-opacity:1;fill-rule:nonzero;stroke:#000000;stroke-width:0;stroke-linecap:round;stroke-linejoin:miter;stroke-miterlimit:4;stroke-opacity:1;stroke-dasharray:none"
       d="m 352.67202,162.69707 c -0.50485,0.0311 -1.09864,-0.16817 -1.54784,0.12143 -0.25383,0.65134 -0.14924,1.40226 -0.212,2.09277 -0.0504,1.18412 0.40311,2.37517 1.14427,3.28465 0.90528,1.04347 2.42742,0.79857 3.63636,0.64686 0.85432,-0.0866 1.74497,-0.0489 2.58731,0.0701 1.46894,0.7444 2.93002,1.9101 3.32455,3.58153 0.0697,1.26066 -0.33889,2.49338 -0.30456,3.74912 0.15748,1.15798 0.95544,2.11344 1.75884,2.90615 1.23482,1.17475 2.99111,1.89009 4.69662,1.51342 0.9968,-0.18896 2.07542,-0.66291 2.46454,-1.67906 0.19295,-0.58533 0.68186,-1.21642 0.31247,-1.82569 -1.41373,-4.28012 -4.23481,-8.02454 -7.87264,-10.64619 -2.76801,-2.06159 -6.03634,-3.56241 -9.51308,-3.78391 -0.15804,-0.0149 -0.31642,-0.0228 -0.47497,-0.03 z"
       id="path10044-6-0-5"
       inkscape:connector-curvature="0" />
    <path
       style="fill:#4d4d4d;fill-opacity:1;fill-rule:nonzero;stroke:#000000;stroke-width:0;stroke-linecap:round;stroke-linejoin:miter;stroke-miterlimit:4;stroke-opacity:1;stroke-dasharray:none"
       d="m 311.58534,162.62074 c -1.01423,0.80859 -1.93389,1.91133 -2.20241,3.19113 1.05916,0.90562 0.68715,2.44925 0.29414,3.58404 -0.52182,1.28672 -1.1062,2.64138 -2.14378,3.57472 -0.37169,0.40547 -0.90405,-0.31961 -1.21309,0.19227 -0.23464,0.32748 -0.72874,0.89489 -0.14946,1.15716 1.06787,0.6873 2.39999,1.70031 3.72336,1.01973 1.50837,-0.84607 2.81237,-2.2517 3.22888,-3.96474 0.43824,-1.58544 -1.29439,-3.03169 -0.49931,-4.5844 0.32396,-0.90917 1.23737,-1.81281 0.88628,-2.83973 -0.39993,-0.66983 -1.1587,-1.12321 -1.86767,-1.3611 l -0.0571,0.031 z"
       id="path10078-8-2-4"
       inkscape:connector-curvature="0" />
    <path
       style="fill:#4d4d4d;fill-opacity:1;fill-rule:nonzero;stroke:#000000;stroke-width:0;stroke-linecap:round;stroke-linejoin:miter;stroke-miterlimit:4;stroke-opacity:1;stroke-dasharray:none"
       d="m 322.1973,165.90687 c -1.14334,-0.0394 -2.6561,0.38999 -2.87419,1.69189 -0.35005,1.80136 -0.33949,3.66646 -0.62274,5.46852 -0.49415,1.26609 -1.6156,2.65948 -0.96563,4.07121 0.86783,1.86935 3.11095,3.09716 5.12998,2.43439 1.11074,-0.42368 2.22844,-1.64746 1.82973,-2.90412 -0.45854,-0.46838 -1.18718,0.07 -1.74621,-0.1348 -1.09297,-0.12534 -2.01028,-0.9664 -2.23708,-2.04378 -0.75502,-2.65033 0.97303,-5.69789 3.58243,-6.48966 0.41978,0.10108 0.85651,-0.35474 0.4821,-0.70806 -0.61997,-0.8489 -1.48451,-1.45188 -2.57836,-1.38546 z"
       id="path10080-0-4-6"
       inkscape:connector-curvature="0" />
    <path
       style="fill:#4d4d4d;fill-opacity:1;fill-rule:nonzero;stroke:#000000;stroke-width:0;stroke-linecap:round;stroke-linejoin:miter;stroke-miterlimit:4;stroke-opacity:1;stroke-dasharray:none"
       d="m 323.67544,159.39417 c -1.34055,0.0478 -2.73772,-0.0578 -4.0394,0.26834 -0.82296,0.61707 -0.9868,2.00883 -0.36577,2.82441 0.74218,0.47412 1.72696,0.20777 2.55632,0.26062 1.11988,-0.10761 2.57836,0.14329 3.36852,-0.85118 0.45067,-0.92356 -0.20454,-2.23965 -1.18021,-2.48413 -0.11264,-0.0129 -0.22609,-0.0201 -0.33948,-0.018 z"
       id="path10082-0-5-0"
       inkscape:connector-curvature="0" />
    <path
       style="fill:#4d4d4d;fill-opacity:1;fill-rule:nonzero;stroke:#000000;stroke-width:0;stroke-linecap:round;stroke-linejoin:miter;stroke-miterlimit:4;stroke-opacity:1;stroke-dasharray:none"
       d="m 307.95892,176.65983 c -0.59746,0.008 -0.70387,0.66157 -0.92559,1.08032 -0.5208,0.86453 -1.56006,1.24319 -2.14937,2.03475 -0.21495,0.7819 0.37436,1.53264 0.66866,2.22313 0.5354,0.90463 1.18961,1.82436 2.06817,2.39966 0.74271,-0.20957 1.73271,-0.51453 1.75464,-1.45573 0.0315,-0.61971 0.28983,-1.28158 0.12288,-1.87336 -0.67714,-0.44206 -1.45042,-1.01307 -1.68365,-1.81885 0.0236,-0.26863 0.29483,-0.29769 0.37252,-0.0144 0.48535,0.78877 1.38388,1.75373 2.40388,1.31573 0.70692,-0.13413 1.21171,-0.73887 1.86573,-0.93094 0.18502,0.28883 -0.32133,0.63885 -0.53621,0.80129 -0.52782,0.37842 -1.18331,0.50147 -1.73717,0.74926 -0.34819,0.77931 -0.44728,1.71663 -0.31782,2.5582 0.71608,1.62812 2.14411,3.33436 4.09775,3.19041 1.10509,0.005 2.04594,-0.64052 3.08128,-0.89181 0.32091,0.2241 -0.3442,0.51029 -0.40226,0.75114 -0.082,0.54547 0.75338,0.37534 1.09162,0.51813 1.20556,0.12525 2.39096,0.52287 3.59944,0.54227 0.84346,-0.31038 1.47146,-1.07674 2.00893,-1.77444 0.53253,-0.62187 0.12168,-1.46032 -0.43645,-1.89847 -1.04256,-1.09102 -2.62315,-1.15021 -4.03142,-0.99096 -1.16684,-0.0438 -2.4559,-0.0515 -3.5007,-0.62592 -0.76062,-0.49209 -0.40444,-1.55486 -0.46866,-2.31127 -0.0804,-0.63656 0.25801,-1.43027 -0.11463,-1.96322 -0.77924,-0.66055 -1.89255,-1.33016 -2.89354,-0.70714 -0.56029,0.23843 -1.18937,0.4871 -1.73297,0.0743 -0.74383,-0.29223 -1.40336,-0.88939 -2.20491,-0.98207 z"
       id="path10084-9-7-5"
       inkscape:connector-curvature="0" />
    <path
       style="fill:#4d4d4d;fill-opacity:1;fill-rule:nonzero;stroke:#000000;stroke-width:0;stroke-linecap:round;stroke-linejoin:miter;stroke-miterlimit:4;stroke-opacity:1;stroke-dasharray:none"
       d="m 324.49409,191.37044 c -0.91303,-0.0554 -1.84941,0.70237 -1.97398,1.60407 0.16984,1.54543 1.64664,2.81128 3.16636,2.90352 0.76564,-0.40073 1.61143,-0.58448 2.40354,-0.89339 0.81479,-0.56049 0.46764,-2.02276 -0.41867,-2.33918 -0.9197,-0.22893 -1.50388,-1.12795 -2.49059,-1.19694 -0.2273,-0.041 -0.45506,-0.0788 -0.68663,-0.0781 z"
       id="path10086-1-5-0"
       inkscape:connector-curvature="0" />
    <path
       style="fill:#4d4d4d;fill-opacity:1;fill-rule:nonzero;stroke:#000000;stroke-width:0;stroke-linecap:round;stroke-linejoin:miter;stroke-miterlimit:4;stroke-opacity:1;stroke-dasharray:none"
       d="m 324.426,201.29653 c -0.90208,0.0762 -1.86703,1.24418 -1.24059,2.08204 0.49488,0.38745 1.40952,0.20326 1.58447,-0.45866 0.267,-0.48558 0.3825,-1.49756 -0.34388,-1.62338 z"
       id="path10088-6-3-6"
       inkscape:connector-curvature="0" />
    <path
       style="fill:#4d4d4d;fill-opacity:1;fill-rule:nonzero;stroke:#000000;stroke-width:0;stroke-linecap:round;stroke-linejoin:miter;stroke-miterlimit:4;stroke-opacity:1;stroke-dasharray:none"
       d="m 329.72966,201.82291 c -0.63765,0.0562 -1.62848,-0.0968 -1.87312,0.67562 -0.28159,0.68662 -0.94614,1.21169 -1.13556,1.91473 0.47951,0.56645 1.3798,0.44061 2.05579,0.52908 0.97626,0.0657 2.38132,-0.16076 2.55659,-1.33923 0.0773,-0.88749 -0.7563,-1.7066 -1.6037,-1.78021 z"
       id="path10090-2-5-4"
       inkscape:connector-curvature="0" />
    <path
       style="fill:#4d4d4d;fill-opacity:1;fill-rule:nonzero;stroke:#000000;stroke-width:0;stroke-linecap:round;stroke-linejoin:miter;stroke-miterlimit:4;stroke-opacity:1;stroke-dasharray:none"
       d="m 341.21132,209.28507 c -0.42277,0.0751 -1.3478,0.0498 -1.22872,0.70507 0.18979,0.85186 0.0924,2.06574 0.98106,2.53261 0.89508,-0.12162 1.84609,-1.27707 1.19196,-2.13219 -0.3224,-0.32404 -0.4646,-0.78344 -0.78922,-1.07392 -0.0499,-0.0172 -0.10168,-0.0334 -0.15507,-0.032 z"
       id="path10092-0-3-5"
       inkscape:connector-curvature="0" />
    <path
       style="fill:#4d4d4d;fill-opacity:1;fill-rule:nonzero;stroke:#000000;stroke-width:0;stroke-linecap:round;stroke-linejoin:miter;stroke-miterlimit:4;stroke-opacity:1;stroke-dasharray:none"
       d="m 365.26917,205.74328 c -1.77791,0.91414 -2.80378,2.70297 -4.06241,4.17622 -1.10425,1.1848 -2.87656,1.03532 -4.35231,1.2493 -1.06904,0.19857 -2.41629,-0.22716 -3.27254,0.63855 -0.54515,0.55566 -0.0806,1.34008 0.47173,1.67441 0.45635,0.42306 0.98864,0.85951 1.58044,0.37527 3.20783,-1.30634 6.47492,-2.64052 9.27795,-4.69337 0.86488,-0.74662 1.76511,-1.84278 1.60456,-3.05447 -0.17149,-0.55984 -0.78456,-0.6476 -1.24718,-0.36597 z"
       id="path10094-9-0-6"
       inkscape:connector-curvature="0" />
    <path
       style="fill:#4d4d4d;fill-opacity:1;fill-rule:nonzero;stroke:#000000;stroke-width:0;stroke-linecap:round;stroke-linejoin:miter;stroke-miterlimit:4;stroke-opacity:1;stroke-dasharray:none"
       d="m 355.29195,196.945 c -1.03846,0.18999 -2.08963,0.79831 -2.62897,1.73165 -0.80399,1.71471 0.60091,3.81972 2.39162,4.10042 1.35307,0.24908 2.80103,0.001 4.05093,-0.55765 1.35912,-0.68072 1.88324,-2.41165 1.64102,-3.8308 -0.0615,-0.56348 -0.65413,-0.93437 -1.16118,-0.62247 -1.23208,0.49986 -2.26415,1.52463 -3.5908,1.76037 -0.8713,-0.0391 -0.87026,-1.11831 -0.59178,-1.72887 0.13956,-0.25194 0.56098,-0.73014 0.0571,-0.84203 -0.0546,-0.0138 -0.11212,-0.01 -0.16789,-0.0108 z"
       id="path10096-8-9-9"
       inkscape:connector-curvature="0" />
    <path
       style="fill:#4d4d4d;fill-opacity:1;fill-rule:nonzero;stroke:#000000;stroke-width:0;stroke-linecap:round;stroke-linejoin:miter;stroke-miterlimit:4;stroke-opacity:1;stroke-dasharray:none"
       d="m 366.41756,188.17256 c -1.35433,0.0522 -3.00698,0.49467 -3.59031,1.86051 -0.38358,1.30399 0.28824,2.62246 0.56019,3.88478 0.29516,1.38738 1.16449,2.74991 0.86237,4.19255 -0.19495,0.77536 -0.8038,1.71786 -0.12036,2.42926 0.7959,0.95008 2.06949,1.81946 3.35656,1.53836 1.22333,-0.39876 1.70171,-1.68833 1.99614,-2.82542 0.78938,-3.02041 2.14346,-5.9401 2.26629,-9.09886 -0.40816,-0.50781 -1.18736,-0.67309 -1.76321,-1.00239 -1.13158,-0.49883 -2.31813,-0.9405 -3.56767,-0.97879 z"
       id="path10098-3-8-1"
       inkscape:connector-curvature="0" />
    <path
       style="fill:#4d4d4d;fill-opacity:1;fill-rule:nonzero;stroke:#000000;stroke-width:0;stroke-linecap:round;stroke-linejoin:miter;stroke-miterlimit:4;stroke-opacity:1;stroke-dasharray:none"
       d="m 354.97773,183.02872 c -2.34477,0.30343 -4.77222,0.98972 -6.60406,2.55637 -0.51995,0.55399 -1.28293,1.04535 -1.47454,1.81177 0.25007,1.92158 0.0172,3.29367 0.33843,5.18935 0.0794,0.46846 1.39164,0.97732 1.7199,0.73999 0.38249,-0.27654 1.32829,-0.61122 0.94161,-1.18834 -0.41921,-0.62566 -1.08138,-1.30757 -0.92349,-2.12063 0.14007,-0.72132 0.70411,-1.49814 1.53306,-1.21784 0.91156,0.30823 1.67234,1.16468 2.63336,1.11627 1.83948,-0.0927 3.89312,-1.0977 4.61913,-2.94116 0.36998,-1.24404 -0.72303,-2.31477 -1.49539,-3.13627 -0.35515,-0.35311 -0.73085,-0.8392 -1.28801,-0.80951 z"
       id="path10100-5-3-8"
       inkscape:connector-curvature="0"
       sodipodi:nodetypes="cccssssssccc" />
    <path
       style="fill:#4d4d4d;fill-opacity:1;fill-rule:nonzero;stroke:#000000;stroke-width:0;stroke-linecap:round;stroke-linejoin:miter;stroke-miterlimit:4;stroke-opacity:1;stroke-dasharray:none"
       d="m 356.88993,172.61904 c -1.25423,-0.14511 -2.48283,0.71362 -2.75288,1.94811 -0.50146,1.74611 0.58199,3.88563 2.45599,4.17008 0.66522,0.17637 1.53583,-0.11415 1.56816,-0.90493 0.23596,-0.88819 -0.31729,-1.965 0.29399,-2.72544 0.81091,-0.4436 0.61688,-1.60728 -0.0676,-2.0718 -0.41429,-0.34524 -0.9818,-0.3906 -1.49777,-0.41603 z"
       id="path10102-2-0-0"
       inkscape:connector-curvature="0" />
    <path
       style="fill:#4d4d4d;fill-opacity:1;fill-rule:nonzero;stroke:#000000;stroke-width:0;stroke-linecap:round;stroke-linejoin:miter;stroke-miterlimit:4;stroke-opacity:1;stroke-dasharray:none"
       d="m 346.29088,165.61974 c -0.99507,0.0289 -2.04092,-0.20548 -3.00837,0.0715 -0.99396,0.58586 -0.9291,2.14245 -0.0734,2.8257 1.00216,1.05168 2.4863,1.94664 2.51445,3.57664 0.18731,1.31244 -0.20033,2.76758 0.45196,3.97737 0.90299,1.41267 3.19405,1.87949 4.46215,0.71111 0.85635,-1.10528 0.42559,-2.65035 0.0293,-3.85471 -0.36797,-1.50273 -2.19992,-1.83554 -2.8292,-3.12614 -0.14253,-1.06996 0.10128,-2.19615 -0.20151,-3.26424 -0.0483,-0.48774 -0.36606,-1.03294 -0.94768,-0.89542 -0.13256,-0.008 -0.26518,-0.0144 -0.39776,-0.0217 z"
       id="path10104-9-7-3"
       inkscape:connector-curvature="0" />
    <path
       style="fill:#f7f7f7;fill-opacity:1;fill-rule:nonzero;stroke:#000000;stroke-width:0;stroke-linecap:round;stroke-linejoin:miter;stroke-miterlimit:4;stroke-opacity:1;stroke-dasharray:none"
       d="m 373.75354,182.42263 c -0.74686,0.0526 -1.3542,0.8166 -1.10789,1.57963 0.30269,3.99415 -0.0307,8.04627 -1.28364,11.85893 -0.34884,1.48593 -1.09751,2.90799 -1.17475,4.42559 0.33288,0.52618 1.0157,-0.26695 1.41427,-0.3545 2.90482,-1.61427 5.79298,-3.58813 7.65668,-6.37748 0.49515,-1.02003 0.41631,-2.65392 -0.66979,-3.23491 -0.78794,0.0263 -1.45836,0.57519 -2.09252,0.99485 -0.83973,-0.62993 -0.10873,-0.93393 0.47034,-1.34217 1.08201,-0.94437 2.75645,-1.87997 2.49496,-3.57562 -0.14688,-1.28921 -0.84097,-2.69047 -2.02318,-3.30124 -1.10866,-0.009 -1.55996,1.35044 -2.03507,2.15537 -0.24005,0.3249 -0.33665,1.32398 -0.93555,0.93647 -0.67001,-0.11936 0.0819,-0.83613 0.0541,-1.23158 0.19218,-0.78542 0.39202,-2.45168 -0.768,-2.53334 z"
       id="path10116-5-2-8"
       inkscape:connector-curvature="0" />
    <path
       style="fill:#d7d7d7;fill-opacity:1;fill-rule:nonzero;stroke:#2a1431;stroke-width:0;stroke-linecap:round;stroke-linejoin:miter;stroke-miterlimit:4;stroke-opacity:1;stroke-dasharray:none"
       d="m 322.8531,199.28092 c -0.30727,0.61423 -0.2662,1.37853 -0.66876,1.97868 -0.51585,1.25915 -1.62632,2.08048 -2.76867,2.73241 -0.46821,0.19371 -0.8958,0.75436 -0.44327,1.191 0.88288,1.1133 2.50723,1.25836 3.72062,0.65741 0.7639,-0.0856 1.38294,-0.5515 1.88939,-1.1224 0.9435,-1.04265 2.0278,-2.05234 2.61124,-3.3438 0.0591,-0.79694 -1.05195,-0.8904 -1.57996,-1.19676 -0.84556,-0.27281 -1.62467,-0.84296 -2.48844,-1.03355 -0.0907,0.0456 -0.18144,0.0913 -0.27216,0.13696 z m 1.5236,2.40498 c 0.43218,0.35247 0.13721,1.15973 -0.27317,1.43337 -0.36485,0.26643 -0.96884,-0.0775 -0.68145,-0.5464 0.15804,-0.42132 0.54932,-0.72773 0.95462,-0.88697 z"
       id="path12980-5-8"
       inkscape:connector-curvature="0" />
    <path
       style="fill:#d7d7d7;fill-opacity:1;fill-rule:nonzero;stroke:#2a1431;stroke-width:0;stroke-linecap:round;stroke-linejoin:miter;stroke-miterlimit:4;stroke-opacity:1;stroke-dasharray:none"
       d="m 348.17374,205.14549 c -1.02806,1.36996 -2.78237,1.85086 -4.23921,2.61737 -0.93174,0.49991 -2.04041,0.74798 -2.85945,1.40589 -0.0458,0.74708 0.89228,1.19739 0.94723,1.9105 -0.13267,0.43388 -0.55477,1.01215 -1.03562,1.00246 -0.60759,-0.63153 -0.42949,-1.67041 -0.91597,-2.36236 -0.75426,-0.0602 -1.37371,0.64754 -2.03152,0.98223 -1.0964,0.57417 -1.6456,1.97137 -1.1522,3.11309 0.85475,0.89327 2.21736,1.08943 3.40329,1.16162 0.6655,-0.0644 1.88181,0.12052 1.81722,-0.858 0.001,-1.28308 0.88535,-2.37611 2.04231,-2.86581 2.1093,-0.90546 4.32192,-1.5749 6.27779,-2.81354 0.97647,-0.63765 2.07153,-1.199 2.86404,-2.04349 -0.1246,-0.69593 -1.06782,-0.72577 -1.61981,-1.013 -1.07634,-0.30061 -2.23393,-0.31162 -3.33131,-0.29581 l -0.11788,0.0416 -0.0489,0.0173 z"
       id="path13286-3"
       inkscape:connector-curvature="0" />
    <path
       style="fill:#ffffff;fill-opacity:1;fill-rule:nonzero;stroke:#000000;stroke-width:1.70477462;stroke-linecap:round;stroke-linejoin:miter;stroke-miterlimit:4;stroke-opacity:1;stroke-dasharray:none"
       d="m 333.29744,164.23164 c 0.11479,-0.37953 1.63089,-1.54432 4.55565,-1.16893 7.55305,0.96935 27.46732,15.16083 28.32983,18.05622 1.84492,6.19332 -7.91955,10.13828 -12.28935,7.85897 -7.96056,-4.1523 -8.44437,-16.37603 -16.27287,-19.95546 -0.73815,-0.33753 -2.35131,-0.53595 -2.35131,-0.53595"
       id="path9979-6-6-9-5-9-5"
       inkscape:connector-curvature="0"
       sodipodi:nodetypes="cssssc" />
    <path
       style="fill:#4d4d4d;fill-opacity:1;fill-rule:nonzero;stroke:#000000;stroke-width:0;stroke-linecap:round;stroke-linejoin:miter;stroke-miterlimit:4;stroke-opacity:1;stroke-dasharray:none"
       d="m 329.0386,163.07104 c -1.36943,1.06862 -1.40232,2.93511 -0.66392,3.66558 2.41452,2.38859 0.0931,4.86666 0.76341,6.86918 0.60672,1.81253 1.57191,4.02579 3.32302,4.52894 1.13805,0.327 2.47797,0.16431 3.41614,-0.58992 0.64665,-0.51985 1.13853,-2.74107 1.01279,-3.47906 -0.29915,-1.75582 -0.7913,-3.43344 -1.85122,-5.37282 -0.13978,-0.25576 0.006,-0.55108 0.30195,-0.49992 1.0638,0.18395 2.16722,0.35174 3.12542,0.91001 1.66497,0.97003 3.0493,2.33167 4.17735,3.88354 1.8919,2.60273 3.20616,5.54617 4.79249,8.32528 1.31701,2.39664 2.86061,4.76015 5.08391,6.40725 0.72031,0.52212 1.48006,1.05658 2.34424,1.28042 0.4086,-0.14239 0.73836,-0.50557 1.11658,-0.73135 3.15699,-2.26279 6.35115,-4.47469 9.47959,-6.77677 0.23498,-0.13923 0.42625,-0.44791 0.20402,-0.68814 -1.33717,-1.67844 -3.03817,-3.0193 -4.69206,-4.3686 -4.28272,-3.35459 -8.82416,-6.37617 -13.5547,-9.05638 -2.60312,-1.42156 -5.24671,-2.84851 -8.11641,-3.65729 -1.68258,-0.47421 -3.56195,-0.6088 -5.17838,0.19648 -0.31782,0.15842 -0.68044,-0.13 -1.00965,-0.0465 -0.25869,0.0655 -0.54584,-0.1862 -0.39488,-0.38778 0.23366,-0.31192 -0.0671,-0.52707 -0.41332,-0.55112 -1.34824,-0.0937 -1.54556,-1.20385 -3.26637,0.13897 z"
       id="path10034-3-6-4-6-6-6"
       inkscape:connector-curvature="0"
       sodipodi:nodetypes="ssssssssssccccccccssssss" />
    <path
       style="fill:#4d4d4d;fill-opacity:1;fill-rule:nonzero;stroke:#000000;stroke-width:0;stroke-linecap:round;stroke-linejoin:miter;stroke-miterlimit:4;stroke-opacity:1;stroke-dasharray:none"
       d="m 359.78139,185.22187 c -1.35555,1.1313 -4.89969,1.65942 -5.89862,3.13639 0.0405,0.95054 3.23812,0.777 3.84995,0.82198 3.04018,-0.20665 6.22325,-1.7135 7.8893,-4.27876 0.52371,-1.10887 0.6734,-2.72781 0.18157,-3.87871 -1.49943,0.60604 -2.83955,2.07092 -4.26308,2.93994 -0.58918,0.41581 -1.17546,0.83563 -1.75929,1.25895 z"
       id="path10036-7-8-2-3-8-3"
       inkscape:connector-curvature="0"
       sodipodi:nodetypes="cccccccc" />
    <path
       style="fill:#de8787;fill-opacity:1;fill-rule:nonzero;stroke:#2a1431;stroke-width:0;stroke-linecap:round;stroke-linejoin:miter;stroke-miterlimit:4;stroke-opacity:1;stroke-dasharray:none"
       d="m 10.241456,33.188184 c -2.902354,1.813312 -5.4146076,4.673294 -6.0711746,8.104107 0.3009628,0.920038 1.6554427,0.318968 2.4362039,0.458515 2.6118389,-0.189159 5.2178747,-0.774653 7.6621647,-1.690428 0.701441,-0.60395 -0.375806,-0.949281 -0.662912,-1.392116 -0.742761,-1.095665 -0.165423,-2.704123 -1.364496,-3.579728 -0.656895,-0.600706 -1.04023,-1.443308 -1.734621,-1.966641 l -0.171499,0.04288 -0.09367,0.02342 z"
       id="path13589"
       inkscape:connector-curvature="0"
       transform="translate(293.88257,149.22342)" />
    <path
       style="fill:#4d4d4d;fill-opacity:1;fill-rule:nonzero;stroke:#2a1431;stroke-width:0;stroke-linecap:round;stroke-linejoin:miter;stroke-miterlimit:4;stroke-opacity:1;stroke-dasharray:none"
       d="m 9.4238638,30.216126 c -1.3832391,0.443375 -2.375213,1.73622 -3.4983247,2.623874 -1.7508902,1.76111 -3.9740358,3.68131 -4.1030732,6.358592 -0.017462,0.625361 0.2765406,1.939161 1.1545728,1.51365 0.7454341,-0.901315 0.7704137,-2.234004 1.5191748,-3.170931 1.3150222,-2.248944 3.2595966,-3.993886 5.3916892,-5.435884 0.3800243,-0.500358 0.1671863,-1.779462 -0.4640389,-1.889301 z"
       id="path13591"
       inkscape:connector-curvature="0"
       transform="translate(293.88257,149.22342)" />
    <path
       style="fill:#d7d7d7;fill-opacity:1;fill-rule:nonzero;stroke:#2a1431;stroke-width:0;stroke-linecap:round;stroke-linejoin:miter;stroke-miterlimit:4;stroke-opacity:1;stroke-dasharray:none"
       d="m 31.195019,10.450282 c -0.890384,0.254004 0.04939,1.114491 -0.165728,1.695951 -0.08555,0.923843 -1.393858,0.768935 -2.036853,0.946306 -1.097857,-0.01017 -2.491806,0.490456 -3.410079,-0.272344 -0.639799,-0.661003 0.389029,-1.63054 -0.281738,-2.215233 -2.500749,0.269443 -4.978341,1.17419 -7.126311,2.508019 -0.702616,1.012309 1.748177,1.40054 1.06066,2.491446 -0.430593,1.305239 -1.527776,2.608684 -0.801019,4.027195 0.48128,1.245495 0.735113,2.719605 -0.160204,3.850417 -0.875647,1.092497 -2.022169,2.58116 -3.601825,2.414107 -0.926299,-0.117741 -1.63523,-1.003829 -2.563262,-0.966748 -0.968509,1.33912 -1.209589,3.150082 -1.160097,4.784019 0.08328,0.839741 1.089563,0.558528 1.408689,0.0221 0.682613,-0.513804 1.128729,-1.371432 1.729097,-1.894826 1.313128,0.216295 2.513935,1.653872 3.900136,0.845214 0.904451,-0.355966 2.252802,-0.07024 2.69032,0.839689 0.275673,1.338302 -0.587102,3.239667 0.817593,4.13768 2.064398,0.982327 4.536723,0.142321 6.607029,1.055136 0.657331,0.417285 1.622488,1.263186 0.900456,2.055029 -0.262986,0.564619 -1.435146,1.321531 -0.64634,1.894825 2.413188,0.610553 5.025107,0.647561 7.369379,-0.254117 0.242728,0.07981 0.70175,1.01222 0.07734,1.044088 -3.528086,1.363661 -7.381903,0.191675 -10.973788,-0.283829 -0.982845,-0.0376 -2.040633,-0.585349 -2.997095,-0.279647 -0.308466,0.915129 0.643145,1.727722 0.948771,2.551429 1.997201,3.800854 5.262205,6.992137 9.28218,8.56893 0.514977,0.453542 1.351018,0.160089 1.209816,-0.580048 -0.150525,-0.570772 0.883933,-1.086459 0.933602,-0.325932 0.28423,1.242839 -0.05858,2.572116 0.254116,3.784126 0.792421,0.227023 1.938078,-0.203156 2.380961,0.773398 0.707243,0.821674 -0.460446,1.765919 -1.292679,1.618611 -0.929328,0.08652 -1.856985,-0.11442 -2.745563,-0.226495 -0.925711,0.49162 -1.762865,1.32967 -2.264952,2.248379 0.08876,1.168831 1.649104,1.35785 2.563263,1.524699 2.242688,0.252578 4.705076,-0.891589 5.44767,-3.130657 1.103635,-2.038144 1.578158,-4.372952 2.70063,-6.387663 0.28084,-0.47775 0.985682,0.08848 0.679486,0.535854 -0.0886,0.867806 -0.89512,1.778743 -0.519282,2.624029 2.650878,0.895827 5.500552,1.17195 8.249785,1.703463 1.554735,0.159624 3.184104,0.719546 4.726729,0.368139 0.183366,-0.908496 -1.071666,-1.370437 -1.469456,-2.143418 -2.027415,-2.74173 -3.371561,-6.255299 -2.88367,-9.706145 0.647399,-2.768266 1.999985,-5.406821 4.148728,-7.325184 0.205335,-0.898728 -0.851582,-1.618605 -1.119411,-2.46891 -2.128471,-3.537893 -3.62018,-7.588633 -6.625618,-10.529702 -1.328966,-1.197037 -2.928677,-2.551254 -4.833737,-2.386485 -0.704355,0.594659 0.287218,1.482677 0.359077,2.204184 0.596542,1.657699 1.041556,3.578335 0.138107,5.23701 -0.64955,1.531569 -2.844342,1.491092 -4.099009,0.812068 C 36.67883,27.182541 35.881804,25.48586 35.553669,23.841117 35.509259,21.89998 36.490244,19.756231 35.238786,17.979864 34.596445,17.16652 33.993358,16.0464 34.653213,15.052 c 0.513727,-0.913597 1.560742,-1.743173 2.652748,-1.470094 0.778219,-0.562744 -0.538439,-1.184834 -1.028612,-1.507488 -1.56542,-0.848386 -3.315101,-1.403897 -5.08233,-1.624136 z m -3.187505,6.59598 c 1.123589,-0.11169 2.079,0.528799 2.800806,1.309253 0.965133,0.489336 2.126494,0.780454 2.673747,1.839582 1.109744,2.458103 -0.236958,5.502504 -2.485922,6.816952 -0.700923,0.57215 -0.263473,1.649195 -1.033039,2.204184 -1.936446,2.188338 -6.265033,0.157754 -5.828107,-2.717942 0.494463,-1.551225 1.206663,-3.051763 1.23355,-4.720947 0.276114,-1.25969 0.04343,-2.70555 0.6668,-3.847198 0.46154,-0.60474 1.255631,-0.836402 1.972165,-0.883884 z m 2.712417,25.472417 c 1.165668,0.0026 2.056553,0.900651 3.065971,1.29268 0.545547,0.496431 0.703851,1.581142 -0.182301,1.789864 -1.024882,0.422548 -2.29766,1.068281 -3.264844,0.176777 -0.809798,-0.585304 -1.881163,-1.961933 -0.850738,-2.817379 0.333065,-0.30896 0.782832,-0.443639 1.231912,-0.441942 z"
       id="path13593"
       inkscape:connector-curvature="0"
       transform="translate(293.88257,149.22342)" />
    <path
       style="fill:#d7d7d7;fill-opacity:1;fill-rule:nonzero;stroke:#2a1431;stroke-width:0;stroke-linecap:round;stroke-linejoin:miter;stroke-miterlimit:4;stroke-opacity:1;stroke-dasharray:none"
       d="m 70.190853,38.75665 c -1.919602,0.820869 -3.781567,1.907408 -5.920156,2.069578 -2.004888,0.286872 -3.920455,-0.360803 -5.857591,-0.771374 -0.94829,-0.344992 -2.220889,-1.418504 -3.110165,-0.353553 -1.042125,1.001281 -0.304276,2.497539 0.425369,3.436097 -0.453376,0.635044 -1.294646,0.885338 -1.889301,0.281738 -0.572463,-1.250519 -0.05487,-2.853348 -0.718156,-4.087961 -0.769633,-0.457621 -1.112128,0.824136 -1.370019,1.35897 -0.962203,2.020912 -1.121418,4.364018 -0.292787,6.463398 0.683672,2.452058 1.981502,4.726682 4.008974,6.310611 2.798084,2.440308 6.756658,3.214261 10.340272,2.386328 1.380253,-0.146758 2.751938,-0.859627 4.129443,-0.708842 0.411022,0.406354 -0.276459,0.906488 -0.685009,0.933602 -2.681896,0.981507 -5.609569,1.065831 -8.435563,1.298204 -2.769698,2.486242 -6.16016,4.145914 -9.650903,5.369592 -0.957922,0.39864 -2.439886,1.430412 -1.66833,2.612981 1.17187,1.693658 3.394705,2.432839 5.364068,1.845106 2.139175,-0.421333 4.245163,-1.180698 6.201699,-2.091641 0.483813,-0.87866 -1.734785,-1.281516 -1.075175,-2.272533 0.928285,-0.717054 2.312167,-0.408671 3.414,-0.624243 1.784088,-0.07148 3.76852,-0.444424 4.791628,-2.081685 1.083277,-1.111964 1.986051,-2.540737 3.384294,-3.249237 0.634869,-0.135758 1.572549,0.276535 1.834058,-0.596621 0.421249,-1.198461 1.039119,-2.415545 1.149049,-3.673641 -0.494073,-0.681554 -1.298893,0.218926 -1.961117,-0.160204 -0.90012,-0.352242 -2.236437,-0.905022 -2.276,-2.038456 0.362232,-1.319028 0.555058,-2.716042 0.04673,-4.037356 -0.421491,-1.835384 -1.419255,-3.751576 -0.985861,-5.657741 0.366713,-0.557344 1.628856,-1.05392 1.189087,-1.825605 -0.06938,-0.156995 -0.254219,-0.141338 -0.382543,-0.135512 z m -8.838835,9.380214 c -0.02247,0.749947 -0.523751,1.978605 0.259641,2.380961 1.718673,0.199172 3.002845,-1.348102 4.552,-1.657282 0.729277,0.624801 0.318465,1.852452 0.01105,2.618505 -0.737132,1.657045 -2.875211,1.734457 -4.441514,1.795388 -1.696522,0.04699 -3.208035,-1.828982 -2.646126,-3.447145 0.425495,-0.864065 1.298451,-1.584162 2.264951,-1.690427 z"
       id="path13595"
       inkscape:connector-curvature="0"
       transform="translate(293.88257,149.22342)" />
    <path
       style="fill:#d7d7d7;fill-opacity:1;fill-rule:nonzero;stroke:#2a1431;stroke-width:0;stroke-linecap:round;stroke-linejoin:miter;stroke-miterlimit:4;stroke-opacity:1;stroke-dasharray:none"
       d="m 76.411183,29.531117 c -0.830123,0.672603 -1.641118,1.450429 -2.765087,1.58857 -1.349925,0.153383 -0.543681,1.729377 -0.704156,2.643022 0.08186,1.976573 -1.437795,3.362153 -2.546689,4.789543 -0.494982,0.673832 0.386677,1.270483 1.005417,0.933602 2.072111,-0.489566 4.085399,0.546646 5.921615,1.337783 0.770595,-0.299734 0.402866,-1.539498 0.562038,-2.271346 -0.04276,-2.916599 -0.105896,-5.905353 -0.848895,-8.728388 -0.09056,-0.244857 -0.371071,-0.414697 -0.624243,-0.292786 z"
       id="path13597"
       inkscape:connector-curvature="0"
       transform="translate(293.88257,149.22342)" />
    <path
       style="fill:#d7d7d7;fill-opacity:1;fill-rule:nonzero;stroke:#2a1431;stroke-width:0;stroke-linecap:round;stroke-linejoin:miter;stroke-miterlimit:4;stroke-opacity:1;stroke-dasharray:none"
       d="m 55.789077,13.643311 c -1.893482,0.218692 -3.825724,0.350333 -5.662379,0.861786 -0.702222,0.700684 0.603086,1.193605 1.093806,1.480505 2.433729,1.055553 4.554084,2.746001 6.949534,3.833845 0.960853,-0.05686 0.319503,-1.173845 -0.02762,-1.574418 -0.85386,-1.31121 -0.858982,-2.965137 -0.686641,-4.44494 -0.263547,-0.566209 -1.182578,-0.09045 -1.666698,-0.156778 z"
       id="path13599"
       inkscape:connector-curvature="0"
       transform="translate(293.88257,149.22342)" />
    <path
       style="fill:#d7d7d7;fill-opacity:1;fill-rule:nonzero;stroke:#2a1431;stroke-width:0;stroke-linecap:round;stroke-linejoin:miter;stroke-miterlimit:4;stroke-opacity:1;stroke-dasharray:none"
       d="m 60.550999,19.327787 c -0.639625,0.167839 -2.054826,-0.349933 -2.060554,0.662912 1.121664,1.118688 2.67305,1.776961 3.915012,2.783504 1.650875,1.084117 3.194607,2.336743 4.835435,3.420253 0.907647,-0.0145 0.645503,-1.41105 0.789971,-2.066077 0.193143,-2.101313 -1.655177,-3.760337 -3.358758,-4.645913 -1.343995,-0.291513 -2.754596,-0.124758 -4.121106,-0.154679 z"
       id="path13603"
       inkscape:connector-curvature="0"
       transform="translate(293.88257,149.22342)" />
  </g>
</svg>
