<?xml version="1.0" encoding="UTF-8" standalone="no"?>
<!-- Created with Inkscape (http://www.inkscape.org/) -->

<svg
   xmlns:dc="http://purl.org/dc/elements/1.1/"
   xmlns:cc="http://creativecommons.org/ns#"
   xmlns:rdf="http://www.w3.org/1999/02/22-rdf-syntax-ns#"
   xmlns:svg="http://www.w3.org/2000/svg"
   xmlns="http://www.w3.org/2000/svg"
   xmlns:sodipodi="http://sodipodi.sourceforge.net/DTD/sodipodi-0.dtd"
   xmlns:inkscape="http://www.inkscape.org/namespaces/inkscape"
   width="80"
   height="75"
   id="svg10388"
   version="1.1"
   inkscape:version="0.48.5 r10040"
   sodipodi:docname="bunny-still1.svg"
   inkscape:export-filename="/home/rhiannon/caveexplorer/lua-cave-gen/assets/bunny-still1.png"
   inkscape:export-xdpi="90"
   inkscape:export-ydpi="90">
  <defs
     id="defs10390" />
  <sodipodi:namedview
     id="base"
     pagecolor="#ffffff"
     bordercolor="#666666"
     borderopacity="1.0"
     inkscape:pageopacity="0.0"
     inkscape:pageshadow="2"
     inkscape:zoom="4"
     inkscape:cx="41.646161"
     inkscape:cy="23.565"
     inkscape:document-units="px"
     inkscape:current-layer="layer1"
     showgrid="false"
     fit-margin-top="0"
     fit-margin-left="0"
     fit-margin-right="0"
     fit-margin-bottom="0"
     inkscape:window-width="1278"
     inkscape:window-height="781"
     inkscape:window-x="0"
     inkscape:window-y="17"
     inkscape:window-maximized="0" />
  <metadata
     id="metadata10393">
    <rdf:RDF>
      <cc:Work
         rdf:about="">
        <dc:format>image/svg+xml</dc:format>
        <dc:type
           rdf:resource="http://purl.org/dc/dcmitype/StillImage" />
        <dc:title></dc:title>
      </cc:Work>
    </rdf:RDF>
  </metadata>
  <g
     inkscape:label="Layer 1"
     inkscape:groupmode="layer"
     id="layer1"
     transform="translate(-293.88257,-149.22342)">
    <path
       style="fill:#ffffff;fill-opacity:0;fill-rule:nonzero;stroke:#000000;stroke-width:1.70477462;stroke-linecap:butt;stroke-linejoin:miter;stroke-miterlimit:4;stroke-opacity:1;stroke-dasharray:none"
       d="m 324.87263,178.14039 c 0,0 -1.06709,-1.82696 -5.32847,-3.27241 -4.6164,-1.56589 -11.63058,-0.003 -15.09176,2.15238 -6.65248,4.14236 -3.39706,7.5144 -5.14028,10.42053 -1.70708,2.84589 -2.86159,5.02511 -2.60026,8.33616 0.19907,2.52224 2.33748,5.85346 5.85147,6.61249 5.98718,1.29327 8.75233,0.87611 13.10416,1.33308 3.43321,0.36051 5.73827,-0.0672 7.87983,-1.38772"
       id="path9922"
       inkscape:connector-curvature="0"
       sodipodi:nodetypes="cssssssc" />
    <path
       style="fill:#000000;fill-opacity:1;fill-rule:nonzero;stroke:#000000;stroke-width:1.70477462;stroke-linecap:butt;stroke-linejoin:miter;stroke-miterlimit:4;stroke-opacity:1;stroke-dasharray:none"
       d="m 300.75488,183.31821 c 1.01745,1.67894 -1.19298,6.46501 -1.73427,6.32957 -0.95658,-0.23933 -1.7089,-1.08164 -1.07237,-3.74683 0.50347,-2.10805 2.21598,-3.55741 2.80664,-2.58274 z"
       id="path9924"
       inkscape:connector-curvature="0"
       sodipodi:nodetypes="ssss" />
    <path
       sodipodi:type="arc"
       style="fill:#ffffff;fill-opacity:1;fill-rule:nonzero;stroke:#ffffff;stroke-width:7.89696932;stroke-linecap:butt;stroke-linejoin:miter;stroke-miterlimit:4;stroke-opacity:1;stroke-dasharray:none"
       id="path9926"
       sodipodi:cx="246.53337"
       sodipodi:cy="1104.5435"
       sodipodi:rx="3.8544929"
       sodipodi:ry="4.1628523"
       d="m 250.38786,1104.5435 c 0,2.299 -1.72571,4.1628 -3.85449,4.1628 -2.12878,0 -3.85449,-1.8638 -3.85449,-4.1628 0,-2.2991 1.72571,-4.1629 3.85449,-4.1629 2.12878,0 3.85449,1.8638 3.85449,4.1629 z"
       transform="matrix(0.09641786,0.04217654,-0.0820633,0.18879727,366.89558,-34.108802)"
       inkscape:transform-center-x="4.2447684"
       inkscape:transform-center-y="0.4997621" />
    <path
       sodipodi:type="arc"
       style="fill:#ffffff;fill-opacity:1;fill-rule:nonzero;stroke:#ffffff;stroke-width:16.73293495;stroke-linecap:butt;stroke-linejoin:miter;stroke-miterlimit:4;stroke-opacity:1;stroke-dasharray:none"
       id="path9926-1"
       sodipodi:cx="246.53337"
       sodipodi:cy="1104.5435"
       sodipodi:rx="3.8544929"
       sodipodi:ry="4.1628523"
       d="m 250.38786,1104.5435 c 0,2.299 -1.72571,4.1628 -3.85449,4.1628 -2.12878,0 -3.85449,-1.8638 -3.85449,-4.1628 0,-2.2991 1.72571,-4.1629 3.85449,-4.1629 2.12878,0 3.85449,1.8638 3.85449,4.1629 z"
       transform="matrix(0.02499745,0.01678855,-0.02004842,0.07232765,315.67809,103.19505)"
       inkscape:transform-center-x="1.0893764"
       inkscape:transform-center-y="0.12830452" />
    <path
       style="fill:#000000;fill-opacity:1;fill-rule:nonzero;stroke:#000000;stroke-width:1.16234636;stroke-linecap:butt;stroke-linejoin:miter;stroke-miterlimit:4;stroke-opacity:1"
       d="m 318.80749,188.57216 c -0.85703,2.23108 -2.86797,3.51463 -4.49154,2.86694 -1.62357,-0.64772 -2.24498,-2.98138 -1.38794,-5.21238 0.85702,-2.23105 2.86795,-3.51462 4.49153,-2.86693 1.62358,0.64772 2.24498,2.98135 1.38795,5.21237 z"
       id="path9946"
       inkscape:connector-curvature="0" />
    <path
       sodipodi:type="arc"
       style="fill:#ffffff;fill-opacity:1;fill-rule:nonzero;stroke:#ffffff;stroke-width:6.14886189;stroke-linecap:butt;stroke-linejoin:miter;stroke-miterlimit:4;stroke-opacity:1;stroke-dasharray:none"
       id="path9949"
       sodipodi:cx="217.08504"
       sodipodi:cy="1121.1949"
       sodipodi:rx="5.5504699"
       sodipodi:ry="8.4798841"
       d="m 222.63551,1121.1949 c 0,4.6834 -2.48503,8.4799 -5.55047,8.4799 -3.06544,0 -5.55047,-3.7965 -5.55047,-8.4799 0,-4.6833 2.48503,-8.4798 5.55047,-8.4798 3.06544,0 5.55047,3.7965 5.55047,8.4798 z"
       transform="matrix(0.17530328,0.06711891,-0.06553893,0.17874794,351.02512,-28.944514)" />
    <path
       sodipodi:type="arc"
       style="fill:#ffffff;fill-opacity:1;fill-rule:nonzero;stroke:#ffffff;stroke-width:6.19660568;stroke-linecap:butt;stroke-linejoin:miter;stroke-miterlimit:4;stroke-opacity:1;stroke-dasharray:none"
       id="path9926-1-4"
       sodipodi:cx="246.53337"
       sodipodi:cy="1104.5435"
       sodipodi:rx="3.8544929"
       sodipodi:ry="4.1628523"
       d="m 250.38786,1104.5435 c 0,2.299 -1.72571,4.1628 -3.85449,4.1628 -2.12878,0 -3.85449,-1.8638 -3.85449,-4.1628 0,-2.2991 1.72571,-4.1629 3.85449,-4.1629 2.12878,0 3.85449,1.8638 3.85449,4.1629 z"
       transform="matrix(0.09454597,0.00355064,-0.02851882,0.16432988,324.91705,6.3225498)"
       inkscape:transform-center-x="3.6010486"
       inkscape:transform-center-y="1.6386612" />
    <path
       style="fill:#ffffff;fill-opacity:1;fill-rule:nonzero;stroke:#4d4d4d;stroke-width:1.16234636;stroke-linecap:round;stroke-linejoin:miter;stroke-miterlimit:4;stroke-opacity:1;stroke-dasharray:none"
       d="m 300.73306,201.42002 c -0.59673,1.62769 -0.18012,2.67984 0.7248,3.45466 0.91376,0.013 1.85293,0.30779 3.45117,-0.44387 -0.17451,-1.13595 0.004,-1.65473 0.18507,-2.45525 -0.83528,-0.57856 -2.15318,-0.0763 -2.49107,-1.76878 -0.39342,0.60016 -1.15972,1.18645 -1.86997,1.21324 z"
       id="path9973"
       inkscape:connector-curvature="0"
       sodipodi:nodetypes="cccccc" />
    <path
       style="fill:#ffffff;fill-opacity:1;fill-rule:nonzero;stroke:#4d4d4d;stroke-width:0.77489758;stroke-linecap:round;stroke-linejoin:miter;stroke-miterlimit:4;stroke-opacity:1;stroke-dasharray:none"
       d="m 302.45975,200.94736 c 0.0104,0.63538 -0.2311,1.55726 0.16078,2.49518"
       id="path9975"
       inkscape:connector-curvature="0"
       sodipodi:nodetypes="cc" />
    <path
       style="fill:#ffffff;fill-opacity:0;fill-rule:nonzero;stroke:#000000;stroke-width:1.16234636;stroke-linecap:round;stroke-linejoin:miter;stroke-miterlimit:4;stroke-opacity:1;stroke-dasharray:none"
       d="m 299.4823,200.85257 c 0.58624,1.0273 1.97804,0.5597 3.0705,-0.52664 l -0.002,-2.64786"
       id="path9969"
       inkscape:connector-curvature="0"
       sodipodi:nodetypes="ccc" />
    <path
       style="fill:#ffffff;fill-opacity:1;fill-rule:nonzero;stroke:#000000;stroke-width:1.16234636;stroke-linecap:round;stroke-linejoin:miter;stroke-miterlimit:4;stroke-opacity:1;stroke-dasharray:none"
       d="m 302.58859,200.31771 c 2.8174,4.58172 5.75149,2.91088 7.61579,1.70349"
       id="path9971"
       inkscape:connector-curvature="0"
       sodipodi:nodetypes="cc" />
    <path
       style="fill:#ffffff;fill-opacity:1;fill-rule:nonzero;stroke:#000000;stroke-width:1.16234636;stroke-linecap:round;stroke-linejoin:miter;stroke-miterlimit:4;stroke-opacity:1;stroke-dasharray:none"
       d="m 300.51975,196.02781 c 0.38394,0.77661 1.04393,1.13952 1.93402,1.5173 1.07359,-0.15146 2.08416,-0.79124 2.46898,-1.42934"
       id="path9977"
       inkscape:connector-curvature="0"
       sodipodi:nodetypes="ccc" />
    <path
       style="fill:#ffffff;fill-opacity:0;fill-rule:nonzero;stroke:#000000;stroke-width:1.70477462;stroke-linecap:round;stroke-linejoin:miter;stroke-miterlimit:4;stroke-opacity:1;stroke-dasharray:none"
       d="m 296.87059,197.51907 c 0,0 -3.18713,14.7451 1.6546,17.01495 5.02766,2.35702 9.81736,-9.54909 9.81736,-9.54909"
       id="path9981"
       inkscape:connector-curvature="0"
       sodipodi:nodetypes="csc" />
    <path
       style="fill:#ffffff;fill-opacity:0;fill-rule:nonzero;stroke:#000000;stroke-width:1.70477462;stroke-linecap:round;stroke-linejoin:miter;stroke-miterlimit:4;stroke-opacity:1;stroke-dasharray:none"
       d="m 298.94336,200.55128 c -0.27634,4.19484 -1.39644,7.54747 0.75616,14.16669"
       id="path9983"
       inkscape:connector-curvature="0"
       sodipodi:nodetypes="cc" />
    <path
       style="fill:#ffffff;fill-opacity:0;fill-rule:nonzero;stroke:#000000;stroke-width:1.70477462;stroke-linecap:round;stroke-linejoin:miter;stroke-miterlimit:4;stroke-opacity:1;stroke-dasharray:none"
       d="m 307.75827,203.41259 c 1.34476,1.79887 2.80366,5.5439 7.34632,8.70816 3.98006,2.77237 8.90952,3.25975 13.71907,3.85014 6.21438,0.76283 13.56586,1.58092 20.88586,0.3818 -3.0214,0.33928 -6.11479,0.65786 -10.012,0.74521 -1.38695,0.16361 -3.55951,1.85977 -2.57598,3.87683 0.38626,0.79215 1.06942,1.07177 2.32457,1.69267 1.78308,0.8821 16.87963,0.5704 20.2113,-1.33621 3.21368,-1.2599 4.14084,-10.13499 5.22604,-15.51682 0.002,-0.008 0.005,-0.0157 0.007,-0.0241 0.79857,-2.73299 0.74824,-5.80953 0.47739,-8.6304 -0.97158,-10.11884 -5.21953,-16.8922 -13.50428,-20.90544 -2.10857,-1.02145 -4.45933,-1.6707 -6.79827,-1.78144 -0.65492,-0.031 -1.3154,-0.0238 -1.96978,0.0129 -2.83563,0.15916 -5.6522,0.89354 -8.38581,1.67025 -2.05841,0.58483 -7.08142,2.54386 -8.10079,2.6306"
       id="path9985"
       inkscape:connector-curvature="0"
       sodipodi:nodetypes="cssccsscccsccscc" />
    <path
       style="fill:#ffffff;fill-opacity:1;fill-rule:nonzero;stroke:#000000;stroke-width:1.70477462;stroke-linecap:round;stroke-linejoin:miter;stroke-miterlimit:4;stroke-opacity:1;stroke-dasharray:none"
       d="m 322.13727,213.03435 c 0,0 0.2992,1.74936 0.34234,2.88654 0.0378,0.99672 -0.39655,1.99574 -0.86528,2.93756 -0.55835,1.12184 -1.97371,2.04452 -1.9526,3.23261 0.006,0.34582 0.41398,0.61502 0.69727,0.88187 0.86068,0.81077 3.87916,1.09154 6.03807,-0.25764 2.15098,-1.3442 1.82767,-4.30335 2.48853,-6.15611 0.36025,-1.00994 0.99693,-3.94657 0.99693,-3.94657"
       id="path9989"
       inkscape:connector-curvature="0"
       sodipodi:nodetypes="cssssssc" />
    <path
       style="fill:#ffffff;fill-opacity:0;fill-rule:nonzero;stroke:#000000;stroke-width:1.70477462;stroke-linecap:round;stroke-linejoin:miter;stroke-miterlimit:4;stroke-opacity:1;stroke-dasharray:none"
       d="m 316.08545,212.74339 c 0,0 0.88038,1.41253 0.92353,2.54971 0.0378,0.99672 -0.0765,1.76142 -0.54528,2.70324 -0.55834,1.12184 -1.9737,2.04451 -1.9526,3.23261 0.006,0.34582 0.41399,0.61502 0.69728,0.88187 0.86067,0.81077 2.35153,1.37739 4.51044,0.0282"
       id="path9989-3"
       inkscape:connector-curvature="0"
       sodipodi:nodetypes="cssssc" />
    <path
       style="fill:#ffffff;fill-opacity:1;fill-rule:nonzero;stroke:#000000;stroke-width:1.70477462;stroke-linecap:round;stroke-linejoin:miter;stroke-miterlimit:4;stroke-opacity:1;stroke-dasharray:none"
       d="m 358.43685,215.48851 c 0,0 -3.53625,1.4794 -5.4095,1.79113 -1.57049,0.26134 -3.22001,0.38701 -4.77561,0.0477 -1.91582,-0.41786 -3.76273,-1.31652 -5.32616,-2.5033 -1.13383,-0.86069 -2.09704,-1.9909 -2.79142,-3.2356 -1.10076,-1.97315 -2.30814,-4.22066 -2.04365,-6.46617 0.94313,-8.00691 5.67607,-9.57847 8.84388,-10.51945 5.2052,-1.54619 10.71254,0.16706 10.71254,0.16706"
       id="path10011"
       inkscape:connector-curvature="0"
       sodipodi:nodetypes="cssssssc" />
    <path
       style="fill:#ffffff;fill-opacity:1;fill-rule:nonzero;stroke:#000000;stroke-width:1.70477462;stroke-linecap:round;stroke-linejoin:miter;stroke-miterlimit:4;stroke-opacity:1;stroke-dasharray:none"
       d="m 323.97737,178.4974 c 0.30282,-0.25596 2.20864,-0.40829 4.45826,1.49808 5.80961,4.92309 14.79591,27.66562 13.94411,30.56418 -1.82203,6.20011 -12.16101,4.19689 -14.58707,-0.0932 -4.41962,-7.81532 1.82567,-18.33435 -2.79483,-25.59717 -0.43566,-0.68484 -1.68114,-1.72907 -1.68114,-1.72907"
       id="path9979"
       inkscape:connector-curvature="0"
       sodipodi:nodetypes="cssssc" />
    <path
       style="fill:#000000;fill-opacity:0;fill-rule:nonzero;stroke:#000000;stroke-width:1.70477462;stroke-linecap:round;stroke-linejoin:miter;stroke-miterlimit:4;stroke-opacity:1;stroke-dasharray:none"
       d="m 333.29598,216.56117 c -1.11762,0.36323 -2.83473,1.15715 -3.36763,2.13035 -0.30623,0.55925 -0.61546,2.32097 -0.15184,2.91518 0.53661,0.68777 1.82402,0.85196 2.68558,0.97765 2.20477,0.32165 6.09592,-0.28446 6.09592,-0.28446"
       id="path10014"
       inkscape:connector-curvature="0"
       sodipodi:nodetypes="csssc" />
    <path
       style="fill:#000000;fill-opacity:0;fill-rule:nonzero;stroke:#000000;stroke-width:1.70477462;stroke-linecap:round;stroke-linejoin:miter;stroke-miterlimit:4;stroke-opacity:1;stroke-dasharray:none"
       d="m 363.94197,211.50106 c -0.14092,0.36187 5.49472,-2.6053 8.62151,-7.6205 1.06562,-1.70926 0.66861,-4.29623 -0.31266,-4.66688 -0.98126,-0.37068 -2.67494,1.37022 -2.67494,1.37022 0,0 2.88796,-2.23689 3.21,-3.62609 0.32203,-1.3892 -0.30463,-2.76886 -0.99299,-3.58635 -0.68835,-0.81748 -1.32509,-1.53116 -2.43149,-1.15234 -1.10641,0.37879 -1.93907,3.85098 -1.93907,3.85098 0,0 0.73062,-2.24035 0.28386,-3.2221 -0.24666,-0.54204 -0.7726,-1.05678 -1.44627,-1.0548 -0.67368,0.002 -1.36359,0.89557 -1.36359,0.89557"
       id="path10020"
       inkscape:connector-curvature="0"
       sodipodi:nodetypes="csscssscssc" />
    <path
       style="fill:#000000;fill-opacity:0;fill-rule:nonzero;stroke:#502d16;stroke-width:0;stroke-linecap:round;stroke-linejoin:miter;stroke-miterlimit:4;stroke-opacity:1;stroke-dasharray:none"
       d="m 322.61912,176.93903 c -0.12531,0.98391 -0.20282,2.04883 0.11664,2.99811 1.01336,0.60637 2.53431,-0.0181 3.38508,0.96577 0.47037,0.55883 0.97804,1.6277 0.22733,2.20039 -0.39689,0.4096 -0.99594,0.3308 -1.46982,0.51438 -0.0629,0.49564 0.55771,0.81281 0.71879,1.25508 1.94599,3.27167 1.79972,7.24158 1.51301,10.90955 -0.23189,3.90793 -0.91136,7.9234 0.0756,11.77887 0.46289,1.75583 1.30131,3.50736 2.88535,4.50047 2.48194,1.64226 5.72194,2.40757 8.61472,1.50117 1.57798,-0.51706 3.09581,-1.84697 3.2229,-3.58881 -0.41454,-3.31016 -1.66487,-6.44236 -2.79859,-9.5597 -2.35941,-5.96888 -4.9529,-11.91775 -8.60942,-17.21236 -1.30469,-1.80639 -2.89345,-3.75833 -5.17679,-4.23377 -0.55759,-0.13135 -1.29527,0.19619 -1.75433,-0.19753 -0.27241,-0.37603 0.25114,-0.63518 0.29652,-0.95046 -0.28129,-0.41044 -0.79978,-0.65943 -1.19774,-0.93154 l -0.0494,0.0504 z"
       id="path10024"
       inkscape:connector-curvature="0" />
    <path
       style="fill:#4d4d4d;fill-opacity:1;fill-rule:nonzero;stroke:#000000;stroke-width:0;stroke-linecap:round;stroke-linejoin:miter;stroke-miterlimit:4;stroke-opacity:1;stroke-dasharray:none"
       d="m 320.97215,176.84985 c -1.05717,0.0588 -2.01277,0.78805 -2.49497,1.708 -0.27779,0.49408 -0.14312,1.09574 0.2068,1.5134 0.46179,0.76089 1.31206,1.14197 1.77809,1.89286 0.55879,1.03035 0.88381,2.21884 0.79702,3.39663 -0.1062,0.76463 -0.38301,1.499 -0.5128,2.25608 0.0321,1.1491 0.0296,2.43702 0.83648,3.35184 0.79706,0.87567 1.98907,1.4806 3.18714,1.36385 0.82484,-0.0899 1.29799,-0.88567 1.6322,-1.55556 -0.0504,-2.01323 -0.62546,-4.03778 -1.70295,-5.74745 -0.46246,-0.70171 -1.18837,-1.18621 -1.68828,-1.84154 -0.049,-0.2873 0.32949,-0.48272 0.52535,-0.25513 0.81516,0.70781 1.66673,1.45521 2.12709,2.46411 0.90828,1.69943 1.33635,3.61357 1.3917,5.5313 0.21779,3.21031 -0.3278,6.39781 -0.50904,9.59267 -0.19909,2.72742 -0.19004,5.55032 0.7791,8.14198 0.32025,0.83 0.66686,1.69182 1.27011,2.34983 0.42031,0.1029 0.89458,-0.0227 1.33478,-0.006 3.87997,-0.18073 7.76342,-0.29845 11.64083,-0.5277 0.2729,0.0111 0.60133,-0.14391 0.5456,-0.46634 -0.20857,-2.13581 -0.90617,-4.18635 -1.55961,-6.21833 -1.76793,-5.14485 -3.9341,-10.15107 -6.44471,-14.97377 -1.41052,-2.60913 -2.85646,-5.24094 -4.8197,-7.48482 -1.15804,-1.30953 -2.65306,-2.48966 -4.45159,-2.65282 -0.34586,-0.0805 -0.67191,0.16704 -1.00166,0.0858 -0.2418,-0.1129 -0.18463,-0.49231 0.0526,-0.57707 0.36495,-0.13679 0.27634,-0.56124 -0.0469,-0.68729 -0.40743,-0.34185 -0.8587,-0.75615 -1.43923,-0.69016 -0.47788,0.004 -0.95617,0.01 -1.43344,0.0357 z"
       id="path10034"
       inkscape:connector-curvature="0" />
    <path
       style="fill:#4d4d4d;fill-opacity:1;fill-rule:nonzero;stroke:#000000;stroke-width:0;stroke-linecap:round;stroke-linejoin:miter;stroke-miterlimit:4;stroke-opacity:1;stroke-dasharray:none"
       d="m 334.77631,210.51883 c -1.75294,0.21111 -5.01379,-1.27376 -6.65555,-0.57811 -0.48324,0.81953 2.29402,2.41384 2.78288,2.78448 2.66317,1.48086 6.15369,1.94857 8.94733,0.70285 1.04275,-0.6454 2.04926,-1.92225 2.26284,-3.15549 -1.58782,-0.30731 -3.50923,0.19248 -5.17644,0.14718 -0.72058,0.0282 -1.44091,0.0615 -2.16107,0.099 z"
       id="path10036"
       inkscape:connector-curvature="0"
       sodipodi:nodetypes="cccccccc" />
    <path
       style="fill:#4d4d4d;fill-opacity:1;fill-rule:nonzero;stroke:#000000;stroke-width:0;stroke-linecap:round;stroke-linejoin:miter;stroke-miterlimit:4;stroke-opacity:1;stroke-dasharray:none"
       d="m 297.11099,198.94537 c -0.38952,0.27944 -0.24722,0.88366 -0.37502,1.2982 -0.4743,3.11498 -0.71498,6.2876 -0.38285,9.42968 0.25288,1.54056 0.58534,3.28928 1.89312,4.29787 0.21676,0.2304 0.82235,0.42118 0.81102,-0.0736 -0.36226,-1.5476 -0.76613,-3.09082 -0.84159,-4.68638 -0.29294,-2.59287 0.0701,-5.18141 0.30834,-7.76316 0.0469,-0.48354 0.12099,-1.04073 -0.29386,-1.39869 -0.29953,-0.36526 -0.53191,-0.8142 -0.91244,-1.10053 -0.0692,-0.009 -0.1381,-0.0427 -0.20672,-0.003 z"
       id="path10038"
       inkscape:connector-curvature="0" />
    <path
       style="fill:#de8787;fill-opacity:1;fill-rule:nonzero;stroke:#000000;stroke-width:0;stroke-linecap:round;stroke-linejoin:miter;stroke-miterlimit:4;stroke-opacity:1;stroke-dasharray:none"
       d="m 299.43349,201.44764 c -0.36933,0.18828 -0.19294,0.73433 -0.29685,1.07558 -0.24914,2.33364 -0.48797,4.69027 -0.17508,7.0312 0.20136,1.61947 0.45954,3.27086 1.06788,4.7836 0.34135,0.16396 0.80311,-0.063 1.15781,-0.18536 1.79373,-0.8964 3.01187,-2.59452 4.11768,-4.21038 1.08423,-1.67611 2.01934,-3.4713 2.74422,-5.32963 -0.1413,-0.37024 -0.41286,-0.77821 -0.71722,-1.04226 -0.72981,0.002 -1.45473,-0.14135 -2.15555,-0.29462 -0.38979,0.21167 0.002,0.83262 -0.0478,1.20398 -0.22877,0.26221 -0.74325,0.36553 -1.11293,0.49015 -0.8447,0.22586 -1.73202,0.14196 -2.59802,0.11336 -0.66756,-0.5345 -1.18358,-1.33941 -1.11514,-2.2271 -0.0459,-0.43613 0.0969,-1.01335 -0.41609,-1.21588 -0.13113,-0.0933 -0.27908,-0.2243 -0.45291,-0.19277 z"
       id="path10040"
       inkscape:connector-curvature="0" />
    <path
       style="fill:#4d4d4d;fill-opacity:1;fill-rule:nonzero;stroke:#000000;stroke-width:0;stroke-linecap:round;stroke-linejoin:miter;stroke-miterlimit:4;stroke-opacity:1;stroke-dasharray:none"
       d="m 343.23022,174.87219 c -0.49866,0.0847 -1.11027,-0.051 -1.5263,0.28452 -0.1835,0.67453 -5e-5,1.41018 0.0106,2.10346 0.0751,1.1828 0.65215,2.31917 1.48535,3.14515 1.01059,0.94183 2.49828,0.53727 3.68438,0.25851 0.84036,-0.17653 1.73001,-0.23331 2.58021,-0.20403 1.53946,0.58481 3.11566,1.58938 3.68481,3.2097 0.20264,1.24621 -0.0732,2.51523 0.0938,3.7603 0.27909,1.13483 1.17367,2.0005 2.05642,2.70376 1.35218,1.03751 3.17429,1.56303 4.83037,1.00804 0.97122,-0.29336 1.99365,-0.87876 2.27309,-1.93038 0.12993,-0.60246 0.54934,-1.28173 0.11755,-1.84851 -1.85862,-4.10652 -5.06002,-7.53147 -8.95479,-9.75353 -2.97058,-1.75717 -6.37935,-2.90379 -9.86001,-2.75622 -0.15871,0.002 -0.31707,0.0108 -0.47548,0.0204 z"
       id="path10044"
       inkscape:connector-curvature="0" />
    <path
       style="fill:#4d4d4d;fill-opacity:1;fill-rule:nonzero;stroke:#000000;stroke-width:0;stroke-linecap:round;stroke-linejoin:miter;stroke-miterlimit:4;stroke-opacity:1;stroke-dasharray:none"
       d="m 302.36606,179.14313 c -0.923,0.91136 -1.72082,2.10519 -1.85244,3.40622 1.14903,0.78849 0.94241,2.36282 0.6717,3.5328 -0.38276,1.33471 -0.82053,2.7436 -1.75355,3.78146 -0.32671,0.44253 -0.93279,-0.22216 -1.18594,0.31954 -0.19867,0.35047 -0.62998,0.96697 -0.0262,1.16648 1.13459,0.57046 2.56641,1.43686 3.81035,0.62009 1.41039,-1.0009 2.55836,-2.5366 2.7913,-4.2841 0.26805,-1.6229 -1.60787,-2.87773 -0.98152,-4.50585 0.22596,-0.93834 1.03864,-1.93354 0.58087,-2.91755 -0.46855,-0.62376 -1.27103,-0.99432 -2.00118,-1.15586 l -0.0534,0.0368 z"
       id="path10078"
       inkscape:connector-curvature="0" />
    <path
       style="fill:#4d4d4d;fill-opacity:1;fill-rule:nonzero;stroke:#000000;stroke-width:0;stroke-linecap:round;stroke-linejoin:miter;stroke-miterlimit:4;stroke-opacity:1;stroke-dasharray:none"
       d="m 313.26613,181.2881 c -1.1411,0.0818 -2.59993,0.66885 -2.67907,1.98648 -0.15752,1.82828 0.0503,3.6818 -0.0407,5.50372 -0.35742,1.31126 -1.32517,2.81548 -0.52948,4.15051 1.06073,1.76704 3.42115,2.75065 5.35874,1.878 1.05967,-0.53882 2.04163,-1.87398 1.51221,-3.0814 -0.50552,-0.41724 -1.17312,0.19517 -1.75068,0.0507 -1.10009,-0.009 -2.10124,-0.7483 -2.44074,-1.79564 -1.03118,-2.55557 0.36475,-5.76885 2.87574,-6.83225 0.42812,0.0561 0.81417,-0.44336 0.40448,-0.75509 -0.70631,-0.77854 -1.62978,-1.28667 -2.71046,-1.1049 z"
       id="path10080"
       inkscape:connector-curvature="0" />
    <path
       style="fill:#4d4d4d;fill-opacity:1;fill-rule:nonzero;stroke:#000000;stroke-width:0;stroke-linecap:round;stroke-linejoin:miter;stroke-miterlimit:4;stroke-opacity:1;stroke-dasharray:none"
       d="m 314.04694,174.65557 c -1.32798,0.18934 -2.72847,0.23216 -3.98833,0.69424 -0.75306,0.70067 -0.76874,2.10195 -0.0649,2.84725 0.78817,0.39293 1.73924,0.0239 2.56953,-0.0113 1.10222,-0.2255 2.57906,-0.13029 3.25957,-1.20278 0.35044,-0.96605 -0.44034,-2.20543 -1.4364,-2.34532 -0.11339,-0.001 -0.22693,0.004 -0.33949,0.018 z"
       id="path10082"
       inkscape:connector-curvature="0" />
    <path
       style="fill:#4d4d4d;fill-opacity:1;fill-rule:nonzero;stroke:#000000;stroke-width:0;stroke-linecap:round;stroke-linejoin:miter;stroke-miterlimit:4;stroke-opacity:1;stroke-dasharray:none"
       d="m 300.24528,193.48709 c -0.59322,0.0716 -0.62993,0.73233 -0.8061,1.17218 -0.42641,0.91478 -1.41978,1.40127 -1.92204,2.25073 -0.13102,0.80025 0.53441,1.48444 0.90011,2.13991 0.6281,0.84291 1.37594,1.68826 2.31043,2.16738 0.71636,-0.28699 1.66856,-0.69495 1.59079,-1.63319 -0.0342,-0.61957 0.15262,-1.30505 -0.076,-1.87584 -0.72012,-0.36794 -1.54947,-0.85394 -1.86664,-1.63052 -0.005,-0.26961 0.26169,-0.32721 0.36891,-0.0537 0.56607,0.73299 1.56165,1.59748 2.52959,1.05402 0.68876,-0.20818 1.12674,-0.86292 1.75677,-1.1231 0.21453,0.26764 -0.25194,0.66925 -0.44843,0.85352 -0.48482,0.43214 -1.12361,0.62385 -1.64814,0.92884 -0.2638,0.81178 -0.26317,1.75432 -0.0454,2.57747 0.88432,1.54321 2.48484,3.08881 4.41228,2.73897 1.09942,-0.11199 1.9667,-0.85338 2.96964,-1.21278 0.34282,0.18889 -0.28828,0.54384 -0.32053,0.78947 -0.0238,0.55109 0.78886,0.29352 1.14031,0.39974 1.21205,-0.003 2.43287,0.26698 3.63661,0.15841 0.80589,-0.39788 1.34928,-1.22637 1.80993,-1.97701 0.46375,-0.67473 -0.0335,-1.46501 -0.63486,-1.84165 -1.15213,-0.9746 -2.73012,-0.86623 -4.11364,-0.55888 -1.16492,0.0799 -2.44756,0.20857 -3.54727,-0.25204 -0.80841,-0.40887 -0.56666,-1.50336 -0.71055,-2.24872 -0.14728,-0.6245 0.10524,-1.44954 -0.32173,-1.94007 -0.84475,-0.5744 -2.02266,-1.12247 -2.95211,-0.39705 -0.53192,0.29637 -1.13116,0.61021 -1.71539,0.25716 -0.77057,-0.2119 -1.48959,-0.73593 -2.29644,-0.7433 z"
       id="path10084"
       inkscape:connector-curvature="0" />
    <path
       style="fill:#4d4d4d;fill-opacity:1;fill-rule:nonzero;stroke:#000000;stroke-width:0;stroke-linecap:round;stroke-linejoin:miter;stroke-miterlimit:4;stroke-opacity:1;stroke-dasharray:none"
       d="m 318.24399,206.36578 c -0.91377,0.0415 -1.76473,0.89409 -1.7932,1.8039 0.33238,1.51879 1.93483,2.6213 3.45577,2.55223 0.71895,-0.47948 1.54055,-0.75168 2.29554,-1.14265 0.75091,-0.64355 0.25101,-2.06088 -0.66383,-2.28175 -0.93877,-0.13035 -1.61477,-0.96253 -2.60324,-0.92673 -0.23037,-0.0167 -0.46085,-0.0302 -0.69104,-0.005 z"
       id="path10086"
       inkscape:connector-curvature="0" />
    <path
       style="fill:#4d4d4d;fill-opacity:1;fill-rule:nonzero;stroke:#000000;stroke-width:0;stroke-linecap:round;stroke-linejoin:miter;stroke-miterlimit:4;stroke-opacity:1;stroke-dasharray:none"
       d="m 319.22643,216.24337 c -0.88897,0.17117 -1.72492,1.43471 -1.01335,2.20159 0.53309,0.33293 1.4231,0.053 1.52705,-0.62371 0.21413,-0.5111 0.22191,-1.52962 -0.5137,-1.57788 z"
       id="path10088"
       inkscape:connector-curvature="0" />
    <path
       style="fill:#4d4d4d;fill-opacity:1;fill-rule:nonzero;stroke:#000000;stroke-width:0;stroke-linecap:round;stroke-linejoin:miter;stroke-miterlimit:4;stroke-opacity:1;stroke-dasharray:none"
       d="m 324.38521,216.16117 c -0.6119,0.18796 -1.61287,0.24492 -1.69108,1.05133 -0.13224,0.73025 -0.6727,1.38233 -0.71137,2.10942 0.58708,0.45401 1.44134,0.14323 2.12091,0.0888 0.96852,-0.13925 2.29547,-0.65374 2.22117,-1.84286 -0.10943,-0.8841 -1.09551,-1.5114 -1.93963,-1.4067 z"
       id="path10090"
       inkscape:connector-curvature="0" />
    <path
       style="fill:#4d4d4d;fill-opacity:1;fill-rule:nonzero;stroke:#000000;stroke-width:0;stroke-linecap:round;stroke-linejoin:miter;stroke-miterlimit:4;stroke-opacity:1;stroke-dasharray:none"
       d="m 333.07233,217.1007 c -0.40268,0.1491 -1.3177,0.28762 -1.08449,0.91145 0.33756,0.80482 0.45668,2.01674 1.41392,2.31892 0.85941,-0.27819 1.59086,-1.5837 0.79569,-2.30952 -0.37466,-0.26184 -0.59594,-0.68883 -0.96686,-0.91725 -0.0522,-0.008 -0.10591,-0.0149 -0.15826,-0.004 z"
       id="path10092"
       inkscape:connector-curvature="0" />
    <path
       style="fill:#4d4d4d;fill-opacity:1;fill-rule:nonzero;stroke:#000000;stroke-width:0;stroke-linecap:round;stroke-linejoin:miter;stroke-miterlimit:4;stroke-opacity:1;stroke-dasharray:none"
       d="m 360.19709,217.93087 c -1.98122,0.26715 -3.54608,1.61012 -5.22481,2.57784 -1.43681,0.74747 -3.05718,0.0141 -4.51956,-0.27758 -1.0739,-0.17024 -2.20132,-1.02187 -3.29771,-0.49221 -0.69955,0.34142 -0.52397,1.23602 -0.11544,1.73575 0.28866,0.55128 0.64442,1.14058 1.36405,0.88202 3.45999,-0.15877 6.98513,-0.32397 10.31317,-1.32163 1.06471,-0.41453 2.2796,-1.14667 2.53337,-2.34232 0.0256,-0.58495 -0.52293,-0.87261 -1.05307,-0.76187 z"
       id="path10094"
       inkscape:connector-curvature="0" />
    <path
       style="fill:#4d4d4d;fill-opacity:1;fill-rule:nonzero;stroke:#000000;stroke-width:0;stroke-linecap:round;stroke-linejoin:miter;stroke-miterlimit:4;stroke-opacity:1;stroke-dasharray:none"
       d="m 349.45878,208.65073 c -1.01254,0.29882 -1.99345,1.0149 -2.43103,2.00007 -0.61805,1.79014 1.00209,3.7346 2.81201,3.82438 1.37183,0.10453 2.78543,-0.29526 3.96921,-0.98306 1.27948,-0.82069 1.61752,-2.59737 1.22653,-3.98291 -0.12075,-0.55383 -0.74932,-0.85994 -1.22052,-0.49613 -1.17229,0.6274 -2.09014,1.75561 -3.38441,2.13038 -0.87054,0.0533 -0.98369,-1.01996 -0.77137,-1.65655 0.11213,-0.2653 0.48059,-0.78541 -0.0323,-0.84335 -0.0558,-0.008 -0.11254,0.002 -0.1681,0.007 z"
       id="path10096"
       inkscape:connector-curvature="0" />
    <path
       style="fill:#4d4d4d;fill-opacity:1;fill-rule:nonzero;stroke:#000000;stroke-width:0;stroke-linecap:round;stroke-linejoin:miter;stroke-miterlimit:4;stroke-opacity:1;stroke-dasharray:none"
       d="m 359.59384,198.75047 c -1.34121,0.19517 -2.93776,0.81003 -3.37332,2.22991 -0.24347,1.33726 0.56402,2.57727 0.96804,3.80372 0.44031,1.34835 1.4489,2.61127 1.3011,4.07779 -0.11183,0.79162 -0.61755,1.79325 0.13732,2.42835 0.89195,0.86054 2.25036,1.59031 3.50047,1.17461 1.17428,-0.52595 1.51354,-1.85888 1.68602,-3.02075 0.4654,-3.08698 1.50299,-6.13352 1.29094,-9.28756 -0.45959,-0.46178 -1.25191,-0.5437 -1.85936,-0.81022 -1.17801,-0.37631 -2.40462,-0.68997 -3.65121,-0.59585 z"
       id="path10098"
       inkscape:connector-curvature="0" />
    <path
       style="fill:#4d4d4d;fill-opacity:1;fill-rule:nonzero;stroke:#000000;stroke-width:0;stroke-linecap:round;stroke-linejoin:miter;stroke-miterlimit:4;stroke-opacity:1;stroke-dasharray:none"
       d="m 347.67401,194.8458 c -2.2995,0.54978 -4.64073,1.48904 -6.29653,3.2407 -0.45843,0.6059 -1.16514,1.17523 -1.27459,1.95761 0.45198,1.88434 1.23905,3.69263 1.80853,5.52905 0.0782,0.46865 0.60465,0.45911 0.86555,0.14926 0.38612,-0.27148 1.05246,-0.76286 0.56201,-1.25485 -0.4349,-0.61486 -1.03446,-1.22121 -0.89406,-2.03747 -0.007,-0.73477 0.56043,-1.63433 1.3956,-1.3732 0.95222,0.1387 1.77576,0.78119 2.73668,0.8314 1.77758,-0.4822 3.75515,-1.50342 4.28204,-3.41334 0.2363,-1.2762 -0.96387,-2.22529 -1.8188,-2.96047 -0.39051,-0.31356 -0.81553,-0.75716 -1.36643,-0.66869 z"
       id="path10100"
       inkscape:connector-curvature="0" />
    <path
       style="fill:#4d4d4d;fill-opacity:1;fill-rule:nonzero;stroke:#000000;stroke-width:0;stroke-linecap:round;stroke-linejoin:miter;stroke-miterlimit:4;stroke-opacity:1;stroke-dasharray:none"
       d="m 348.47418,184.29223 c -1.26255,-0.0116 -2.39341,0.9723 -2.53134,2.22843 -0.31391,1.78936 0.98986,3.80224 2.8834,3.88684 0.68014,0.105 1.51508,-0.27625 1.46362,-1.06576 0.14067,-0.90817 -0.52376,-1.9203 0.004,-2.74125 0.75942,-0.5269 0.44336,-1.66352 -0.28636,-2.05303 -0.44848,-0.29947 -1.01761,-0.28453 -1.53338,-0.25523 z"
       id="path10102"
       inkscape:connector-curvature="0" />
    <path
       style="fill:#4d4d4d;fill-opacity:1;fill-rule:nonzero;stroke:#000000;stroke-width:0;stroke-linecap:round;stroke-linejoin:miter;stroke-miterlimit:4;stroke-opacity:1;stroke-dasharray:none"
       d="m 337.19411,178.45357 c -0.98644,0.13395 -2.05121,0.0116 -2.98393,0.38936 -0.9264,0.68772 -0.69721,2.22871 0.226,2.8176 1.10781,0.93975 2.6783,1.67267 2.87874,3.29055 0.32508,1.28526 0.0936,2.77324 0.87022,3.90723 1.04737,1.30921 3.37496,1.53102 4.51234,0.23503 0.7346,-1.18967 0.1428,-2.6805 -0.3787,-3.83616 -0.5249,-1.45538 -2.38177,-1.5925 -3.14406,-2.80928 -0.2549,-1.04889 -0.13163,-2.19454 -0.54571,-3.22461 -0.0996,-0.4799 -0.47327,-0.98841 -1.03708,-0.79013 -0.13268,0.006 -0.26521,0.0138 -0.39782,0.0205 z"
       id="path10104"
       inkscape:connector-curvature="0" />
    <path
       style="fill:#d7d7d7;fill-opacity:1;fill-rule:nonzero;stroke:#000000;stroke-width:0;stroke-linecap:round;stroke-linejoin:miter;stroke-miterlimit:4;stroke-opacity:1;stroke-dasharray:none"
       d="m 315.45578,174.68166 c -0.41254,-0.0315 -0.46577,0.43718 -0.18513,0.65953 0.34879,0.43319 0.52793,1.09459 0.32661,1.62382 -0.77892,0.97691 -2.19352,0.82368 -3.30482,1.08916 -0.74274,0.0165 -1.69497,0.39728 -2.31295,-0.15991 -0.45389,-0.67199 -0.31941,-1.56471 -0.038,-2.27397 -0.16967,-0.53265 -0.86075,-0.0484 -1.20965,0.003 -2.1665,0.71379 -4.34737,1.64775 -6.02922,3.22243 -0.25998,0.49089 0.51212,0.69822 0.8189,0.91322 0.66469,0.26011 1.05431,1.00202 0.75866,1.6812 -0.35376,1.12816 -1.03854,2.34354 -0.44826,3.53249 0.40985,1.0423 1.1226,2.10972 0.67797,3.2638 -0.40612,1.51448 -1.45223,2.90611 -2.8167,3.68526 -1.25579,0.56344 -2.52289,-0.35907 -3.65726,-0.81969 -0.49555,0.0917 -0.41673,0.82193 -0.59894,1.19438 -0.358,1.38553 -0.42532,2.8831 -0.16557,4.28241 0.28133,0.48085 0.78085,-0.17148 1.04454,-0.36087 0.77434,-0.61806 1.29085,-1.46054 1.64403,-2.37421 0.27915,-0.36343 0.8799,-0.009 1.23973,0.0574 0.95973,0.37229 2.13466,0.92408 3.09968,0.23321 0.94016,-0.5932 2.20686,-0.19298 2.92442,0.55791 0.16397,1.16942 0.0578,2.42007 0.45233,3.53543 0.71581,0.95142 2.07225,0.73233 3.11529,0.76353 1.24362,-0.009 2.50864,-0.20181 3.73546,-0.14839 0.7578,0.31304 1.61046,0.75636 1.96666,1.53253 0.0615,1.10202 -0.95391,1.79852 -1.53249,2.60302 0.0139,0.53473 0.8051,0.26116 1.15317,0.38424 2.41457,0.2036 4.97413,-0.009 7.08794,-1.29098 0.11709,0.30129 0.64606,0.761 0.0817,0.87226 -1.97843,1.09444 -4.26079,1.39989 -6.50477,1.23395 -2.62192,-0.0776 -5.26124,-0.46126 -7.88374,-0.37867 -0.3842,0.34548 0.22601,0.83405 0.34954,1.19185 1.21588,2.05706 2.67623,3.95746 4.51134,5.49089 2.17288,2.02868 4.98187,3.25606 7.84582,3.94618 0.52224,-0.13191 0.11633,-0.85665 0.16091,-1.23085 -0.11807,-0.37184 0.41889,-0.75406 0.63111,-0.3545 0.50986,1.17425 0.20006,2.56485 0.67752,3.73962 0.631,0.13835 1.31262,-0.48616 1.96931,-0.16331 0.73027,0.16325 1.27716,1.00296 1.01428,1.71168 -0.79141,1.12905 -2.34291,1.21992 -3.57804,1.21116 -0.7331,-0.31268 -1.10758,0.6825 -1.52479,1.08217 -0.32429,0.53178 -1.05153,1.12319 -0.79297,1.80604 1.02853,1.2007 2.81047,1.03723 4.22136,0.83011 1.39915,-0.22724 2.76588,-1.10478 3.15749,-2.53788 0.57739,-1.84164 0.80313,-3.76691 1.39376,-5.60954 0.12101,-0.71459 0.49735,-1.44076 0.42504,-2.15681 -1.24682,-1.05637 -2.25399,-2.39008 -2.72928,-3.9614 -0.96399,-2.56951 -0.89626,-5.40894 -0.81774,-8.12026 0.1628,-3.03971 0.59943,-6.07327 0.58611,-9.11702 -0.18365,-0.52153 -0.681,0.0521 -0.92827,0.23612 -0.64318,0.67379 -1.68998,0.30732 -2.42931,0.014 -1.23345,-0.53155 -2.10264,-1.76794 -2.05376,-3.12577 -0.15995,-1.81172 0.81623,-3.60664 0.1948,-5.40796 -0.34232,-1.43394 -1.54826,-2.3462 -2.40903,-3.44822 -0.52542,-0.57599 -0.16151,-1.37849 0.35611,-1.81497 0.73873,-1.0128 2.08955,-0.93735 3.19591,-1.06385 0.50888,-0.47348 -0.68437,-0.65834 -0.98758,-0.91981 -1.83049,-0.85652 -3.84823,-1.40813 -5.8792,-1.3455 z m -1.7885,6.77894 c 0.90124,-0.0567 1.72449,0.57161 2.28585,1.22301 0.20988,0.55539 0.99094,0.14719 1.39432,0.46113 1.42024,0.51517 2.12216,2.05122 2.03529,3.48498 -0.0188,1.88128 -1.03663,3.722 -2.58241,4.76842 -0.2056,0.44083 0.18272,0.94249 -0.0191,1.41442 -0.32096,1.42258 -1.90653,2.3091 -3.30696,2.0926 -1.55165,-0.16001 -3.16004,-1.23597 -3.53818,-2.7935 -0.1703,-1.5184 1.01764,-2.84397 0.76281,-4.38286 0.0712,-1.64447 -0.16946,-3.35035 0.20939,-4.95063 0.48916,-1.05634 1.72698,-1.26531 2.75897,-1.31757 z m 4.754,25.06657 c 1.24779,-0.0285 2.36665,0.68594 3.46617,1.17608 0.5664,0.46299 0.72861,1.54131 -0.073,1.84428 -0.81809,0.35842 -1.63418,1.07501 -2.56116,0.95745 -1.18904,-0.26778 -2.44542,-1.17926 -2.58269,-2.46881 0.0378,-0.82372 0.97819,-1.47956 1.75072,-1.509 z"
       id="path10106"
       inkscape:connector-curvature="0" />
    <path
       style="fill:#d7d7d7;fill-opacity:1;fill-rule:nonzero;stroke:#000000;stroke-width:0;stroke-linecap:round;stroke-linejoin:miter;stroke-miterlimit:4;stroke-opacity:1;stroke-dasharray:none"
       d="m 317.38701,213.99108 c -0.37455,0.2477 0.084,0.7305 -0.0226,1.08706 0.13734,1.55414 -0.33594,3.15488 -1.41246,4.2949 -0.3638,0.58103 -1.18413,1.18112 -0.9453,1.94634 0.76856,1.09728 2.31232,1.55465 3.52916,0.95963 0.37312,-0.11727 0.83797,-0.31857 0.8193,-0.7797 0.65963,-1.4601 1.9782,-2.52805 2.46597,-4.09439 0.21348,-0.6486 0.39349,-1.48677 0.0118,-2.07268 -1.48162,-0.37125 -2.91345,-0.91311 -4.36735,-1.35483 l -0.0137,5.9e-4 -0.0648,0.013 z m 1.8486,2.42083 c 0.53716,0.20099 0.58086,0.88598 0.32778,1.32724 -0.0834,0.52196 -0.75702,0.80829 -1.19185,0.58527 -0.55941,-0.68692 0.1401,-1.7027 0.86407,-1.91251 z"
       id="path10108"
       inkscape:connector-curvature="0" />
    <path
       style="fill:#d7d7d7;fill-opacity:1;fill-rule:nonzero;stroke:#000000;stroke-width:0;stroke-linecap:round;stroke-linejoin:miter;stroke-miterlimit:4;stroke-opacity:1;stroke-dasharray:none"
       d="m 330.076,213.50142 c -0.0849,0.6826 -0.47011,1.39854 -0.35348,2.07688 0.58848,0.32692 1.39951,0.21093 2.06946,0.34445 4.01813,0.32965 8.07587,0.86696 12.09667,0.4889 0.4709,-0.28018 -0.26389,-0.60838 -0.47533,-0.78359 -0.94042,-0.57235 -1.67689,-1.44564 -2.54671,-2.07676 -1.39324,0.84891 -2.96843,1.30785 -4.60631,1.27691 -2.0621,0.0695 -4.07016,-0.55218 -5.90809,-1.45926 -0.13712,-0.029 -0.20717,0.0195 -0.27621,0.13247 z"
       id="path10114"
       inkscape:connector-curvature="0" />
    <path
       style="fill:#f7f7f7;fill-opacity:1;fill-rule:nonzero;stroke:#000000;stroke-width:0;stroke-linecap:round;stroke-linejoin:miter;stroke-miterlimit:4;stroke-opacity:1;stroke-dasharray:none"
       d="m 366.28033,192.25669 c -0.73712,0.13123 -1.2602,0.95529 -0.93456,1.68797 0.7236,3.93972 0.82075,8.00436 -0.0218,11.92818 -0.18967,1.5145 -0.78368,3.00778 -0.69994,4.52504 0.38669,0.48801 0.98176,-0.3729 1.36883,-0.50213 2.71773,-1.91254 5.38086,-4.18088 6.93899,-7.15174 0.38446,-1.0667 0.13321,-2.68308 -1.00827,-3.1459 -0.78076,0.1094 -1.38932,0.72625 -1.97552,1.21066 -0.90166,-0.53757 -0.20686,-0.91721 0.32569,-1.38441 0.97603,-1.05354 2.5421,-2.16104 2.10268,-3.81951 -0.28245,-1.26643 -1.1209,-2.5864 -2.36109,-3.06866 -1.10342,0.1081 -1.40834,1.5079 -1.79562,2.35858 -0.20432,0.34845 -0.19469,1.35216 -0.83122,1.03018 -0.67888,-0.0478 -0.007,-0.84009 -0.0765,-1.23039 0.10799,-0.80134 0.13042,-2.47939 -1.03172,-2.43787 z"
       id="path10116"
       inkscape:connector-curvature="0" />
    <path
       style="fill:#d7d7d7;fill-opacity:1;fill-rule:nonzero;stroke:#2a1431;stroke-width:0;stroke-linecap:round;stroke-linejoin:miter;stroke-miterlimit:4;stroke-opacity:1;stroke-dasharray:none"
       d="m 47.094599,11.025629 c -3.998013,0.790072 -7.990399,1.875075 -11.773438,3.398438 -0.934678,0.951367 0.806948,1.93386 1.216258,2.720563 3.490738,4.515481 5.769538,9.824801 8.221242,14.982562 0.200053,0.734722 0.727026,2.090094 1.671875,1.320312 2.638233,-2.369796 6.032512,-3.855266 9.577225,-4.060262 2.727703,-0.06709 5.72206,-0.276319 8.196213,0.982137 0.39399,0.52332 -0.770388,0.670115 -1.078125,0.507813 -2.640173,-0.269538 -5.459737,-1.00367 -8.054688,-0.226563 -0.672643,1.206133 1.542185,1.776409 1.46875,3.03125 0.07241,2.071706 -2.330844,3.379838 -4.140625,3.492188 -1.265188,-0.03725 -3.089158,-1.432027 -3.921875,0.140625 -0.460376,1.14683 0.120495,2.396357 0.78125,3.335937 -1.13801,0.67534 -0.946997,2.013153 -0.507812,3.03125 0.53347,1.648073 0.263376,3.474818 -0.726563,4.914063 0.431386,1.272812 2.031974,1.983822 3.175734,2.691902 3.431679,2.008603 7.652368,1.654115 11.207079,0.175285 0.73814,-0.12192 1.869917,-0.900642 2.515625,-0.460937 0.24219,1.017635 -1.508738,1.08171 -2.117188,1.507812 -3.168217,1.216305 -6.735222,1.697135 -10.023437,0.804688 -2.64925,-0.100173 -5.44579,-0.26629 -7.984375,0.578125 -1.388821,0.652775 -1.660725,2.85721 -0.07813,3.460937 2.641906,1.482605 5.834625,0.714418 8.71875,0.960938 1.187291,-0.47262 -1.296965,-2.24503 0.3125,-2.507813 2.649733,0.009 5.413156,1.853435 7.984375,0.390625 1.815967,-0.966415 3.53728,-2.263645 5.703125,-2.195312 0.962915,-1.552008 1.237102,-3.56098 1.632812,-5.382813 0.0524,-1.343587 -1.520032,-0.388672 -2.25,-0.742187 -1.40389,-0.236943 -2.560657,-1.633028 -2.03125,-3.101563 0.26838,-2.911417 -2.39935,-5.312425 -2.015625,-8.1875 1.386273,-2.246929 4.529835,-1.874179 6.640625,-1.117187 0.709965,0.322016 1.993028,0.375576 1.674005,-0.749636 -0.34688,-3.134442 -0.644537,-6.391235 -1.861505,-9.312864 -0.940687,-0.909767 -1.639637,0.766518 -2.554687,0.921875 -2.579148,1.266911 -5.533883,-0.489627 -6.820313,-2.773438 -0.587362,-1.561589 0.172485,-3.441858 -0.551776,-4.872089 -1.317832,-1.608264 -3.199084,-3.0948 -5.423545,-2.595222 -1.590289,0.104916 -3.841974,0.93234 -4.813741,-0.845189 -1.025049,-1.104171 -0.745111,-2.659155 -1.179688,-3.945312 -0.178003,-0.25138 -0.501524,-0.313303 -0.789057,-0.273438 z m -3.8125,3.554688 c 1.352394,-0.338689 1.379426,1.267028 1.484375,2.171875 -0.173919,2.25544 2.338142,2.879173 3.351562,4.460937 0.656242,1.17315 1.2116,3.42538 -0.460937,3.976563 -1.402165,0.804589 -3.332801,-0.423585 -3.476563,-2 -0.408503,-1.826594 -0.437462,-4.077288 -2.296875,-5.117188 -0.876292,-0.593627 -2.406562,-1.853522 -1.5,-2.921875 0.835295,-0.552192 1.936323,-0.485587 2.898438,-0.570312 z m 11.523437,5.820312 c 1.044538,-0.161235 2.18867,0.965578 1.398438,1.929688 -0.420088,1.012492 0.06425,2.319245 -0.367188,3.242187 -2.522699,1.129019 -4.64967,-2.784169 -2.726562,-4.539062 0.476825,-0.401503 1.075361,-0.607126 1.695312,-0.632813 z m 0.296875,24.59375 c 0.360868,0.02466 0.132266,2.597491 2.117188,1.984375 1.174254,-0.425547 2.100582,-1.901835 3.390625,-1.78125 1.179185,1.847568 -0.663655,4.10884 -2.59375,4.453125 -1.961826,1.094095 -4.949826,-0.548712 -4.585938,-2.914062 0.376166,-1.026493 1.18955,-1.775149 1.671875,-1.742188 z"
       id="path12403"
       inkscape:connector-curvature="0"
       transform="translate(293.88257,164.22342)"
       sodipodi:nodetypes="cccccccccccccccccccccccccccccccccccccccccccccccccccccsccccs" />
    <path
       style="fill:#d7d7d7;fill-opacity:1;fill-rule:nonzero;stroke:#2a1431;stroke-width:0;stroke-linecap:round;stroke-linejoin:miter;stroke-miterlimit:4;stroke-opacity:1;stroke-dasharray:none"
       d="m 40.164911,53.158442 c -0.05784,0.839399 0.455693,2.133161 -0.65625,2.523437 -0.795321,-0.502938 -0.862713,-2.78721 -1.990332,-1.918035 -1.318344,0.779437 -1.86865,3.36168 -0.05654,3.847723 1.661439,0.105839 3.449947,0.437449 5.0625,0 0.586518,-0.715314 -0.325695,-1.728236 0.09375,-2.578125 0.147847,-0.698184 1.193405,-1.968819 -0.179687,-2.007813 -0.747996,0.03978 -1.580758,-0.152761 -2.273438,0.132813 z"
       id="path12405"
       inkscape:connector-curvature="0"
       transform="translate(293.88257,164.22342)" />
  </g>
</svg>
