<?xml version="1.0" encoding="UTF-8" standalone="no"?>
<!-- Created with Inkscape (http://www.inkscape.org/) -->

<svg
   xmlns:dc="http://purl.org/dc/elements/1.1/"
   xmlns:cc="http://creativecommons.org/ns#"
   xmlns:rdf="http://www.w3.org/1999/02/22-rdf-syntax-ns#"
   xmlns:svg="http://www.w3.org/2000/svg"
   xmlns="http://www.w3.org/2000/svg"
   xmlns:sodipodi="http://sodipodi.sourceforge.net/DTD/sodipodi-0.dtd"
   xmlns:inkscape="http://www.inkscape.org/namespaces/inkscape"
   width="80"
   height="80.000427"
   id="svg18320"
   version="1.1"
   inkscape:version="0.48.5 r10040"
   sodipodi:docname="tile-earth5.svg">
  <defs
     id="defs18322">
    <clipPath
       clipPathUnits="userSpaceOnUse"
       id="clipPath18242">
      <rect
         style="opacity:0.44690265;fill:#fcda54;fill-opacity:1;stroke:none;display:inline"
         id="rect18244"
         width="80"
         height="80"
         x="240"
         y="812.36218" />
    </clipPath>
  </defs>
  <sodipodi:namedview
     id="base"
     pagecolor="#ffffff"
     bordercolor="#666666"
     borderopacity="1.0"
     inkscape:pageopacity="0.0"
     inkscape:pageshadow="2"
     inkscape:zoom="3.1764562"
     inkscape:cx="29.586585"
     inkscape:cy="14.281077"
     inkscape:document-units="px"
     inkscape:current-layer="g5797"
     showgrid="false"
     fit-margin-top="0"
     fit-margin-left="0"
     fit-margin-right="0"
     fit-margin-bottom="0"
     inkscape:window-width="1278"
     inkscape:window-height="781"
     inkscape:window-x="0"
     inkscape:window-y="17"
     inkscape:window-maximized="0" />
  <metadata
     id="metadata18325">
    <rdf:RDF>
      <cc:Work
         rdf:about="">
        <dc:format>image/svg+xml</dc:format>
        <dc:type
           rdf:resource="http://purl.org/dc/dcmitype/StillImage" />
        <dc:title></dc:title>
      </cc:Work>
    </rdf:RDF>
  </metadata>
  <g
     inkscape:label="Layer 1"
     inkscape:groupmode="layer"
     id="layer1"
     transform="translate(-505.1741,-335.04968)">
    <g
       transform="translate(265.1741,-477.31208)"
       style="display:inline"
       id="g5797"
       inkscape:export-filename="C:\Users\hugcol01\Dropbox\CodeKingdoms\concept\output\tile-earth4.png"
       inkscape:export-xdpi="90"
       inkscape:export-ydpi="90">
      <rect
         style="opacity:0.98999999000000005;fill:#2d534d;fill-opacity:0.98823529;fill-rule:nonzero;stroke:none"
         id="rect2985-18-74-7"
         width="80"
         height="80"
         x="-320"
         y="812.36176"
         transform="scale(-1,1)" />
      <path
         sodipodi:nodetypes="ccczcccc"
         inkscape:connector-curvature="0"
         id="rect3007-5-6-9"
         d="m 240,812.36217 80,0 0,3 c 0,0 -12.07212,-1.49773 -19.82142,-1.28571 C 292.42926,814.28847 280,812.46931 280,812.46931 l -20,0.89286 -20,2 z"
         style="opacity:0.98999999000000005;fill:#72bfb4;fill-opacity:1;fill-rule:nonzero;stroke:none" />
      <path
         sodipodi:nodetypes="ccczczcc"
         inkscape:connector-curvature="0"
         id="rect3007-7-9-1-54"
         d="m 319.99988,812.36221 0,79.99998 -0.9998,0 c 0,0 -0.50211,-12.0721 -0.71416,-19.8214 -0.21197,-7.7493 1.60688,-20.1786 1.60688,-20.1786 0,0 -3.63731,-11.6765 -2.89232,-19.99998 0.74499,-8.3235 1.9996,-20 1.9996,-20 z"
         style="opacity:0.98999999000000005;fill:#72bfb4;fill-opacity:1;fill-rule:nonzero;stroke:none" />
      <path
         style="fill:#72bfb4;fill-opacity:1;stroke:none"
         d="m 315.87763,867.164 -15.22942,-17.53931 -20.84605,6.32 -11.11403,15.39815 7.96764,16.62879 -5.24664,-16.15852 10.13077,-14.62634 20.7767,-2.19747 z"
         id="path4577-2"
         inkscape:connector-curvature="0" />
      <path
         style="fill:#72bfb4;fill-opacity:1;stroke:none"
         d="m 245.79216,823.18709 -1.12467,15.4479 8.39319,9.27434 17.78771,-4.895 3.80501,-11.38551 -10.95426,-15.55245 7.95775,16.15391 -3.39593,9.23203 -14.98255,3.00723 -6.46302,-7.61447 z"
         id="path4579-3"
         inkscape:connector-curvature="0" />
      <path
         style="fill:#72bfb4;fill-opacity:1;stroke:none"
         d="m 247.25,860.86219 c 0,0 12,-4.25 11,-4.25 -1,0 7.5,6 7.5,6 l -2.5,8.5 -9.5,3.25 -8.25,-6.25 z"
         id="path4809"
         inkscape:connector-curvature="0" />
    </g>
  </g>
</svg>
