<?xml version="1.0" encoding="UTF-8" standalone="no"?>
<!-- Created with Inkscape (http://www.inkscape.org/) -->

<svg
   xmlns:dc="http://purl.org/dc/elements/1.1/"
   xmlns:cc="http://creativecommons.org/ns#"
   xmlns:rdf="http://www.w3.org/1999/02/22-rdf-syntax-ns#"
   xmlns:svg="http://www.w3.org/2000/svg"
   xmlns="http://www.w3.org/2000/svg"
   xmlns:sodipodi="http://sodipodi.sourceforge.net/DTD/sodipodi-0.dtd"
   xmlns:inkscape="http://www.inkscape.org/namespaces/inkscape"
   width="80"
   height="80.000427"
   id="svg18320"
   version="1.1"
   inkscape:version="0.48.5 r10040"
   sodipodi:docname="tile-wall5.svg"
   inkscape:export-filename="/home/rhiannon/caveexplorer/lua-cave-gen/tile-earth1.png"
   inkscape:export-xdpi="90"
   inkscape:export-ydpi="90">
  <sodipodi:namedview
     id="base"
     pagecolor="#ffffff"
     bordercolor="#666666"
     borderopacity="1.0"
     inkscape:pageopacity="0.0"
     inkscape:pageshadow="2"
     inkscape:zoom="2.3538037"
     inkscape:cx="32.889365"
     inkscape:cy="47.113043"
     inkscape:document-units="px"
     inkscape:current-layer="layer1"
     showgrid="false"
     fit-margin-top="0"
     fit-margin-left="0"
     fit-margin-right="0"
     fit-margin-bottom="0"
     inkscape:window-width="638"
     inkscape:window-height="781"
     inkscape:window-x="0"
     inkscape:window-y="17"
     inkscape:window-maximized="0"
     showguides="true"
     inkscape:guide-bbox="true" />
  <defs
     id="defs18322" />
  <metadata
     id="metadata18325">
    <rdf:RDF>
      <cc:Work
         rdf:about="">
        <dc:format>image/svg+xml</dc:format>
        <dc:type
           rdf:resource="http://purl.org/dc/dcmitype/StillImage" />
        <dc:title />
      </cc:Work>
    </rdf:RDF>
  </metadata>
  <g
     inkscape:label="Layer 1"
     inkscape:groupmode="layer"
     id="layer1"
     transform="translate(-133.88839,-206.47759)">
    <rect
       style="opacity:0.98999999000000005;fill:#231128;fill-opacity:1;fill-rule:nonzero;stroke:none"
       id="rect2985-18-74-6"
       width="80"
       height="80"
       x="-213.8884"
       y="206.47758"
       transform="scale(-1,1)" />
    <path
       sodipodi:nodetypes="ccczcccc"
       inkscape:connector-curvature="0"
       id="rect3007-5-6-8"
       d="m 133.88839,206.47799 80,0 0,3 c 0,0 -12.07212,-1.49773 -19.82143,-1.28571 -7.74931,0.21201 -20.17857,-1.60715 -20.17857,-1.60715 l -20,0.89286 -20,2 z"
       style="opacity:0.98999999000000005;fill:#321738;fill-opacity:1;fill-rule:nonzero;stroke:none" />
    <path
       sodipodi:nodetypes="ccczczcc"
       inkscape:connector-curvature="0"
       id="rect3007-7-9-1-5"
       d="m 213.88826,206.47803 0,79.99998 -0.9998,0 c 0,0 -0.5021,-12.0721 -0.71416,-19.8214 -0.21196,-7.7493 1.60688,-20.1786 1.60688,-20.1786 0,0 -3.63731,-11.6765 -2.89232,-19.99998 0.74499,-8.3235 1.9996,-20 1.9996,-20 z"
       style="opacity:0.98999999000000005;fill:#321739;fill-opacity:0.98823529;fill-rule:nonzero;stroke:none" />
    <path
       style="fill:#321738;fill-opacity:1;fill-rule:nonzero;stroke:#231128;stroke-width:0;stroke-linecap:round;stroke-linejoin:miter;stroke-miterlimit:4;stroke-opacity:1;stroke-dasharray:none"
       d="m 188.75636,219.91687 c -1.02249,-0.88346 -0.92885,-3.08315 -2.24868,-3.37303 -3.77943,-0.8301 -6.50351,4.207 -9.89423,6.07145 -3.43684,1.88982 -8.23739,2.018 -10.56883,5.17199 -2.84218,3.84492 -4.35268,9.87317 -2.24869,14.16673 1.91903,3.91609 7.11015,6.13864 11.46831,6.29632 3.95521,0.1431 6.8826,-4.34086 10.7937,-4.94711 4.2538,-0.65937 9.43213,4.2328 12.81752,1.57408 4.03623,-3.16987 3.4821,-10.44275 1.79895,-15.29107 -1.18202,-3.4048 -4.69946,-5.56938 -7.64554,-7.64554 -1.28814,-0.90778 -3.08009,-0.99353 -4.27251,-2.02382 z"
       id="path6123"
       inkscape:connector-curvature="0"
       sodipodi:nodetypes="sssssssssss" />
    <path
       style="fill:#321738;fill-opacity:1;fill-rule:nonzero;stroke:#231128;stroke-width:0;stroke-linecap:round;stroke-linejoin:miter;stroke-miterlimit:4;stroke-opacity:1;stroke-dasharray:none"
       d="m 183.58439,263.09168 c -1.43082,-0.96463 -3.7076,-0.68803 -5.17198,0.22486 -3.98505,2.4843 -8.45149,7.99241 -6.74606,12.36779 1.35152,3.46739 7.17812,5.13169 10.56883,3.5979 3.0312,-1.37118 3.73615,-5.89384 3.82277,-9.21962 0.0642,-2.46476 -0.42917,-5.59266 -2.47356,-6.97093 z"
       id="path6125"
       inkscape:connector-curvature="0"
       sodipodi:nodetypes="ssssss" />
  </g>
</svg>
