<?xml version="1.0" encoding="UTF-8" standalone="no"?>
<!-- Created with Inkscape (http://www.inkscape.org/) -->

<svg
   xmlns:dc="http://purl.org/dc/elements/1.1/"
   xmlns:cc="http://creativecommons.org/ns#"
   xmlns:rdf="http://www.w3.org/1999/02/22-rdf-syntax-ns#"
   xmlns:svg="http://www.w3.org/2000/svg"
   xmlns="http://www.w3.org/2000/svg"
   xmlns:sodipodi="http://sodipodi.sourceforge.net/DTD/sodipodi-0.dtd"
   xmlns:inkscape="http://www.inkscape.org/namespaces/inkscape"
   width="80"
   height="80.000427"
   id="svg18320"
   version="1.1"
   inkscape:version="0.48.5 r10040"
   sodipodi:docname="tile-earth4.svg">
  <defs
     id="defs18322">
    <clipPath
       clipPathUnits="userSpaceOnUse"
       id="clipPath18242">
      <rect
         style="opacity:0.44690265;fill:#fcda54;fill-opacity:1;stroke:none;display:inline"
         id="rect18244"
         width="80"
         height="80"
         x="240"
         y="812.36218" />
    </clipPath>
  </defs>
  <sodipodi:namedview
     id="base"
     pagecolor="#ffffff"
     bordercolor="#666666"
     borderopacity="1.0"
     inkscape:pageopacity="0.0"
     inkscape:pageshadow="2"
     inkscape:zoom="3.1764562"
     inkscape:cx="91.605384"
     inkscape:cy="10.344693"
     inkscape:document-units="px"
     inkscape:current-layer="g5797"
     showgrid="false"
     fit-margin-top="0"
     fit-margin-left="0"
     fit-margin-right="0"
     fit-margin-bottom="0"
     inkscape:window-width="1278"
     inkscape:window-height="781"
     inkscape:window-x="0"
     inkscape:window-y="17"
     inkscape:window-maximized="0" />
  <metadata
     id="metadata18325">
    <rdf:RDF>
      <cc:Work
         rdf:about="">
        <dc:format>image/svg+xml</dc:format>
        <dc:type
           rdf:resource="http://purl.org/dc/dcmitype/StillImage" />
        <dc:title></dc:title>
      </cc:Work>
    </rdf:RDF>
  </metadata>
  <g
     inkscape:label="Layer 1"
     inkscape:groupmode="layer"
     id="layer1"
     transform="translate(-505.1741,-335.04968)">
    <g
       transform="translate(265.1741,-477.31208)"
       style="display:inline"
       id="g5797"
       inkscape:export-filename="C:\Users\hugcol01\Dropbox\CodeKingdoms\concept\output\tile-earth4.png"
       inkscape:export-xdpi="90"
       inkscape:export-ydpi="90">
      <rect
         transform="scale(-1,1)"
         y="812.36176"
         x="-320"
         height="80"
         width="80"
         id="rect2985-18-74"
         style="opacity:0.98999999000000005;fill:#72bfb4;fill-opacity:1;fill-rule:nonzero;stroke:none"
         inkscape:export-filename="C:\Users\hugcol01\Dropbox\CodeKingdoms\concept\output\tile-earth4.png"
         inkscape:export-xdpi="90"
         inkscape:export-ydpi="90" />
      <path
         style="opacity:0.98999999000000005;fill:#2d534d;fill-opacity:0.97647059;fill-rule:nonzero;stroke:none"
         d="m 240,812.36216 80,0 0,3 c 0,0 -12.07212,-1.49773 -19.82143,-1.28571 C 292.42926,814.28846 280,812.4693 280,812.4693 l -20,0.89286 -20,2 z"
         id="rect3007-5-6"
         inkscape:connector-curvature="0"
         sodipodi:nodetypes="ccczcccc" />
      <path
         style="opacity:0.98999999000000005;fill:#2d534d;fill-opacity:0.97647059;fill-rule:nonzero;stroke:none"
         d="m 319.99987,812.3622 0,79.99998 -0.9998,0 c 0,0 -0.5021,-12.0721 -0.71416,-19.8214 -0.21196,-7.7493 1.60688,-20.1786 1.60688,-20.1786 0,0 -3.6373,-11.6765 -2.89232,-19.99998 0.74499,-8.3235 1.9996,-20 1.9996,-20 z"
         id="rect3007-7-9-1"
         inkscape:connector-curvature="0"
         sodipodi:nodetypes="ccczczcc" />
      <path
         sodipodi:nodetypes="cccccccccc"
         inkscape:connector-curvature="0"
         id="path4537"
         d="m 270.58237,831.74487 11.84404,19.26866 -18.91511,16.79378 -4.59619,-8.83883 -13.96536,-1.94454 6.01041,-19.97577 -7.77818,-8.66205 4.5962,-12.90471 31.11269,0.53033 z"
         style="fill:#2d534d;fill-opacity:0.97647059;stroke:none" />
      <path
         sodipodi:nodetypes="ccccccccccc"
         id="rect2985-18-74-3"
         d="m 317.84074,853.42468 -11.25,8.5 -13.125,-4.96875 9.0625,17.125 -5.875,9.9375 20.9375,5.40625 0.90625,2.9375 0.875,0 c 0,0 -0.50669,-12.0632 -0.71875,-19.8125 -0.13343,-4.87823 0.51548,-11.33693 1.03125,-15.65625 z"
         style="opacity:0.98999999000000005;fill:#2d534d;fill-opacity:0.97647059;fill-rule:nonzero;stroke:none"
         inkscape:connector-curvature="0" />
      <path
         inkscape:connector-curvature="0"
         id="path4579"
         d="m 273.5,886.86218 15.75,-3.25 7.5,-9.25 -8.75,-13 -12.25,0 -13.25,13 14.5,-10.75 10,0.25 6.25,11.25 -6.25,7.25 z"
         style="fill:#2d534d;fill-opacity:0.97647059;stroke:none" />
      <path
         inkscape:connector-curvature="0"
         id="path4619"
         d="m 241.41422,871.16607 11.84403,-2.12132 10.96016,9.89949 1.41421,9.36917 -9.72271,3.0052 -14.49569,-0.70711 z"
         style="fill:#2d534d;fill-opacity:0.97647059;stroke:none" />
      <path
         inkscape:connector-curvature="0"
         id="path4577-8"
         d="m 295.625,822.61218 -13,19.25 11.5,18.5 17.75,6.75 14,-12 -14.25,9.25 -16.75,-6 -7.5,-19.5 z"
         style="fill:#2d534d;fill-opacity:0.97647059;stroke:none;display:inline" />
    </g>
  </g>
</svg>
